<svg width="20" height="20" viewBox="0 0 20 20" fill="none" xmlns="http://www.w3.org/2000/svg">
<path fill-rule="evenodd" clip-rule="evenodd" d="M2.15482 2.98816C2.46738 2.6756 2.8913 2.5 3.33333 2.5H16.6667C17.1087 2.5 17.5326 2.67559 17.8452 2.98816C18.1577 3.30072 18.3333 3.72464 18.3333 4.16667V12.5C18.3333 12.942 18.1577 13.3659 17.8452 13.6785C17.5326 13.9911 17.1087 14.1667 16.6667 14.1667H12.8781L10.2105 17.2154C10.0522 17.3963 9.82363 17.5 9.58333 17.5C9.34303 17.5 9.11442 17.3963 8.95618 17.2154L6.28852 14.1667H3.33333C2.8913 14.1667 2.46738 13.9911 2.15482 13.6785C1.84226 13.366 1.66666 12.942 1.66666 12.5V4.16667C1.66666 3.72464 1.84226 3.30072 2.15482 2.98816ZM16.6667 4.16667L3.33333 4.16667V12.5H6.66666C6.90697 12.5 7.13557 12.6037 7.29381 12.7846L9.58333 15.4012L11.8728 12.7846C12.0311 12.6037 12.2597 12.5 12.5 12.5H16.6667V4.16667ZM5 6.66667C5 6.20643 5.37309 5.83333 5.83333 5.83333H13.3333C13.7936 5.83333 14.1667 6.20643 14.1667 6.66667C14.1667 7.1269 13.7936 7.5 13.3333 7.5H5.83333C5.37309 7.5 5 7.1269 5 6.66667ZM5 10C5 9.53976 5.37309 9.16667 5.83333 9.16667H10C10.4602 9.16667 10.8333 9.53976 10.8333 10C10.8333 10.4602 10.4602 10.8333 10 10.8333H5.83333C5.37309 10.8333 5 10.4602 5 10Z" fill="#FF820F"/>
</svg>
