<svg width="140" height="13" viewBox="0 0 140 13" fill="none" xmlns="http://www.w3.org/2000/svg">
<path d="M132.572 12.0598V3.35184H129.119V0.269531H140V3.35184H136.547V12.0598H132.572Z" fill="white"/>
<path d="M120.755 12.0598V0.269531H124.73V12.0598H120.755Z" fill="white"/>
<path d="M109.307 12.3292C108.341 12.3292 107.449 12.1777 106.629 11.8745C105.821 11.5713 105.119 11.1446 104.524 10.5944C103.929 10.033 103.463 9.37606 103.126 8.62373C102.8 7.8714 102.637 7.0517 102.637 6.16462C102.637 5.26632 102.8 4.44661 103.126 3.70551C103.463 2.95318 103.929 2.30191 104.524 1.7517C105.119 1.19025 105.821 0.757945 106.629 0.454767C107.449 0.151589 108.336 0 109.29 0C110.256 0 111.143 0.151589 111.952 0.454767C112.76 0.757945 113.462 1.19025 114.057 1.7517C114.652 2.30191 115.112 2.95318 115.438 3.70551C115.775 4.44661 115.943 5.26632 115.943 6.16462C115.943 7.0517 115.775 7.8714 115.438 8.62373C115.112 9.37606 114.652 10.033 114.057 10.5944C113.462 11.1446 112.76 11.5713 111.952 11.8745C111.143 12.1777 110.262 12.3292 109.307 12.3292ZM109.29 9.11219C109.661 9.11219 110.003 9.04481 110.318 8.91007C110.643 8.77532 110.924 8.58443 111.16 8.3374C111.407 8.07913 111.598 7.77034 111.733 7.41102C111.867 7.04047 111.935 6.625 111.935 6.16462C111.935 5.70424 111.867 5.29439 111.733 4.93507C111.598 4.56452 111.407 4.25572 111.16 4.00869C110.924 3.75043 110.643 3.55392 110.318 3.41918C110.003 3.28443 109.661 3.21706 109.29 3.21706C108.92 3.21706 108.572 3.28443 108.246 3.41918C107.932 3.55392 107.651 3.75043 107.404 4.00869C107.168 4.25572 106.983 4.56452 106.848 4.93507C106.713 5.29439 106.646 5.70424 106.646 6.16462C106.646 6.625 106.713 7.04047 106.848 7.41102C106.983 7.77034 107.168 8.07913 107.404 8.3374C107.651 8.58443 107.932 8.77532 108.246 8.91007C108.572 9.04481 108.92 9.11219 109.29 9.11219Z" fill="white"/>
<path d="M85.8248 12.0598V0.269531H91.6357C92.9495 0.269531 94.106 0.510951 95.1054 0.993791C96.1048 1.4654 96.8852 2.13913 97.4466 3.01498C98.0081 3.89083 98.2888 4.93511 98.2888 6.14782C98.2888 7.37176 98.0081 8.42727 97.4466 9.31435C96.8852 10.1902 96.1048 10.8695 95.1054 11.3524C94.106 11.824 92.9495 12.0598 91.6357 12.0598H85.8248ZM89.7998 8.96064H91.4673C92.0287 8.96064 92.5172 8.85396 92.9326 8.64062C93.3593 8.42727 93.6906 8.11286 93.9264 7.6974C94.1622 7.2707 94.2801 6.75418 94.2801 6.14782C94.2801 5.55269 94.1622 5.04739 93.9264 4.63193C93.6906 4.21646 93.3593 3.90205 92.9326 3.68871C92.5172 3.47536 92.0287 3.36869 91.4673 3.36869H89.7998V8.96064Z" fill="white"/>
<path d="M67.207 12.3292C66.2525 12.3292 65.3711 12.1833 64.5626 11.8913C63.7654 11.5881 63.0692 11.1614 62.474 10.6112C61.8901 10.061 61.4354 9.40975 61.1097 8.65742C60.7841 7.90509 60.6213 7.07416 60.6213 6.16462C60.6213 5.25509 60.7841 4.42415 61.1097 3.67182C61.4354 2.91949 61.8957 2.26822 62.4909 1.71801C63.086 1.1678 63.7878 0.746716 64.5963 0.454767C65.416 0.151589 66.3143 0 67.2912 0C68.459 0 69.4977 0.196504 70.4072 0.589512C71.328 0.982521 72.0859 1.54396 72.681 2.27384L70.1377 4.51399C69.7672 4.08729 69.3629 3.76727 68.925 3.55392C68.4983 3.32934 68.0211 3.21706 67.4933 3.21706C67.0554 3.21706 66.6568 3.28443 66.2974 3.41918C65.9494 3.55392 65.6518 3.75043 65.4048 4.00869C65.1577 4.26695 64.9668 4.57574 64.8321 4.93507C64.6973 5.29439 64.63 5.70424 64.63 6.16462C64.63 6.60255 64.6973 7.00678 64.8321 7.37733C64.9668 7.73666 65.1577 8.04545 65.4048 8.30371C65.6518 8.56198 65.9437 8.76409 66.2806 8.91007C66.6287 9.04481 67.0161 9.11219 67.4428 9.11219C67.8919 9.11219 68.3299 9.0392 68.7566 8.89322C69.1833 8.73602 69.638 8.47215 70.1209 8.10159L72.3442 10.8302C71.6255 11.313 70.8058 11.6836 69.8851 11.9419C68.9643 12.2001 68.0716 12.3292 67.207 12.3292ZM68.8913 10.3249V5.8446H72.3442V10.8302L68.8913 10.3249Z" fill="white"/>
<path d="M44.1872 12.0598V0.269531H47.4547L53.4509 7.44475H51.935V0.269531H55.809V12.0598H52.5414L46.5452 4.88458H48.0611V12.0598H44.1872Z" fill="white"/>
<path d="M34.93 12.0598V0.269531H38.905V12.0598H34.93Z" fill="white"/>
<path d="M23.4824 12.3292C22.5167 12.3292 21.624 12.1777 20.8043 11.8745C19.9958 11.5713 19.294 11.1446 18.6989 10.5944C18.1038 10.033 17.6378 9.37606 17.3009 8.62373C16.9753 7.8714 16.8124 7.0517 16.8124 6.16462C16.8124 5.26632 16.9753 4.44661 17.3009 3.70551C17.6378 2.95318 18.1038 2.30191 18.6989 1.7517C19.294 1.19025 19.9958 0.757945 20.8043 0.454767C21.624 0.151589 22.5111 0 23.4655 0C24.4312 0 25.3183 0.151589 26.1267 0.454767C26.9352 0.757945 27.637 1.19025 28.2321 1.7517C28.8273 2.30191 29.2877 2.95318 29.6133 3.70551C29.9502 4.44661 30.1186 5.26632 30.1186 6.16462C30.1186 7.0517 29.9502 7.8714 29.6133 8.62373C29.2877 9.37606 28.8273 10.033 28.2321 10.5944C27.637 11.1446 26.9352 11.5713 26.1267 11.8745C25.3183 12.1777 24.4368 12.3292 23.4824 12.3292ZM23.4655 9.11219C23.8361 9.11219 24.1785 9.04481 24.493 8.91007C24.8186 8.77532 25.0993 8.58443 25.3351 8.3374C25.5821 8.07913 25.773 7.77034 25.9078 7.41102C26.0425 7.04047 26.1099 6.625 26.1099 6.16462C26.1099 5.70424 26.0425 5.29439 25.9078 4.93507C25.773 4.56452 25.5821 4.25572 25.3351 4.00869C25.0993 3.75043 24.8186 3.55392 24.493 3.41918C24.1785 3.28443 23.8361 3.21706 23.4655 3.21706C23.095 3.21706 22.7469 3.28443 22.4212 3.41918C22.1068 3.55392 21.8261 3.75043 21.5791 4.00869C21.3433 4.25572 21.158 4.56452 21.0232 4.93507C20.8885 5.29439 20.8211 5.70424 20.8211 6.16462C20.8211 6.625 20.8885 7.04047 21.0232 7.41102C21.158 7.77034 21.3433 8.07913 21.5791 8.3374C21.8261 8.58443 22.1068 8.77532 22.4212 8.91007C22.7469 9.04481 23.095 9.11219 23.4655 9.11219Z" fill="white"/>
<path d="M0 12.0598V0.269531H5.81091C7.12469 0.269531 8.28125 0.510951 9.28062 0.993791C10.28 1.4654 11.0604 2.13913 11.6218 3.01498C12.1833 3.89083 12.464 4.93511 12.464 6.14782C12.464 7.37176 12.1833 8.42727 11.6218 9.31435C11.0604 10.1902 10.28 10.8695 9.28062 11.3524C8.28125 11.824 7.12469 12.0598 5.81091 12.0598H0ZM3.975 8.96064H5.64248C6.20392 8.96064 6.69238 8.85396 7.10784 8.64062C7.53454 8.42727 7.86579 8.11286 8.10159 7.6974C8.3374 7.2707 8.4553 6.75418 8.4553 6.14782C8.4553 5.55269 8.3374 5.04739 8.10159 4.63193C7.86579 4.21646 7.53454 3.90205 7.10784 3.68871C6.69238 3.47536 6.20392 3.36869 5.64248 3.36869H3.975V8.96064Z" fill="white"/>
</svg>
