<svg width="20" height="20" viewBox="0 0 20 20" fill="none" xmlns="http://www.w3.org/2000/svg">
<path d="M10.0003 2.5C14.4937 2.5 18.232 5.73313 19.0158 10C18.232 14.2668 14.4937 17.5 10.0003 17.5C5.50678 17.5 1.76847 14.2668 0.984711 10C1.76847 5.73313 5.50678 2.5 10.0003 2.5ZM10.0003 15.8333C13.5299 15.8333 16.5503 13.3767 17.3148 10C16.5503 6.62336 13.5299 4.16667 10.0003 4.16667C6.47051 4.16667 3.45019 6.62336 2.68566 10C3.45019 13.3767 6.47051 15.8333 10.0003 15.8333ZM10.0003 13.75C7.92916 13.75 6.25023 12.0711 6.25023 10C6.25023 7.92893 7.92916 6.25 10.0003 6.25C12.0713 6.25 13.7503 7.92893 13.7503 10C13.7503 12.0711 12.0713 13.75 10.0003 13.75ZM10.0003 12.0833C11.1508 12.0833 12.0836 11.1506 12.0836 10C12.0836 8.84942 11.1508 7.91667 10.0003 7.91667C8.84968 7.91667 7.91689 8.84942 7.91689 10C7.91689 11.1506 8.84968 12.0833 10.0003 12.0833Z" fill="#999999"/>
</svg>
