<svg width="20" height="20" viewBox="0 0 20 20" fill="none" xmlns="http://www.w3.org/2000/svg">
<path d="M1.66666 7.49478C1.66666 4.73624 3.89711 2.5 6.66721 2.5H13.3327C16.0945 2.5 18.3333 4.74565 18.3333 7.49478V17.5H6.66721C3.90549 17.5 1.66666 15.2543 1.66666 12.5052V7.49478ZM16.6667 15.8333V7.49478C16.6667 5.66283 15.1707 4.16667 13.3327 4.16667H6.66721C4.82048 4.16667 3.33333 5.65382 3.33333 7.49478V12.5052C3.33333 14.3372 4.82926 15.8333 6.66721 15.8333H16.6667ZM11.6667 9.16667H13.3333V10.8333H11.6667V9.16667ZM6.66666 9.16667H8.33333V10.8333H6.66666V9.16667Z" fill="#999999"/>
</svg>
