<svg width="20" height="12" viewBox="0 0 20 12" fill="none" xmlns="http://www.w3.org/2000/svg">
<path d="M10.0085 8.13354C10.7119 8.13354 11.3954 8.31839 11.9977 8.67085L12.2417 8.81366C12.4267 8.92193 12.4593 9.17532 12.3076 9.32658L10.2241 11.4043C10.0961 11.5319 9.88863 11.5319 9.76066 11.4043L7.69055 9.33993C7.53954 9.18934 7.57101 8.93724 7.75445 8.82817L7.99574 8.68471C8.60353 8.32332 9.29573 8.13354 10.0085 8.13354Z" fill="white"/>
<path d="M10.0084 4.31684C11.7583 4.31684 13.4385 4.89736 14.8072 5.97241L15.0007 6.12434C15.1549 6.24547 15.1684 6.47371 15.0296 6.61214L13.7858 7.85254C13.6707 7.96727 13.4887 7.98045 13.3582 7.88349L13.2066 7.7708C12.2822 7.08376 11.1675 6.71523 10.0084 6.71523C8.84225 6.71523 7.72104 7.08835 6.79354 7.78327L6.64176 7.89699C6.51129 7.99474 6.32859 7.98187 6.21319 7.8668L4.9698 6.62686C4.83128 6.48872 4.84443 6.26106 4.99794 6.1397L5.19027 5.98765C6.56225 4.90301 8.25006 4.31684 10.0084 4.31684Z" fill="white"/>
<path d="M10.0085 0.5C12.7856 0.5 15.4414 1.47963 17.5435 3.27524L17.723 3.42851C17.868 3.55237 17.8765 3.77314 17.7415 3.90777L16.5017 5.14415C16.3816 5.26393 16.1896 5.27232 16.0594 5.16348L15.9059 5.03512C14.2508 3.65119 12.1764 2.89839 10.0085 2.89839C7.83317 2.89839 5.75208 3.65638 4.09453 5.04896L3.94096 5.17798C3.81082 5.28731 3.61842 5.27913 3.4981 5.15914L2.25846 3.92294C2.12364 3.78849 2.13194 3.5681 2.27649 3.44411L2.45523 3.29079C4.55996 1.48548 7.22309 0.5 10.0085 0.5Z" fill="white"/>
</svg>
