<svg width="25" height="25" viewBox="0 0 25 25" fill="none" xmlns="http://www.w3.org/2000/svg">
<path d="M16.5 20.7708V4.77075H4.5V19.7708C4.5 20.3231 4.94772 20.7708 5.5 20.7708H16.5ZM19.5 22.7708H5.5C3.84315 22.7708 2.5 21.4277 2.5 19.7708V3.77075C2.5 3.21847 2.94772 2.77075 3.5 2.77075H17.5C18.0523 2.77075 18.5 3.21847 18.5 3.77075V10.7708H22.5V19.7708C22.5 21.4277 21.1569 22.7708 19.5 22.7708ZM18.5 12.7708V19.7708C18.5 20.3231 18.9477 20.7708 19.5 20.7708C20.0523 20.7708 20.5 20.3231 20.5 19.7708V12.7708H18.5ZM6.5 6.77075H12.5V12.7708H6.5V6.77075ZM8.5 8.77075V10.7708H10.5V8.77075H8.5ZM6.5 13.7708H14.5V15.7708H6.5V13.7708ZM6.5 16.7708H14.5V18.7708H6.5V16.7708Z" fill="#CCCCCC"/>
</svg>
