<svg width="25" height="25" viewBox="0 0 25 25" fill="none" xmlns="http://www.w3.org/2000/svg">
<path d="M12.5 1.27075C18.8513 1.27075 24 6.41948 24 12.7708C24 13.1077 23.9855 13.4412 23.9571 13.7708H22.4506C21.9489 18.8241 17.6853 22.7708 12.5 22.7708C6.97715 22.7708 2.5 18.2936 2.5 12.7708C2.5 7.5854 6.44668 3.32185 11.5 2.82013V1.31363C11.8296 1.28524 12.1631 1.27075 12.5 1.27075ZM11.5 4.83264C7.55369 5.32474 4.5 8.69113 4.5 12.7708C4.5 17.1891 8.08172 20.7708 12.5 20.7708C16.5796 20.7708 19.946 17.7171 20.4381 13.7708H11.5V4.83264ZM13.5 3.32275V11.7708H21.948C21.4827 7.32272 17.948 3.78807 13.5 3.32275Z" fill="#CCCCCC"/>
</svg>
