<svg width="25" height="25" viewBox="0 0 25 25" fill="none" xmlns="http://www.w3.org/2000/svg">
<path d="M12.5 14.7708V16.7708C9.18629 16.7708 6.5 19.4571 6.5 22.7708H4.5C4.5 18.3525 8.08172 14.7708 12.5 14.7708ZM12.5 13.7708C9.185 13.7708 6.5 11.0858 6.5 7.77075C6.5 4.45575 9.185 1.77075 12.5 1.77075C15.815 1.77075 18.5 4.45575 18.5 7.77075C18.5 11.0858 15.815 13.7708 12.5 13.7708ZM12.5 11.7708C14.71 11.7708 16.5 9.98075 16.5 7.77075C16.5 5.56075 14.71 3.77075 12.5 3.77075C10.29 3.77075 8.5 5.56075 8.5 7.77075C8.5 9.98075 10.29 11.7708 12.5 11.7708ZM15.0946 19.5823C15.0327 19.3219 15 19.0502 15 18.7708C15 18.4915 15.0327 18.2198 15.0945 17.9594L14.1029 17.3869L15.1029 15.6548L16.0952 16.2277C16.4883 15.8559 16.9676 15.5742 17.5 15.4157V14.2708H19.5V15.4157C20.0324 15.5742 20.5116 15.8559 20.9047 16.2277L21.8971 15.6547L22.8972 17.3868L21.9055 17.9593C21.9673 18.2198 22 18.4915 22 18.7708C22 19.0501 21.9673 19.3218 21.9055 19.5822L22.8972 20.1547L21.8972 21.8868L20.9048 21.3138C20.5117 21.6857 20.0325 21.9674 19.5001 22.1258V23.2708H17.5001V22.1259C16.9677 21.9675 16.4884 21.6858 16.0953 21.3139L15.103 21.8869L14.1029 20.1548L15.0946 19.5823ZM18.5 20.2708C19.3284 20.2708 20 19.5992 20 18.7708C20 17.9424 19.3284 17.2708 18.5 17.2708C17.6716 17.2708 17 17.9424 17 18.7708C17 19.5992 17.6716 20.2708 18.5 20.2708Z" fill="#CCCCCC"/>
</svg>
