<svg width="25" height="24" viewBox="0 0 25 24" fill="none" xmlns="http://www.w3.org/2000/svg">
<path d="M12.5 14V22H4.5C4.5 17.5817 8.08172 14 12.5 14ZM12.5 13C9.185 13 6.5 10.315 6.5 7C6.5 3.685 9.185 1 12.5 1C15.815 1 18.5 3.685 18.5 7C18.5 10.315 15.815 13 12.5 13ZM15.0946 18.8115C15.0327 18.5511 15 18.2794 15 18C15 17.7207 15.0327 17.449 15.0945 17.1886L14.1029 16.6161L15.1029 14.884L16.0952 15.4569C16.4883 15.0851 16.9676 14.8034 17.5 14.6449V13.5H19.5V14.6449C20.0324 14.8034 20.5116 15.0851 20.9047 15.4569L21.8971 14.8839L22.8972 16.616L21.9055 17.1885C21.9673 17.449 22 17.7207 22 18C22 18.2793 21.9673 18.551 21.9055 18.8114L22.8972 19.3839L21.8972 21.116L20.9048 20.543C20.5117 20.9149 20.0325 21.1966 19.5001 21.355V22.5H17.5001V21.3551C16.9677 21.1967 16.4884 20.915 16.0953 20.5431L15.103 21.1161L14.1029 19.384L15.0946 18.8115ZM18.5 17C17.9477 17 17.5 17.4477 17.5 18C17.5 18.5523 17.9477 19 18.5 19C19.0523 19 19.5 18.5523 19.5 18C19.5 17.4477 19.0523 17 18.5 17Z" fill="#212121"/>
</svg>
