<svg width="28" height="26" viewBox="0 0 28 26" fill="none" xmlns="http://www.w3.org/2000/svg">
<path d="M9.35101 22.2436H13.8638C13.8638 23.3718 13.0459 24.5 11.6074 24.5C10.169 24.5 9.35101 23.3718 9.35101 22.2436ZM20.9151 17.4769L19.6741 15.3897C19.1946 14.6 18.9408 13.6974 18.9408 12.7667V9.83333C18.9408 5.7718 15.6408 2.5 11.6074 2.5C7.57409 2.5 4.27409 5.7718 4.27409 9.83333V12.7949C4.27409 13.7256 4.02024 14.6282 3.54076 15.4179L2.29973 17.4769C1.90486 18.1256 1.90486 18.8872 2.27153 19.5077C2.63819 20.1564 3.31512 20.5513 4.04845 20.5513H19.1664C19.8997 20.5513 20.5767 20.1564 20.9433 19.5077C21.31 18.8872 21.2818 18.1256 20.9151 17.4769Z" fill="#FFF8EC"/>
<circle cx="25" cy="3.5" r="3" fill="#FF0000"/>
</svg>
