<svg width="63" height="56" viewBox="0 0 63 56" fill="none" xmlns="http://www.w3.org/2000/svg">
<g clip-path="url(#clip0_2728_6079)">
<path fill-rule="evenodd" clip-rule="evenodd" d="M27.2236 11.9662C27.2236 8.40402 29.7913 4.89893 32.5546 4.89893C35.3179 4.89893 38.4154 8.68932 38.4154 12.2433C38.4154 13.5068 37.9671 14.8681 37.3883 16.3924C37.2498 16.7429 39.2713 17.4765 39.1246 17.8352C38.1301 20.3376 34.7881 22.3673 33.2311 22.3592C28.2262 22.3266 28.1773 19.9871 26.9301 17.2238C26.816 16.9711 28.5278 16.4494 28.4218 16.1967C27.7208 14.5746 27.2236 13.1644 27.2236 11.9662Z" fill="#FEEDE5"/>
<path fill-rule="evenodd" clip-rule="evenodd" d="M16.8632 47.0742C16.3578 47.5307 15.5263 48.1502 15.1677 48.46C14.809 48.7697 14.2873 49.0142 13.8472 48.9164C13.407 48.8186 12.2332 48.7045 11.6137 48.5252C10.9942 48.3458 9.86929 47.922 9.47802 47.5796C9.08676 47.2372 8.63028 46.7645 8.45095 46.0471C8.27162 45.3298 7.83144 43.9278 7.81514 43.1779C7.79884 42.4279 7.71732 41.5639 7.61951 40.9607C7.52169 40.3575 7.44018 39.901 7.17933 39.5749C6.91849 39.2489 6.67395 38.9554 6.21747 38.6294C5.76099 38.3033 5.30451 38.1892 5.10888 37.8469C4.91325 37.5045 4.71762 37.1947 4.91325 36.6078C5.10888 36.0209 5.15779 35.809 5.10888 35.1895C5.05997 34.57 5.05997 34.0809 5.35342 33.7386C5.64687 33.3962 6.07074 33.1517 6.52722 32.8419C6.9837 32.5322 8.20641 31.8311 8.51616 31.7007C8.82591 31.5703 9.88559 31.5214 10.3747 31.6355C10.8638 31.7496 11.7767 31.7659 12.2658 31.8311C12.7549 31.8963 13.2114 31.8474 13.4885 32.1246C13.7657 32.4017 13.8961 32.5485 13.5211 32.793C13.1461 33.0375 12.6734 33.2821 13.0483 33.331C13.4233 33.3799 13.8309 33.5266 14.271 33.6896C14.7112 33.8527 15.2655 33.9831 15.4285 34.3581C15.5916 34.733 15.4448 35.0265 15.2818 35.271C15.1188 35.5156 14.9558 35.9231 14.7112 36.2003C14.4667 36.4774 14.3525 36.7057 13.9939 37.1784C13.6352 37.6512 13.407 37.7979 12.9179 38.1077C12.4288 38.4175 12.0702 38.4338 12.331 38.9391C12.5919 39.4445 12.7549 39.9336 13.2603 40.3412C13.7656 40.7487 14.7275 41.4824 15.184 41.9552C15.6405 42.4279 16.3252 42.8355 16.6023 43.3898C16.8795 43.9441 17.287 44.3517 17.2707 45.3624C17.2544 46.3732 17.3686 46.6177 16.8632 47.0742Z" fill="#FEEDE5"/>
<path fill-rule="evenodd" clip-rule="evenodd" d="M36.4346 40.6346C38.1953 41.2134 41.6434 40.602 43.0291 41.083C44.4148 41.572 44.6431 43.2838 45.768 43.0148C46.8195 42.7621 47.545 41.0096 49.3138 41.0911C51.0908 41.1726 55.3377 42.4932 55.2969 43.993C55.2562 45.4929 54.8486 46.7808 52.8271 47.8649C52.0282 48.2969 51.0174 48.7616 49.9415 48.949C48.5476 49.1854 47.3656 49.0224 46.4934 48.949C44.3822 48.7697 43.4041 49.6664 41.4314 50.4081C39.6952 51.0603 37.8774 51.2233 35.8722 50.131C34.3968 49.324 33.0844 48.4437 32.7665 48.1013C32.4486 47.7589 32.0573 47.5389 32.416 47.1313C33.2556 46.1857 35.97 45.6396 37.6166 45.1587C38.9534 44.7674 39.7848 44.0745 39.7522 43.6425C39.6544 42.2486 36.2064 42.5176 35.6928 41.7351C35.3342 41.1808 35.0163 40.17 36.4346 40.6346Z" fill="#FEEDE5"/>
<path fill-rule="evenodd" clip-rule="evenodd" d="M27.4029 13.7514C27.0687 13.6454 26.4981 13.6209 26.172 13.3764C25.8378 13.14 25.5525 13.0422 25.2265 12.3982C24.9086 11.7461 24.7129 10.9799 24.6314 10.393C24.5499 9.8061 24.6151 8.88499 24.6885 8.3633C24.7537 7.84977 24.9167 7.64598 25.0308 7.01017C25.1531 6.37437 25.3651 5.48587 25.5607 4.85821C25.7563 4.2387 26.0253 3.56214 26.3921 3.13827C26.7671 2.7144 27.1502 2.1438 27.5822 1.76883C28.0224 1.39387 28.3648 1.10857 28.8946 0.839577C29.4244 0.570581 30.1662 0.26898 30.5819 0.244526C30.9895 0.220072 31.5764 0.163012 32.0003 0.285283C32.4242 0.407553 33.2474 0.921091 33.6061 0.921091C33.9648 0.921091 34.8533 0.855879 35.3016 0.880334C35.7499 0.904788 36.5325 0.969999 37.0378 1.2879C37.5432 1.60581 38.4969 2.33943 38.8393 2.81221C39.1817 3.29314 39.5403 3.97786 39.8338 4.64627C40.1272 5.30654 40.3881 6.08092 40.5266 6.72488C40.6571 7.37699 40.6571 8.48557 40.5511 8.99096C40.4451 9.49635 40.2332 10.825 40.1272 11.2978C40.0212 11.7787 39.8908 12.1292 39.4262 12.3982C38.9616 12.6672 37.9916 13.1645 38.1627 12.6754C38.3339 12.1863 38.4399 11.3793 38.2932 11.0451C38.1464 10.7109 37.8856 10.393 37.5758 10.1729C37.2742 9.94467 36.94 9.68383 36.6466 9.19475C36.3531 8.70566 36.239 8.05355 35.97 7.61338C35.701 7.1732 35.269 6.48849 34.9511 6.27655C34.6332 6.06461 34.2745 5.9831 33.8669 5.89344C33.4594 5.80377 32.4894 5.65704 32.0899 5.70595C31.6905 5.76301 31.2911 5.86898 30.8591 5.89344C30.4189 5.91789 30.0113 5.93419 29.8076 6.43958C29.6119 6.94496 29.3592 8.0454 29.3185 8.37961C29.2777 8.71381 29.131 9.03987 28.8131 9.66753C28.4952 10.287 28.1202 11.901 28.3648 12.2352C28.6093 12.5694 28.699 13.083 28.4544 13.3275C28.2099 13.5802 27.7371 13.8573 27.4029 13.7514Z" fill="#BF8F8B"/>
<path fill-rule="evenodd" clip-rule="evenodd" d="M15.7138 45.2892C15.7138 43.7078 22.3083 42.4199 30.4515 42.4199C38.5866 42.4199 39.4099 43.2025 39.6137 43.2595C39.9968 43.3655 39.7033 44.1317 38.9534 44.5474C38.2116 44.955 36.9074 45.4033 36.5487 45.493C35.326 45.8027 33.7773 46.2592 33.4431 46.4304C32.1714 47.0907 31.7231 47.6205 33.2963 48.2645C33.8343 48.4845 34.4375 49.3404 34.2337 49.3567C33.0029 49.4872 31.7068 49.5524 30.3781 49.5524C26.7671 49.5524 23.7918 49.3486 21.4361 48.8432C20.1156 48.5579 18.9499 48.0607 18.0614 47.7346C17.7272 47.6123 16.7653 46.7075 16.3904 46.2429C15.991 45.7457 15.7138 45.6316 15.7138 45.2892Z" fill="white"/>
<path fill-rule="evenodd" clip-rule="evenodd" d="M13.6923 30.0624C14.2547 28.5381 15.4367 24.389 17.2707 22.2941C19.1618 20.1422 21.1997 19.5227 23.1968 18.8135C24.5744 18.3244 26.0824 17.5663 26.8404 17.2077C27.2969 16.9876 27.0931 17.7457 27.3703 18.463C28.1528 20.4845 29.7994 22.718 33.1904 22.392C36.133 22.1148 38.2035 19.539 39.0838 17.7212C39.1409 17.5989 40.3554 18.3163 41.9205 19.1314C44.0399 20.2318 46.0614 19.8732 48.8818 23.7043C49.5665 24.6254 50.0556 25.196 50.5447 28.2039C50.83 29.9646 51.9223 34.3337 52.7781 36.1515C54.3921 39.5995 54.653 39.1023 55.2073 41.0097C55.3458 41.4825 56.0143 43.2432 55.2725 44.4415C55.0931 44.7349 54.7589 44.417 54.0172 43.7323C53.471 43.2269 52.7455 42.1754 51.2212 41.7841C50.2268 41.5314 49.1019 41.4336 48.2704 41.67C47.3004 41.9471 46.6646 42.4933 46.2 42.4444C45.3278 42.3465 45.6049 41.2054 45.393 40.0479C45.287 39.4854 45.0588 36.502 44.5126 35.8743C44.2029 35.5157 43.8279 40.0723 43.7138 41.2787C43.6567 41.8738 43.4041 40.7652 41.3581 40.7978C40.4125 40.8141 39.2305 41.0179 37.8856 40.863C37.2742 40.7896 36.3857 40.5451 35.7255 40.5451C35.3423 40.5451 35.3097 41.4499 35.9618 41.939C36.3368 42.2161 38.3991 42.5829 38.5132 42.803C38.6763 43.1128 37.6899 42.8601 36.3042 42.7623C33.4268 42.5585 27.2154 41.9471 20.1971 43.2106C19.602 43.3166 19.7895 42.7949 19.7161 41.9227C19.6183 40.7326 19.3819 38.9311 19.1455 37.6921C19.0722 37.3171 18.7217 38.548 18.6565 39.2083C18.6157 39.6566 18.2896 43.015 17.825 43.6182C17.556 43.9687 17.4093 44.0094 16.9202 44.0176C16.6186 44.0176 16.749 43.5366 15.9013 42.6808C14.8579 41.6211 13.2765 40.5288 12.7059 39.8359C12.1598 39.1757 11.8338 38.9474 12.1517 38.6295C12.6407 38.1404 12.9586 38.0834 13.4477 37.7247C13.9042 37.3905 14.165 36.9177 14.5074 36.3634C15.0209 35.5483 15.2655 35.3201 15.3796 34.8065C15.4367 34.5783 15.3551 34.3093 14.9313 33.9506C14.7519 33.7957 13.9042 33.592 13.032 33.5512C12.5022 33.5268 12.9505 33.1681 13.3255 32.9399C13.4885 32.842 13.9205 32.4752 13.5537 32.2633C13.0076 31.9291 13.1461 31.5541 13.6923 30.0624Z" fill="#FFAEAB"/>
<path fill-rule="evenodd" clip-rule="evenodd" d="M23.1234 45.4766C23.2783 45.281 25.4221 43.9768 25.8134 43.8219C26.2047 43.667 27.8431 43.6263 28.2099 43.5855C28.5849 43.5447 29.775 43.3573 30.0603 43.235C30.3537 43.1127 31.1036 43.129 31.7476 43.1127C32.3916 43.0883 34.5843 43.5692 34.9837 43.7159C35.3831 43.8626 36.1738 44.4577 36.7036 44.6696C37.2335 44.8734 37.9019 45.0772 37.3884 45.2321C36.8748 45.387 34.7229 45.819 33.8425 46.3244C32.9622 46.8297 32.1063 47.058 32.3345 47.4003C32.5627 47.7427 33.1089 47.8894 32.4486 48.0443C31.7884 48.1992 29.025 48.0932 28.2833 48.1177C27.5415 48.1421 26.0498 48.0525 25.6993 48.0035C25.3488 47.9546 25.6748 48.0035 25.7074 47.6041C25.74 47.2047 25.9112 47.0009 25.471 46.7971C25.0227 46.5934 24.5581 46.4629 24.2076 46.2591C23.8489 46.0309 22.9686 45.6723 23.1234 45.4766Z" fill="#BF8F8B"/>
<path fill-rule="evenodd" clip-rule="evenodd" d="M19.2434 47.0091C19.4145 46.6993 19.602 46.3977 20.1074 46.0961C20.6128 45.8027 21.9578 45.4929 22.349 45.4848C22.7322 45.4766 23.531 45.8353 23.7592 45.9412C23.9875 46.0472 24.77 46.1613 25.1694 46.5037C25.5688 46.8542 26.0579 47.2862 25.7645 47.5797C25.471 47.8731 25.2672 48.0769 24.4276 47.9628C23.5881 47.8568 21.8844 47.7264 21.3057 47.5634C20.7188 47.4085 19.0722 47.3107 19.2434 47.0091Z" fill="#EAC6B0"/>
<path fill-rule="evenodd" clip-rule="evenodd" d="M27.2888 45.9657C26.979 45.8679 26.6041 45.9331 26.4655 45.5174C26.3269 45.1017 26.2373 45.012 26.5144 44.8245C26.7915 44.637 27.4763 44.3762 27.6556 44.5555C27.8349 44.7349 28.055 45.0691 27.8838 45.4685C27.7208 45.8679 27.5985 46.0635 27.2888 45.9657Z" fill="#EAC6B0"/>
<path fill-rule="evenodd" clip-rule="evenodd" d="M30.6716 45.7374C30.2233 45.6641 29.7668 45.77 29.7994 45.3706C29.832 44.9712 29.7913 44.637 30.1336 44.5066C30.4841 44.3761 31.0466 44.3761 31.3237 44.5473C31.6009 44.7185 31.7476 44.9712 31.552 45.1994C31.3563 45.4277 31.1118 45.8026 30.6716 45.7374Z" fill="#EAC6B0"/>
<path fill-rule="evenodd" clip-rule="evenodd" d="M33.9974 45.7456C33.7936 45.7619 33.5001 45.8515 33.5327 45.4847C33.5653 45.1179 33.4268 44.9793 33.7691 44.8326C34.1196 44.6859 34.4946 44.8489 34.4946 45.0364C34.4946 45.2239 34.5435 45.3461 34.4865 45.4929C34.4212 45.6477 34.2093 45.7293 33.9974 45.7456Z" fill="#EAC6B0"/>
<path fill-rule="evenodd" clip-rule="evenodd" d="M35.7744 43.9033C36.1249 43.7892 36.8666 43.7322 37.2335 43.7892C37.6003 43.8463 37.9915 43.9441 38.0404 44.3109C38.0894 44.6777 38.2768 44.8897 37.9834 45.0119C37.6899 45.1342 37.584 45.069 37.2987 44.963C37.0134 44.8489 36.565 44.7022 36.2797 44.4658C35.9863 44.2294 35.432 44.0175 35.7744 43.9033Z" fill="#EAC6B0"/>
<path fill-rule="evenodd" clip-rule="evenodd" d="M14.752 33.4858C15.0536 33.4369 16.3089 33.388 17.0996 33.3962C17.8984 33.4125 19.4961 33.6896 20.246 33.8771C21.0041 34.0646 21.6154 33.9015 22.0474 33.8282C22.4876 33.7467 23.6777 33.657 24.7048 33.5999C25.7319 33.5347 26.5796 33.3309 26.9709 33.4777C27.3621 33.6325 27.7208 33.6407 27.1421 34.1461C26.5715 34.6596 26.0009 35.0427 25.414 35.1813C24.8352 35.3117 23.3517 35.2628 22.6588 35.1406C21.9659 35.0264 21.3464 34.79 20.3112 34.4966C19.276 34.2031 18.2 33.9097 17.6131 33.9097C17.0262 33.9097 16.0806 33.9505 15.6731 34.0238C15.2655 34.0972 15.1432 34.0809 14.915 33.926C14.6949 33.7793 14.4504 33.5347 14.752 33.4858Z" fill="#D8D6D7"/>
<path fill-rule="evenodd" clip-rule="evenodd" d="M21.9659 33.8446C22.4224 33.2169 22.9604 32.3692 23.8 32.2143C24.2157 32.1328 24.6803 32.3203 25.0879 32.3773C25.5933 32.4589 26.3921 33.0131 26.6856 33.4289C26.7427 33.5185 27.0116 33.869 26.8975 33.9913C26.6041 34.2848 26.009 34.2277 25.6341 34.2603C24.7374 34.3418 23.906 34.4396 23.0012 34.4396C22.6099 34.4478 21.4932 34.4885 21.9659 33.8446Z" fill="#BF8F8B"/>
<path d="M32.9785 19.6204C32.8562 19.6204 32.7421 19.6123 32.6198 19.6041C30.0277 19.384 27.6393 16.5474 27.0687 13.0097C27.0443 12.8792 27.1421 12.7488 27.2725 12.7244C27.4029 12.6999 27.5333 12.7977 27.5578 12.9282C28.161 16.7104 30.639 18.9357 32.6606 19.1069C34.9755 19.3025 37.6737 17.3136 38.1138 12.488C38.122 12.3494 38.2443 12.2516 38.3828 12.2679C38.5214 12.2842 38.6192 12.3983 38.6029 12.5369C38.1627 17.4685 35.4483 19.6204 32.9785 19.6204Z" fill="#604440"/>
<path d="M29.0006 10.4991C28.9272 10.4991 28.8457 10.4665 28.7968 10.3931C28.7153 10.279 28.7397 10.1323 28.8538 10.0507C29.3348 9.70839 29.8809 9.55351 30.476 9.59427C30.6145 9.60242 30.7124 9.72469 30.7042 9.85511C30.6961 9.99369 30.5738 10.0915 30.4434 10.0834C29.9624 10.0507 29.5304 10.1649 29.1473 10.4502C29.0984 10.4828 29.0495 10.4991 29.0006 10.4991Z" fill="#604440"/>
<path d="M35.8722 9.68374C35.8314 9.68374 35.7907 9.67559 35.7499 9.65113C35.375 9.43105 34.7391 9.47996 34.3642 9.64298C34.2419 9.70004 34.0952 9.64298 34.0381 9.52071C33.9811 9.39844 34.0381 9.25172 34.1604 9.19466C34.6495 8.98272 35.4565 8.91751 35.9945 9.22726C36.1086 9.29247 36.1493 9.44735 36.0841 9.56147C36.0352 9.64298 35.9537 9.68374 35.8722 9.68374Z" fill="#604440"/>
<path d="M32.8236 14.7377C32.791 14.7377 32.7584 14.7295 32.7176 14.7132C32.5464 14.6317 32.2122 14.4035 32.1552 14.0774C32.1144 13.8492 32.253 13.6617 32.3589 13.5068C32.3997 13.4416 32.4649 13.3601 32.4731 13.3193C32.579 12.8873 32.4894 12.4716 32.2204 12.1211C32.1389 12.0151 32.1552 11.8602 32.2693 11.7787C32.3752 11.6972 32.5301 11.7135 32.6116 11.8276C32.9784 12.3004 33.0926 12.8629 32.954 13.4416C32.9214 13.572 32.8399 13.6862 32.7665 13.7921C32.7176 13.8573 32.6442 13.9633 32.6442 14.0041C32.6605 14.0774 32.7991 14.2078 32.9295 14.2731C33.0518 14.3301 33.1089 14.4768 33.0518 14.5991C33.011 14.6806 32.9214 14.7377 32.8236 14.7377Z" fill="#604440"/>
<path fill-rule="evenodd" clip-rule="evenodd" d="M29.8565 12.3085C29.8402 12.0558 29.9869 11.8439 30.1907 11.8357C30.3863 11.8276 30.5656 12.015 30.5819 12.2677C30.5982 12.5204 30.4515 12.7324 30.2477 12.7405C30.0439 12.7568 29.8728 12.5612 29.8565 12.3085Z" fill="#604440"/>
<path fill-rule="evenodd" clip-rule="evenodd" d="M35.0489 11.8195C35.0326 11.5668 35.1793 11.3548 35.3831 11.3467C35.5869 11.3385 35.7581 11.526 35.7744 11.7787C35.7907 12.0314 35.644 12.2433 35.4402 12.2515C35.2364 12.2678 35.0652 12.0722 35.0489 11.8195Z" fill="#604440"/>
<path d="M28.2914 10.9636C28.267 10.9636 28.2425 10.9636 28.2181 10.9555C28.0876 10.9147 28.0143 10.7761 28.055 10.6457C28.161 10.2871 28.3485 9.97731 28.536 9.67571C28.7153 9.39041 28.8783 9.11326 28.968 8.80351C29.0413 8.55897 29.0903 8.27367 29.1392 7.97207C29.2451 7.37702 29.3511 6.75751 29.6364 6.30104C29.8972 5.86901 30.2967 5.64893 30.7776 5.64893C30.9162 5.64893 31.0221 5.75489 31.0221 5.89347C31.0221 6.03204 30.9162 6.13801 30.7776 6.13801C30.4678 6.13801 30.2314 6.27658 30.0521 6.56188C29.8239 6.93684 29.7179 7.50744 29.6201 8.06173C29.563 8.37964 29.5141 8.68124 29.4326 8.95024C29.3266 9.3252 29.131 9.6431 28.9435 9.9447C28.7723 10.23 28.6093 10.4908 28.5197 10.8006C28.4952 10.8984 28.3974 10.9636 28.2914 10.9636Z" fill="#604440"/>
<path d="M28.6011 12.765C28.5441 12.765 28.4952 12.7487 28.4463 12.7079C27.5089 11.9417 27.4518 11.1999 27.4844 10.2299C27.4844 10.0913 27.5985 9.9772 27.7371 9.9935C27.8757 10.0017 27.9816 10.1076 27.9735 10.2462C27.9409 11.2081 28.0142 11.7216 28.756 12.3248C28.862 12.4145 28.8783 12.5693 28.7886 12.6672C28.7397 12.7405 28.6745 12.765 28.6011 12.765Z" fill="#604440"/>
<path d="M32.1389 5.81182C32.0981 5.81182 32.0655 5.80367 32.0329 5.78737C31.9106 5.73031 31.8617 5.57543 31.9269 5.46131C32.6932 3.9207 34.5109 4.5239 35.7092 4.92332C35.8967 4.98853 36.076 5.04559 36.2309 5.08635C36.3613 5.1271 36.4346 5.25753 36.402 5.38795C36.3613 5.51837 36.2309 5.59173 36.1004 5.55913C35.9374 5.51022 35.7581 5.45316 35.5543 5.38795C34.1278 4.91517 32.9051 4.61357 32.3671 5.6814C32.3182 5.76291 32.2367 5.81182 32.1389 5.81182Z" fill="#604440"/>
<path d="M37.8774 10.6539C37.8367 10.6539 37.8041 10.6457 37.7715 10.6294C36.8504 10.1648 36.402 9.21108 35.97 8.28182C35.4402 7.13248 34.9755 6.13801 33.7121 6.13801C33.5735 6.13801 33.4675 6.03204 33.4675 5.89347C33.4675 5.75489 33.5735 5.64893 33.7121 5.64893C35.2853 5.64893 35.8559 6.88794 36.4102 8.07804C36.8014 8.92578 37.209 9.80613 37.9834 10.1892C38.1057 10.2463 38.1546 10.4012 38.0894 10.5153C38.0568 10.605 37.9671 10.6539 37.8774 10.6539Z" fill="#604440"/>
<path d="M40.0131 12.0152C39.9968 12.0152 39.9723 12.0152 39.956 12.0071C39.8256 11.9745 39.7441 11.8441 39.7767 11.7136C40.062 10.5154 39.7767 9.13779 39.0023 7.94769C38.9289 7.83357 38.9616 7.6787 39.0757 7.60533C39.1898 7.53197 39.3447 7.56458 39.418 7.6787C40.2658 8.98292 40.5755 10.4909 40.2576 11.8278C40.2332 11.9419 40.1272 12.0152 40.0131 12.0152Z" fill="#604440"/>
<path d="M31.234 3.83926C31.0955 3.83926 30.9895 3.7333 30.9895 3.59472C30.9895 1.9563 33.1659 0.717285 34.568 0.717285C34.7065 0.717285 34.8125 0.823253 34.8125 0.961827C34.8125 1.1004 34.7065 1.20637 34.568 1.20637C33.3779 1.20637 31.4786 2.29865 31.4786 3.59472C31.4786 3.7333 31.3645 3.83926 31.234 3.83926Z" fill="#604440"/>
<path d="M28.1773 13.784C28.1447 13.784 28.1202 13.7759 28.0876 13.7677C27.0116 13.3683 26.2372 12.1863 26.2372 10.9555C26.2372 10.8169 26.3432 10.7109 26.4818 10.7109C26.6204 10.7109 26.7263 10.8169 26.7263 10.9555C26.7263 11.9663 27.3866 12.977 28.2588 13.3031C28.3892 13.352 28.4544 13.4906 28.4055 13.621C28.3729 13.7269 28.2751 13.784 28.1773 13.784Z" fill="#604440"/>
<path d="M38.0323 13.0015C37.9671 13.0015 37.9101 12.9771 37.8611 12.9282C37.7633 12.8304 37.7633 12.6755 37.8611 12.5777C38.3421 12.0967 38.5703 11.3142 38.5703 10.173C38.5703 10.0344 38.6763 9.92847 38.8149 9.92847C38.9534 9.92847 39.0594 10.0344 39.0594 10.173C39.0594 11.4528 38.7823 12.3494 38.2035 12.9282C38.1546 12.9771 38.0975 13.0015 38.0323 13.0015Z" fill="#604440"/>
<path d="M26.3432 13.6863C26.3188 13.6863 26.2862 13.6781 26.2617 13.67C24.4928 13.0179 24.069 9.65133 24.6477 7.695C24.7863 7.23852 24.8841 6.77389 24.9901 6.31742C25.1939 5.38816 25.4058 4.41814 25.8949 3.52149C27.1828 1.15759 30.0521 -0.709077 32.6279 0.260938C32.7584 0.309846 32.8236 0.44842 32.7747 0.578842C32.7257 0.709264 32.5872 0.774475 32.4567 0.725567C30.1336 -0.146631 27.517 1.58961 26.3269 3.76603C25.8704 4.60563 25.6748 5.48597 25.471 6.43153C25.365 6.89616 25.2591 7.3771 25.1205 7.84172C24.5499 9.76545 25.0797 12.7163 26.4329 13.2135C26.5633 13.2624 26.6285 13.401 26.5796 13.5314C26.5307 13.6211 26.441 13.6863 26.3432 13.6863Z" fill="#604440"/>
<path d="M40.5918 8.91756C40.5837 8.91756 40.5674 8.91756 40.5592 8.91756C40.4288 8.90126 40.331 8.77084 40.3473 8.64042C40.6407 6.57812 39.361 3.40723 37.7144 2.11931C37.0867 1.63023 36.1575 1.00257 35.2934 1.19005C35.163 1.21451 35.0326 1.13299 35 1.00257C34.9674 0.87215 35.057 0.741728 35.1875 0.709122C36.2553 0.472732 37.3068 1.1819 38.016 1.72805C39.8093 3.13008 41.1543 6.45585 40.8364 8.70563C40.8201 8.8279 40.7141 8.91756 40.5918 8.91756Z" fill="#604440"/>
<path d="M13.4151 31.0975C13.3907 31.0975 13.3662 31.0975 13.3499 31.0893C13.2195 31.0485 13.1461 30.9181 13.1787 30.7877C13.3336 30.2579 13.5374 29.7443 13.7412 29.2471C13.9124 28.8232 14.0917 28.3912 14.2303 27.951C15.0372 25.3752 16.0969 22.7504 18.3386 20.9571C19.6998 19.8648 21.3057 19.2779 22.8544 18.7073C23.3843 18.5117 23.9223 18.3161 24.4521 18.096C25.2102 17.7862 25.9438 17.3868 26.653 16.9956C27.1421 16.7266 27.6474 16.4494 28.161 16.2049C28.2832 16.1478 28.43 16.1967 28.487 16.319C28.5441 16.4413 28.4952 16.588 28.3729 16.645C27.8757 16.8896 27.3703 17.1586 26.8894 17.4276C26.172 17.8188 25.4221 18.2264 24.6396 18.5525C24.1097 18.7726 23.5554 18.9763 23.0256 19.1638C21.4361 19.7426 19.9362 20.2969 18.6483 21.3321C16.6268 22.9542 15.6078 25.204 14.703 28.0896C14.5563 28.5461 14.377 28.9944 14.2058 29.4264C14.0102 29.9073 13.8064 30.4127 13.6597 30.91C13.6189 31.0241 13.5211 31.0975 13.4151 31.0975Z" fill="#604440"/>
<path d="M50.2268 26.3535C50.129 26.3535 50.0393 26.2965 49.9985 26.1987C49.11 23.9815 47.5042 22.0985 45.3604 20.7535C44.8713 20.4438 44.2681 20.2481 43.6812 20.0444C43.3389 19.9302 42.9883 19.8161 42.6623 19.6776C40.9587 18.9602 39.0349 18.1532 37.3231 16.8653C37.2172 16.7838 37.1927 16.6289 37.2742 16.523C37.3557 16.417 37.5106 16.3925 37.6166 16.4741C39.2795 17.7212 41.1787 18.5201 42.8498 19.2211C43.1595 19.3515 43.4856 19.4575 43.8361 19.5797C44.4474 19.7835 45.0833 19.9955 45.6212 20.3378C47.8629 21.7399 49.5339 23.6962 50.455 26.0112C50.5039 26.1334 50.4469 26.2802 50.3164 26.3291C50.2838 26.3454 50.2512 26.3535 50.2268 26.3535Z" fill="#604440"/>
<path d="M55.6882 43.8952C55.5659 43.8952 55.46 43.8056 55.4437 43.6833C55.4192 43.5121 55.3948 43.3409 55.3703 43.1697C55.2643 42.3464 55.1502 41.4987 54.8649 40.7325C54.5878 39.9989 54.1639 39.2897 53.7563 38.6131C53.414 38.0425 53.0553 37.4475 52.7782 36.828C51.6207 34.2195 51.0338 31.6111 50.4795 28.9374C50.4387 28.7255 50.3817 28.5054 50.3246 28.2935C50.1942 27.8125 50.0638 27.3153 50.0638 26.7936C50.0638 26.655 50.1697 26.5491 50.3083 26.5491C50.4469 26.5491 50.5528 26.655 50.5528 26.7936C50.5528 27.2501 50.667 27.6984 50.7974 28.1712C50.8544 28.3913 50.9115 28.6195 50.9604 28.8396C51.5065 31.4807 52.0853 34.0646 53.2183 36.6242C53.4792 37.2192 53.8297 37.798 54.172 38.3604C54.5959 39.0614 55.0279 39.7788 55.3214 40.5613C55.6311 41.3764 55.7453 42.2568 55.8594 43.1045C55.8838 43.2757 55.9083 43.4469 55.9327 43.6181C55.949 43.7485 55.8594 43.8789 55.7208 43.8952C55.7127 43.8952 55.7045 43.8952 55.6882 43.8952Z" fill="#604440"/>
<path d="M55.0769 44.8162C55.0361 44.8162 55.0035 44.8162 54.9546 44.7999C54.5144 44.7102 54.1068 44.2211 53.7808 43.8217C53.6748 43.6913 53.5852 43.5772 53.5036 43.5038C52.9575 42.9577 52.0934 42.2485 51.1071 41.9714C49.7703 41.5964 48.3357 41.898 47.5939 42.1099C47.5124 42.1344 47.3656 42.2159 47.2189 42.2893C46.7298 42.5501 46.0696 42.9006 45.6702 42.5012C45.3441 42.1752 45.2707 41.3926 45.2218 40.5449C45.2137 40.39 45.2055 40.2514 45.1892 40.1699L45.1729 40.0395C44.9854 38.5885 44.8061 37.2191 44.3822 35.8415C44.3415 35.7111 44.4148 35.5725 44.5453 35.5318C44.6757 35.491 44.8143 35.5644 44.855 35.6948C45.2952 37.1131 45.4745 38.507 45.6702 39.9824L45.6865 40.1129C45.6946 40.2025 45.7109 40.3492 45.7191 40.5204C45.7517 40.9769 45.8087 41.9388 46.0288 42.1588C46.1674 42.2974 46.7298 42.004 46.9988 41.8572C47.1863 41.7594 47.3412 41.6779 47.4716 41.6372C48.2623 41.4089 49.7948 41.0992 51.2539 41.4986C52.3461 41.8002 53.2754 42.5664 53.8704 43.1533C53.9601 43.243 54.0661 43.3653 54.1802 43.512C54.4247 43.8136 54.7997 44.2701 55.0687 44.319C55.1176 44.2945 55.1502 44.1396 55.1584 44.0581C55.1665 44.0011 55.1747 43.9522 55.191 43.9032C55.2236 43.7728 55.354 43.6913 55.4926 43.7239C55.623 43.7565 55.7045 43.8869 55.6719 44.0255C55.6638 44.0581 55.6556 44.0989 55.6475 44.1478C55.6148 44.3353 55.5659 44.5961 55.3703 44.7347C55.2969 44.7754 55.2073 44.8162 55.0769 44.8162Z" fill="#604440"/>
<path d="M17.9065 43.724C17.8821 43.724 17.8495 43.7159 17.825 43.7077C17.6946 43.6588 17.6294 43.5203 17.6701 43.398C17.9636 42.5666 18.0777 41.621 18.1918 40.708C18.3304 39.5994 18.469 38.4501 18.9173 37.4475C18.9744 37.3252 19.1211 37.2681 19.2434 37.3252C19.3656 37.3823 19.4227 37.529 19.3656 37.6513C18.9499 38.5887 18.8113 39.6973 18.6809 40.7732C18.5668 41.7188 18.4445 42.6888 18.1348 43.5692C18.1022 43.6588 18.0044 43.724 17.9065 43.724Z" fill="#604440"/>
<path d="M32.4731 22.6364C32.0084 22.6364 31.5112 22.5794 31.0221 22.4326C28.9191 21.7887 27.0687 19.4818 26.8975 17.2891C26.8894 17.1505 26.9872 17.0364 27.1257 17.0283C27.2643 17.012 27.3784 17.1179 27.3866 17.2565C27.5415 19.2617 29.237 21.3811 31.1607 21.968C32.1633 22.2778 33.2148 22.1392 33.9158 21.9762C35.9048 21.5034 37.7307 19.9546 38.7985 17.8353C38.8556 17.713 39.0105 17.6641 39.1246 17.7293C39.2469 17.7863 39.2958 17.9412 39.2387 18.0553C38.1138 20.3133 36.1656 21.9599 34.03 22.4571C33.6061 22.5549 33.0681 22.6364 32.4731 22.6364Z" fill="#604440"/>
<path d="M16.8061 44.1559C16.7083 44.1559 16.6105 44.0907 16.5779 43.9929C16.4556 43.6587 16.1703 43.3164 15.9665 43.0718C15.5019 42.5175 14.9476 42.0936 14.3607 41.6372C13.733 41.1481 13.0809 40.6509 12.5674 39.9906C12.4859 39.8846 12.5022 39.7297 12.6081 39.6482C12.7141 39.5667 12.869 39.583 12.9505 39.689C13.4314 40.3003 14.0265 40.765 14.6623 41.2541C15.2492 41.7105 15.8524 42.1752 16.3496 42.7702C16.5779 43.0474 16.8876 43.4142 17.0425 43.838C17.0914 43.9685 17.0262 44.107 16.8958 44.1559C16.8632 44.1478 16.8387 44.1559 16.8061 44.1559Z" fill="#604440"/>
<path d="M14.2221 49.1446C13.9939 49.1446 13.7656 49.1038 13.5537 49.0712C13.464 49.0549 13.3825 49.0468 13.301 49.0305C12.119 48.8919 9.91002 48.6229 8.83404 47.2535C7.79881 45.933 7.67654 44.2619 7.55427 42.6398C7.53797 42.3953 7.52167 42.1589 7.49721 41.9225C7.48091 41.7676 7.44015 41.572 7.39124 41.3682C7.30973 41.0258 7.23637 40.6753 7.26897 40.3982C7.28528 40.2596 7.40755 40.1699 7.54612 40.1862C7.68469 40.2025 7.77436 40.3248 7.75806 40.4634C7.7336 40.659 7.80696 40.9688 7.87217 41.2704C7.92108 41.4905 7.96999 41.7024 7.98629 41.8899C8.01075 42.1263 8.02705 42.3708 8.04335 42.6072C8.15747 44.156 8.27974 45.7536 9.2253 46.9519C10.179 48.1664 12.2495 48.411 13.3662 48.5496C13.4477 48.5577 13.5455 48.574 13.6352 48.5903C13.9613 48.6392 14.3199 48.6963 14.5645 48.5985C14.8335 48.4843 15.1106 48.2398 15.3796 47.9953C15.5019 47.8811 15.6241 47.7752 15.7464 47.6855C15.8524 47.604 16.0073 47.6203 16.0888 47.7263C16.1703 47.8322 16.154 47.9871 16.048 48.0686C15.942 48.1583 15.8279 48.2561 15.7057 48.3621C15.4204 48.6148 15.1025 48.9001 14.7519 49.0468C14.5889 49.1202 14.4014 49.1446 14.2221 49.1446Z" fill="#604440"/>
<path d="M11.1001 39.4609C11.0186 39.4609 10.9371 39.4201 10.8964 39.3468C10.823 39.2327 10.8556 39.0778 10.9697 39.0044C11.2224 38.8414 11.4996 38.6865 11.7767 38.5316C12.6978 38.0099 13.6515 37.472 14.0672 36.5427C14.1243 36.4204 14.271 36.3634 14.3933 36.4204C14.5156 36.4775 14.5726 36.6242 14.5156 36.7465C14.0346 37.8306 13.0157 38.4094 12.0212 38.9637C11.7522 39.1185 11.4832 39.2653 11.2387 39.4283C11.1898 39.4527 11.1409 39.4609 11.1001 39.4609Z" fill="#604440"/>
<path d="M10.0323 38.1973C9.95896 38.1973 9.87744 38.1647 9.82854 38.0914C9.74702 37.9772 9.77963 37.8305 9.88559 37.749C11.2469 36.7871 12.3799 36.3062 13.9205 36.0372C14.0591 36.0128 14.1814 36.1024 14.2058 36.241C14.2303 36.3714 14.1406 36.5018 14.002 36.5263C12.5348 36.779 11.4588 37.2355 10.1627 38.1566C10.1301 38.181 10.0812 38.1973 10.0323 38.1973Z" fill="#604440"/>
<path d="M8.5732 36.771C8.49984 36.771 8.43462 36.7384 8.38572 36.6813C8.29605 36.5754 8.31235 36.4205 8.41832 36.339C9.65733 35.3119 11.6952 34.8065 13.1624 34.7576C13.1869 34.7576 15.0454 34.7413 15.2899 35.4668C15.3878 35.7602 15.2166 36.0618 14.7846 36.3634C14.6704 36.4449 14.5237 36.4123 14.4422 36.3064C14.3607 36.1922 14.3933 36.0455 14.4993 35.964C14.7927 35.7602 14.8253 35.6379 14.8172 35.6216C14.7519 35.4179 13.7819 35.2222 13.1706 35.2467C11.7848 35.2956 9.87742 35.7602 8.72808 36.7139C8.67917 36.7465 8.63026 36.771 8.5732 36.771Z" fill="#604440"/>
<path d="M7.3668 35.0429C7.29344 35.0429 7.22008 35.0103 7.17117 34.9451C7.08966 34.8391 7.11411 34.6842 7.22008 34.6027C8.81775 33.4208 10.823 32.9887 13.3336 33.2822C15.2736 33.5104 15.7138 34.2033 15.7383 34.7494C15.7464 34.888 15.6405 35.0021 15.5019 35.0103C15.3633 35.0184 15.2492 34.9125 15.241 34.7739C15.2084 34.0973 13.9939 33.8609 13.2684 33.7713C10.88 33.4941 8.99708 33.8935 7.49723 35.0021C7.46462 35.0266 7.41571 35.0429 7.3668 35.0429Z" fill="#604440"/>
<path d="M5.80988 33.5348C5.72837 33.5348 5.64685 33.494 5.6061 33.4207C5.53274 33.3066 5.56534 33.1517 5.67946 33.0783C5.85879 32.9642 6.04627 32.8419 6.23375 32.7115C7.31789 31.986 8.5569 31.1709 9.95894 31.3258C10.1138 31.3421 10.2687 31.3747 10.4236 31.3991C10.5621 31.4236 10.7007 31.448 10.8393 31.4643C11.0675 31.4888 11.2958 31.5051 11.524 31.5214C12.1354 31.5622 12.7712 31.6029 13.3662 31.8719C13.7493 32.0431 13.9368 32.255 13.9368 32.5159C13.9287 32.9071 13.4396 33.1761 13.0402 33.3392C12.9097 33.3881 12.7712 33.3229 12.7223 33.2006C12.6733 33.0702 12.7386 32.9316 12.8608 32.8827C13.2765 32.7197 13.4396 32.5566 13.4477 32.5077C13.4477 32.5077 13.407 32.4344 13.1706 32.3284C12.657 32.1001 12.0864 32.0594 11.4914 32.0186C11.255 32.0023 11.0186 31.986 10.7822 31.9616C10.6355 31.9453 10.4806 31.9127 10.3339 31.8882C10.1872 31.8638 10.0486 31.8312 9.90188 31.8148C8.67102 31.6763 7.57058 32.4099 6.50275 33.1191C6.31527 33.2495 6.12779 33.3718 5.9403 33.4859C5.89955 33.5266 5.85879 33.5348 5.80988 33.5348Z" fill="#604440"/>
<path d="M8.19824 40.3004H8.19008C7.34234 40.2596 7.04889 39.8684 6.76359 39.4852C6.64947 39.3304 6.53535 39.1755 6.37233 39.0288C6.21745 38.8902 6.01366 38.7761 5.80173 38.6538C5.47567 38.4663 5.13332 38.2788 4.90508 37.9446C4.53011 37.3903 4.62793 36.942 4.7339 36.5181C4.77465 36.3551 4.81541 36.1839 4.83171 36.0046C4.84802 35.8008 4.83171 35.5889 4.81541 35.3606C4.79911 35.1976 4.79096 35.0427 4.78281 34.8797C4.78281 34.4721 4.85617 34.195 5.08441 33.82C5.15777 33.7059 5.30449 33.6652 5.41861 33.7385C5.53273 33.8119 5.57349 33.9586 5.50013 34.0727C5.3208 34.3662 5.26374 34.5618 5.27189 34.8716C5.27189 35.0183 5.28819 35.165 5.29634 35.3117C5.3208 35.5481 5.3371 35.7927 5.31265 36.0454C5.28819 36.2654 5.24743 36.4611 5.20668 36.6323C5.10886 37.0235 5.0518 37.2925 5.30449 37.6675C5.46752 37.9039 5.74467 38.0588 6.03812 38.2299C6.26636 38.3604 6.4946 38.4908 6.69838 38.6701C6.89401 38.8494 7.03259 39.0288 7.15486 39.1918C7.4157 39.5423 7.59503 39.7787 8.20639 39.8113C8.34496 39.8194 8.44278 39.9336 8.44278 40.0721C8.44278 40.1944 8.32866 40.3004 8.19824 40.3004Z" fill="#604440"/>
<path d="M23.4332 34.6271C23.2865 34.6271 23.1397 34.6271 22.993 34.6189C22.0719 34.5782 21.2079 34.3499 20.3683 34.1298C19.9036 34.0076 19.4146 33.8853 18.9336 33.7875C17.4827 33.5103 15.885 33.6 14.646 33.706C14.5074 33.7223 14.3933 33.6163 14.377 33.4859C14.3688 33.3473 14.4667 33.2332 14.5971 33.2169C15.8606 33.1028 17.5071 33.0131 19.0151 33.3066C19.5205 33.4044 20.0096 33.5266 20.4824 33.6489C21.3383 33.869 22.1371 34.0809 23.0093 34.1217C23.8163 34.1625 24.6233 34.0809 25.4058 33.9994C25.7808 33.9587 26.1476 33.9261 26.5226 33.9016C26.6122 33.8853 26.8731 33.8038 27.0361 33.7304C26.9953 33.7223 26.9383 33.706 26.8649 33.6978C26.7263 33.6815 26.6285 33.5674 26.6448 33.4288C26.6611 33.2903 26.7834 33.2006 26.9138 33.2087C27.1502 33.2332 27.3214 33.2903 27.4518 33.3881C27.6638 33.5511 27.6393 33.7386 27.6148 33.8119C27.4926 34.2277 26.5715 34.3907 26.5552 34.3907C26.1884 34.4151 25.8215 34.4559 25.4547 34.4885C24.8026 34.5619 24.1179 34.6271 23.4332 34.6271Z" fill="#604440"/>
<path d="M24.1831 35.5318C23.0174 35.5318 21.9333 35.1895 20.8736 34.8471C20.0177 34.5781 19.1374 34.2928 18.2163 34.195C17.2952 34.0972 16.3985 34.1869 15.453 34.2847L15.2818 34.301C15.1432 34.3173 15.0291 34.2195 15.0128 34.0809C14.9965 33.9423 15.0943 33.8282 15.2329 33.8119L15.4041 33.7956C16.3333 33.6978 17.2952 33.6 18.2733 33.7059C19.2434 33.8119 20.1482 34.0972 21.0285 34.3825C22.5039 34.8553 23.8896 35.2955 25.471 34.8797C26.1068 34.7086 26.9138 34.2928 27.1828 33.7793C27.248 33.657 27.3947 33.6163 27.517 33.6733C27.6393 33.7385 27.68 33.8853 27.623 34.0075C27.2562 34.7004 26.3025 35.165 25.6014 35.3525C25.1124 35.4748 24.6396 35.5318 24.1831 35.5318Z" fill="#604440"/>
<path d="M19.814 42.9253C19.6917 42.9253 19.5857 42.8356 19.5694 42.7052C19.5042 42.1591 19.4553 41.6129 19.4064 41.0668C19.2189 38.9963 19.0151 36.8444 18.1185 34.9206C18.0614 34.7984 18.1103 34.6516 18.2408 34.5946C18.363 34.5375 18.5098 34.5864 18.5668 34.7169C19.5042 36.7221 19.708 38.9067 19.9036 41.026C19.9525 41.5722 20.0015 42.1183 20.0667 42.6563C20.083 42.7949 19.9852 42.9171 19.8466 42.9253C19.8384 42.9253 19.8303 42.9253 19.814 42.9253Z" fill="#604440"/>
<path d="M43.7872 40.9036H43.779C43.6405 40.8954 43.5345 40.7813 43.5426 40.6509C43.6568 37.8713 44.3007 34.8063 44.8632 32.1082L44.8876 31.986C44.9121 31.8555 45.0507 31.7659 45.1811 31.7985C45.3115 31.8229 45.4012 31.9534 45.3686 32.0919L45.3441 32.2142C44.7817 34.896 44.1458 37.9283 44.0317 40.6753C44.0317 40.7976 43.9176 40.9036 43.7872 40.9036Z" fill="#604440"/>
<path d="M45.5886 43.3247C45.4827 43.3247 45.3767 43.2513 45.3523 43.1372C45.3196 43.0068 45.4012 42.8682 45.5316 42.8356C46.094 42.6889 46.5831 42.4199 47.0966 42.1346C47.5939 41.8574 48.1074 41.5721 48.6943 41.4009C48.8247 41.3602 48.9633 41.4417 48.9959 41.5721C49.0367 41.7025 48.9552 41.8411 48.8247 41.8737C48.2949 42.0286 47.8303 42.2894 47.333 42.5584C46.8113 42.8519 46.2734 43.1453 45.6539 43.3084C45.6294 43.3247 45.6131 43.3247 45.5886 43.3247Z" fill="#604440"/>
<path d="M32.3997 47.3596C32.3182 47.3596 32.2367 47.3188 32.1959 47.2454C32.1225 47.1313 32.1552 46.9765 32.2693 46.9031C33.4431 46.145 34.4701 45.7782 35.7499 45.4358C35.9129 45.3951 36.076 45.3543 36.2471 45.3054C37.4536 45.0038 38.8148 44.6615 39.4832 43.6018C39.5159 43.5529 39.5159 43.5121 39.4996 43.4795C39.4425 43.3002 39.1001 43.0801 38.8067 42.966C38.5214 42.8518 38.1301 42.7785 37.7225 42.7051C36.9971 42.5747 36.2553 42.4361 35.7988 42.0449C35.4402 41.7351 35.0407 41.0259 35.3342 40.5043C35.5298 40.1537 35.9863 40.3168 36.2145 40.3983L36.2798 40.4227C36.8014 40.5776 37.4209 40.6591 38.1301 40.6754C38.5866 40.6836 39.0594 40.6591 39.5648 40.6347C41.0157 40.5532 42.5237 40.4716 43.8035 41.2786C44.2029 41.5313 44.5208 41.9144 44.8224 42.2813C44.9365 42.4198 45.0506 42.5584 45.1648 42.6807C45.2544 42.7785 45.2463 42.9334 45.1485 43.0312C45.0506 43.1208 44.8958 43.1127 44.798 43.0149C44.6838 42.8845 44.5616 42.7459 44.4393 42.5992C44.154 42.2568 43.8687 41.9063 43.5345 41.6944C42.3851 40.9689 40.9668 41.0504 39.5892 41.1238C39.1001 41.1482 38.5947 41.1808 38.122 41.1645C37.372 41.1482 36.7036 41.0585 36.1412 40.8874C36.1167 40.8792 36.0923 40.8711 36.0597 40.8629C36.0026 40.8466 35.8396 40.7896 35.7581 40.7814C35.6602 41.0341 35.9048 41.4824 36.133 41.6781C36.4835 41.9797 37.1927 42.1101 37.8204 42.2242C38.2605 42.3057 38.6681 42.3791 39.0023 42.5095C39.1409 42.5666 39.8256 42.8519 39.9805 43.3246C40.0375 43.504 40.0131 43.6914 39.9071 43.8626C39.1327 45.0853 37.6655 45.4603 36.3776 45.7863C36.2064 45.8271 36.0434 45.8679 35.8885 45.9168C34.6576 46.2428 33.6713 46.5933 32.5464 47.3188C32.4894 47.3514 32.4405 47.3596 32.3997 47.3596Z" fill="#604440"/>
<path d="M32.7991 47.9464C32.4568 47.9464 32.1633 47.8567 32.0573 47.5633C32.0084 47.4329 32.0736 47.2943 32.2041 47.2454C32.3345 47.1965 32.4731 47.2617 32.522 47.3921C32.5383 47.441 32.685 47.5307 33.6387 47.3351C33.7773 47.3025 33.8996 47.278 33.9811 47.2698C34.3723 47.2291 34.7799 47.2046 35.1712 47.1802C35.807 47.1394 36.4672 47.1068 37.0949 46.9764C37.4291 46.903 37.7796 46.7971 38.1138 46.6911C38.5948 46.5362 39.0838 46.3813 39.5811 46.3243C39.7115 46.308 39.8338 46.4058 39.8501 46.5444C39.8664 46.6829 39.7686 46.7971 39.63 46.8134C39.1817 46.8623 38.7333 47.009 38.2605 47.1557C37.91 47.2698 37.5514 47.384 37.1927 47.4573C36.5406 47.5959 35.8559 47.6367 35.2038 47.6693C34.8207 47.6937 34.4212 47.7182 34.0381 47.7589C33.9729 47.7671 33.867 47.7915 33.7447 47.816C33.4512 47.873 33.1089 47.9464 32.7991 47.9464Z" fill="#604440"/>
<path d="M36.133 49.104C35.2771 49.104 34.3479 48.8269 33.4431 48.5579C33.117 48.4601 32.791 48.3623 32.4894 48.2889C32.359 48.2563 32.2774 48.1259 32.31 47.9873C32.3427 47.8569 32.4812 47.7754 32.6116 47.808C32.9214 47.8895 33.2475 47.9792 33.5817 48.0851C34.4539 48.346 35.3505 48.6068 36.133 48.6068C36.7525 48.6068 37.3884 48.5253 37.9997 48.4356C38.4888 48.3704 38.9942 48.3052 39.4996 48.2726C39.6381 48.2644 39.7523 48.3704 39.7604 48.509C39.7686 48.6476 39.6626 48.7617 39.524 48.7698C39.0431 48.7943 38.5459 48.8595 38.0649 48.9247C37.4373 49.0225 36.7852 49.104 36.133 49.104Z" fill="#604440"/>
<path d="M36.8259 50.3756C36.5895 50.3756 36.3531 50.3674 36.1167 50.3348C35.3668 50.2533 34.5517 49.7724 33.7854 49.2588C33.6713 49.1855 33.6387 49.0306 33.7121 48.9165C33.7854 48.8024 33.9403 48.7698 34.0544 48.8431C34.5028 49.1366 35.432 49.7561 36.1738 49.8376C37.0949 49.9436 38.0731 49.7887 39.0186 49.6501C39.4018 49.5931 39.7849 49.536 40.1598 49.4952C40.2903 49.4789 40.4125 49.5768 40.4288 49.7153C40.4451 49.8539 40.3473 49.968 40.2087 49.9843C39.8419 50.0251 39.467 50.0821 39.092 50.1392C38.3421 50.2533 37.584 50.3756 36.8259 50.3756Z" fill="#604440"/>
<path d="M48.4905 49.3403C48.0178 49.3403 47.5531 49.2914 47.0967 49.2425C46.2082 49.1447 45.3604 49.055 44.5045 49.3321C44.3741 49.3729 44.2355 49.2995 44.1948 49.1691C44.154 49.0387 44.2274 48.9001 44.3578 48.8594C45.3197 48.5496 46.2489 48.6556 47.1537 48.7534C47.6754 48.8104 48.2134 48.8675 48.7432 48.8431C50.0719 48.786 51.5473 48.3295 52.8108 47.604C54.3351 46.7237 55.028 45.8107 54.9138 44.8081C54.8975 44.6695 54.9954 44.5554 55.1339 44.5391C55.2643 44.5228 55.3866 44.6206 55.4029 44.7592C55.5333 45.9575 54.7508 47.0579 53.0553 48.0361C51.7266 48.8023 50.1616 49.2751 48.7595 49.3403C48.6699 49.3403 48.5802 49.3403 48.4905 49.3403Z" fill="#604440"/>
<path d="M38.929 51.1417C38.3828 51.1417 37.8285 51.052 37.2498 50.8401C37.1194 50.7912 37.0542 50.6526 37.1031 50.5222C37.152 50.3917 37.2905 50.3265 37.421 50.3754C39.3121 51.0683 40.975 50.3021 42.7357 49.4951C43.0047 49.3728 43.2818 49.2424 43.559 49.1201C43.6812 49.0631 43.828 49.1201 43.885 49.2424C43.9421 49.3647 43.885 49.5114 43.7546 49.5685C43.4774 49.6907 43.2084 49.813 42.9394 49.9353C41.6597 50.5385 40.3392 51.1417 38.929 51.1417Z" fill="#604440"/>
<path d="M29.9217 48.3867C22.9359 48.3867 15.5182 47.3026 15.5182 45.2892C15.5182 43.2758 22.9441 42.1917 29.9217 42.1917C33.1578 42.1917 36.3287 42.4199 38.8475 42.8275C38.9779 42.8519 39.0757 42.9742 39.0512 43.1128C39.0268 43.2432 38.9045 43.3328 38.7659 43.3165C36.2716 42.909 33.1333 42.6889 29.9217 42.6889C21.7214 42.6889 16.0073 44.0583 16.0073 45.2892C16.0073 46.52 21.7214 47.8895 29.9217 47.8895C30.8102 47.8895 31.7068 47.8732 32.579 47.8406C32.7176 47.8324 32.8317 47.9384 32.8317 48.0769C32.8399 48.2155 32.7339 48.3296 32.5953 48.3296C31.7231 48.3704 30.8183 48.3867 29.9217 48.3867Z" fill="#604440"/>
<path d="M29.9217 49.8212C22.4876 49.8212 17.5805 48.574 16.0969 46.3161C16.0236 46.202 16.0562 46.0471 16.1703 45.9737C16.2844 45.9004 16.4393 45.933 16.5127 46.0471C17.8739 48.1339 22.7648 49.324 29.9217 49.324C31.3808 49.324 32.8236 49.2588 34.2093 49.1283C34.3479 49.112 34.462 49.218 34.4783 49.3484C34.4946 49.487 34.3886 49.6011 34.2582 49.6174C32.8562 49.756 31.4052 49.8212 29.9217 49.8212Z" fill="#604440"/>
<path d="M25.5688 47.9302C25.5036 47.9302 25.4384 47.9057 25.3895 47.8487C25.2998 47.7509 25.308 47.596 25.4058 47.4982C25.5444 47.3677 25.5281 47.2862 25.5199 47.2618C25.4384 46.952 24.6559 46.5608 24.1668 46.4466C23.9141 46.3896 23.7103 46.2347 23.531 46.1043C23.3843 45.9983 23.2457 45.8923 23.1071 45.8516C22.2431 45.607 20.7025 45.9249 19.9525 46.5118C19.8466 46.5934 19.6917 46.5771 19.6102 46.4711C19.5287 46.3651 19.545 46.2102 19.6509 46.1287C20.4416 45.5174 22.1453 45.0691 23.2457 45.3788C23.4739 45.444 23.6533 45.5826 23.8326 45.713C23.9875 45.8271 24.1342 45.9331 24.2891 45.9739C24.607 46.0472 25.8297 46.4629 26.009 47.1395C26.0579 47.3188 26.0498 47.596 25.7482 47.865C25.6911 47.9057 25.6259 47.9302 25.5688 47.9302Z" fill="#604440"/>
<path d="M23.2049 45.6232C23.1071 45.6232 23.0175 45.5662 22.9767 45.4765C22.9033 45.3053 23.0012 45.126 23.3028 44.914C23.6288 44.6858 24.069 44.3924 24.5744 44.1641C24.7292 44.0908 24.9004 44.0092 25.0716 43.9196C25.5525 43.675 26.0987 43.406 26.6041 43.3408C26.9953 43.2919 27.4029 43.2919 27.786 43.3001C28.487 43.3082 29.1391 43.3082 29.7423 43.0474C29.8646 42.9903 30.0113 43.0474 30.0684 43.1696C30.1255 43.2919 30.0684 43.4386 29.9461 43.4957C29.2451 43.8055 28.5033 43.7973 27.786 43.7892C27.3947 43.7892 27.0279 43.781 26.6693 43.8299C26.2454 43.887 25.74 44.1397 25.2998 44.3598C25.1205 44.4494 24.9412 44.5391 24.7782 44.6124C24.3135 44.8162 23.8978 45.0934 23.5881 45.3135C23.5391 45.3461 23.4739 45.4031 23.4413 45.4357C23.425 45.5091 23.3761 45.5743 23.3028 45.6069C23.2701 45.6151 23.2375 45.6232 23.2049 45.6232Z" fill="#604440"/>
<path d="M37.3313 45.1343H37.3231C36.8341 45.1099 36.4428 44.8327 36.0923 44.5882C35.913 44.4659 35.7418 44.3436 35.5706 44.2621C34.4865 43.7404 32.579 43.2595 31.4705 43.3655C31.3319 43.3736 31.2178 43.2758 31.2015 43.1454C31.1852 43.0068 31.2911 42.8927 31.4215 42.8764C32.6524 42.7623 34.6413 43.2758 35.7825 43.822C35.9945 43.9198 36.182 44.0583 36.3694 44.1888C36.6955 44.417 36.9971 44.6289 37.3394 44.6452C37.478 44.6534 37.5758 44.7675 37.5758 44.9061C37.5758 45.0284 37.4617 45.1343 37.3313 45.1343Z" fill="#604440"/>
<path d="M27.3051 46.2102C27.1339 46.2102 26.9546 46.1532 26.7752 46.0309C26.6285 45.9249 26.4573 45.8108 26.3188 45.6885C26.2128 45.5989 26.1965 45.444 26.2862 45.3462C26.3025 45.3217 26.3269 45.3054 26.3514 45.2891C26.3188 45.2891 26.2862 45.2891 26.2536 45.2728C26.1231 45.2239 26.0661 45.0772 26.115 44.9549L26.1394 44.8979C26.2699 44.5637 26.3514 44.5229 26.8323 44.3354C27.5985 44.0338 27.9327 44.3925 28.0469 44.5637C28.3077 44.9631 28.218 45.6233 27.8512 45.9738C27.6882 46.1369 27.5007 46.2102 27.3051 46.2102ZM26.4736 45.2565C26.5307 45.2565 26.5878 45.2728 26.6285 45.3136C26.7589 45.4196 26.9057 45.5337 27.0442 45.6233C27.2806 45.7864 27.4192 45.7048 27.4926 45.6233C27.6882 45.4359 27.7534 45.0283 27.623 44.8326C27.5007 44.6452 27.2154 44.7104 27.0035 44.7919C26.6448 44.9386 26.6448 44.9386 26.5878 45.0772L26.5633 45.1343C26.5389 45.1913 26.5062 45.2321 26.4573 45.2565C26.4655 45.2565 26.4736 45.2565 26.4736 45.2565Z" fill="#604440"/>
<path d="M30.8265 45.9738C30.6634 45.9738 30.5004 45.9331 30.3455 45.8434C30.2233 45.7782 30.1825 45.6233 30.2477 45.5092C30.3129 45.3869 30.4678 45.3462 30.5819 45.4114C30.7368 45.501 30.8998 45.501 31.0466 45.4195C31.2177 45.3299 31.3319 45.1424 31.3563 44.9223C31.3074 44.8815 31.1851 44.8082 30.8835 44.7022C30.6227 44.6044 30.3618 44.6288 30.1825 44.7674C30.0358 44.8897 29.9706 45.069 30.0032 45.2973C30.0195 45.4277 29.9298 45.5581 29.7912 45.5744C29.6608 45.5907 29.5304 45.501 29.5141 45.3625C29.457 44.9631 29.5956 44.6044 29.8809 44.3762C30.1907 44.1316 30.639 44.0745 31.0384 44.2294C31.6172 44.4414 31.8617 44.6288 31.8454 44.8815C31.8291 45.2891 31.609 45.6641 31.2748 45.8434C31.1444 45.9331 30.9814 45.9738 30.8265 45.9738Z" fill="#604440"/>
<path d="M34.087 45.982C33.9892 45.982 33.8996 45.9249 33.8588 45.8352C33.8017 45.713 33.8588 45.5662 33.9811 45.5092C34.0952 45.4603 34.2012 45.2891 34.193 45.1505C34.193 45.0935 34.1767 45.0446 34.0707 45.0119C33.9811 44.9793 33.8996 45.0609 33.867 45.0935C33.7691 45.1994 33.7447 45.3299 33.7691 45.3951C33.8262 45.5173 33.7691 45.6641 33.6469 45.7211C33.5246 45.7782 33.3779 45.7211 33.3208 45.5988C33.2067 45.3462 33.2801 45.0119 33.5083 44.7674C33.7121 44.5473 33.9811 44.4658 34.2338 44.5473C34.5028 44.637 34.6739 44.8571 34.6821 45.1342C34.6984 45.4684 34.4783 45.8271 34.1767 45.9575C34.1523 45.9738 34.1197 45.982 34.087 45.982Z" fill="#604440"/>
<path d="M38.0405 44.8244C37.91 44.8244 37.7959 44.7184 37.7959 44.5799C37.7959 44.3516 37.7062 44.2538 37.641 44.1968C37.2987 43.9115 36.4591 44.05 36.0026 44.1152L35.8151 44.1478C35.6766 44.1642 35.5543 44.0745 35.538 43.9359C35.5217 43.8055 35.6113 43.6751 35.7499 43.6588L35.9292 43.6343C36.4998 43.5446 37.4454 43.3898 37.9589 43.8218C38.1709 44.0011 38.285 44.2538 38.285 44.5717C38.285 44.7103 38.179 44.8244 38.0405 44.8244Z" fill="#604440"/>
<path d="M32.848 16.9549C32.3101 16.9549 31.7884 16.8163 31.3563 16.4903C31.2504 16.4088 31.2259 16.2539 31.3074 16.1479C31.3889 16.042 31.5438 16.0175 31.6498 16.099C32.522 16.7593 33.9159 16.4414 34.7881 15.8056C34.9022 15.7241 35.0489 15.7485 35.1304 15.8626C35.2119 15.9686 35.1875 16.1235 35.0734 16.205C34.462 16.6533 33.6387 16.9549 32.848 16.9549Z" fill="#604440"/>
<path d="M21.9496 34.358C21.9007 34.358 21.86 34.3417 21.8111 34.3173C21.6969 34.2439 21.6643 34.089 21.7377 33.9749L21.7866 33.9016C22.0719 33.4695 22.5039 32.8093 22.9278 32.4832C23.6777 31.8963 24.4684 31.7659 25.2835 32.1001C25.8867 32.3528 26.4899 32.8663 27.0931 33.6326C27.1747 33.7385 27.1584 33.8934 27.0524 33.9749C26.9464 34.0564 26.7915 34.0401 26.71 33.9342C26.1639 33.2332 25.6177 32.7685 25.0961 32.5566C24.4521 32.2876 23.8489 32.3936 23.2375 32.8745C22.8789 33.1598 22.455 33.7956 22.2023 34.1787L22.1534 34.2521C22.1045 34.3254 22.0311 34.358 21.9496 34.358Z" fill="#604440"/>
<path d="M62.7555 43.6833L57.0984 43.6507C56.9598 43.6507 56.8539 43.5366 56.8539 43.4062C56.8539 43.2676 56.968 43.1616 57.0984 43.1616L62.7555 43.1942C62.894 43.1942 63 43.3083 63 43.4388C63 43.5692 62.894 43.6833 62.7555 43.6833Z" fill="#604440"/>
<path d="M7.52983 43.3979L0.870152 43.3653C0.731578 43.3653 0.62561 43.2512 0.62561 43.1208C0.62561 42.9822 0.73973 42.8762 0.870152 42.8762L7.52168 42.9088C7.66025 42.9088 7.76622 43.0229 7.76622 43.1534C7.77437 43.2919 7.66025 43.3979 7.52983 43.3979Z" fill="#604440"/>
<path fill-rule="evenodd" clip-rule="evenodd" d="M46.4445 47.9057C46.2489 46.8461 45.8739 45.1343 46.2163 44.6452C46.575 44.148 48.7677 44.042 50.1779 44.042C51.8652 44.042 54.6367 44.0583 54.9464 44.7593C55.1258 45.175 54.7508 47.1151 54.653 47.7753C54.1068 51.3945 53.039 54.9241 52.8678 55.1849C52.5092 55.7392 51.3109 55.7637 50.5528 55.7637C49.9822 55.7637 48.6699 55.7555 48.3601 55.2012C48.0585 54.6632 47.0314 51.0929 46.4445 47.9057Z" fill="white"/>
<path fill-rule="evenodd" clip-rule="evenodd" d="M54.7019 47.6938C54.7019 47.6938 54.8894 47.0988 55.2154 47.1151C55.5415 47.1314 55.6719 46.9357 55.7208 47.4411C55.7697 47.9465 55.8349 48.4519 55.6067 48.9899C55.3703 49.5279 55.248 50.0414 54.8241 50.5224C54.4003 51.0033 54.3921 51.1174 54.1313 51.4027C53.8704 51.688 53.7156 51.8755 53.6585 52.3157C53.5933 52.764 53.5607 52.8944 53.9112 52.7477C54.2617 52.601 54.9301 52.1282 55.3214 51.5005C55.7126 50.8729 56.2343 49.8865 56.5278 49.21C56.8212 48.5334 56.968 47.7998 56.9354 47.221C56.8946 46.6423 56.7723 46.0146 56.4707 45.7456C56.1691 45.4848 56.0387 45.3055 55.6393 45.55C55.2399 45.7946 55.0442 45.8353 54.8894 46.3081C54.7345 46.7809 54.7019 47.6938 54.7019 47.6938Z" fill="white"/>
<path d="M50.5202 45.5744C49.1263 45.5744 45.8739 45.4929 45.8739 44.7267C45.8739 43.9604 49.1182 43.8789 50.5202 43.8789C51.9141 43.8789 55.1665 43.9604 55.1665 44.7267C55.1584 45.4929 51.9141 45.5744 50.5202 45.5744ZM46.526 44.7267C47.0396 44.8978 48.4742 45.0853 50.5202 45.0853C52.5662 45.0853 54.0009 44.8978 54.5144 44.7267C54.0009 44.5555 52.5662 44.368 50.5202 44.368C48.4661 44.368 47.0314 44.5555 46.526 44.7267Z" fill="#604440"/>
<path d="M48.3275 55.519C48.2215 55.519 48.1237 55.4538 48.0911 55.3479C48.083 55.3153 47.0803 51.9895 46.632 50.0821C46.1592 48.085 45.8576 46.0797 45.8576 44.9875C45.8576 44.8489 45.9718 44.7429 46.1022 44.7429C46.2408 44.7429 46.3467 44.8489 46.3467 44.9875C46.3467 46.0308 46.6483 48.0361 47.1048 49.968C47.5531 51.8591 48.5476 55.1685 48.5557 55.2093C48.5965 55.3397 48.5231 55.4783 48.3927 55.519C48.3764 55.519 48.352 55.519 48.3275 55.519Z" fill="#604440"/>
<path d="M52.7863 55.3887C52.7619 55.3887 52.7374 55.3887 52.7211 55.3805C52.5907 55.3398 52.5173 55.2094 52.5499 55.0789C52.5581 55.0463 53.4792 51.8673 53.9275 49.9191C54.3677 48.0361 54.6937 45.876 54.6937 44.8979C54.6937 44.7593 54.7997 44.6533 54.9383 44.6533C55.0768 44.6533 55.1828 44.7593 55.1828 44.8979C55.1828 45.9086 54.8486 48.1095 54.4003 50.0251C53.9438 51.9814 53.0227 55.1768 53.0145 55.2094C52.9901 55.3235 52.8923 55.3887 52.7863 55.3887Z" fill="#604440"/>
<path d="M50.5284 56C49.8437 56 48.6047 55.8696 48.2134 55.5272C48.1156 55.4376 48.0993 55.2827 48.1889 55.1767C48.2786 55.0789 48.4335 55.0626 48.5394 55.1523C48.7269 55.3153 49.6154 55.5028 50.5284 55.5028C51.3517 55.5028 52.3869 55.2175 52.5988 55.0382C52.7048 54.9485 52.8597 54.9648 52.9494 55.0626C53.039 55.1686 53.0227 55.3235 52.9249 55.4131C52.5418 55.731 51.3028 56 50.5284 56Z" fill="#604440"/>
<path d="M53.7319 53.0003C53.6993 53.0003 53.6748 53.0003 53.6422 52.9922C53.5118 52.9677 53.4221 52.8373 53.4466 52.7069C53.471 52.5764 53.6015 52.4868 53.7319 52.5112C53.952 52.5601 54.7508 51.7043 55.0361 51.2315L55.2562 50.8728C56.1202 49.4626 56.805 48.3459 56.4952 46.6667C56.4055 46.1695 56.1529 45.8353 55.8431 45.8027C55.5578 45.7782 55.2643 46.039 55.0769 46.4955C55.028 46.6178 54.8812 46.683 54.759 46.6341C54.6367 46.5852 54.5715 46.4385 54.6204 46.3162C54.8894 45.6396 55.3622 45.2728 55.892 45.3217C56.43 45.3788 56.8376 45.8597 56.9761 46.5852C57.3185 48.4519 56.5523 49.699 55.6719 51.1418L55.4518 51.5005C55.4518 51.4923 54.4574 53.0003 53.7319 53.0003Z" fill="#604440"/>
<path d="M53.9846 51.6961C53.9193 51.6961 53.8623 51.6716 53.8134 51.6227C53.7156 51.5249 53.7156 51.37 53.8134 51.2722C54.6367 50.4244 55.5252 48.8023 55.5333 47.7263C55.5333 47.4166 55.4437 47.2862 55.3866 47.2699C55.3214 47.2536 55.1502 47.3595 55.0198 47.6448C54.9627 47.7671 54.816 47.8242 54.6937 47.7671C54.5715 47.71 54.5144 47.5633 54.5715 47.441C54.8323 46.8704 55.2154 46.7319 55.4926 46.7889C55.8268 46.8623 56.0306 47.2128 56.0224 47.7263C56.0143 48.9572 55.0524 50.7097 54.1639 51.6146C54.115 51.6716 54.0498 51.6961 53.9846 51.6961Z" fill="#604440"/>
</g>
<defs>
<clipPath id="clip0_2728_6079">
<rect width="62.3744" height="56" fill="white" transform="translate(0.62561)"/>
</clipPath>
</defs>
</svg>
