<svg width="96" height="5" viewBox="0 0 96 5" fill="none" xmlns="http://www.w3.org/2000/svg">
<path d="M93.3297 2.49121H95.3509V2.96843H93.3297V2.49121ZM93.3802 4.23729H95.6709V4.72574H92.8188V0.795654H95.5923V1.28411H93.3802V4.23729Z" fill="white"/>
<path d="M86.678 4.72574V0.795654H87.2395V4.23729H89.3673V4.72574H86.678Z" fill="white"/>
<path d="M79.6216 4.72574V0.795654H81.3846C81.8375 0.795654 82.1856 0.887356 82.4288 1.07076C82.6721 1.25042 82.7938 1.49746 82.7938 1.81186C82.7938 2.02521 82.7451 2.20487 82.6478 2.35085C82.5542 2.49682 82.427 2.60911 82.266 2.68771C82.1051 2.76631 81.931 2.80561 81.7439 2.80561L81.8449 2.63718C82.0695 2.63718 82.2679 2.67648 82.4401 2.75508C82.6123 2.83368 82.7489 2.94972 82.8499 3.10318C82.951 3.25289 83.0015 3.44004 83.0015 3.66462C83.0015 4.00148 82.8743 4.26349 82.6197 4.45063C82.369 4.63404 81.9947 4.72574 81.4969 4.72574H79.6216ZM80.1831 4.27097H81.4744C81.7851 4.27097 82.0227 4.21857 82.1874 4.11377C82.3521 4.00897 82.4345 3.84428 82.4345 3.6197C82.4345 3.39138 82.3521 3.22482 82.1874 3.12002C82.0227 3.01522 81.7851 2.96282 81.4744 2.96282H80.1326V2.50805H81.334C81.6185 2.50805 81.8393 2.45565 81.9965 2.35085C82.1537 2.24604 82.2323 2.08884 82.2323 1.87924C82.2323 1.66963 82.1537 1.51243 81.9965 1.40762C81.8393 1.30282 81.6185 1.25042 81.334 1.25042H80.1831V4.27097Z" fill="white"/>
<path d="M75.0764 4.72574V0.795654H75.6378V4.72574H75.0764Z" fill="white"/>
<path d="M69.9274 4.77065C69.628 4.77065 69.3417 4.72574 69.0684 4.63591C68.7952 4.54233 68.58 4.42256 68.4228 4.27658L68.6305 3.83866C68.7802 3.96966 68.9711 4.07821 69.2032 4.16429C69.4353 4.25038 69.6767 4.29343 69.9274 4.29343C70.1558 4.29343 70.341 4.26723 70.4833 4.21482C70.6255 4.16242 70.7303 4.09131 70.7977 4.00148C70.8651 3.9079 70.8987 3.8031 70.8987 3.68707C70.8987 3.55232 70.8538 3.44378 70.764 3.36143C70.6779 3.27909 70.5637 3.21359 70.4215 3.16493C70.283 3.11253 70.1296 3.06761 69.9611 3.03018C69.7927 2.99275 69.6224 2.94971 69.4502 2.90105C69.2818 2.84865 69.1265 2.78315 68.9842 2.70455C68.8457 2.62595 68.7334 2.52114 68.6474 2.39014C68.5613 2.25539 68.5182 2.08322 68.5182 1.87361C68.5182 1.6715 68.5706 1.48622 68.6754 1.31779C68.784 1.14561 68.9487 1.009 69.1695 0.907936C69.3941 0.803134 69.6785 0.750732 70.0229 0.750732C70.2512 0.750732 70.4777 0.780676 70.7022 0.840563C70.9268 0.90045 71.1214 0.986537 71.2861 1.09883L71.1009 1.54798C70.9324 1.43569 70.7546 1.35522 70.5675 1.30656C70.3803 1.25416 70.1988 1.22796 70.0229 1.22796C69.8021 1.22796 69.6205 1.25603 69.4783 1.31217C69.3361 1.36832 69.2313 1.44318 69.1639 1.53675C69.1003 1.63032 69.0684 1.73513 69.0684 1.85116C69.0684 1.98965 69.1115 2.10006 69.1976 2.18241C69.2874 2.26475 69.4016 2.33025 69.5401 2.37891C69.6823 2.42757 69.8376 2.47248 70.0061 2.51366C70.1745 2.55109 70.3429 2.59413 70.5113 2.64279C70.6835 2.69145 70.8389 2.75508 70.9773 2.83368C71.1196 2.91228 71.2337 3.01708 71.3198 3.14809C71.4059 3.27909 71.449 3.44752 71.449 3.65338C71.449 3.85176 71.3947 4.03703 71.2861 4.20921C71.1776 4.37764 71.0092 4.51426 70.7808 4.61906C70.5563 4.72012 70.2718 4.77065 69.9274 4.77065Z" fill="white"/>
<path d="M63.6332 4.77065C63.3337 4.77065 63.0474 4.72574 62.7742 4.63591C62.5009 4.54233 62.2857 4.42256 62.1285 4.27658L62.3362 3.83866C62.486 3.96966 62.6768 4.07821 62.9089 4.16429C63.141 4.25038 63.3824 4.29343 63.6332 4.29343C63.8615 4.29343 64.0468 4.26723 64.189 4.21482C64.3312 4.16242 64.436 4.09131 64.5034 4.00148C64.5708 3.9079 64.6045 3.8031 64.6045 3.68707C64.6045 3.55232 64.5595 3.44378 64.4697 3.36143C64.3836 3.27909 64.2695 3.21359 64.1272 3.16493C63.9887 3.11253 63.8353 3.06761 63.6669 3.03018C63.4984 2.99275 63.3281 2.94971 63.1559 2.90105C62.9875 2.84865 62.8322 2.78315 62.6899 2.70455C62.5515 2.62595 62.4392 2.52114 62.3531 2.39014C62.267 2.25539 62.224 2.08322 62.224 1.87361C62.224 1.6715 62.2764 1.48622 62.3812 1.31779C62.4897 1.14561 62.6544 1.009 62.8752 0.907936C63.0998 0.803134 63.3843 0.750732 63.7286 0.750732C63.9569 0.750732 64.1834 0.780676 64.408 0.840563C64.6325 0.90045 64.8272 0.986537 64.9919 1.09883L64.8066 1.54798C64.6381 1.43569 64.4604 1.35522 64.2732 1.30656C64.0861 1.25416 63.9045 1.22796 63.7286 1.22796C63.5078 1.22796 63.3262 1.25603 63.184 1.31217C63.0418 1.36832 62.937 1.44318 62.8696 1.53675C62.806 1.63032 62.7742 1.73513 62.7742 1.85116C62.7742 1.98965 62.8172 2.10006 62.9033 2.18241C62.9931 2.26475 63.1073 2.33025 63.2458 2.37891C63.388 2.42757 63.5433 2.47248 63.7118 2.51366C63.8802 2.55109 64.0486 2.59413 64.2171 2.64279C64.3892 2.69145 64.5446 2.75508 64.6831 2.83368C64.8253 2.91228 64.9395 3.01708 65.0255 3.14809C65.1116 3.27909 65.1547 3.44752 65.1547 3.65338C65.1547 3.85176 65.1004 4.03703 64.9919 4.20921C64.8833 4.37764 64.7149 4.51426 64.4866 4.61906C64.262 4.72012 63.9775 4.77065 63.6332 4.77065Z" fill="white"/>
<path d="M56.7396 4.77065C56.4401 4.77065 56.1613 4.72012 55.903 4.61906C55.6485 4.518 55.4277 4.37764 55.2405 4.19798C55.0534 4.01458 54.9074 3.80123 54.8026 3.55794C54.6978 3.31465 54.6454 3.0489 54.6454 2.76069C54.6454 2.47249 54.6978 2.20674 54.8026 1.96345C54.9074 1.72015 55.0534 1.50868 55.2405 1.32902C55.4277 1.14561 55.6485 1.00338 55.903 0.902321C56.1575 0.801262 56.4364 0.750732 56.7396 0.750732C57.039 0.750732 57.3141 0.801262 57.5649 0.902321C57.8194 0.999638 58.0402 1.14 58.2274 1.3234C58.4183 1.50306 58.5642 1.71454 58.6653 1.95783C58.7701 2.20112 58.8225 2.46874 58.8225 2.76069C58.8225 3.05264 58.7701 3.32026 58.6653 3.56355C58.5642 3.80684 58.4183 4.02019 58.2274 4.2036C58.0402 4.38326 57.8194 4.52362 57.5649 4.62468C57.3141 4.72199 57.039 4.77065 56.7396 4.77065ZM56.7396 4.27097C56.9567 4.27097 57.1569 4.23354 57.3403 4.15868C57.5274 4.08382 57.6884 3.97902 57.8231 3.84427C57.9616 3.70578 58.0683 3.54484 58.1432 3.36143C58.2218 3.17803 58.2611 2.97778 58.2611 2.76069C58.2611 2.5436 58.2218 2.34335 58.1432 2.15995C58.0683 1.97655 57.9616 1.81747 57.8231 1.68272C57.6884 1.54424 57.5274 1.43756 57.3403 1.3627C57.1569 1.28784 56.9567 1.25041 56.7396 1.25041C56.5187 1.25041 56.3147 1.28784 56.1276 1.3627C55.9442 1.43756 55.7832 1.54424 55.6447 1.68272C55.5063 1.81747 55.3977 1.97655 55.3191 2.15995C55.2443 2.34335 55.2068 2.5436 55.2068 2.76069C55.2068 2.97778 55.2443 3.17803 55.3191 3.36143C55.3977 3.54484 55.5063 3.70578 55.6447 3.84427C55.7832 3.97902 55.9442 4.08382 56.1276 4.15868C56.3147 4.23354 56.5187 4.27097 56.7396 4.27097Z" fill="white"/>
<path d="M48.1064 4.72574V0.795654H49.6391C49.9835 0.795654 50.2773 0.849927 50.5206 0.958472C50.7639 1.06702 50.951 1.22422 51.082 1.43008C51.213 1.63594 51.2785 1.88111 51.2785 2.16557C51.2785 2.45003 51.213 2.6952 51.082 2.90106C50.951 3.10318 50.7639 3.26038 50.5206 3.37267C50.2773 3.48121 49.9835 3.53549 49.6391 3.53549H48.4152L48.6678 3.27161V4.72574H48.1064ZM48.6678 3.32775L48.4152 3.04703H49.6223C49.9816 3.04703 50.253 2.9703 50.4364 2.81684C50.6235 2.66338 50.7171 2.44629 50.7171 2.16557C50.7171 1.88485 50.6235 1.66776 50.4364 1.5143C50.253 1.36084 49.9816 1.28411 49.6223 1.28411H48.4152L48.6678 1.00339V3.32775Z" fill="white"/>
<path d="M38.4694 4.72574V1.28411H37.122V0.795654H40.3727V1.28411H39.0253V4.72574H38.4694Z" fill="white"/>
<path d="M33.1438 4.72574V0.795654H33.7052V4.72574H33.1438Z" fill="white"/>
<path d="M22.7713 2.49121H24.7925V2.96843H22.7713V2.49121ZM22.8218 4.23729H25.1125V4.72574H22.2604V0.795654H25.0339V1.28411H22.8218V4.23729Z" fill="white"/>
<path d="M15.9119 3.77691L15.8838 3.09195L18.1127 0.795654H18.7528L17.0292 2.61472L16.7147 2.96282L15.9119 3.77691ZM15.4178 4.72574V0.795654H15.9793V4.72574H15.4178ZM18.2026 4.72574L16.5912 2.85053L16.9674 2.43506L18.8595 4.72574H18.2026Z" fill="white"/>
<path d="M7.90337 4.72574L9.68313 0.795654H10.239L12.0243 4.72574H11.4348L9.84595 1.11006H10.0705L8.48165 4.72574H7.90337ZM8.66131 3.74322L8.8129 3.29407H11.025L11.1878 3.74322H8.66131Z" fill="white"/>
<path d="M0.329086 4.72574V0.795654H0.789467L2.55239 3.76568H2.30536L4.04583 0.795654H4.50621L4.51182 4.72574H3.97284L3.96722 1.64343H4.09635L2.54678 4.24852H2.28851L0.72771 1.64343H0.868071V4.72574H0.329086Z" fill="white"/>
</svg>
