<svg width="20" height="20" viewBox="0 0 20 20" fill="none" xmlns="http://www.w3.org/2000/svg">
<path fill-rule="evenodd" clip-rule="evenodd" d="M2.1549 2.98816C2.46746 2.6756 2.89139 2.5 3.33341 2.5H16.6667C17.1088 2.5 17.5327 2.67559 17.8453 2.98816C18.1578 3.30072 18.3334 3.72464 18.3334 4.16667V12.5C18.3334 12.942 18.1578 13.3659 17.8453 13.6785C17.5327 13.9911 17.1088 14.1667 16.6667 14.1667H12.8782L10.2106 17.2154C10.0523 17.3963 9.82372 17.5 9.58341 17.5C9.34311 17.5 9.11451 17.3963 8.95627 17.2154L6.28861 14.1667H3.33341C2.89139 14.1667 2.46746 13.9911 2.1549 13.6785C1.84234 13.366 1.66675 12.942 1.66675 12.5V4.16667C1.66675 3.72464 1.84234 3.30072 2.1549 2.98816ZM16.6667 4.16667L3.33341 4.16667V12.5H6.66675C6.90705 12.5 7.13566 12.6037 7.2939 12.7846L9.58341 15.4012L11.8729 12.7846C12.0312 12.6037 12.2598 12.5 12.5001 12.5H16.6667V4.16667ZM5.00008 6.66667C5.00008 6.20643 5.37318 5.83333 5.83341 5.83333H13.3334C13.7937 5.83333 14.1667 6.20643 14.1667 6.66667C14.1667 7.1269 13.7937 7.5 13.3334 7.5H5.83341C5.37318 7.5 5.00008 7.1269 5.00008 6.66667ZM5.00008 10C5.00008 9.53976 5.37318 9.16667 5.83341 9.16667H10.0001C10.4603 9.16667 10.8334 9.53976 10.8334 10C10.8334 10.4602 10.4603 10.8333 10.0001 10.8333H5.83341C5.37318 10.8333 5.00008 10.4602 5.00008 10Z" fill="#FF820F"/>
</svg>
