<svg width="32" height="32" viewBox="0 0 32 32" fill="none" xmlns="http://www.w3.org/2000/svg">
<path d="M16 2.66669C23.36 2.66669 29.3333 8.64002 29.3333 16C29.3333 23.36 23.36 29.3334 16 29.3334C8.63996 29.3334 2.66663 23.36 2.66663 16C2.66663 8.64002 8.63996 2.66669 16 2.66669ZM16 26.6667C21.8933 26.6667 26.6666 21.8934 26.6666 16C26.6666 10.1067 21.8933 5.33335 16 5.33335C10.1066 5.33335 5.33329 10.1067 5.33329 16C5.33329 21.8934 10.1066 26.6667 16 26.6667ZM16 14.6667H21.3333V17.3334H16V21.3334L10.6666 16L16 10.6667V14.6667Z" fill="#CCCCCC"/>
</svg>
