<svg width="20" height="20" viewBox="0 0 20 20" fill="none" xmlns="http://www.w3.org/2000/svg">
<path d="M9.99993 2.5C14.4933 2.5 18.2317 5.73313 19.0154 10C18.2317 14.2668 14.4933 17.5 9.99993 17.5C5.50644 17.5 1.76813 14.2668 0.984375 10C1.76813 5.73313 5.50644 2.5 9.99993 2.5ZM9.99993 15.8333C13.5296 15.8333 16.5499 13.3767 17.3144 10C16.5499 6.62336 13.5296 4.16667 9.99993 4.16667C6.47018 4.16667 3.44986 6.62336 2.68533 10C3.44986 13.3767 6.47018 15.8333 9.99993 15.8333ZM9.99993 13.75C7.92883 13.75 6.24989 12.0711 6.24989 10C6.24989 7.92893 7.92883 6.25 9.99993 6.25C12.0709 6.25 13.7499 7.92893 13.7499 10C13.7499 12.0711 12.0709 13.75 9.99993 13.75ZM9.99993 12.0833C11.1505 12.0833 12.0833 11.1506 12.0833 10C12.0833 8.84942 11.1505 7.91667 9.99993 7.91667C8.84934 7.91667 7.91656 8.84942 7.91656 10C7.91656 11.1506 8.84934 12.0833 9.99993 12.0833Z" fill="#999999"/>
</svg>
