<svg width="87" height="160" viewBox="0 0 87 160" fill="none" xmlns="http://www.w3.org/2000/svg">
<g clip-path="url(#clip0_2720_4771)">
<path opacity="0.5" d="M10.9796 22.3638C27.4082 7.31141 93.8825 31.9114 86.385 67.5641C85.0088 74.1298 68.9242 57.3141 39.6365 63.1344C-0.804316 71.148 -5.23403 37.2012 10.9796 22.3638Z" fill="#FBBE9C"/>
<path d="M22.577 28.6717C16.4414 31.0658 12.8574 36.8574 24.9711 36.8574C37.0847 36.8574 53.628 26.9658 50.7322 24.3997C47.8364 21.848 46.1304 23.7116 42.0305 24.3997C37.9305 25.0878 22.577 28.6717 22.577 28.6717Z" fill="white"/>
<path d="M26.6915 79.9941C22.0897 82.4742 23.3226 87.0759 22.7922 88.1368C22.2617 89.1976 18.8929 88.6672 18.7208 92.2081C18.5488 95.749 20.1401 96.2794 18.0184 97.1682C15.8967 98.057 15.5383 100.007 16.0687 101.77C16.5992 103.548 22.7922 101.942 23.8673 98.9315C24.9282 95.921 21.0289 95.2186 22.9785 93.7994C24.9282 92.3801 27.2219 91.8497 25.989 88.6672C24.7561 85.4847 29.5299 88.6672 30.7771 84.5959C31.9956 80.5246 26.6915 79.9941 26.6915 79.9941Z" fill="#2F2422"/>
<path d="M49.8862 79.9941C54.3159 82.3022 54.1296 84.7822 53.4271 86.7176C52.7247 88.6672 56.6096 86.5455 56.796 90.2585C56.968 93.9714 56.624 92.2081 60.3369 94.3298C64.0498 96.4514 62.6449 100.351 62.6449 100.351C62.6449 100.351 54.6743 100.179 53.4415 97.8707C52.2086 95.5626 55.0327 93.9714 53.0831 93.7994C51.1334 93.6273 48.6534 92.3801 49.9006 90.4305C51.1334 88.4808 51.3198 88.1224 49.9006 87.9504C48.4813 87.7784 45.1125 85.6424 45.4708 83.8791C45.8149 82.1158 49.8862 79.9941 49.8862 79.9941Z" fill="#2F2422"/>
<path d="M19.0789 135.774C17.8461 147.988 18.9069 156.317 23.867 158.266C28.8272 160.216 58.2295 161.635 61.412 156.145C64.5946 150.654 62.3009 137.723 62.3009 137.723L60.7096 122.312L21.0429 124.262L19.0789 135.774Z" fill="#F23D04"/>
<path d="M15.3519 134.713C16.0543 136.132 21.0145 134.713 21.0145 134.713L16.2407 128.52C16.2407 128.52 14.2911 130.297 14.6495 132.419C14.9935 134.54 15.3519 134.713 15.3519 134.713Z" fill="#F23D04"/>
<path d="M15.3521 127.99C18.0041 136.491 22.9643 142.87 25.9748 143.042C28.9852 143.214 33.9454 142.684 32.6982 135.43C31.4653 128.176 20.8283 126.57 18.8786 126.57C16.9433 126.57 15.3521 127.99 15.3521 127.99Z" fill="#FBBE9C"/>
<path d="M67.2467 135.774C66.573 138.039 62.2866 137.724 62.2866 137.724L65.1251 130.111C65.1107 130.111 67.7772 134.011 67.2467 135.774Z" fill="#F23D04"/>
<path d="M54.4881 127.1C54.4881 127.1 51.1193 135.601 50.7752 136.132C50.4168 136.662 42.6326 139.501 35.0204 141.092C27.4081 142.683 24.5697 141.622 24.5697 141.622C24.5697 141.622 19.4375 137.723 16.9575 137.723C14.4774 137.723 14.119 138.784 12.7141 139.845C11.2949 140.905 12.8861 142.325 13.0725 143.558C13.2445 144.79 14.4917 143.385 14.6638 142.669C14.8358 141.966 14.3054 140.891 14.6638 141.077C15.0221 141.249 15.5526 141.249 16.083 141.077C16.6134 140.905 16.9718 143.027 20.3263 146.568C23.6952 150.109 25.2865 151.7 29.1857 151.356C33.085 150.998 38.9196 151.356 47.0766 150.654C55.2193 149.951 61.4266 146.224 61.957 145.866C62.4874 145.507 66.9171 132.404 66.9171 132.404C66.9171 132.404 65.3259 128.161 62.8458 127.444C60.3371 126.742 54.4881 127.1 54.4881 127.1Z" fill="#FBBE9C"/>
<path d="M28.1966 151.744C24.756 151.744 23.0214 149.909 20.0683 146.813C18.0756 144.705 17.1294 143.114 16.5704 142.168C16.384 141.867 16.212 141.551 16.0973 141.437C15.6815 141.566 15.2802 141.594 14.9218 141.537C14.9934 141.895 15.0795 142.354 14.9791 142.77C14.8357 143.343 14.0616 144.433 13.3878 144.404C13.1871 144.39 12.8144 144.275 12.7284 143.616C12.6854 143.272 12.499 142.899 12.2983 142.498C11.8539 141.594 11.3092 140.476 12.499 139.587C12.8288 139.344 13.1011 139.086 13.3735 138.842C14.2193 138.068 14.9504 137.394 16.9574 137.394C19.4231 137.394 24.1826 140.906 24.7273 141.322C25.1001 141.437 28.0389 142.211 34.9486 140.763C42.6469 139.157 49.9437 136.434 50.5028 135.932C50.7895 135.459 52.8969 130.212 54.1727 126.972C54.2157 126.843 54.3304 126.771 54.4738 126.757C54.7175 126.743 60.4087 126.413 62.9175 127.13C65.5265 127.875 67.1465 132.119 67.2181 132.291C67.2468 132.362 67.2468 132.448 67.2181 132.52C67.2038 132.549 66.1 135.831 64.9388 139.114C62.5591 145.866 62.301 146.038 62.129 146.153C62.0717 146.196 55.6493 150.253 47.0909 150.984C42.3172 151.4 38.2888 151.457 35.0633 151.486C32.784 151.515 30.8056 151.543 29.2001 151.687C28.8417 151.73 28.5119 151.744 28.1966 151.744ZM16.1403 140.734C16.513 140.734 16.7711 141.164 17.1581 141.824C17.7029 142.756 18.6204 144.304 20.57 146.354C23.8529 149.809 25.3438 151.371 29.1427 151.027C30.777 150.884 32.7553 150.855 35.049 150.827C38.2745 150.784 42.2741 150.741 47.0192 150.325C55.1332 149.622 61.2402 145.909 61.7133 145.623C62.2007 144.949 64.8958 137.265 66.53 132.434C66.2577 131.774 64.7954 128.391 62.7311 127.789C60.5951 127.187 55.807 127.388 54.7318 127.431C54.1441 128.922 51.4059 135.803 51.0619 136.319C50.5745 137.05 42.3315 139.903 35.092 141.422C27.4654 143.014 24.5696 141.981 24.455 141.938C24.4263 141.924 24.3976 141.91 24.3689 141.895C24.3116 141.852 19.2941 138.068 16.9574 138.068C15.2228 138.068 14.635 138.598 13.8323 139.344C13.5742 139.587 13.2732 139.86 12.9148 140.132C12.2123 140.663 12.4417 141.236 12.9148 142.211C13.1298 142.641 13.3448 143.085 13.4022 143.53C13.4165 143.644 13.4452 143.702 13.4595 143.716C13.6746 143.659 14.2193 143.042 14.334 142.598C14.4057 142.311 14.3197 141.91 14.2623 141.623C14.1906 141.25 14.1333 140.978 14.3627 140.806C14.42 140.763 14.592 140.663 14.8214 140.777C15.0938 140.906 15.5382 140.906 15.9826 140.763C16.0256 140.749 16.0829 140.734 16.1403 140.734Z" fill="#E07445"/>
<path d="M47.2343 98.9452C49.8864 99.3036 55.0329 95.4043 61.7563 97.7123C68.4797 100.02 70.9598 105.325 71.3182 112.765C71.6766 120.205 67.2468 135.788 67.2468 135.788C67.2468 135.788 66.5444 131.888 62.4587 129.767C58.3874 127.645 53.5993 128.348 53.5993 128.348C53.5993 128.348 23.8529 126.928 18.8928 128.176C13.9326 129.408 14.6494 133.666 14.6494 133.666C14.6494 133.666 14.291 134.197 11.2805 123.574C8.27005 112.951 6.96551 102.816 13.9326 100.02C22.792 96.4795 26.505 102.328 32.8843 99.8483C37.099 98.1854 47.2343 98.9452 47.2343 98.9452Z" fill="#F23D04"/>
<path d="M33.9453 128.161C33.9453 128.161 22.9642 115.589 27.7523 113.811C32.5261 112.048 34.3037 116.119 34.3037 116.119C34.3037 116.119 36.9558 108.507 39.6222 112.22C42.2743 115.947 33.9453 128.161 33.9453 128.161Z" fill="#FFB83A"/>
<path d="M40.1526 125.509C42.2599 119.789 43.1631 115.245 46.0015 117.008C48.84 118.786 45.8295 123.918 45.8295 123.918C45.8295 123.918 52.7393 121.079 51.4921 124.979C50.2592 128.878 38.2173 130.111 38.2173 130.111C38.2173 130.111 38.9054 128.864 40.1526 125.509Z" fill="#FFB83A"/>
<path d="M39.0773 87.0756C47.1926 87.0756 53.7713 80.4968 53.7713 72.3815C53.7713 64.2662 47.1926 57.6875 39.0773 57.6875C30.962 57.6875 24.3833 64.2662 24.3833 72.3815C24.3833 80.4968 30.962 87.0756 39.0773 87.0756Z" fill="#2F2422"/>
<path d="M45.8152 86.9033C44.7543 95.4043 47.048 98.7732 47.2344 98.9452C47.4064 99.1173 46.1736 103.017 39.2638 102.845C32.354 102.673 32.354 100.006 32.354 100.006C32.354 100.006 33.7732 95.218 33.2428 89.197C32.7124 83.1761 45.8152 86.9033 45.8152 86.9033Z" fill="#FBBE9C"/>
<path d="M45.5281 91.0467C45.5281 89.8281 45.6142 88.4519 45.8005 86.9037C45.8005 86.9037 44.3239 86.4879 42.3886 86.1582L33.3428 87.9502C33.2282 88.3085 33.1852 88.7243 33.2282 89.2117C33.7586 95.2327 32.3394 100.021 32.3394 100.021C32.3394 100.021 32.3394 100.393 32.6977 100.852C35.1491 100.551 40.7687 99.0173 45.5281 91.0467Z" fill="#E68A63"/>
<path d="M38.8479 92.2647C33.1997 92.2647 28.6123 87.6773 28.6123 82.0291V74.1731C28.6123 68.5249 33.1997 63.9375 38.8479 63.9375C44.4962 63.9375 49.0836 68.5249 49.0836 74.1731V82.0291C49.0836 87.6916 44.4962 92.2647 38.8479 92.2647Z" fill="#FBBE9C"/>
<path d="M38.891 92.2647H38.805C33.1281 92.2647 28.5264 87.663 28.5264 81.9861V74.2162C28.5264 68.5392 33.1281 63.9375 38.805 63.9375H38.891C44.5679 63.9375 49.1697 68.5392 49.1697 74.2162V81.9861C49.184 87.663 44.5679 92.2647 38.891 92.2647Z" fill="#FBBE9C"/>
<path d="M49.2268 82.3592C47.8362 81.7571 47.2055 80.1372 47.8075 78.7466L48.5243 77.1267C49.1264 75.7361 50.7464 75.1054 52.1369 75.7075C53.5275 76.3095 54.1582 77.9295 53.5561 79.32L52.8394 80.94C52.2373 82.3448 50.6173 82.9756 49.2268 82.3592Z" fill="#FBBE9C"/>
<path d="M28.5837 82.3592C29.9742 81.7571 30.605 80.1372 30.0029 78.7466L29.2861 77.1267C28.684 75.7361 27.0641 75.1054 25.6736 75.7075C24.283 76.3095 23.6522 77.9295 24.2543 79.32L24.9711 80.94C25.5732 82.3448 27.1931 82.9756 28.5837 82.3592Z" fill="#FBBE9C"/>
<path d="M28.4545 75.9222C38.4035 76.553 41.9157 66.002 41.9157 66.002C41.9157 66.002 46.073 73.5138 49.3559 75.9222C53.1692 71.6072 47.5783 61.5723 40.8549 61.5723C34.1314 61.5723 29.7017 64.9411 28.6409 69.5429C27.5801 74.1446 28.4545 75.9222 28.4545 75.9222Z" fill="#2F2422"/>
<path d="M31.2928 78.388C31.1782 78.388 31.0778 78.3306 31.0061 78.2303C30.9058 78.0726 30.9488 77.8576 31.1065 77.7572C33.7012 76.0943 36.253 76.9831 36.3677 77.0118C36.5397 77.0691 36.64 77.2698 36.5684 77.4418C36.511 77.6139 36.3103 77.7142 36.1383 77.6425C36.1096 77.6282 33.7729 76.8397 31.4792 78.3163C31.4219 78.3736 31.3502 78.388 31.2928 78.388Z" fill="#14100F"/>
<path d="M46.3454 78.3886C46.2881 78.3886 46.2164 78.3742 46.1591 78.3312C43.8654 76.8547 41.5287 77.6431 41.5 77.6575C41.328 77.7148 41.1273 77.6288 41.0699 77.4568C41.0126 77.2847 41.0986 77.084 41.2706 77.0267C41.3853 76.9837 43.9371 76.1092 46.5318 77.7721C46.6895 77.8725 46.7325 78.0875 46.6322 78.2452C46.5605 78.3312 46.4601 78.3886 46.3454 78.3886Z" fill="#14100F"/>
<path d="M45.2848 73.0844C43.6792 70.8337 41.2135 70.7764 41.3855 71.8516C41.5575 72.9124 46.1736 74.3316 45.2848 73.0844Z" fill="#2F2422"/>
<path d="M36.9555 82.1153C37.3282 80.653 40.8548 80.524 40.8548 81.5848C40.8548 82.6457 36.7835 82.832 36.9555 82.1153Z" fill="#E68A63"/>
<path d="M45.4568 84.2375C47.1194 84.2375 48.4673 83.2876 48.4673 82.1158C48.4673 80.944 47.1194 79.9941 45.4568 79.9941C43.7941 79.9941 42.4463 80.944 42.4463 82.1158C42.4463 83.2876 43.7941 84.2375 45.4568 84.2375Z" fill="#FBA47E"/>
<path d="M32.3537 84.2375C34.0164 84.2375 35.3642 83.2876 35.3642 82.1158C35.3642 80.944 34.0164 79.9941 32.3537 79.9941C30.6911 79.9941 29.3433 80.944 29.3433 82.1158C29.3433 83.2876 30.6911 84.2375 32.3537 84.2375Z" fill="#FBA47E"/>
<path d="M32.8272 97.8702C31.8237 98.587 30.2324 100.006 30.4045 100.881C30.5765 101.769 33.2429 106.73 40.1384 106.199C47.0481 105.669 48.4674 101.597 48.8114 100.881C49.1698 100.178 49.1698 99.1747 48.8114 98.7877C48.453 98.4006 46.7614 97.6838 46.6324 97.8702C46.5034 98.0566 45.6433 100.35 39.78 100.35C32.8845 100.35 32.8272 97.8702 32.8272 97.8702Z" fill="#FFB83A"/>
<path d="M39.1345 106.587C37.3855 106.587 35.7799 106.228 34.3607 105.526C34.1887 105.44 34.117 105.239 34.203 105.067C34.289 104.895 34.4897 104.823 34.6618 104.909C36.253 105.698 38.088 106.028 40.1236 105.87C44.281 105.555 47.0764 103.892 48.4383 100.924C48.467 100.852 48.4956 100.795 48.5243 100.738C48.8254 100.121 48.811 99.2899 48.5816 99.0319C48.3523 98.7738 47.2771 98.3007 46.8614 98.2004C45.9009 99.806 43.3921 100.695 39.7939 100.695C32.7551 100.695 32.4971 98.1717 32.4971 97.8707C32.4971 97.6843 32.6404 97.5266 32.8268 97.5266C33.0132 97.5266 33.1708 97.67 33.1708 97.8563C33.1708 97.8707 33.4002 100.007 39.7939 100.007C43.2058 100.007 45.5282 99.2039 46.3166 97.756C46.3453 97.713 46.3596 97.6843 46.374 97.67C46.417 97.6126 46.5173 97.5123 46.7037 97.4979C47.1768 97.4693 48.7107 98.1574 49.0834 98.5588C49.5851 99.1035 49.5135 100.279 49.1407 101.039C49.1264 101.082 49.0977 101.139 49.0691 101.197C47.6068 104.393 44.6107 106.2 40.181 106.529C39.8226 106.572 39.4642 106.587 39.1345 106.587Z" fill="#14100F"/>
<path d="M62.4589 129.752C66.5302 131.874 67.247 135.773 67.247 135.773C67.247 135.773 68.3795 133.322 69.1966 129.924C68.4225 128.72 66.7022 127.287 64.5949 125.853C59.6348 122.484 55.2051 123.545 55.2051 123.545L53.6138 128.333C53.5995 128.333 58.3876 127.631 62.4589 129.752Z" fill="#FFB83A"/>
<path d="M19.9535 123.029C12.1693 124.434 13.0868 128.004 12.6997 129.925C14.3053 134.813 15.3518 134.713 15.3518 134.713C15.3518 134.713 13.5742 130.642 18.8927 128.161C19.3514 127.946 20.1112 127.946 21.043 127.875C20.613 125.911 19.9535 123.029 19.9535 123.029Z" fill="#FFB83A"/>
<path d="M66.8882 136.792C66.8166 136.792 66.7449 136.777 66.6875 136.734C66.5299 136.619 66.5012 136.419 66.6015 136.261C66.6589 136.175 67.9204 134.197 64.0641 131.258C59.9785 128.147 54.4019 128.176 53.8141 128.62C53.6851 128.706 53.5274 128.706 53.3984 128.62C53.2837 128.534 53.2264 128.362 53.2837 128.219C53.3124 128.133 56.8103 119.116 57.1543 108.679C57.1543 108.493 57.3264 108.35 57.5127 108.35C57.6991 108.35 57.8425 108.507 57.8425 108.708C57.5414 117.653 54.9753 125.552 54.1582 127.832C56.1078 127.502 60.8959 128.004 64.4799 130.728C68.8952 134.096 67.2323 136.562 67.1606 136.662C67.1033 136.734 66.9886 136.792 66.8882 136.792Z" fill="#14100F"/>
<path d="M15.3517 135.057C15.2226 135.057 15.108 134.985 15.0506 134.87C14.7639 134.311 14.4629 132.949 15.108 131.444C15.667 130.14 17.1006 128.333 20.8565 127.158C21.0429 127.1 21.2293 127.201 21.2866 127.387C21.344 127.573 21.2436 127.76 21.0572 127.817C18.2905 128.692 16.4412 130.039 15.7387 131.716C15.194 133.007 15.452 134.139 15.667 134.569C15.7531 134.741 15.6814 134.942 15.5094 135.028C15.452 135.042 15.409 135.057 15.3517 135.057Z" fill="#14100F"/>
<path d="M57.6848 140.017C57.5988 140.017 57.5128 139.988 57.4554 139.917C57.4124 139.874 53.6278 136.304 50.8037 136.462C50.6174 136.476 50.4597 136.333 50.4453 136.147C50.431 135.96 50.5743 135.802 50.7607 135.788C53.8859 135.602 57.7565 139.272 57.9285 139.429C58.0719 139.558 58.0719 139.773 57.9429 139.917C57.8568 139.974 57.7708 140.017 57.6848 140.017Z" fill="#E07445"/>
<path d="M41.9729 86.373C41.8869 84.9395 38.3747 85.6706 34.8338 86.373C31.2929 87.0755 28.4544 88.3227 28.0961 88.6811C27.7377 89.0395 19.2366 96.5514 18.3478 98.9024C17.4734 101.253 18.1758 109.396 18.5342 116.306C18.8926 123.216 20.1254 134.727 22.6055 138.268C25.0856 141.809 30.8055 142.769 32.4684 140.074C34.117 137.379 33.0562 132.605 31.637 125.165C30.2177 117.725 25.444 104.264 25.444 104.264C25.444 104.264 28.0961 102.845 29.3433 100.365C30.5761 97.8846 30.5761 96.2933 30.5761 96.2933L34.6474 93.9853L36.2387 95.0461C36.2387 95.0461 34.4611 97.6982 35.3499 97.8846C36.2387 98.0566 37.6579 95.9349 38.002 95.0461C38.3604 94.1573 38.3604 93.9853 38.3604 93.9853C38.3604 93.9853 38.8908 93.2828 39.0628 92.7524C39.2348 92.222 39.0628 92.222 39.0628 92.222C39.0628 92.222 39.5932 92.5804 39.4212 90.8028C39.2492 89.0251 38.002 88.3227 38.002 88.3227L36.9411 87.9643C36.9555 87.9643 42.0303 87.4339 41.9729 86.373Z" fill="#FBBE9C"/>
<path d="M32.4687 140.404C32.4113 140.404 32.3396 140.39 32.2966 140.347C32.1389 140.247 32.0816 140.032 32.1819 139.874C33.6585 137.466 32.827 133.136 31.5798 126.57C31.4938 126.126 31.4078 125.667 31.3218 125.194C29.9169 117.883 25.1718 104.508 25.1288 104.365C25.0715 104.207 25.1431 104.035 25.2865 103.949C25.3152 103.934 27.8669 102.544 29.0424 100.207C30.218 97.8418 30.2466 96.3079 30.2466 96.2792C30.2466 96.1502 30.3183 96.0499 30.4187 95.9782L34.49 93.6701C34.6047 93.6128 34.7337 93.6128 34.8484 93.6845L36.4396 94.7453C36.5973 94.8457 36.6403 95.0607 36.54 95.2184C35.9092 96.1645 35.4075 97.2397 35.4648 97.5264C36.0382 97.5694 37.3141 95.8778 37.7155 94.903C38.0022 94.1862 38.0452 93.9712 38.0452 93.9425C38.0452 93.8708 38.0739 93.8135 38.1169 93.7562C38.1169 93.7562 38.6186 93.0824 38.7763 92.6093C38.805 92.509 38.8193 92.4373 38.8337 92.3943C38.762 92.3083 38.7477 92.1936 38.7763 92.0789C38.8193 91.9355 38.9627 91.8352 39.1061 91.8352C39.1347 91.7062 39.1777 91.4194 39.1061 90.7887C38.9627 89.3408 38.0595 88.6957 37.8875 88.581L36.8554 88.2369C36.6977 88.1796 36.6117 88.0362 36.626 87.8785C36.6403 87.7208 36.7693 87.5918 36.927 87.5775C36.9414 87.5775 38.1312 87.4485 39.3354 87.2048C41.5001 86.7604 41.6435 86.3446 41.6435 86.3446C41.6435 86.2299 41.6005 86.1439 41.5001 86.0866C40.7403 85.4988 37.7298 86.1009 35.0777 86.6313L34.9057 86.66C31.4078 87.3625 28.6267 88.5953 28.34 88.8677C28.297 88.9107 28.1536 89.0397 27.8382 89.3264C20.8711 95.6628 19.0075 98.0568 18.6778 98.96C17.9897 100.809 18.3337 106.673 18.6634 112.335C18.7351 113.625 18.8211 114.959 18.8785 116.234C19.1652 121.911 19.9823 129.696 21.4159 134.555C21.4732 134.742 21.3729 134.928 21.1865 134.985C21.0001 135.043 20.8138 134.928 20.7564 134.756C19.3085 129.853 18.4771 121.997 18.1904 116.277C18.1187 115.002 18.047 113.683 17.9753 112.392C17.6169 106.4 17.2872 100.723 18.0327 98.745C18.5631 97.3114 21.6309 94.0715 27.3795 88.839C27.6232 88.6097 27.8239 88.4376 27.8526 88.3946C28.297 87.9502 31.2645 86.703 34.7624 86.0006L34.9344 85.9719C38.1456 85.3268 40.9123 84.782 41.9158 85.5562C42.1595 85.7425 42.3029 86.0149 42.3172 86.3303C42.3746 87.2908 40.2386 87.8212 38.3606 88.1079C38.7333 88.3803 39.6365 89.1974 39.7798 90.7457C39.8802 91.7205 39.7942 92.2366 39.4931 92.4659C39.4788 92.5806 39.4501 92.6953 39.4071 92.8387C39.2494 93.3261 38.848 93.8995 38.7047 94.1002C38.6473 94.3583 38.4896 94.8027 38.3463 95.161C38.0739 95.8492 36.5543 98.4582 35.3071 98.2002C35.0921 98.1572 34.92 98.0282 34.8484 97.8275C34.5903 97.1967 35.3214 95.8922 35.7945 95.1324L34.662 94.3726L30.9347 96.4799C30.8917 96.996 30.691 98.4582 29.6732 100.494C28.6124 102.616 26.6054 103.963 25.8886 104.393C26.5624 106.329 30.7054 118.27 32.0099 125.065C32.0959 125.538 32.1819 125.983 32.268 126.441C33.5582 133.15 34.404 137.595 32.784 140.218C32.698 140.347 32.5833 140.404 32.4687 140.404Z" fill="#E07445"/>
<path d="M22.6199 105.296C22.4479 105.296 22.2902 105.152 22.2759 104.98C22.2616 104.794 22.4049 104.636 22.5913 104.622C24.8706 104.464 25.6304 103.762 25.6304 103.762C25.7594 103.633 25.9745 103.633 26.1178 103.762C26.2469 103.891 26.2469 104.106 26.1178 104.235C26.0318 104.321 25.1717 105.109 22.6486 105.296C22.6343 105.296 22.6199 105.296 22.6199 105.296Z" fill="#E07445"/>
<path d="M36.9558 88.3083C36.9415 88.3083 36.9272 88.3083 36.9272 88.3083L33.3863 87.9499C33.1999 87.9356 33.0565 87.7635 33.0852 87.5772C33.0995 87.3908 33.2716 87.2475 33.4579 87.2761L36.9988 87.6345C37.1852 87.6488 37.3286 87.8209 37.2999 88.0072C37.2855 88.1649 37.1279 88.3083 36.9558 88.3083Z" fill="#E07445"/>
<path d="M39.0774 92.5515C38.9484 92.5515 38.8337 92.4798 38.7764 92.3651C38.59 91.9924 37.9879 90.9315 37.4575 90.5445C36.9988 90.2004 34.9345 89.971 33.7446 89.8994C33.5582 89.885 33.4149 89.7273 33.4292 89.541C33.4435 89.3546 33.6012 89.2113 33.7876 89.2256C34.3324 89.2543 37.1135 89.4406 37.8733 89.9997C38.633 90.5731 39.3642 92.0067 39.3928 92.0641C39.4788 92.2361 39.4072 92.4368 39.2351 92.5228C39.1921 92.5371 39.1348 92.5515 39.0774 92.5515Z" fill="#E07445"/>
<path d="M38.3748 94.3293C38.2171 94.3293 38.0881 94.229 38.0451 94.0856C37.8874 93.7989 36.7979 92.5947 36.4969 92.3797C36.4252 92.3653 36.3392 92.3367 36.2102 92.2793C35.8088 92.136 35.0776 91.8492 33.9451 91.8492C33.7588 91.8492 33.6011 91.6915 33.6011 91.5052C33.6011 91.3188 33.7588 91.1611 33.9451 91.1611C35.2067 91.1611 36.0525 91.4765 36.4539 91.6342C36.5112 91.6629 36.5972 91.6915 36.6259 91.6915C36.7549 91.6915 36.9413 91.7489 37.8014 92.7094C38.7046 93.7129 38.7046 93.8562 38.7046 93.9852C38.7189 94.1716 38.5612 94.3293 38.3748 94.3293Z" fill="#E07445"/>
<path d="M49.3561 80.8683C49.3417 80.8683 49.3131 80.8683 49.2987 80.8683C49.1124 80.8396 48.9977 80.6532 49.0263 80.4669C49.0407 80.3665 49.5138 78.0155 50.761 77.2987C51.191 77.055 51.6498 77.0263 52.1372 77.1984C52.3092 77.2557 52.4096 77.4564 52.3379 77.6284C52.2805 77.8004 52.0798 77.9008 51.8935 77.8291C51.6068 77.7288 51.3344 77.7431 51.0907 77.8865C50.2735 78.3452 49.8005 79.9938 49.6858 80.5959C49.6571 80.7536 49.5138 80.8683 49.3561 80.8683Z" fill="#E07445"/>
<path d="M28.4544 80.5096C28.2824 80.5096 28.1391 80.3806 28.1104 80.2085C28.01 79.1334 27.5656 78.2445 26.9635 77.8431C26.5621 77.5708 26.0747 77.5134 25.5443 77.6711C25.3579 77.7285 25.1716 77.6281 25.1142 77.4418C25.0569 77.2554 25.1573 77.069 25.3436 77.0117C26.0747 76.7966 26.7628 76.8827 27.3363 77.2697C28.1247 77.8001 28.6551 78.861 28.7842 80.1368C28.7985 80.3232 28.6695 80.4952 28.4831 80.5096C28.4831 80.5096 28.4688 80.5096 28.4544 80.5096Z" fill="#E07445"/>
<path d="M66.0421 28.1123C64.6516 26.0193 66.9023 22.7221 70.5865 24.299C74.2708 25.876 74.5575 25.9763 74.5575 25.9763C74.5575 25.9763 76.3494 26.4207 78.4854 27.3095C80.6215 28.1983 81.8687 31.2231 79.575 33.2015C77.2813 35.1798 72.1348 33.6029 69.5687 32.5564C66.9883 31.5099 66.0421 28.1123 66.0421 28.1123Z" fill="#DCE0FA"/>
<path d="M76.4928 27.9265C79.8903 27.9408 81.8113 24.701 79.2452 22.2066C76.6792 19.7122 77.6683 17.7769 77.0375 17.7195C76.4068 17.6622 73.4393 17.7912 70.8446 20.1566C68.9379 21.8912 68.4362 23.8838 70.9162 25.6901C73.382 27.5108 76.4928 27.9265 76.4928 27.9265Z" fill="#DCE0FA"/>
<path d="M73.5255 28.3995C73.4825 28.3995 73.4251 28.3852 73.3821 28.3708C70.5294 27.095 68.9524 24.9016 69.2678 22.6652C69.6405 20.0132 72.522 18.0348 76.9804 17.3897C77.1668 17.3611 77.3388 17.4901 77.3675 17.6764C77.3961 17.8628 77.2671 18.0348 77.0807 18.0635C72.9377 18.6656 70.2713 20.4145 69.9416 22.7513C69.6692 24.6722 71.0884 26.5932 73.6545 27.7401C73.8265 27.8117 73.8982 28.0124 73.8265 28.1845C73.7835 28.3135 73.6545 28.3995 73.5255 28.3995Z" fill="#4C3CA1"/>
<path d="M77.9839 27.8691C77.6398 27.8691 77.2815 27.7974 76.9231 27.6397C75.4752 27.009 74.0989 25.0163 74.5434 22.1349C74.572 21.9485 74.7441 21.8195 74.9304 21.8481C75.1168 21.8768 75.2458 22.0488 75.2171 22.2352C74.8301 24.7583 75.9769 26.4785 77.1954 27.009C78.0269 27.3674 78.8154 27.1667 79.3888 26.4499C80.9944 24.4142 79.5608 22.7656 78.5717 21.9772C78.4283 21.8625 78.3996 21.6474 78.5143 21.5041C78.629 21.3607 78.844 21.3321 78.9874 21.4467C79.7328 22.0488 82.0122 24.2135 79.9192 26.8799C79.4031 27.525 78.715 27.8691 77.9839 27.8691Z" fill="#4C3CA1"/>
<path d="M65.6268 27.2673C65.4261 27.2673 65.2827 27.1096 65.2827 26.9232C65.3114 26.0774 65.3687 23.54 69.2824 23.54C69.311 23.54 69.354 23.54 69.3827 23.54C69.5691 23.54 69.7268 23.6977 69.7268 23.8841C69.7268 24.0705 69.5691 24.2281 69.3827 24.2281C66.0425 24.1851 65.9852 26.1205 65.9708 26.9519C65.9708 27.1239 65.8131 27.2673 65.6268 27.2673Z" fill="#4C3CA1"/>
<path d="M80.206 32.6138C80.1056 32.6138 79.9909 32.5708 79.9336 32.4704C79.8189 32.3127 79.8619 32.0977 80.0053 31.9974C80.0196 31.983 80.4783 31.639 80.5214 30.9222C80.5644 30.0334 79.9336 28.9295 78.6577 27.754C78.5144 27.625 78.5144 27.41 78.6434 27.2666C78.7724 27.1232 78.9874 27.1233 79.1308 27.2523C80.5787 28.5998 81.2811 29.847 81.2095 30.9795C81.1378 32.0117 80.4497 32.5278 80.4067 32.5421C80.3493 32.5851 80.2776 32.6138 80.206 32.6138Z" fill="#4C3CA1"/>
<path d="M80.9369 32.5134C80.4351 32.3413 80.0911 32.542 79.575 32.9004C79.0589 33.2445 78.4855 33.6315 77.6684 33.3592C76.8512 33.0868 76.6362 32.4273 76.4355 31.8396C76.2348 31.2518 76.0914 30.8791 75.5897 30.7071C75.0879 30.535 74.7439 30.7357 74.2278 31.0941C73.7117 31.4382 73.1383 31.8252 72.3212 31.5529C71.504 31.2805 71.289 30.6211 71.0883 30.0333C70.8876 29.4455 70.7443 29.0728 70.2425 28.9008C69.7408 28.7288 69.3967 28.9438 68.8806 29.2878C68.3645 29.6319 67.7911 30.019 66.974 29.7466C66.1568 29.4742 65.9418 28.8148 65.7411 28.227C65.5404 27.6392 65.3971 27.2665 64.8953 27.0945C64.838 27.0802 64.7806 27.0371 64.752 26.9941L65.3827 35.3805L75.3317 38.7637L81.0659 32.542C81.0516 32.542 80.9942 32.542 80.9369 32.5134Z" fill="#E68A63"/>
<path d="M77.6686 33.3598C76.8515 33.0875 76.6365 32.428 76.4358 31.8403C76.2351 31.2525 76.0917 30.8798 75.59 30.7077C75.0882 30.5357 74.7442 30.7364 74.2281 31.0948C73.712 31.4389 73.1386 31.8259 72.3215 31.5535C71.5043 31.2812 71.2893 30.6217 71.0886 30.034C70.8879 29.4462 70.7445 29.0735 70.2428 28.9014C69.741 28.7294 69.397 28.9445 68.8809 29.2885C68.3648 29.6326 67.7914 30.0196 66.9743 29.7472C66.1571 29.4749 65.9421 28.8154 65.7414 28.2277C65.5407 27.6399 65.3973 27.2672 64.8956 27.0952C64.7379 27.0378 64.6519 26.8658 64.7092 26.7081C64.7666 26.5504 64.9386 26.4644 65.0963 26.5217C65.9134 26.7941 66.1285 27.4535 66.3292 28.0413C66.5299 28.6291 66.6732 29.0018 67.175 29.1738C67.6767 29.3459 68.0208 29.1308 68.5368 28.7868C69.0529 28.4427 69.6264 28.0556 70.4435 28.328C71.2606 28.6004 71.4756 29.2598 71.6763 29.8476C71.877 30.4354 72.0204 30.8081 72.5222 30.9801C73.0239 31.1521 73.3679 30.9514 73.884 30.593C74.4001 30.249 74.9735 29.8619 75.7907 30.1343C76.6078 30.4067 76.8228 31.0661 77.0235 31.6539C77.2242 32.2416 77.3676 32.6144 77.8693 32.7864C78.3711 32.9584 78.7151 32.7577 79.2312 32.3993C79.7473 32.0553 80.3207 31.6682 81.1379 31.9406C81.2956 31.9979 81.3816 32.17 81.3242 32.3277C81.2669 32.4854 81.0949 32.5714 80.9372 32.514C80.4354 32.342 80.0914 32.5427 79.5753 32.9011C79.0592 33.2451 78.4858 33.6322 77.6686 33.3598Z" fill="#E68A63"/>
<path d="M75.3891 39.1367L65.2825 35.6532C65.1105 35.5958 65.0101 35.3951 65.0675 35.2231C65.1248 35.0511 65.3255 34.9507 65.4975 35.0081L75.1741 38.3483L81.0804 31.8829C81.2094 31.7395 81.4244 31.7395 81.5678 31.8542C81.7111 31.9832 81.7111 32.1983 81.5965 32.3416L75.3891 39.1367Z" fill="#14100F"/>
<path d="M67.1462 29.3745C66.3721 29.3745 66.0567 28.672 65.7556 28.0413C65.4402 27.3531 65.1392 26.708 64.3364 26.6364C64.15 26.622 64.0067 26.45 64.021 26.2636C64.0353 26.0773 64.2074 25.9339 64.3937 25.9483C65.5836 26.0629 66.0137 26.9948 66.3721 27.7545C66.7018 28.457 66.8595 28.7294 67.2322 28.6864C67.6336 28.629 68.035 28.414 68.4364 28.1989C69.2392 27.7545 70.2427 27.1955 71.2462 28.371C71.3752 28.5143 71.3465 28.7294 71.2032 28.8584C71.0598 28.9874 70.8448 28.9587 70.7158 28.8154C70.1137 28.0986 69.6262 28.3136 68.7661 28.801C68.3217 29.0448 67.8486 29.3028 67.3182 29.3745C67.2465 29.3601 67.1892 29.3745 67.1462 29.3745Z" fill="#14100F"/>
<path d="M43.6646 12.2432L19.251 19.0239L22.7345 31.5389H22.7489C22.7489 31.5819 22.7489 31.6106 22.7632 31.6393C23.0929 32.8291 28.8272 32.27 35.5649 30.4064C42.3027 28.5284 47.5065 26.0484 47.1768 24.8585C47.1625 24.8298 47.1481 24.7868 47.1338 24.7582H47.1481L43.6646 12.2432Z" fill="#FFC969"/>
<path d="M21.0287 15.8846C15.1511 18.7948 18.4196 20.8161 20.1685 24.7441C21.9175 28.672 22.9066 26.6364 22.0178 24.228C21.129 21.8196 21.8458 19.6406 23.7668 21.7479C25.6878 23.8696 25.5157 21.7049 27.3077 20.9881C29.0996 20.2713 29.8594 19.8413 30.2178 23.4969C30.5762 27.1525 32.3108 28.6577 32.5689 26.3783C32.8126 24.099 29.4724 18.3934 31.0349 19.2822C32.6119 20.171 34.0311 21.3179 35.479 19.3682C36.9269 17.4186 38.1598 17.0745 38.7619 18.4507C39.3639 19.8269 39.2636 21.8483 41.1989 20.8734C43.1342 19.8986 40.1667 14.7521 41.586 15.899C43.0052 17.0458 43.3493 14.3077 43.8223 14.3937C44.2954 14.4798 45.3132 18.1783 45.3706 18.379C45.4279 18.5797 46.9045 19.9416 46.3454 16.3434C45.7863 12.7451 45.6286 10.5805 40.7688 10.5948C35.9234 10.6378 25.1 13.8633 21.0287 15.8846Z" fill="#F3752B"/>
<path d="M28.0675 18.5073C27.9098 18.5073 27.7664 18.3926 27.7378 18.235C27.7091 18.0486 27.8238 17.8766 28.0102 17.8336C36.2531 16.2853 42.6612 12.7444 42.7185 12.7157C42.8762 12.6297 43.0912 12.6871 43.1772 12.8448C43.2633 13.0024 43.2059 13.2175 43.0482 13.3035C42.9766 13.3465 36.4825 16.9304 28.1248 18.5073C28.1105 18.5073 28.0818 18.5073 28.0675 18.5073Z" fill="#14100F"/>
<path d="M31.1437 15.716C33.1805 15.1499 34.3727 13.0398 33.8066 11.0031C33.2405 8.9663 31.1304 7.77409 29.0937 8.3402C27.0569 8.90631 25.8647 11.0164 26.4308 13.0531C26.9969 15.0899 29.107 16.2821 31.1437 15.716Z" fill="#F23D04"/>
<path d="M37.2982 14.0191C38.9994 13.5462 39.9951 11.7839 39.5223 10.0828C39.0495 8.38165 37.2871 7.38591 35.586 7.85873C33.8849 8.33155 32.8892 10.0939 33.362 11.795C33.8348 13.4961 35.5971 14.4919 37.2982 14.0191Z" fill="#F23D04"/>
<path d="M36.4394 14.4651C36.1957 14.4651 35.9663 14.4364 35.7226 14.3934C35.5363 14.3504 35.4216 14.1783 35.4646 13.992C35.5076 13.8056 35.6796 13.6909 35.866 13.7339C36.3104 13.8199 36.7691 13.8056 37.2135 13.6909C38.7331 13.2752 39.6219 11.6983 39.1919 10.1787C39.0198 9.54793 38.6471 9.01751 38.131 8.64478C37.9733 8.5301 37.9447 8.31507 38.0593 8.17171C38.174 8.01402 38.3891 7.98535 38.5324 8.10003C39.1775 8.57311 39.6363 9.23255 39.8513 10.0067C40.3674 11.8846 39.2635 13.8343 37.3856 14.3647C37.0845 14.422 36.7548 14.4651 36.4394 14.4651Z" fill="#14100F"/>
<path d="M25.5692 17.9331C27.2704 17.4603 28.2661 15.698 27.7933 13.9968C27.3205 12.2957 25.5581 11.3 23.857 11.7728C22.1559 12.2456 21.1602 14.0079 21.633 15.7091C22.1058 17.4102 23.8681 18.4059 25.5692 17.9331Z" fill="#F23D04"/>
<path d="M24.7132 18.3927C24.1111 18.3927 23.5233 18.2351 22.9786 17.934C22.1614 17.4753 21.5593 16.7155 21.3156 15.798C21.2583 15.6116 21.373 15.4253 21.5593 15.3823C21.7457 15.3249 21.9321 15.4396 21.9751 15.626C22.1758 16.3571 22.6632 16.9735 23.3226 17.3462C23.982 17.719 24.7562 17.8193 25.4873 17.6043C26.5625 17.3032 27.3796 16.4001 27.5516 15.2819C27.5803 15.0955 27.7523 14.9665 27.9387 14.9952C28.125 15.0239 28.2541 15.1959 28.2254 15.3823C28.0104 16.7585 27.0212 17.8767 25.6737 18.2494C25.3439 18.3497 25.0285 18.3927 24.7132 18.3927Z" fill="#14100F"/>
<path d="M37.0129 9.34726C36.9699 9.34726 36.9269 9.33292 36.8839 9.31859C36.7119 9.24691 36.6259 9.04621 36.6832 8.87418L40.0378 0.215461C40.1094 0.043433 40.2958 -0.0425808 40.4822 0.0147618C40.6542 0.0864399 40.7402 0.287139 40.6829 0.459166L37.3427 9.11789C37.2853 9.26125 37.1563 9.34726 37.0129 9.34726Z" fill="#14100F"/>
<path d="M29.8882 11.5554C29.7735 11.5554 29.6588 11.4981 29.5871 11.3834L25.4298 4.35894C25.3295 4.20124 25.3868 3.98621 25.5445 3.88586C25.7022 3.78551 25.9172 3.84285 26.0176 4.00055L30.1749 11.025C30.2752 11.1827 30.2179 11.3977 30.0602 11.4981C30.0172 11.5268 29.9455 11.5554 29.8882 11.5554Z" fill="#14100F"/>
<path d="M23.4802 15.3253C23.4515 15.3253 23.4228 15.3253 23.3798 15.311C22.9784 15.1963 19.4232 14.1641 18.8784 13.8631C18.7208 13.7771 18.6634 13.562 18.7494 13.4043C18.8354 13.2466 19.0505 13.1893 19.2082 13.2753C19.5666 13.476 22.0753 14.2358 23.5662 14.6659C23.7526 14.7232 23.8529 14.9096 23.7956 15.0816C23.7669 15.225 23.6235 15.3253 23.4802 15.3253Z" fill="#14100F"/>
<path d="M23.4515 16.2144C23.3081 16.2144 23.1648 16.114 23.1218 15.9707C23.0644 15.7843 23.1791 15.5979 23.3655 15.5549C23.5948 15.4976 23.7669 15.2682 23.8242 14.9672C23.9102 14.5084 23.6952 14.0497 23.2508 13.72C23.0931 13.6053 23.0644 13.3903 23.1791 13.2469C23.2938 13.0892 23.5088 13.0605 23.6522 13.1752C24.2973 13.6483 24.627 14.3794 24.498 15.0819C24.3976 15.641 24.0393 16.071 23.5518 16.2C23.5088 16.2144 23.4802 16.2144 23.4515 16.2144Z" fill="#14100F"/>
<path d="M29.6012 11.6267C29.0134 11.6267 28.3683 11.4404 27.7519 10.8956C27.6085 10.7666 27.5942 10.5516 27.7232 10.4082C27.8522 10.2648 28.0673 10.2505 28.2106 10.3795C29.7015 11.6697 31.2068 10.3509 31.2641 10.2935C31.4075 10.1645 31.6225 10.1788 31.7515 10.3222C31.8805 10.4655 31.8662 10.6806 31.7228 10.8096C31.2928 11.168 30.5043 11.6267 29.6012 11.6267Z" fill="#14100F"/>
<path d="M30.1175 16.2C29.4007 16.2 28.6983 16.0137 28.0675 15.6553C27.0927 15.1105 26.4046 14.2074 26.1035 13.1322C25.9028 12.4298 25.9028 11.6843 26.0892 10.9675C26.1322 10.7812 26.3186 10.6808 26.5049 10.7238C26.6913 10.7668 26.7916 10.9532 26.7486 11.1396C26.5909 11.7273 26.6053 12.3581 26.763 12.9458C27.0067 13.849 27.5944 14.5944 28.4116 15.0532C29.2287 15.5119 30.1605 15.6266 31.0637 15.3829C31.9668 15.1392 32.7123 14.5514 33.171 13.7343C33.6297 12.9172 33.7444 11.9854 33.5007 11.0822C33.257 10.2221 32.7123 9.49096 31.9381 9.03222C31.7804 8.93187 31.7231 8.73117 31.8235 8.55914C31.9238 8.40145 32.1245 8.3441 32.2965 8.44445C33.214 9.00354 33.8735 9.86368 34.1602 10.8958C34.4612 11.971 34.3179 13.1035 33.7731 14.064C33.2283 15.0388 32.3252 15.727 31.25 16.028C30.863 16.157 30.4902 16.2 30.1175 16.2Z" fill="#14100F"/>
<path d="M37.4574 10.0497C37.2567 10.0497 37.0273 10.021 36.798 9.92067C36.3249 9.7343 35.9522 9.33291 35.7085 8.74515C35.6368 8.57312 35.7228 8.37242 35.8948 8.30074C36.0668 8.22906 36.2675 8.31508 36.3392 8.4871C36.5113 8.90284 36.755 9.17521 37.056 9.2899C37.4861 9.46193 37.9305 9.2899 37.9305 9.27556C38.1025 9.20388 38.3032 9.27556 38.3749 9.44759C38.4466 9.61962 38.3749 9.82032 38.2029 9.892C38.1885 9.92067 37.8731 10.0497 37.4574 10.0497Z" fill="#14100F"/>
<path d="M26.3186 32.4847C24.7703 32.4847 23.4658 32.2983 22.577 31.8539C22.4049 31.7679 22.3332 31.5672 22.4193 31.3952C22.5053 31.2231 22.706 31.1515 22.878 31.2375C26.6769 33.1298 39.3066 29.9759 44.7685 27.0085C46.7038 25.962 46.9189 25.3599 46.9332 25.2022C46.9475 25.0158 47.1196 24.8725 47.3059 24.9011C47.4923 24.9155 47.6213 25.0875 47.607 25.2739C47.5209 25.962 46.7038 26.7217 45.0839 27.6106C40.7115 29.9903 31.8951 32.4847 26.3186 32.4847Z" fill="#14100F"/>
<path d="M18.061 48.3833C19.0932 51.2074 16.7278 55.6085 12.5561 57.4434C8.38444 59.2784 4.01207 58.5186 2.80788 55.7518C1.60368 52.9851 3.99773 49.2721 8.18374 47.4372C12.3554 45.6165 16.5271 44.1973 18.061 48.3833Z" fill="#E68A63"/>
<path d="M6.44929 43.4945C-0.0877576 47.0641 -0.689855 52.3109 0.571681 54.404C1.83322 56.497 3.51049 57.7298 3.22377 56.4826C2.9514 55.2354 3.78286 56.2246 5.60349 56.6403C7.42411 57.056 7.56747 56.0812 7.83985 56.3536C8.12656 56.6403 8.88635 58.6186 10.2482 58.1886C11.6101 57.7585 8.95802 55.1064 10.3629 55.5221C11.7678 55.9379 12.1835 55.8088 12.5993 55.1064C13.015 54.404 12.886 53.5725 14.1332 53.9882C15.3804 54.404 16.2262 53.1424 15.8105 51.4651C15.3947 49.7879 17.2153 51.1784 17.2153 50.2036C17.2153 49.2288 16.9286 48.1106 17.7744 47.4082C18.6202 46.7057 17.4877 43.4945 14.1332 42.6487C10.793 41.8173 7.99754 42.6487 6.44929 43.4945Z" fill="#2F2422"/>
<path d="M8.79533 50.2082C10.3256 49.5378 11.208 48.1771 10.7664 47.169C10.3248 46.161 8.72626 45.8872 7.19603 46.5576C5.66579 47.228 4.78331 48.5887 5.22494 49.5968C5.66658 50.6048 7.2651 50.8786 8.79533 50.2082Z" fill="#E68A63"/>
<path d="M10.8645 47.8241C10.2194 46.9927 8.82882 47.9675 8.39875 48.6699C7.98302 49.3724 7.13722 48.8133 6.57813 49.3724C6.01904 49.9315 5.31659 50.0748 6.01904 50.7773C6.72149 51.4797 1.8187 47.5661 6.01904 45.8745C10.2194 44.1972 11.4809 44.3406 11.6099 45.5878C11.7676 46.8493 10.8645 47.8241 10.8645 47.8241Z" fill="#2F2422"/>
<path d="M15.2655 43.9102C13.4592 43.6521 13.5882 45.0283 14.7064 45.0283C15.8246 45.0283 16.2403 44.0535 15.2655 43.9102Z" fill="#FFB83A"/>
<path d="M10.9364 43.9098C9.94729 44.7413 11.3522 44.6123 11.7822 44.1966C12.1836 43.7665 11.7679 43.2074 10.9364 43.9098Z" fill="#DCE0FA"/>
<path d="M8.1268 43.3509C6.54988 43.1502 7.00862 44.469 8.41352 44.469C9.80407 44.469 9.24498 43.4942 8.1268 43.3509Z" fill="#FFB83A"/>
<path d="M14.2907 48.2541C12.9431 48.8275 12.7567 49.2289 14.2907 49.0999C15.8246 48.9422 15.2655 47.824 14.2907 48.2541Z" fill="#DCE0FA"/>
<path d="M11.7676 51.3218C13.5022 51.6659 12.0543 52.5834 11.2085 52.1676C10.3627 51.7519 10.3627 51.0495 11.7676 51.3218Z" fill="#F23D04"/>
<path d="M7.85435 51.7514C6.0624 51.2353 6.32044 52.5972 7.56764 52.8696C8.82918 53.142 8.82918 52.0238 7.85435 51.7514Z" fill="#FFB83A"/>
<path d="M4.77191 54.5474C4.91527 53.3575 6.30582 53.1425 6.03344 54.2606C5.74673 55.3788 4.62855 55.6655 4.77191 54.5474Z" fill="#DCE0FA"/>
<path d="M2.24892 52.3106C1.24542 51.8088 0.571649 52.8697 1.83318 53.1564C3.09472 53.4287 3.3671 52.8697 2.24892 52.3106Z" fill="#F23D04"/>
<path d="M1.56086 49.6446C1.93359 48.512 3.52484 48.1106 2.96575 49.2288C2.39233 50.347 1.27415 50.4904 1.56086 49.6446Z" fill="#FFB83A"/>
<path d="M3.92608 51.193C2.87957 51.3651 4.06943 52.1679 4.77188 51.8955C5.47432 51.6088 4.77188 51.0497 3.92608 51.193Z" fill="#F23D04"/>
<path d="M5.15897 46.333C3.65372 46.1896 4.91526 47.5372 5.89008 47.2648C6.86491 46.9924 5.67505 46.3903 5.15897 46.333Z" fill="#F23D04"/>
<path d="M7.71088 45.588C8.64269 45.1866 9.11577 45.7314 8.26997 46.0038C7.42416 46.2905 6.73605 46.0181 7.71088 45.588Z" fill="#DCE0FA"/>
<path d="M10.6637 48.9139C10.5921 48.9139 10.506 48.8852 10.4487 48.8422C10.3053 48.7275 10.2767 48.5125 10.3914 48.3691C10.9218 47.7097 11.0938 47.0503 10.8071 46.7062C10.4344 46.2618 9.30185 46.2331 7.59591 47.1649C7.42389 47.251 7.22319 47.1936 7.13717 47.0216C7.05116 46.8496 7.1085 46.6489 7.28053 46.5628C9.47388 45.373 10.8214 45.631 11.3375 46.2618C11.8536 46.8782 11.6959 47.8387 10.9361 48.7849C10.8644 48.8709 10.7641 48.9139 10.6637 48.9139Z" fill="#14100F"/>
<path d="M6.607 50.992C5.90455 50.992 5.07308 50.8343 4.52833 50.3182C4.22728 50.0315 3.88323 49.5011 4.01225 48.6266C4.04092 48.4403 4.21295 48.3113 4.39931 48.3399C4.58567 48.3686 4.71469 48.5406 4.68602 48.727C4.61434 49.2144 4.71469 49.5728 5.00141 49.8308C5.57483 50.3612 6.72168 50.3756 7.36678 50.2466C7.55315 50.2036 7.72518 50.3326 7.76818 50.5189C7.81119 50.7053 7.68217 50.8773 7.49581 50.9203C7.26643 50.949 6.95105 50.992 6.607 50.992Z" fill="#14100F"/>
<path d="M8.35596 54.6044C8.28429 54.6044 8.19827 54.6044 8.12659 54.6044C7.94023 54.6044 7.79688 54.4467 7.79688 54.246C7.79688 54.0597 7.95457 53.9163 8.15527 53.9163C12.1119 54.0453 14.2622 50.3467 14.2909 50.3037C14.3913 50.146 14.592 50.0887 14.7497 50.1747C14.9073 50.2751 14.9647 50.4758 14.8787 50.6335C14.764 50.8198 12.5563 54.6044 8.35596 54.6044Z" fill="#14100F"/>
<path d="M44.7543 40.8286C45.4424 40.2552 63.0035 42.6636 62.8315 43.3804C62.6595 44.0828 60.4375 51.8814 59.7637 52.5838C59.0756 53.2863 43.7221 51.8814 43.0483 51.5947L44.7543 40.8286Z" fill="white"/>
<path d="M44.7544 40.8288C45.2704 40.6854 59.5917 41.818 61.6417 42.5347C63.6917 43.2515 63.147 43.1225 62.8316 44.6564C62.6596 45.5022 44.2383 43.5239 44.2383 43.5239L44.7544 40.8288Z" fill="#E68A63"/>
<path d="M43.8942 45.0859C43.8942 45.0859 61.5127 46.8205 61.656 47.437C61.7994 48.0534 60.9106 49.7737 60.9106 49.7737L43.7222 47.4943L43.8942 45.0859Z" fill="#E68A63"/>
<path d="M43.3924 49.4727C43.3924 49.4727 60.4518 51.3076 60.4518 51.7377C60.4518 52.1678 59.7637 53.5726 59.7637 53.5726C59.7637 53.5726 43.0483 52.0244 43.0483 51.881C43.0483 51.7377 43.3924 49.4727 43.3924 49.4727Z" fill="#E68A63"/>
<path d="M52.768 40.7859C53.7101 40.7859 54.4739 40.0221 54.4739 39.08C54.4739 38.1378 53.7101 37.374 52.768 37.374C51.8258 37.374 51.062 38.1378 51.062 39.08C51.062 40.0221 51.8258 40.7859 52.768 40.7859Z" fill="#2F2422"/>
<path d="M57.1974 40.7854C58.7017 40.7854 59.9212 39.566 59.9212 38.0617C59.9212 36.5574 58.7017 35.3379 57.1974 35.3379C55.6931 35.3379 54.4736 36.5574 54.4736 38.0617C54.4736 39.566 55.6931 40.7854 57.1974 40.7854Z" fill="#2F2422"/>
<path d="M62.4872 44.9572C62.4155 44.9572 62.3582 44.9429 62.2865 44.8999C62.2578 44.8855 61.326 44.3408 56.8103 43.8534C55.4628 43.71 54.2299 43.538 53.0257 43.366C50.0296 42.9502 47.4491 42.5918 44.4387 42.8642C44.2523 42.8786 44.0803 42.7495 44.0659 42.5488C44.0516 42.3625 44.1949 42.1904 44.3813 42.1761C47.4635 41.9037 50.0869 42.2621 53.126 42.6779C54.3159 42.8355 55.5344 43.0076 56.882 43.1509C61.6127 43.6527 62.5732 44.2404 62.6736 44.3121C62.8313 44.4125 62.8743 44.6275 62.7596 44.7852C62.7023 44.9142 62.6019 44.9572 62.4872 44.9572Z" fill="#2F2422"/>
<path d="M61.6417 47.7812C61.5844 47.7812 60.1938 47.7669 56.6242 46.8351C55.0473 46.4193 53.4417 46.362 51.5781 46.3046C49.3561 46.233 46.8473 46.1326 43.8225 45.3872C43.6361 45.3442 43.5215 45.1578 43.5788 44.9714C43.6218 44.7851 43.8082 44.6704 43.9945 44.7277C46.9477 45.4588 49.4277 45.5592 51.6068 45.6309C53.4274 45.6882 55.1477 45.7599 56.7963 46.19C60.2655 47.0931 61.6417 47.1074 61.6417 47.1074C61.8281 47.1074 61.9858 47.2651 61.9858 47.4515C61.9858 47.6379 61.8281 47.7812 61.6417 47.7812Z" fill="#2F2422"/>
<path d="M61.0825 49.5306C60.9822 49.5306 58.8175 49.4732 54.7462 48.6274C50.9186 47.8246 48.0371 47.5952 44.0805 47.7816C43.8941 47.7959 43.7364 47.6382 43.7221 47.4519C43.7078 47.2655 43.8655 47.1078 44.0518 47.0935C48.0658 46.9071 51.0046 47.1508 54.8896 47.9536C58.9035 48.7851 61.0682 48.8424 61.0969 48.8424C61.2832 48.8424 61.4409 49.0001 61.4266 49.1865C61.4266 49.3872 61.2689 49.5306 61.0825 49.5306Z" fill="#2F2422"/>
<path d="M59.2475 52.6698C58.3014 52.6698 56.6528 52.5838 53.9147 52.2111C52.5241 52.0247 51.5636 51.8813 50.7895 51.7523C48.7252 51.4369 47.9511 51.3079 43.378 51.1932C43.1916 51.1932 43.0339 51.0355 43.0483 50.8492C43.0483 50.6628 43.206 50.5051 43.3923 50.5195C48.0084 50.6485 48.7969 50.7632 50.8899 51.0929C51.6497 51.2076 52.6101 51.3653 54.0007 51.5516C58.9178 52.2111 60.2224 51.953 60.2367 51.9387C60.4231 51.8957 60.5951 52.0104 60.6381 52.1967C60.6811 52.3831 60.5664 52.5551 60.3801 52.5981C60.3801 52.5981 60.079 52.6698 59.2475 52.6698Z" fill="#2F2422"/>
<path d="M63.1324 43.2659C63.9352 44.126 63.6055 45.0292 63.1324 46.4914C62.6593 47.9536 62.8313 48.4697 62.4873 50.5197C62.1432 52.5697 60.9534 53.0858 61.1254 53.7596C61.2974 54.4477 60.4373 54.2757 59.9355 53.5875C59.4338 52.8994 60.6237 50.6918 60.7957 49.4876C60.9677 48.2977 61.3118 47.2655 61.6415 46.2477C61.9855 45.2299 62.4156 42.4918 63.1324 43.2659Z" fill="white"/>
<path d="M44.5824 39.8395C44.9838 38.75 53.6282 39.8395 57.5418 40.1262C61.4554 40.4129 64.8816 40.6996 64.7096 42.2479C64.5376 43.8104 63.5197 47.208 62.8316 46.3622C62.1435 45.5164 62.8316 42.8213 61.6418 43.108C60.4519 43.3947 59.4197 42.6779 57.7138 42.4056C56.0079 42.1188 55.6638 42.4056 51.7502 41.9755C47.8222 41.5454 44.0663 41.2587 44.5824 39.8395Z" fill="#F23D04"/>
<path d="M61.6419 64.1663C61.4698 62.8044 64.7097 61.2705 65.0537 61.2705C65.3978 61.2705 65.8995 61.6145 65.8995 61.6145C65.8995 61.6145 65.8995 60.9264 66.4156 60.4247C66.9317 59.9229 68.9817 58.5467 69.4835 58.7187C69.9995 58.8908 70.5013 58.8908 70.5013 58.7187C70.5013 58.5467 70.3293 57.7009 71.8632 57.1848C72.8953 56.8408 73.7411 56.167 74.2572 56.167C74.7733 56.167 76.6513 57.5289 76.8233 57.8729C76.9953 58.217 76.9953 58.561 76.9953 58.561C76.9953 58.561 77.1673 58.389 78.1852 59.0771C79.203 59.7652 79.8911 60.7831 80.0632 61.1271C80.2352 61.4712 80.0632 63.1771 80.0632 63.1771C80.0632 63.1771 70.6733 69.3128 70.5156 69.1551C70.3579 68.9974 70.1716 68.2949 69.3258 68.2949C68.4656 68.2949 67.9639 67.7789 67.4478 67.7789C66.9317 67.7789 65.9139 68.467 65.7419 68.467C65.5698 68.467 61.9859 66.0729 61.8139 65.9009C61.6419 65.7289 61.6419 64.1663 61.6419 64.1663Z" fill="#E07445"/>
<path d="M70.6873 69.1117C70.673 69.1117 70.6586 69.1117 70.6586 69.1117C70.4723 69.0973 70.3289 68.9253 70.3576 68.7389L70.5153 67.119C70.4293 66.9327 70.1139 66.3879 69.3254 66.3879C68.8523 66.3879 68.494 66.4166 68.2072 66.4309C67.7342 66.4739 67.4188 66.4882 67.1321 66.3449C67.0174 66.3162 66.5443 66.4309 66.0856 66.6173V68.0938C66.0856 68.2802 65.9279 68.4379 65.7415 68.4379C65.5552 68.4379 65.3975 68.2802 65.3975 68.0938V66.1585L65.5982 66.0725C66.0999 65.8575 67.0031 65.5278 67.4188 65.7428C67.5335 65.8001 67.7772 65.7858 68.1499 65.7571C68.451 65.7285 68.8237 65.6998 69.3254 65.6998C70.4579 65.6998 71.0457 66.5169 71.1891 66.9613L71.2177 67.033L71.0457 68.8106C71.0027 68.9826 70.8593 69.1117 70.6873 69.1117Z" fill="#2F2422"/>
<path d="M70.8451 67.4062C70.7304 67.4062 70.6301 67.3488 70.5584 67.2485C70.458 67.0908 70.501 66.8758 70.6587 66.7754L79.8765 60.8118C80.0342 60.7114 80.2493 60.7545 80.3496 60.9121C80.45 61.0698 80.407 61.2849 80.2493 61.3852L71.0315 67.3632C70.9741 67.3775 70.9168 67.4062 70.8451 67.4062Z" fill="#2F2422"/>
<path d="M65.7275 66.7181C65.6702 66.7181 65.5985 66.7038 65.5412 66.6608L62.3013 64.6108C62.1436 64.5105 62.1006 64.2954 62.201 64.1377C62.3013 63.98 62.5163 63.937 62.674 64.0374L65.9139 66.0874C66.0716 66.1877 66.1146 66.4028 66.0142 66.5604C65.9569 66.6608 65.8422 66.7181 65.7275 66.7181Z" fill="#2F2422"/>
<path d="M65.0536 65.8722C64.9819 65.8722 64.9246 65.8579 64.8672 65.8149C64.7095 65.7145 64.6665 65.4995 64.7669 65.3418C65.455 64.2953 67.2613 63.1484 67.9494 63.1484C68.5228 63.1484 70.8595 63.8365 71.4616 64.6537C71.5763 64.8114 71.5476 65.0121 71.3899 65.1268C71.2322 65.2414 71.0315 65.2128 70.9169 65.0551C70.5011 64.5103 68.4225 63.8222 67.9494 63.8222C67.591 63.8222 65.9711 64.7684 65.3403 65.7145C65.2686 65.8149 65.1683 65.8722 65.0536 65.8722Z" fill="#2F2422"/>
<path d="M68.8097 63.6504C68.6806 63.6504 68.566 63.5788 68.5086 63.4641C68.4226 63.2921 68.4943 63.0914 68.6663 63.0053C68.6663 63.0053 68.824 62.9193 68.824 62.8046C68.824 61.9445 70.8883 61.0987 71.7771 60.7833C71.9492 60.726 72.1499 60.812 72.2072 60.984C72.2645 61.156 72.1785 61.3567 72.0065 61.4141C70.1142 62.1022 69.5551 62.69 69.4978 62.819C69.4834 63.249 69.1681 63.5214 68.9674 63.6218C68.91 63.6361 68.8527 63.6504 68.8097 63.6504Z" fill="#2F2422"/>
<path d="M75.4613 62.9618C75.3896 62.9618 75.3322 62.9474 75.2749 62.9044C74.7588 62.5604 73.2679 61.3992 73.2106 61.3562L73.0815 61.2558V61.0838C73.0815 60.9404 73.1102 60.1806 73.612 59.9226C73.6693 59.8939 73.7983 59.7936 73.9273 59.6932C74.5008 59.2632 75.5473 58.4604 76.9378 58.188C77.1242 58.145 77.2962 58.274 77.3392 58.4604C77.3822 58.6467 77.2532 58.8188 77.0668 58.8618C75.834 59.1055 74.8592 59.8509 74.3431 60.238C74.1567 60.3813 74.0277 60.4817 73.913 60.539C73.8557 60.5677 73.7983 60.7397 73.7697 60.9261C74.1567 61.2271 75.2462 62.0729 75.6476 62.331C75.8053 62.4313 75.8483 62.6464 75.748 62.8041C75.6763 62.9188 75.5616 62.9618 75.4613 62.9618Z" fill="#2F2422"/>
<path d="M71.3612 60.238C71.3039 60.238 71.2609 60.2237 71.2036 60.195C70.3721 59.7793 69.942 58.7471 70.2574 58.0017C70.3291 57.8296 70.5298 57.7436 70.7018 57.8296C70.8738 57.9013 70.9599 58.102 70.8738 58.274C70.7161 58.6468 70.9455 59.3206 71.4903 59.5929C71.6623 59.6789 71.734 59.8796 71.648 60.0517C71.605 60.1664 71.4903 60.238 71.3612 60.238Z" fill="#2F2422"/>
<path d="M65.7274 68.7677C65.6557 68.7677 65.5983 68.7534 65.541 68.7104L61.3263 65.9006L61.2976 65.7572C61.1686 65.0118 60.9679 63.7072 61.1543 63.3202C61.2976 63.0335 62.5448 62.2307 64.8815 60.9548L64.9819 60.8975L65.0966 60.9118C65.1826 60.9261 67.3043 61.2989 68.2361 62.7754C68.3364 62.9331 68.2934 63.1482 68.1214 63.2485C67.9637 63.3489 67.7487 63.3058 67.6483 63.1338C66.9889 62.0873 65.5123 61.7003 65.0966 61.5999C63.6057 62.417 62.0144 63.3775 61.7564 63.6212C61.7134 63.8363 61.7994 64.7107 61.9427 65.4705L65.9137 68.1226C66.0714 68.223 66.1144 68.438 66.0141 68.5957C65.9567 68.7104 65.842 68.7677 65.7274 68.7677Z" fill="#2F2422"/>
</g>
<defs>
<clipPath id="clip0_2720_4771">
<rect width="86.9169" height="160" fill="white" transform="translate(0.0415039)"/>
</clipPath>
</defs>
</svg>
