<svg width="85" height="121" viewBox="0 0 85 121" fill="none" xmlns="http://www.w3.org/2000/svg">
<g clip-path="url(#clip0_2647_4268)">
<path d="M46.4754 101.134C46.4357 101.134 46.396 101.134 46.3563 101.124C45.9493 101.064 45.6714 100.687 45.7309 100.28C46.1875 97.2921 46.7931 94.9296 47.2794 93.0337C47.5276 92.0808 47.7361 91.2569 47.8949 90.5025C48.4408 87.8819 48.7585 85.6782 48.5202 83.4845C48.4805 83.0775 48.7684 82.7103 49.1754 82.6606C49.5824 82.611 49.9496 82.9088 49.9993 83.3158C50.2574 85.708 49.9298 88.0407 49.3541 90.8003C49.1853 91.5944 48.9769 92.4282 48.7287 93.401C48.2522 95.2671 47.6566 97.5899 47.21 100.508C47.1504 100.866 46.8328 101.134 46.4754 101.134Z" fill="#754B32"/>
<path d="M28.8065 5.48304C28.8065 5.48304 25.0841 2.48528 20.24 6.05877C16.5772 8.76868 7.49453 17.216 8.914 44.1761C8.914 44.1761 9.87686 63.0958 21.0143 65.895C21.0143 65.895 19.5551 64.5053 19.3168 61.3586C19.3168 61.3586 23.9425 66.431 31.7546 67.374L39.6361 67.3442C48.6791 66.4807 52.461 61.5075 52.461 61.5075C52.461 62.4009 50.982 65.7759 50.982 65.7759C50.982 65.7759 61.2757 62.1925 62.4271 49.7348C64.1345 31.2321 58.3275 16.3127 53.9599 10.8234C47.8949 3.2099 35.5465 -3.35143 28.8065 5.48304Z" fill="white"/>
<path d="M28.8164 7.4286C28.8164 7.4286 25.094 4.52017 20.2499 7.98448C16.5772 10.615 7.49452 18.7844 8.92392 44.9007C8.92392 44.9007 9.87685 63.2248 21.0242 65.9347C21.0242 65.9347 19.565 64.5946 19.3268 61.5373C19.3268 61.5373 23.9525 66.4509 31.7645 67.3641L39.6461 67.3343C48.689 66.5005 52.4709 61.6763 52.4709 61.6763C52.4709 62.5399 50.9919 65.8156 50.9919 65.8156C50.9919 65.8156 62.9234 62.1825 63.7374 50.0922C65.3454 26.2292 57.9701 17.9208 53.6025 12.5903C47.5375 5.22495 35.5564 -1.13786 28.8164 7.4286Z" fill="#8C6B52"/>
<path d="M51.2004 72.3571C49.632 72.0891 48.1927 72.0891 46.6243 72.0097C44.5795 72.0196 40.7181 71.4836 39.7552 69.8358C39.2986 69.0317 38.6435 59.9094 39.5964 59.4627L31.7943 59.4925C32.0424 59.6017 31.9829 69.3792 31.7149 69.8656C30.7619 71.5233 26.9105 72.0891 24.8557 72.0891C23.2874 72.1883 22.7712 72.1883 21.2128 72.4663L22.4238 79.4842C23.1385 80.4967 22.4833 82.8195 22.4238 83.3654C22.1756 85.7974 22.5925 88.2294 23.1087 90.6117C23.615 92.9444 24.4488 95.9322 25.1535 100.34L46.525 100.26C47.2 95.8528 48.0041 92.855 48.5004 90.5223C48.9967 88.1301 49.3938 85.6981 49.1357 83.2662C49.0761 82.7202 48.4805 80.318 48.957 79.385L51.2004 72.3571Z" fill="#FEECD6"/>
<path d="M43.289 75.4342C40.9563 75.7717 38.7626 76.6254 36.41 76.8934C35.7152 76.8438 35.0204 76.7743 34.3255 76.6949C33.849 76.6353 33.3726 76.5758 32.8862 76.5162C32.4395 76.417 31.9829 76.3475 31.5362 76.3574C31.4568 76.3475 31.3774 76.3375 31.298 76.3276C30.6627 76.2581 30.0472 76.0993 29.4119 76.01C29.3722 75.9901 29.3226 75.9603 29.2829 75.9405C29.1836 75.8809 29.0943 75.871 29.0149 75.8909C28.8461 75.4342 27.9925 75.5236 27.923 76.139C27.8436 76.8934 27.8932 77.4394 28.3598 78.0449C28.3995 78.1044 28.4491 78.1441 28.4987 78.1739C28.7568 80.0004 29.3127 81.6779 29.8586 83.3356C30.6924 85.8966 31.4369 88.5569 32.1318 91.2271C32.8266 93.9072 33.3726 96.6866 34.0277 99.3866C34.3156 100.588 34.7424 103.099 35.6953 103.387C36.6979 103.695 36.9262 101.203 37.1247 100.171C37.6508 97.5006 38.5244 95.019 39.1001 92.3686C39.6957 89.6091 40.3508 86.9687 41.1846 84.3581C41.8497 82.2735 42.5148 80.1989 43.0508 78.025C43.4379 77.4195 43.8449 76.8438 43.9541 76.1092C44.0434 75.6725 43.7258 75.3747 43.289 75.4342Z" fill="#EDF7FD"/>
<path d="M20.4187 73.3398C20.0614 73.3398 19.7537 73.0916 19.6842 72.7243C19.6147 72.3174 19.8827 71.9302 20.2798 71.8608C21.5106 71.6424 22.6422 71.5828 23.8334 71.5233C24.2007 71.5034 24.568 71.4836 24.9452 71.4637C24.9551 71.4637 24.9749 71.4637 24.9849 71.4637C27.4168 71.4538 30.4146 70.7689 31.1591 69.677C31.3477 68.6248 31.4172 60.9814 31.2484 59.8995C31.169 59.7109 31.169 59.5024 31.2583 59.3039C31.4271 58.9267 31.8639 58.7679 32.2411 58.9366C32.3602 58.9862 32.5686 59.1252 32.658 59.423C32.8366 59.969 32.8366 63.0858 32.8267 64.9024C32.787 69.8457 32.5984 70.1733 32.4991 70.3519C31.3179 72.3968 27.1091 72.9527 25.0147 72.9626C24.6374 72.9824 24.2702 73.0023 23.9029 73.0221C22.7614 73.0817 21.6794 73.1313 20.5478 73.3398C20.4981 73.3299 20.4584 73.3398 20.4187 73.3398Z" fill="#754B32"/>
<path d="M25.4017 101.203C25.0444 101.203 24.7267 100.945 24.6672 100.578C24.1907 97.5899 23.5951 95.2374 23.1087 93.3414C22.8904 92.4679 22.6819 91.644 22.5132 90.8896C21.858 87.8819 21.6396 85.2713 21.858 83.1272C21.8977 82.7202 22.265 82.4224 22.672 82.4621C23.079 82.5018 23.3768 82.8691 23.337 83.2761C23.1385 85.2614 23.347 87.7231 23.9624 90.572C24.1212 91.2966 24.3198 92.0709 24.5481 92.9742C25.0345 94.8999 25.64 97.2921 26.1264 100.34C26.1958 100.747 25.9179 101.124 25.5109 101.193C25.4811 101.203 25.4414 101.203 25.4017 101.203Z" fill="#754B32"/>
<path d="M51.3394 73.2207C51.2997 73.2207 51.2501 73.2207 51.2104 73.2107C50.0688 73.0122 48.9869 72.9725 47.8453 72.9229C47.4781 72.903 47.1108 72.8931 46.7336 72.8732C44.649 72.8732 40.4303 72.3471 39.2392 70.3321C38.7031 69.3791 38.1274 61.7358 38.7726 59.7406C38.8223 59.5818 38.9712 59.1153 39.4079 58.9167C39.7851 58.748 40.2219 58.9068 40.3906 59.284C40.5395 59.6017 40.4403 59.959 40.1921 60.1675C39.6859 61.3189 40.1524 68.6446 40.5296 69.6075C41.2046 70.7192 44.2718 71.4041 46.7435 71.3942C46.7534 71.3942 46.7733 71.3942 46.7832 71.3942C47.1604 71.4141 47.5277 71.4339 47.895 71.4438C49.0861 71.4935 50.2078 71.5431 51.4486 71.7516C51.8556 71.821 52.1236 72.2082 52.0541 72.6151C52.0045 72.9725 51.6868 73.2207 51.3394 73.2207Z" fill="#754B32"/>
<path d="M31.7546 68.1086C31.7248 68.1086 31.6951 68.1086 31.6653 68.0986C26.3745 67.4634 22.5231 65.0215 20.4683 63.3836C20.9051 64.7137 21.5304 65.3391 21.5404 65.349C21.7786 65.5873 21.8382 65.9545 21.6694 66.2424C21.5007 66.5303 21.1632 66.6792 20.8455 66.5998C16.0312 65.3887 12.3088 61.1005 10.0853 54.2017C8.43755 49.0996 8.18939 44.4044 8.17946 44.2158C7.16697 25.2167 11.1872 11.8161 19.8033 5.46319C23.8532 2.46542 27.2778 3.75585 28.6377 4.50033C30.8315 1.91947 33.7399 0.539704 37.1049 0.499999C37.1347 0.499999 37.1645 0.499999 37.1943 0.499999C43.8648 0.480146 50.7934 5.42348 54.7143 10.3569C58.397 14.9925 66.6955 28.1053 64.0848 49.8242C63.2808 56.4848 59.8363 60.6539 57.0768 62.9866C54.0989 65.5079 51.3195 66.4509 51.2004 66.4906C50.9225 66.5799 50.6147 66.5005 50.4162 66.2821C50.2177 66.0637 50.168 65.756 50.2872 65.4781C50.4956 64.9917 50.714 64.4755 50.9125 63.9693C48.8578 65.5476 45.2247 67.5527 39.6957 68.0887C39.2887 68.1284 38.9215 67.8306 38.8818 67.4237C38.842 67.0167 39.1398 66.6494 39.5468 66.6097C48.1232 65.7957 51.8158 61.1005 51.8456 61.0608C52.0441 60.8127 52.3717 60.7035 52.6695 60.8127C52.9673 60.9119 53.1757 61.1998 53.1757 61.5175C53.1757 62.0932 52.7588 63.3042 52.3519 64.3564C53.3643 63.8402 54.7441 63.0163 56.1437 61.8152C59.8264 58.6785 61.9904 54.5888 62.5859 49.6554C65.1271 28.5023 57.0967 15.7866 53.5331 11.2999C49.9596 6.76354 43.2791 1.91947 37.1248 1.98896C33.9682 2.01873 31.3675 3.34887 29.4021 5.92973C29.2829 6.08855 29.0943 6.18781 28.8958 6.21759C28.6973 6.23745 28.4988 6.18781 28.3399 6.05877C28.2109 5.94958 24.9848 3.47791 20.6867 6.65435C12.4974 12.6995 8.68571 25.6634 9.6585 44.1364C9.66842 44.3051 10.5916 60.2568 19.2871 64.4755C18.9595 63.7013 18.6816 62.6888 18.5823 61.4083C18.5625 61.0906 18.7411 60.7928 19.029 60.6737C19.3169 60.5447 19.6643 60.6241 19.8727 60.8524C19.9124 60.902 24.419 65.7362 31.844 66.6295C32.2509 66.6792 32.5388 67.0464 32.4892 67.4534C32.4495 67.8306 32.1318 68.1086 31.7546 68.1086Z" fill="#754B32"/>
<path d="M13.1526 38.2798C12.696 37.9324 11.3063 38.6769 10.9291 39.0044C8.85448 40.8507 9.46992 44.3448 10.8398 46.3896C11.8423 47.8786 13.3511 48.365 15.1379 48.7323L13.3511 38.3096L13.1526 38.2798Z" fill="#FEECD6"/>
<path d="M15.1478 49.4768C15.0982 49.4768 15.0485 49.4768 14.9989 49.4569C13.3213 49.1095 11.4353 48.5933 10.2342 46.8066C8.54676 44.2952 8.16956 40.4835 10.4526 38.4485C10.7008 38.2302 12.5967 36.9199 13.6092 37.6842C13.9368 37.9324 14.0063 38.3989 13.7581 38.7265C13.5298 39.0243 13.1327 39.1037 12.8052 38.9349C12.5074 38.9449 11.6934 39.332 11.4353 39.5603C9.60888 41.1783 10.3732 44.3448 11.4651 45.9727C12.2692 47.1738 13.4802 47.6305 15.2967 47.9977C15.7037 48.0771 15.9618 48.4742 15.8724 48.8712C15.8029 49.2286 15.4952 49.4768 15.1478 49.4768Z" fill="#754B32"/>
<path d="M40.3211 14.2977C13.629 13.0866 12.3882 26.8843 13.639 36.8603C13.6985 37.3467 13.7184 37.853 13.7084 38.3393C13.9864 43.6797 14.979 48.9308 17.3812 53.6061C20.1308 59.1748 24.5878 62.7483 30.2259 63.999C35.5167 65.1505 39.6758 64.9123 45.4034 61.9741C50.5651 59.3237 54.754 54.2811 56.6897 48.5734C57.8908 44.7319 58.0496 41.1684 58.1091 37.1184C58.1191 37.1184 59.886 15.1811 40.3211 14.2977Z" fill="#FEECD6"/>
<path d="M29.263 40.0368C29.3722 40.0368 29.4814 40.0169 29.5807 39.9871C30.1664 39.8084 30.5038 39.1831 30.3252 38.5875C30.0373 37.6346 28.9454 35.957 26.6921 35.7585C24.1907 35.5302 22.7414 37.4063 22.3245 38.4287C22.0962 38.9945 22.3642 39.6496 22.9399 39.8779C23.5157 40.1062 24.1609 39.8382 24.3892 39.2625C24.4488 39.1235 25.0443 37.843 26.4837 37.9721C27.7642 38.0912 28.1513 39.1235 28.191 39.2426C28.3399 39.729 28.7866 40.0368 29.263 40.0368Z" fill="#754B32"/>
<path d="M41.5817 39.9871C41.4725 39.9871 41.3633 39.9772 41.2641 39.9375C40.6685 39.7687 40.3409 39.1334 40.5097 38.5478C40.7876 37.5849 41.8696 35.9074 44.1229 35.689C46.6243 35.4508 48.0835 37.307 48.5103 38.3294C48.7486 38.8952 48.4806 39.5503 47.9048 39.7886C47.339 40.0268 46.6839 39.7588 46.4457 39.1831C46.3861 39.0441 45.7806 37.7636 44.3413 37.9026C43.0608 38.0316 42.6836 39.064 42.6438 39.1831C42.5049 39.6794 42.0582 39.9871 41.5817 39.9871Z" fill="#754B32"/>
<path d="M35.5068 65.2696C32.3006 65.2795 29.2532 64.6045 26.6128 63.2645C17.6493 58.9267 14.7309 50.8962 13.0534 43.6102C11.2468 35.7684 13.9567 24.5814 14.0758 24.1049C14.1751 23.7079 14.582 23.4597 14.9791 23.559C15.3761 23.6582 15.6243 24.0553 15.525 24.4623C15.4953 24.5715 12.7854 35.7783 14.5126 43.2728C16.1901 50.5686 18.9 57.8745 27.2779 61.9343C31.0201 63.8303 35.6855 64.2869 40.4105 63.2049C45.0362 62.1428 49.4534 59.3336 52.2229 55.6807C54.8136 52.2561 56.2927 48.7025 57.0074 44.1562C58.8537 32.3637 54.5953 23.4597 54.5456 23.3704C54.367 23.0031 54.5159 22.5564 54.8831 22.3777C55.2504 22.199 55.6971 22.3479 55.8758 22.7152C56.0644 23.0924 60.3824 32.1354 58.4666 44.3845C57.7122 49.1889 56.1537 52.951 53.4041 56.584C50.4361 60.5049 45.7012 63.5226 40.738 64.6641C38.9811 65.0512 37.2142 65.2597 35.5068 65.2696Z" fill="#754B32"/>
<path d="M21.4907 44.6525C21.6197 44.4044 21.4212 44.5036 21.5602 44.5632C21.7488 44.6525 21.8878 44.8113 22.0168 44.9602C22.2451 45.2084 22.6422 45.2382 22.9201 45.0694C23.0789 44.9801 23.2278 44.8808 23.3767 44.7816C23.4661 44.722 23.5554 44.6724 23.6447 44.6227C23.4561 44.5433 23.4462 44.5731 23.5951 44.722C24.151 45.4963 25.4315 44.7518 24.8756 43.9676C24.5977 43.5805 24.1708 43.0742 23.6249 43.1338C23.0491 43.1933 22.6521 43.5011 22.1657 43.7889C22.4635 43.8286 22.7712 43.8683 23.069 43.8981C22.2352 42.9948 20.8951 42.6275 20.2102 43.8981C19.7437 44.7518 21.0341 45.4963 21.4907 44.6525Z" fill="#F9CDB8"/>
<path d="M48.5996 44.5632C48.7287 44.315 48.5301 44.4143 48.6691 44.4739C48.8577 44.5632 48.9967 44.722 49.1257 44.8709C49.354 45.1191 49.7511 45.1489 50.029 44.9801C50.1878 44.8908 50.3367 44.7915 50.4856 44.6922C50.575 44.6327 50.6643 44.5831 50.7536 44.5334C50.565 44.454 50.5551 44.4838 50.704 44.6327C51.2599 45.4069 52.5404 44.6625 51.9845 43.8783C51.7066 43.4912 51.2797 42.9849 50.7338 43.0445C50.1581 43.104 49.761 43.4117 49.2746 43.6996C49.5724 43.7393 49.8801 43.779 50.1779 43.8088C49.3441 42.9055 48.004 42.5382 47.3191 43.8088C46.8625 44.6525 48.1529 45.4069 48.5996 44.5632Z" fill="#F9CDB8"/>
<path d="M34.3751 41.5654C34.1964 42.8261 33.5115 43.9775 33.7299 45.2779C33.9086 46.3301 35.1394 46.4095 35.9733 46.3996C36.9361 46.3896 36.9262 44.9106 35.9633 44.9106C35.6953 44.9106 35.4273 44.9205 35.1593 44.8709C35.0997 44.8511 35.0997 44.861 35.1692 44.9106C35.1394 44.861 35.1593 44.6426 35.1593 44.6227C35.1692 43.7095 35.6854 42.8459 35.8045 41.9426C35.9435 41.0195 34.5042 40.6125 34.3751 41.5654Z" fill="#F6B172"/>
<path d="M29.005 50.1319C29.0149 52.4844 31.0895 60.4355 35.745 60.4156C41.81 60.3958 42.6041 49.9036 42.6041 49.9036C35.606 48.6826 29.005 50.1319 29.005 50.1319Z" fill="white"/>
<path d="M35.745 61.17C30.5436 61.1899 28.2704 52.8021 28.2605 50.1418C28.2605 49.7944 28.4987 49.4867 28.8462 49.4172C28.9752 49.3874 32.1616 48.7025 36.4895 48.6826C38.6832 48.6727 40.7876 48.8415 42.7332 49.1889C43.1104 49.2584 43.3784 49.5959 43.3486 49.9731C43.3089 50.4198 42.4155 61.1402 35.745 61.17ZM29.7892 50.7374C30.087 53.3183 31.973 59.691 35.7351 59.6711C40.2119 59.6513 41.4924 52.7425 41.7802 50.5289C40.1126 50.2808 38.3358 50.1517 36.4895 50.1617C33.4222 50.1716 30.9108 50.5488 29.7892 50.7374Z" fill="#EE7753"/>
<path d="M28.0223 27.9365C27.8635 27.9365 27.7047 27.8869 27.5757 27.7876C25.64 26.3185 23.9525 27.7181 23.8731 27.7777C23.5555 28.0457 23.0889 28.006 22.8209 27.6883C22.5529 27.3707 22.5926 26.9042 22.9103 26.6362C23.8235 25.8619 26.1661 24.8494 28.469 26.5964C28.7966 26.8446 28.8562 27.3111 28.608 27.6387C28.469 27.8372 28.2507 27.9365 28.0223 27.9365Z" fill="#754B32"/>
<path d="M42.6935 27.8869C42.4652 27.8869 42.2468 27.7876 42.0979 27.599C41.8497 27.2714 41.9093 26.8049 42.2368 26.5567C44.5298 24.7898 46.8725 25.7825 47.7956 26.5567C48.1133 26.8247 48.153 27.2913 47.885 27.6089C47.6169 27.9266 47.1504 27.9663 46.8427 27.7082C46.6541 27.5593 45.0162 26.2986 43.1401 27.738C43.0012 27.8273 42.8424 27.8769 42.6935 27.8869Z" fill="#754B32"/>
<path d="M46.4953 13.6624C41.8597 10.883 31.1789 10.5852 27.2878 11.7267C23.3867 12.8683 14.7905 19.9656 13.2916 23.1818C11.7927 26.4078 10.8894 33.9122 10.8894 33.9122L12.3387 37.5055C12.3387 37.5055 14.8798 30.4181 16.6269 26.6064C18.3838 22.7847 22.0764 17.9903 24.8657 16.8388C27.6451 15.6874 29.3723 17.5436 29.3723 17.5436C30.762 15.9157 32.1517 13.7219 36.1024 14.6848C40.0531 15.6477 43.5968 18.5164 47.1902 22.8244C49.0365 25.038 50.8034 27.6586 52.1534 30.0111C52.1434 30.1799 52.1831 30.3585 52.2725 30.5372C53.8508 33.6541 54.1287 37.2574 54.3769 40.682C54.5456 43.0941 54.7243 45.5062 54.8633 47.9084C54.0096 49.5264 54.0592 51.5911 53.9798 53.358C53.8607 56.0182 53.1261 58.5594 52.6398 61.17C52.4015 62.4605 54.367 63.0064 54.6151 61.7061C54.9427 59.9689 55.3993 58.2517 55.707 56.5146C55.9055 56.3954 56.0544 56.1969 56.1041 55.8991C56.1041 55.8693 56.114 55.8495 56.114 55.8197C56.4813 55.8098 56.8188 55.5914 56.9081 55.0752C57.0074 54.5094 57.1265 53.9436 57.2456 53.3778C57.6625 52.2065 57.871 50.9657 57.9404 49.7249C58.2879 48.7025 58.7147 47.5213 59.0522 46.8066C59.7371 45.3672 59.2507 30.5273 58.4368 26.7851C57.6228 23.0726 51.131 16.4418 46.4953 13.6624Z" fill="#8C6B52"/>
<path d="M55.0122 20.3329C54.3272 20.6009 54.0592 21.5638 54.4166 22.4869C54.7739 23.4101 55.6276 23.9362 56.3125 23.6682C56.9974 23.4002 57.2654 22.4373 56.9081 21.5142C56.5408 20.6009 55.6971 20.0649 55.0122 20.3329Z" fill="white"/>
<path d="M51.7861 21.6432C51.1012 21.9112 50.8332 22.8741 51.1905 23.7972C51.5479 24.7204 52.4015 25.2465 53.0864 24.9784C53.7714 24.7104 54.0394 23.7476 53.682 22.8244C53.3147 21.9013 52.471 21.3752 51.7861 21.6432Z" fill="white"/>
<path d="M52.1632 63.5027C52.0937 63.5027 52.0243 63.4928 51.9548 63.473C51.5577 63.3638 51.3294 62.9469 51.4386 62.5597C54.9029 50.3106 54.7639 39.5405 51.0316 30.5472C47.3092 21.5836 41.2244 17.5635 39.4475 16.551C37.2737 15.3002 35.2785 14.9131 33.5215 15.3896C31.2086 16.0249 30.0572 18.0002 30.0473 18.0201C29.9281 18.2384 29.6998 18.3774 29.4517 18.3973C29.2035 18.4171 28.9653 18.3079 28.8065 18.1193C28.8065 18.1193 28.1017 17.2657 26.98 17.1565C26.1263 17.0771 25.2032 17.4443 24.2503 18.2484C20.5874 21.3454 16.468 25.6634 13.8573 37.7438C13.768 38.1408 13.3709 38.3989 12.9739 38.3096C12.5768 38.2202 12.3187 37.8232 12.4081 37.4261C15.3463 23.8369 20.5179 19.4594 23.2874 17.1068C24.5679 16.0249 25.8583 15.5484 27.1388 15.6774C28.062 15.7668 28.7767 16.1738 29.2631 16.541C29.9083 15.737 31.1689 14.5061 33.0847 13.9701C35.2388 13.3745 37.6211 13.8113 40.1622 15.2705C42.0383 16.3425 48.4805 20.591 52.3816 29.9913C56.243 39.3022 56.4018 50.3999 52.8482 62.9766C52.7787 63.2943 52.4809 63.5027 52.1632 63.5027Z" fill="#754B32"/>
<path d="M25.2429 101.183C24.8856 101.183 24.5679 100.925 24.5084 100.558C24.0021 97.3715 23.4165 94.9197 22.9499 92.9543C22.7713 92.2198 22.6125 91.515 22.4735 90.8797C21.8183 87.872 21.6 85.2614 21.8183 83.1173C21.858 82.7103 22.2253 82.4125 22.6323 82.4522C23.0393 82.4919 23.3371 82.8592 23.2974 83.2662C23.0988 85.2514 23.3073 87.7132 23.9227 90.562C24.0617 91.1874 24.2205 91.8823 24.3992 92.6069C24.8757 94.6021 25.4613 97.0837 25.9775 100.32C26.047 100.727 25.769 101.104 25.3621 101.173C25.3224 101.183 25.2826 101.183 25.2429 101.183Z" fill="#754B32"/>
<path d="M35.626 109.978H35.3679C29.958 109.968 22.672 109.204 22.6026 109.194C22.2353 109.154 21.9474 108.846 21.9375 108.479C21.8978 108.32 21.9077 108.152 21.9673 108.003C21.9871 107.725 22.0169 107.328 22.0566 106.831C22.3048 103.724 23.079 94.2745 22.3147 92.6168C20.1011 87.7826 21.6099 81.4695 21.6695 81.2014C21.7687 80.8044 22.1658 80.5562 22.5728 80.6555C22.9698 80.7548 23.218 81.1518 23.1187 81.5588C23.0989 81.6184 21.6794 87.6437 23.6647 92.0013C24.4786 93.7682 24.0518 100.558 23.5356 106.95C23.5059 107.268 23.486 107.556 23.4661 107.784C25.4216 107.973 31.0201 108.479 35.3579 108.489H35.616H35.8642C40.2119 108.449 45.8104 107.903 47.7659 107.705C47.7659 107.695 47.7659 107.695 47.7659 107.685C47.1207 99.0987 47.1306 93.8079 47.7858 91.5348C49.2747 86.383 47.9446 81.5389 47.9347 81.4893C47.8255 81.0923 48.0538 80.6853 48.4508 80.5761C48.8479 80.4669 49.2549 80.6952 49.3641 81.0923C49.4236 81.3106 50.8232 86.383 49.2152 91.9517C48.6196 94.0263 48.6295 99.2873 49.245 107.576C49.2549 107.705 49.2648 107.814 49.2747 107.913C49.3343 108.062 49.3442 108.231 49.3045 108.39C49.2946 108.757 49.0166 109.065 48.6494 109.104C48.5799 109.114 41.2939 109.928 35.894 109.978H35.626Z" fill="#754B32"/>
<path d="M83.4413 57.2987C80.8604 57.7454 76.5623 61.7358 76.5623 61.7358C76.5623 61.7358 83.3916 53.1892 82.4982 51.8889C81.6049 50.5984 75.7185 59.2939 74.448 59.8597C74.448 59.8597 79.1034 48.0672 77.5152 48.1367C75.927 48.2062 71.9267 58.9961 71.9267 58.9961C70.8348 57.9837 68.3929 55.78 67.2811 55.6807C66.1694 55.5815 63.0227 57.3881 62.8738 57.7851C62.7249 58.1822 60.6106 61.3288 62.6356 60.495C64.6506 59.6612 65.2065 58.212 66.2686 58.2814C67.3208 58.3509 70.2888 61.1005 69.6535 61.9939C69.0182 62.8873 68.2241 64.7237 66.8741 64.1678C65.5241 63.6119 63.4595 60.2965 61.236 60.6141C59.0124 60.9318 64.4124 65.0612 65.8815 66.292C67.3407 67.5229 68.5517 71.6424 68.5517 71.6424C68.5517 71.6424 65.6234 78.7596 64.3528 83.3158C63.9458 84.765 63.6084 85.708 63.1914 87.5742C63.1914 87.5742 59.3599 82.9584 58.5757 81.9261C56.7591 79.6132 55.6375 77.5783 54.1684 75.1761C53.5629 74.2331 53.0467 73.2901 52.0143 72.6945C51.8853 72.5655 51.6669 72.5754 51.5577 72.5258C51.5776 72.5258 51.5875 72.5159 51.5875 72.5159C51.4982 72.4861 51.5081 72.496 51.5577 72.5258C51.3294 72.5754 49.6419 73.032 48.9769 75.7817C48.2721 78.7397 48.9272 83.6831 49.5625 84.2191C52.6298 86.8297 55.0816 89.9565 58.0198 92.6962C59.5286 94.0859 61.6628 95.8925 63.7672 96.3888C64.0848 96.5576 64.462 96.6668 64.9087 96.6866C65.5043 96.7164 66.08 96.4782 66.6359 96.0315C66.7848 95.9421 66.9337 95.8528 67.0727 95.7436L67.033 95.6741C70.5568 92.1006 73.1377 79.9706 73.5149 72.1486C73.5149 72.1486 76.6218 64.7237 78.3192 63.4928C80.3641 62.0038 86.0221 56.8521 83.4413 57.2987Z" fill="#FEECD6"/>
<path d="M62.8043 87.7628C62.6157 87.7628 62.4271 87.6933 62.2782 87.5444C61.3055 86.5717 58.9033 83.6037 58.1191 82.5515C56.5805 80.586 55.439 78.7 54.2279 76.7048C53.9996 76.3276 53.7713 75.9504 53.5331 75.5633L53.4338 75.4045C52.8879 74.5508 52.332 73.6773 51.518 73.2008C51.1607 72.9924 51.0416 72.5358 51.25 72.1883C51.4585 71.831 51.9151 71.7119 52.2625 71.9203C53.3941 72.5755 54.0791 73.6574 54.6945 74.6104L54.8037 74.7791C55.0518 75.1762 55.2801 75.5633 55.5085 75.9405C56.6897 77.896 57.8114 79.7423 59.3003 81.6482C60.0547 82.6507 62.4172 85.579 63.3304 86.4922C63.6183 86.7801 63.6282 87.2566 63.3304 87.5444C63.1815 87.6834 62.9929 87.7628 62.8043 87.7628Z" fill="#754B32"/>
<path d="M65.2859 97.4708C65.1172 97.4708 64.9484 97.451 64.7797 97.4212C62.0598 96.9943 59.3301 94.9197 57.5136 93.2422C56.2529 92.0609 55.0717 90.7904 53.9301 89.5694C52.4114 87.9316 50.8331 86.2441 49.0861 84.7948C48.7684 84.5367 48.7287 84.0603 48.9868 83.7526C49.2449 83.4349 49.7213 83.3952 50.0291 83.6533C51.8555 85.1621 53.4636 86.8893 55.0121 88.5668C56.1338 89.7779 57.2952 91.0187 58.5161 92.1602C60.8687 94.3241 63.1815 95.6741 65.0179 95.962C65.0278 95.962 65.0377 95.962 65.0477 95.9719C65.4447 96.0513 65.8517 95.9223 66.2885 95.5749C69.6932 92.9047 72.4031 79.9011 72.7704 72.1188C72.7704 72.0295 72.7902 71.9501 72.83 71.8707C73.1575 71.0964 76.066 64.2174 77.8825 62.9072C79.4608 61.7557 81.9126 59.4826 82.9251 58.2219C80.9497 58.9465 78.1108 61.3289 77.0784 62.2818C76.7906 62.5498 76.3538 62.5498 76.066 62.2818C75.7781 62.0138 75.7483 61.577 75.9865 61.2693C78.3887 58.2616 80.8902 54.6583 81.6247 52.9708C80.6519 53.8543 79.0935 55.7602 78.0711 57.0109C76.1851 59.3138 75.3513 60.2767 74.7457 60.5447C74.4678 60.6638 74.1502 60.6142 73.9318 60.4057C73.7134 60.1973 73.6439 59.8796 73.7531 59.5917C75.2123 55.8892 76.6615 51.5712 77.0288 49.586C76.5623 50.2709 75.8079 51.6109 74.6663 54.2116C73.5546 56.7528 72.6314 59.2344 72.6215 59.2642C72.5322 59.4925 72.3336 59.6712 72.0954 59.7307C71.8572 59.7903 71.5991 59.7208 71.4204 59.552C69.0282 57.3186 67.6682 56.4749 67.2215 56.4352C66.5168 56.3657 64.0054 57.7256 63.5289 58.1723C63.4793 58.2715 63.4098 58.3906 63.3006 58.5991C63.1914 58.7976 62.9334 59.2443 62.7447 59.6414C63.4098 59.3039 63.8764 58.8969 64.3032 58.5296C64.9087 58.0035 65.4745 57.5072 66.3182 57.5568C67.5094 57.6362 69.6535 59.552 70.2689 60.8524C70.6462 61.6366 70.4675 62.1527 70.259 62.4406C70.1598 62.5796 70.0506 62.7583 69.9314 62.9469C69.316 63.9296 68.2837 65.5674 66.5962 64.8726C65.9808 64.6244 65.3752 64.0388 64.6804 63.3737C63.7473 62.4902 62.6157 61.3983 61.6032 61.3586C62.0301 62.0336 63.4197 63.3241 65.7425 65.22C65.9907 65.4185 66.2091 65.5972 66.3679 65.7362C67.9561 67.0663 69.1473 71.0071 69.2763 71.4538C69.3259 71.6126 69.316 71.7913 69.2465 71.9402C69.2167 72.0096 66.3182 79.0673 65.0774 83.5242C64.998 83.822 64.9087 84.1297 64.8094 84.4573C64.5216 85.4599 64.2039 86.6014 63.9161 87.7628C63.8168 88.1599 63.4197 88.408 63.0128 88.3088C62.6157 88.2095 62.3675 87.8124 62.4668 87.4055C62.7547 86.2143 63.0823 85.0628 63.3701 84.0503C63.4595 83.7228 63.5488 83.4151 63.6282 83.1173C64.7797 78.9978 67.2215 72.9229 67.7576 71.6126C67.3704 70.3718 66.3877 67.6917 65.3951 66.8678C65.2363 66.7288 65.0278 66.5601 64.7797 66.3615C61.3451 63.5623 59.6676 61.9244 59.9951 60.7432C60.0746 60.4752 60.3128 60.0186 61.0672 59.8895C61.1962 59.3138 61.5536 58.6289 61.9903 57.8546C62.0698 57.7256 62.1591 57.5568 62.179 57.5072C62.3278 57.1101 63.0723 56.5642 64.3727 55.8892C65.2859 55.4127 66.5366 54.8668 67.3506 54.9462C67.6881 54.976 68.6509 55.0653 71.6189 57.7157C72.0259 56.6734 72.7009 54.9859 73.4454 53.2984C75.8277 47.9183 76.7806 47.4319 77.4854 47.4021C77.8328 47.3823 78.1406 47.5411 78.3391 47.8191C78.6964 48.3253 78.9247 49.3179 77.1082 54.7377C76.8898 55.3929 76.6615 56.048 76.4432 56.6535C76.6119 56.455 76.7707 56.2565 76.9196 56.0679C79.8281 52.5242 81.2177 50.9756 82.2898 51.0153C82.6273 51.0253 82.9152 51.1841 83.1137 51.462C83.5306 52.0576 83.6993 53.08 80.4832 57.7157C80.4534 57.7554 80.4236 57.7951 80.3939 57.8447C81.4063 57.2193 82.4387 56.7131 83.3122 56.5642C84.2949 56.3954 84.6423 56.8521 84.7615 57.1399C85.0295 57.7752 84.7515 58.619 82.5082 60.8325C81.178 62.1428 79.6097 63.463 78.7461 64.0983C77.6542 64.8924 75.4307 69.5082 74.2395 72.3174C73.8325 80.4074 71.1028 93.669 67.1918 96.7363C66.5763 97.2226 65.9311 97.4708 65.2859 97.4708ZM63.8565 60.7035C64.5216 61.17 65.137 61.7557 65.683 62.2818C66.2289 62.798 66.7848 63.334 67.1421 63.4829C67.5988 63.6715 67.9958 63.195 68.6609 62.1428C68.7701 61.9641 68.8793 61.7954 68.9785 61.6465C68.8594 60.9715 66.9039 59.1053 66.2091 59.0359C65.9907 59.016 65.7227 59.2443 65.2661 59.6414C64.9087 59.9491 64.462 60.3362 63.8565 60.7035Z" fill="#754B32"/>
<path d="M62.7944 84.9636C62.7944 84.9636 56.8882 77.9754 55.7765 76.2978C53.4339 72.7839 51.9151 72.4762 51.9151 72.4762C51.9151 72.4762 47.2994 75.8214 47.2497 78.7397C47.2001 81.6581 50.3765 85.9463 50.3765 85.9463C50.3765 85.9463 58.6254 95.7833 64.7201 97.3616C71.8274 99.2079 75.4109 73.9751 75.4109 73.9751L66.3977 72.4464L62.7944 84.9636Z" fill="white"/>
<path d="M65.4745 98.2054C65.1569 98.2054 64.8492 98.1656 64.5315 98.0862C58.2779 96.4583 50.1482 86.8297 49.8107 86.4227C49.5427 86.1051 49.5923 85.6386 49.9001 85.3706C50.2177 85.1025 50.6842 85.1522 50.9522 85.4599C51.0317 85.5592 59.1217 95.1282 64.9087 96.637C65.554 96.8057 66.1793 96.6767 66.8245 96.2499C70.8745 93.5499 73.6837 80.318 74.5671 74.5707L66.9337 73.2703L63.5091 85.172C63.3999 85.5691 62.983 85.7974 62.586 85.6783C62.1889 85.5691 61.9606 85.1522 62.0797 84.7551L65.6929 72.238C65.8021 71.8707 66.1595 71.6424 66.5267 71.7119L75.5399 73.2405C75.9369 73.31 76.205 73.6773 76.1553 74.0743C76.0461 74.8784 73.3064 93.7286 67.6583 97.4907C66.9436 97.9671 66.219 98.2054 65.4745 98.2054Z" fill="#754B32"/>
<path d="M62.7249 85.6187C62.5164 85.6187 62.298 85.5294 62.1491 85.3507C61.9109 85.0728 56.3918 78.4916 55.2702 76.8041C53.2253 73.7368 51.8952 73.3001 51.8853 73.3001C51.4783 73.2207 51.2202 72.8236 51.2996 72.4266C51.379 72.0196 51.7761 71.7615 52.1731 71.8409C52.4809 71.9005 54.1187 72.3869 56.501 75.9802C57.583 77.5982 63.2212 84.3283 63.2808 84.3978C63.5488 84.7154 63.4991 85.182 63.1914 85.45C63.0624 85.5592 62.8936 85.6187 62.7249 85.6187Z" fill="#754B32"/>
<path d="M50.8332 86.3334C50.9622 84.5765 51.7265 72.4762 51.7265 72.4762L50.9523 72.2578L44.4306 71.692L35.7451 99.6844L27.2084 71.7516L19.714 72.5854L19.843 73.9453C19.843 73.9453 20.786 84.6757 20.925 86.4327C21.064 88.1897 19.7437 96.766 19.1879 109.303L52.7291 109.184C52.0938 96.6569 50.7041 88.0904 50.8332 86.3334Z" fill="white"/>
<path d="M14.84 85.3805C14.6713 90.8201 14.2147 96.369 14.2345 101.809C14.2444 105.531 14.0757 109.541 15.6143 112.976L23.1484 112.331L20.1506 72.5556C14.6018 73.8163 15.0088 81.0824 14.84 85.3805Z" fill="white"/>
<path d="M19.9422 71.8409C13.8871 73.3299 14.2445 80.8342 14.0856 85.7378C13.9268 90.6117 13.5496 95.4756 13.4901 100.349C13.4404 104.687 13.2022 109.283 14.9691 113.343C15.3463 114.217 16.6268 113.462 16.2496 112.589C14.6515 108.896 14.9592 104.638 14.979 100.707C15.0088 96.1903 15.3264 91.6937 15.515 87.1871C15.6342 84.4176 15.5349 81.5886 16.0213 78.8489C16.4779 76.2978 17.6393 73.9354 20.3393 73.2703C21.2723 73.042 20.8654 71.6126 19.9422 71.8409Z" fill="#754B32"/>
<path d="M35.7549 100.429C35.4273 100.429 35.1395 100.21 35.0402 99.9028L26.6723 72.5556L21.3616 73.0321L20.4087 73.2405C20.0117 73.3298 19.6146 73.0718 19.5253 72.6747C19.4359 72.2776 19.694 71.8806 20.0911 71.7913L21.0837 71.5729C21.1135 71.5629 21.1433 71.5629 21.173 71.5629L27.1289 71.0269C27.4763 70.9971 27.8039 71.2155 27.9031 71.553L35.735 97.173L43.7357 71.4736C43.8449 71.1361 44.1824 70.9177 44.5298 70.9574L51.915 71.821C52.322 71.8707 52.6198 72.2379 52.5702 72.6449C52.5206 73.0519 52.1533 73.3497 51.7463 73.3001L44.9765 72.5159L36.4696 99.9127C36.3703 100.21 36.0825 100.429 35.7549 100.429Z" fill="#754B32"/>
<path d="M35.9436 77.9357C31.5561 77.9555 28.3201 76.4765 28.1117 76.3772C27.7444 76.2085 27.5756 75.7618 27.7543 75.3846C27.9231 75.0173 28.3697 74.8486 28.737 75.0273C28.8065 75.057 35.7252 78.1838 42.7531 74.9776C43.1303 74.8089 43.567 74.9677 43.7358 75.3449C43.9045 75.7221 43.7457 76.1589 43.3685 76.3276C40.7678 77.5287 38.2068 77.9258 35.9436 77.9357Z" fill="#754B32"/>
<path d="M35.9187 108.559C36.6424 108.557 37.2269 107.968 37.2243 107.244C37.2217 106.521 36.6329 105.936 35.9093 105.939C35.1856 105.941 34.6011 106.53 34.6037 107.254C34.6063 107.977 35.1951 108.562 35.9187 108.559Z" fill="#DDDBC3"/>
<path d="M32.1219 101.193C31.9234 101.193 31.715 101.114 31.5661 100.955C27.1985 96.1704 24.7963 93.5399 24.429 91.6142C24.2404 90.5918 25.64 89.3014 27.0694 88.279C25.8782 86.4326 22.4139 80.9831 21.7886 79.0474C21.0342 76.7246 24.6077 74.3225 25.0147 74.0545C25.3621 73.8261 25.8187 73.9254 26.047 74.2728C26.2753 74.6203 26.176 75.0769 25.8286 75.3052C24.5977 76.1092 22.9202 77.7074 23.2081 78.5908C23.7739 80.3379 27.3771 86.0257 28.7172 88.0705C28.9455 88.408 28.8462 88.8745 28.5087 89.0929C27.258 89.9267 26.0668 90.9789 25.908 91.3958C26.2554 92.9146 28.8165 95.7237 32.6679 99.9424C32.9458 100.25 32.926 100.717 32.6183 100.995C32.4793 101.124 32.3006 101.193 32.1219 101.193Z" fill="#754B32"/>
<path d="M39.4674 101.163C39.2887 101.163 39.11 101.104 38.9711 100.975C38.6634 100.697 38.6435 100.23 38.9115 99.9226C42.7332 95.6741 45.2743 92.855 45.6019 91.3264C45.4431 90.9194 44.2519 89.8672 42.9913 89.0433C42.6538 88.815 42.5545 88.3584 42.7729 88.0209C44.103 85.9661 47.6567 80.2485 48.2125 78.5015C48.4905 77.6081 46.803 76.0199 45.5721 75.2258C45.2247 75.0074 45.1254 74.5409 45.3438 74.2034C45.5622 73.8559 46.0287 73.7567 46.3662 73.9751C46.7732 74.2431 50.3666 76.6155 49.6221 78.9482C49.0066 80.8838 45.582 86.3632 44.4008 88.2194C45.8401 89.2319 47.2497 90.5124 47.071 91.5348C46.7236 93.4605 44.3412 96.1109 40.0034 100.925C39.8744 101.084 39.6758 101.163 39.4674 101.163Z" fill="#754B32"/>
<path d="M56.8485 97.0936L53.0566 99.9821C53.1956 99.9623 53.3247 99.9424 53.4537 99.9127C56.7095 99.3766 58.6353 98.7016 58.6353 97.9969C58.6353 97.6197 57.8511 97.4311 56.8485 97.0936Z" fill="#956134"/>
<path d="M7.48462 97.312C6.82948 97.5899 6.48206 97.8877 6.48206 98.1954C6.48206 98.2748 6.50191 98.3443 6.55154 98.4138C6.7997 98.8406 7.73278 99.2377 9.23166 99.595L7.66329 97.2325L7.48462 97.312Z" fill="#956134"/>
<path d="M37.1446 99.8035C37.4027 99.6248 37.6806 99.3965 37.8295 99.1086C37.8295 98.9895 37.8593 98.8704 37.9288 98.7711C37.9685 98.4039 37.7799 98.116 37.6707 97.7487C37.4126 96.905 37.5913 96.1109 38.2464 95.5153C38.981 94.8403 39.5468 94.0164 39.5071 92.9543C39.4376 91.2569 37.3828 90.2047 38.1174 88.3782C38.3755 87.733 38.8519 87.3161 39.2788 86.7801C39.7255 86.2143 39.5766 85.2316 39.1994 84.6558C38.7824 84.0205 38.038 83.7128 37.4821 83.2264C36.9858 82.7797 36.5689 82.2536 36.3604 81.6084C36.0428 80.6456 36.2909 79.236 35.199 78.7397C34.0376 78.2037 32.5288 78.4518 31.8042 77.2011C31.3873 76.4963 31.0796 75.7717 30.484 75.1861C30.1167 74.8287 29.6998 74.5508 29.2531 74.3026C29.0745 74.789 28.7667 75.2158 28.3598 75.5633C27.3175 76.4666 26.0271 76.9827 24.7466 77.4592C23.5951 77.886 22.3146 78.1938 21.312 78.9283C18.622 80.9037 17.2422 84.4871 16.7955 87.6933C16.3191 91.1278 17.0338 94.3936 19.565 96.8851C20.6073 97.9075 21.8183 98.791 23.1385 99.4958C22.8506 98.7215 22.662 97.848 22.5429 96.9546C22.4833 96.9447 22.4238 96.9348 22.3642 96.895C20.508 95.7932 19.2573 93.9866 18.3639 92.5374C18.2348 92.319 18.3043 92.0411 18.5128 91.912C18.7312 91.783 19.0091 91.8525 19.1381 92.0609C19.9025 93.3116 20.9547 94.8403 22.4337 95.8528C22.3642 94.6418 22.4139 93.4109 22.5627 92.2495C22.523 92.2396 22.4734 92.2098 22.4436 92.1899C20.647 90.8797 19.0488 88.3584 18.6418 86.1944C18.5922 85.9463 18.7609 85.708 19.0091 85.6584C19.2573 85.6088 19.4955 85.7775 19.5451 86.0257C19.8826 87.8422 21.2326 90.026 22.7315 91.2469C22.8308 90.7308 22.9399 90.2444 23.069 89.7878C23.3767 88.6562 23.9127 87.6437 24.5282 86.7007C24.5083 86.6411 24.4885 86.5716 24.4984 86.5021C24.5579 85.6485 24.1609 84.8643 23.7341 84.0305C23.2774 83.1272 22.801 82.204 22.8208 81.0625C22.8208 80.8143 23.0293 80.6059 23.2874 80.6158C23.5355 80.6257 23.744 80.8342 23.7341 81.0823C23.7142 81.9956 24.1212 82.7797 24.548 83.6136C24.8657 84.229 25.1833 84.8544 25.3322 85.5393C25.491 85.311 25.6598 85.0926 25.8186 84.8742C26.9701 83.2959 28.062 81.807 28.459 79.9706C28.5086 79.7224 28.7568 79.5636 29.005 79.6231C29.2531 79.6728 29.4119 79.9209 29.3524 80.1691C28.9156 82.204 27.7145 83.8419 26.5532 85.4202C26.1164 86.0257 25.6598 86.6312 25.2627 87.2665C25.9873 87.2268 26.6623 87.2168 27.3274 87.2168C29.3524 87.197 31.0895 87.1871 33.1443 86.1944C33.3726 86.0852 33.6406 86.1746 33.7597 86.4029C33.8689 86.6312 33.7696 86.8992 33.5512 87.0183C31.3178 88.1003 29.3822 88.1201 27.3373 88.14C26.5929 88.1499 25.8285 88.1499 25.0146 88.2095C25.0046 88.2095 24.9947 88.2095 24.9848 88.2095C24.8954 88.2095 24.816 88.1896 24.7565 88.1499C24.4289 88.7554 24.151 89.3907 23.9624 90.0657C23.7638 90.7407 23.6149 91.505 23.5058 92.2991C24.0319 92.3289 24.5579 92.3984 25.0642 92.4778C25.9377 92.6069 26.7517 92.7359 27.5855 92.6168C29.2035 92.3289 30.9505 91.4951 32.4891 90.7506L32.7274 90.6315C32.9557 90.5223 33.2237 90.6216 33.3329 90.8499C33.4421 91.0782 33.3428 91.3561 33.1145 91.4653L32.8763 91.5745C31.3575 92.3091 29.4715 93.2124 27.7245 93.5201C27.7145 93.5201 27.7145 93.5201 27.7046 93.5201C27.4366 93.5598 27.1686 93.5796 26.9006 93.5796C26.2157 93.5796 25.5605 93.4804 24.9153 93.3811C24.3892 93.3017 23.8929 93.2322 23.3966 93.2124C23.2874 94.5226 23.3172 95.8925 23.5058 97.1531C23.5256 97.1631 23.5554 97.173 23.5752 97.1928C25.7094 98.8208 32.0226 98.3244 33.8093 96.3888C33.9781 96.2002 34.2659 96.1903 34.4545 96.359C34.6432 96.5278 34.6531 96.8256 34.4843 97.0042C33.2634 98.3244 30.4344 99.059 27.784 99.0689C26.2653 99.0789 24.8061 98.8406 23.7539 98.3443C23.9227 98.9994 24.141 99.605 24.4289 100.131C25.8881 100.746 27.4267 101.153 28.9851 101.273H28.995C30.9108 101.471 32.8763 101.253 34.7424 100.776C35.5465 100.548 36.4398 100.28 37.1446 99.8035Z" fill="#BBD652"/>
<path d="M41.0159 78.9779C40.3012 78.2037 39.3582 77.7074 38.4152 77.2607C37.2439 76.7048 36.013 76.2383 34.7523 75.9504C34.0674 75.8015 33.1641 75.5831 32.4296 75.7717C32.5983 76.1489 32.777 76.6055 33.0946 76.8537C33.4421 77.1217 34.0476 77.1515 34.4645 77.2408C35.7847 77.5188 36.9659 78.1441 37.224 79.5735C37.3233 80.1393 37.3431 80.7349 37.5516 81.2809C37.8196 81.9658 38.3854 82.4025 38.971 82.8095C40.1721 83.6334 41.1648 85.1025 40.6982 86.651C40.5096 87.2764 40.1027 87.6734 39.6857 88.1598C39.11 88.8348 39.0703 89.4403 39.5766 90.165C40.0729 90.8797 40.589 91.5547 40.6883 92.4381C40.8074 93.3811 40.599 94.3539 40.1424 95.1877C39.7453 95.9024 38.5144 96.5179 38.8519 97.4212C38.971 97.7388 39.0802 98.0465 39.1299 98.3443C40.2019 97.9473 41.1549 97.2226 41.949 96.4186C42.9912 95.3664 43.9839 94.0859 44.4802 92.6664C45.5125 89.6488 44.9864 85.986 43.7059 83.1272C43.0111 81.6184 42.1475 80.179 41.0159 78.9779Z" fill="#90C154"/>
<path d="M41.8796 78.1044C41.0656 77.211 39.9439 76.6353 38.8719 76.1291C37.5517 75.5037 36.162 74.9975 34.7326 74.6997C33.7995 74.5011 32.6679 74.3522 31.7447 74.7195C31.0499 73.9155 30.097 73.3298 29.144 72.8831C28.7172 72.6747 28.2606 72.9328 28.2308 73.4092C28.1514 74.65 26.7021 75.3151 25.7294 75.7618C24.4786 76.3375 23.1386 76.6949 21.868 77.2408C19.0688 78.4419 17.3813 81.39 16.4085 84.1397C15.3464 87.1473 14.9692 90.7606 16.0908 93.8079C17.282 97.034 20.1805 99.4064 23.1882 100.866C24.965 101.729 26.8808 102.285 28.8363 102.454C28.8462 102.454 28.8562 102.464 28.8661 102.464C30.9308 102.692 33.0451 102.424 35.0602 101.938C36.4498 101.6 38.1473 101.015 38.8818 99.6943C41.8399 99.0094 44.4207 96.0315 45.5027 93.3315C46.8328 90.026 46.2075 85.9066 44.8277 82.7202C44.1031 81.0228 43.1104 79.4743 41.8796 78.1044ZM28.9852 101.253H28.9753C27.4168 101.134 25.8782 100.727 24.4191 100.111C23.9823 99.9226 23.5555 99.7241 23.1485 99.4958C21.8382 98.791 20.6173 97.9075 19.575 96.8851C17.0438 94.3936 16.3291 91.1278 16.8055 87.6933C17.2522 84.4871 18.632 80.9037 21.322 78.9283C22.3246 78.1938 23.6051 77.8761 24.7566 77.4592C26.0371 76.9927 27.3275 76.4666 28.3698 75.5633C28.7768 75.2158 29.0745 74.7791 29.2631 74.3026C29.7098 74.5508 30.1267 74.8188 30.494 75.1861C31.0896 75.7717 31.4072 76.4963 31.8142 77.2011C32.5389 78.4518 34.0477 78.2037 35.209 78.7397C36.291 79.236 36.0429 80.6456 36.3704 81.6084C36.5888 82.2536 36.9958 82.7797 37.4921 83.2264C38.048 83.7228 38.7925 84.0205 39.2094 84.6558C39.5866 85.2316 39.7355 86.2143 39.2888 86.7801C38.862 87.3062 38.3855 87.733 38.1274 88.3782C37.3929 90.2047 39.4476 91.2569 39.5171 92.9543C39.5568 94.0164 38.991 94.8403 38.2564 95.5153C37.6013 96.1208 37.4226 96.9149 37.6807 97.7487C37.7899 98.116 37.9785 98.4039 37.9388 98.7711C37.8693 98.8704 37.8395 98.9895 37.8395 99.1086C37.6906 99.3965 37.4127 99.6347 37.1546 99.8035C36.4498 100.29 35.5565 100.548 34.7326 100.756C32.8664 101.233 30.901 101.451 28.9852 101.253ZM44.4604 92.6565C43.974 94.076 42.9814 95.3565 41.9292 96.4087C41.1351 97.2127 40.1822 97.9472 39.1101 98.3344C39.0605 98.0366 38.9513 97.7388 38.8322 97.4112C38.4947 96.5079 39.7255 95.8925 40.1226 95.1778C40.5891 94.3539 40.7877 93.3712 40.6686 92.4282C40.5594 91.5447 40.0432 90.8598 39.5568 90.155C39.0506 89.4304 39.0903 88.815 39.666 88.1499C40.0829 87.6635 40.4899 87.2665 40.6785 86.6411C41.145 85.0926 40.1524 83.6334 38.9513 82.7996C38.3557 82.3926 37.7899 81.9559 37.5318 81.2709C37.3234 80.725 37.3035 80.1294 37.2042 79.5636C36.9561 78.1342 35.7649 77.5088 34.4447 77.2309C34.0278 77.1416 33.4223 77.1217 33.0749 76.8438C32.7672 76.5956 32.5885 76.139 32.4098 75.7618C33.1444 75.5633 34.0477 75.7816 34.7326 75.9405C35.9932 76.2283 37.2241 76.6949 38.3954 77.2508C39.3384 77.6974 40.2814 78.1938 40.9961 78.968C42.1277 80.179 42.9913 81.6084 43.6663 83.1073C44.9766 85.976 45.5027 89.6389 44.4604 92.6565Z" fill="#754B32"/>
<path d="M27.7741 99.0491C30.4244 99.0391 33.2535 98.3046 34.4744 96.9844C34.6432 96.7958 34.6332 96.5079 34.4446 96.3392C34.256 96.1704 33.9682 96.1803 33.7994 96.3689C32.0127 98.2947 25.6995 98.791 23.5653 97.173C23.5455 97.1531 23.5256 97.1432 23.4958 97.1333C23.3072 95.8726 23.2874 94.5028 23.3866 93.1925C23.883 93.2124 24.3793 93.2918 24.9054 93.3612C25.5506 93.4605 26.2157 93.5598 26.8907 93.5598C27.1587 93.5598 27.4267 93.5399 27.6947 93.5002C27.7046 93.5002 27.7046 93.5002 27.7145 93.5002C29.4517 93.1925 31.3476 92.2892 32.8663 91.5546L33.1046 91.4455C33.3329 91.3363 33.4321 91.0583 33.323 90.83C33.2138 90.6017 32.9358 90.5025 32.7174 90.6116L32.4792 90.7308C30.9406 91.4752 29.1936 92.3091 27.5756 92.5969C26.7418 92.716 25.9278 92.587 25.0543 92.458C24.548 92.3785 24.0219 92.3091 23.4958 92.2793C23.605 91.4752 23.7539 90.7208 23.9524 90.0458C24.141 89.3708 24.419 88.7455 24.7466 88.13C24.816 88.1698 24.8955 88.1896 24.9749 88.1896C24.9848 88.1896 24.9947 88.1896 25.0046 88.1896C25.8186 88.13 26.5829 88.13 27.3274 88.1201C29.3722 88.1003 31.298 88.0903 33.5413 86.9984C33.7696 86.8893 33.859 86.6113 33.7498 86.383C33.6406 86.1547 33.3627 86.0554 33.1343 86.1745C31.0796 87.1672 29.3325 87.187 27.3175 87.197C26.6524 87.2069 25.9774 87.2069 25.2528 87.2466C25.6598 86.6113 26.1065 85.9959 26.5432 85.4003C27.7046 83.8121 28.9057 82.1841 29.3425 80.1492C29.3921 79.9011 29.2432 79.6628 28.995 79.6033C28.7469 79.5537 28.5087 79.7026 28.4491 79.9507C28.052 81.797 26.9601 83.276 25.8087 84.8543C25.6499 85.0727 25.4811 85.301 25.3223 85.5194C25.1734 84.8345 24.8557 84.2091 24.5381 83.5937C24.1113 82.7599 23.7043 81.9658 23.7241 81.0625C23.7341 80.8143 23.5256 80.6059 23.2775 80.5959C23.0194 80.586 22.8208 80.7945 22.8109 81.0426C22.7911 82.1841 23.2675 83.1073 23.7241 84.0106C24.151 84.8444 24.548 85.6187 24.4885 86.4823C24.4885 86.5518 24.4984 86.6212 24.5183 86.6808C23.9028 87.6337 23.3767 88.6363 23.0591 89.7679C22.93 90.2245 22.8109 90.7109 22.7216 91.2271C21.2227 90.0061 19.8826 87.8223 19.5352 86.0058C19.4856 85.7576 19.2473 85.5889 18.9992 85.6385C18.751 85.6882 18.5922 85.9264 18.6319 86.1745C19.0389 88.3385 20.637 90.8598 22.4337 92.1701C22.4734 92.1999 22.5131 92.2197 22.5528 92.2296C22.4039 93.391 22.3543 94.6219 22.4238 95.8329C20.9448 94.8204 19.8926 93.2918 19.1282 92.041C18.9992 91.8227 18.7113 91.7532 18.5029 91.8921C18.2845 92.0212 18.215 92.3091 18.354 92.5175C19.2374 93.9668 20.4981 95.7734 22.3543 96.8752C22.4139 96.905 22.4734 96.9248 22.533 96.9347C22.6521 97.838 22.8407 98.7016 23.1286 99.4759C23.5455 99.6943 23.9723 99.9027 24.3991 100.091C24.1113 99.5752 23.8929 98.9697 23.7241 98.3046C24.7962 98.8208 26.2554 99.059 27.7741 99.0491Z" fill="#DDE78F"/>
<path d="M6.15443 89.49C6.21399 89.3113 6.28347 89.1326 6.36289 88.9539C5.56878 88.5271 4.75481 88.0606 3.91107 87.4153C3.78203 87.3161 3.75225 87.1176 3.85151 86.9885C3.95078 86.8495 4.1493 86.8297 4.27835 86.929C5.07246 87.5345 5.86657 87.9812 6.6309 88.3981C6.89891 87.9216 7.22648 87.4749 7.60368 87.0779C7.58383 87.058 7.55405 87.0282 7.5342 87.0084C7.12722 86.6212 6.76987 86.2937 6.45222 86.0257C6.32318 85.9165 6.30333 85.7279 6.41252 85.5988C6.52171 85.4698 6.71031 85.4499 6.83935 85.5591C7.17685 85.8371 7.5342 86.1746 7.95111 86.5617C7.98089 86.5915 8.02059 86.6212 8.05037 86.651C8.37794 86.3731 8.72536 86.1249 9.10257 85.8966C8.69558 85.2117 8.27868 84.4374 7.67317 83.2661C7.59376 83.1172 7.65332 82.9286 7.80221 82.8591C7.95111 82.7797 8.13971 82.8393 8.20919 82.9882C8.8147 84.1694 9.22168 84.9338 9.62866 85.6187C9.94631 85.4698 10.2838 85.3407 10.6312 85.2315C10.3831 84.1992 10.0356 83.1073 9.61874 82.0948C9.55918 81.936 9.62866 81.7573 9.78749 81.6978C9.94631 81.6382 10.125 81.7077 10.1845 81.8665C10.6114 82.9088 10.9687 84.0205 11.2169 85.0826C11.3856 85.0429 11.5445 85.0132 11.7231 84.9834L10.7007 80.5959C10.5419 80.9632 10.0257 81.1717 9.70808 80.8143C9.36065 80.4172 8.92389 79.6827 8.44743 79.4345C8.56654 79.4941 8.09008 79.6331 7.96103 79.7125C7.83199 79.7919 7.63346 79.8812 7.55405 80.0301C7.39523 80.3279 7.50442 80.715 7.52427 81.0327C7.54413 81.4496 7.51435 81.8367 7.43494 82.2437C7.35552 82.6606 6.86913 82.7698 6.54156 82.611C6.08495 82.3926 5.80701 81.9261 5.37025 81.6978C4.91363 81.4595 5.43973 83.3356 5.46951 83.5044C5.58863 84.0702 4.89378 84.5764 4.4471 84.0999C4.08975 83.7128 3.76218 83.286 3.3949 82.9088C3.246 82.7599 3.08718 82.5812 2.89858 82.4919C2.8291 82.6209 2.78939 82.7599 2.75961 82.9088C2.5313 84.1099 3.97063 84.7948 4.79452 85.3407C5.25113 85.6385 5.14194 86.5518 4.4868 86.4823C3.76218 86.4029 3.02762 85.9959 2.31292 85.986C1.69749 85.976 1.48903 86.7106 1.38977 87.2962C2.97799 88.0606 4.52651 88.8646 6.15443 89.49Z" fill="#78A616"/>
<path d="M9.80731 81.7077C9.64849 81.7672 9.57901 81.9459 9.63856 82.1047C10.0555 83.1172 10.4029 84.2091 10.6511 85.2415C10.8397 85.1819 11.0382 85.1323 11.2367 85.0827C10.9886 84.0205 10.6312 82.9088 10.2044 81.8665C10.1448 81.7176 9.96613 81.6382 9.80731 81.7077Z" fill="#A7BA56"/>
<path d="M7.81216 82.879C7.66326 82.9584 7.60371 83.1371 7.68312 83.286C8.28863 84.4573 8.70553 85.2315 9.11252 85.9165C9.29119 85.8172 9.46987 85.7179 9.65847 85.6286C9.25149 84.9437 8.8445 84.1793 8.23899 82.9981C8.13973 82.8591 7.96106 82.7996 7.81216 82.879Z" fill="#A7BA56"/>
<path d="M6.8295 85.569C6.70045 85.4599 6.50193 85.4797 6.40266 85.6088C6.29347 85.7378 6.31333 85.9264 6.44237 86.0356C6.76001 86.3036 7.11736 86.6312 7.52434 87.0183C7.5442 87.0381 7.57398 87.0679 7.59383 87.0878C7.7328 86.9389 7.88169 86.7999 8.04052 86.6709C8.01074 86.6411 7.97103 86.6113 7.94125 86.5815C7.52434 86.1845 7.16699 85.847 6.8295 85.569Z" fill="#A7BA56"/>
<path d="M3.84158 86.9885C3.74232 87.1175 3.76217 87.3161 3.90114 87.4153C4.74488 88.0605 5.55884 88.5172 6.35295 88.9539C6.43237 88.7653 6.5217 88.5866 6.62097 88.408C5.85664 87.9911 5.06253 87.5444 4.26842 86.9389C4.13937 86.8297 3.95077 86.8595 3.84158 86.9885Z" fill="#A7BA56"/>
<path d="M30.0472 112.37C31.5362 112.708 32.9854 113.373 33.9781 113.869C33.8987 113.452 33.8391 112.986 33.7696 112.499C33.6803 111.775 33.581 111.03 33.3924 110.316C32.4196 106.454 28.5484 100.935 25.7193 97.1134C25.2329 96.4583 24.7565 95.8031 24.2999 95.1678C20.9646 90.5719 18.0859 86.5914 14.304 86.1448C13.9467 86.1051 13.5893 86.0852 13.2419 86.0852C10.0555 86.0951 7.59377 87.9117 7.1173 90.6017C6.86914 92.0013 7.15701 93.6789 7.95112 95.6046C8.38788 94.8899 8.93383 94.2348 9.56912 93.6789C10.1548 93.1627 11.0283 94.0164 10.4327 94.5425C9.64853 95.2274 9.04302 96.0612 8.58641 96.9844C8.83456 97.4807 9.12243 97.9969 9.43015 98.523C9.93639 97.5005 10.6213 96.5575 11.4849 95.8031C12.0706 95.287 12.9441 96.1406 12.3485 96.6667C11.4551 97.4509 10.8 98.4138 10.3235 99.4957C10.2838 99.5851 10.2342 99.6546 10.1746 99.7042C11.0084 100.975 12.0011 102.315 13.1625 103.724C18.0363 109.631 29.5608 112.261 30.0472 112.37Z" fill="white"/>
<path d="M7.48454 97.4509C7.42499 97.3318 7.36543 97.2127 7.3158 97.1035C7.33565 97.2425 7.39521 97.3616 7.48454 97.4509Z" fill="#ECE9CE"/>
<path d="M10.4427 94.5326C11.0382 94.0164 10.1647 93.1528 9.57906 93.669C8.94377 94.2248 8.40775 94.88 7.96106 95.5947C8.14966 96.0414 8.35811 96.498 8.59635 96.9645C9.05296 96.0513 9.65847 95.2274 10.4427 94.5326Z" fill="#ECE9CE"/>
<path d="M10.3334 99.4858C10.8099 98.4039 11.475 97.441 12.3584 96.6568C12.954 96.1406 12.0805 95.2771 11.4948 95.7932C10.6312 96.5476 9.94631 97.4807 9.44006 98.5131C9.66837 98.9002 9.91653 99.2873 10.1746 99.6943C10.2441 99.6447 10.2937 99.5752 10.3334 99.4858Z" fill="#ECE9CE"/>
<path d="M35.5465 114.693C35.2388 114.276 35.1196 113.343 34.9906 112.35C34.9013 111.626 34.7921 110.812 34.5935 110.018C33.5711 105.998 29.8487 100.627 26.7219 96.3888C26.2355 95.7337 25.769 95.0785 25.3024 94.4531C21.7984 89.619 18.7709 85.4499 14.4628 84.9337C14.0559 84.8841 13.6489 84.8643 13.2518 84.8643C13.1526 84.8643 13.0632 84.8643 12.964 84.8742L11.475 78.4816C11.4055 78.1838 11.1276 77.9853 10.8298 78.0151C10.2739 77.6379 9.72796 77.9654 9.50957 78.5412C9.48972 78.5908 9.4798 78.6305 9.46987 78.6801C9.32097 78.5412 9.16215 78.432 8.98348 78.3426C8.39782 78.0448 7.67319 78.4816 7.1868 78.7695C6.26365 79.3154 6.32321 80.1195 6.34306 80.9632C5.89637 80.586 5.45961 80.2882 4.72506 80.6158C4.17911 80.8639 3.98058 81.2808 3.9508 81.7672C3.27581 81.2014 2.5214 80.9433 1.87619 81.8665C1.34017 82.6408 1.45928 83.7724 1.93575 84.5268C1.99531 84.6161 2.05486 84.7054 2.12435 84.7948C1.85634 84.8047 1.58832 84.8643 1.31039 85.0132C0.47657 85.44 0.25819 86.7999 0.149 87.6437C0.119221 87.8422 0.278043 88.0903 0.456718 88.1698C2.24347 89.0433 4.02029 89.9962 5.88645 90.701C5.65814 92.5076 6.14453 94.6616 7.31585 97.1134C7.3754 97.2325 7.42504 97.3417 7.48459 97.4608C8.55664 99.6049 10.1449 101.967 12.2294 104.489C17.3713 110.732 29.2829 113.452 29.7892 113.561C31.566 113.958 33.2634 114.862 34.1766 115.348C34.7226 115.636 34.8615 115.715 35.07 115.715C35.2983 115.715 35.5266 115.576 35.6259 115.368C35.6656 115.289 35.7748 115.001 35.5465 114.693ZM9.44009 98.513C9.12245 97.9869 8.84451 97.4708 8.59635 96.9745C8.35812 96.5079 8.14966 96.0414 7.96106 95.6046C7.16695 93.6789 6.87908 91.9914 7.12724 90.6017C7.60371 87.9117 10.0655 86.0951 13.2518 86.0852C13.5992 86.0852 13.9566 86.1051 14.3139 86.1448C18.0959 86.6014 20.9745 90.5719 24.3098 95.1678C24.7664 95.8031 25.2429 96.4583 25.7293 97.1134C28.5583 100.935 32.4197 106.454 33.4024 110.316C33.581 111.03 33.6803 111.785 33.7796 112.499C33.8391 112.986 33.8987 113.452 33.988 113.869C32.9954 113.363 31.5461 112.698 30.0572 112.37C29.5708 112.261 18.0463 109.631 13.1724 103.714C12.0209 102.315 11.0184 100.965 10.1846 99.6943C9.91656 99.2972 9.6684 98.9002 9.44009 98.513ZM2.35266 85.976C3.06736 85.9859 3.80191 86.3929 4.52653 86.4723C5.18167 86.5418 5.29086 85.6385 4.83425 85.3308C4.01036 84.7849 2.57104 84.0999 2.79934 82.8988C2.82912 82.7499 2.87875 82.611 2.93831 82.4819C3.12691 82.5812 3.28574 82.7499 3.43463 82.8988C3.81183 83.276 4.12948 83.7029 4.48683 84.09C4.93351 84.5665 5.61843 84.0503 5.50924 83.4944C5.47947 83.3257 4.95337 81.4496 5.40998 81.6878C5.84674 81.9161 6.11475 82.3827 6.58129 82.601C6.90886 82.7599 7.39526 82.6408 7.47467 82.2338C7.55408 81.8268 7.58386 81.4297 7.564 81.0228C7.54415 80.7051 7.43496 80.318 7.59378 80.0202C7.67319 79.8713 7.8618 79.782 8.00077 79.7025C8.11988 79.6331 8.60627 79.4842 8.48716 79.4246C8.96362 79.6728 9.40038 80.4073 9.74781 80.8044C10.0655 81.1617 10.5816 80.9533 10.7404 80.586L11.7629 84.9735C11.5941 85.0032 11.4254 85.033 11.2566 85.0727C11.0581 85.1224 10.8596 85.172 10.671 85.2315C10.3235 85.3407 9.98604 85.4698 9.6684 85.6187C9.4798 85.708 9.30112 85.7973 9.12245 85.9065C8.74524 86.1249 8.38789 86.3731 8.07025 86.6609C7.91143 86.79 7.76253 86.9389 7.62356 87.0778C7.24636 87.4749 6.91879 87.9117 6.65078 88.3981C6.55151 88.5767 6.46218 88.7554 6.38277 88.944C6.30335 89.1227 6.23387 89.3014 6.17431 89.48C4.55631 88.8547 2.99787 88.0506 1.43943 87.2764C1.51884 86.7006 1.73722 85.9661 2.35266 85.976Z" fill="#754B32"/>
<path d="M54.4959 83.4944C54.3768 83.3853 54.3271 83.3654 54.3172 83.3654C54.2576 83.3753 54.0492 83.5143 53.8904 83.6136C53.6521 83.7724 53.3643 83.961 52.9871 84.1397C52.7985 84.229 52.59 84.2091 52.4113 84.1099C52.2426 84.0007 52.1235 83.822 52.1235 83.6136C52.1036 83.0974 52.3121 82.5415 52.5205 81.9956C52.6496 81.668 52.9077 80.9731 52.8282 80.8044C52.7885 80.7647 52.7687 80.7548 52.7687 80.7548C52.6099 80.7647 52.1731 81.2312 51.9647 81.4496C51.7165 81.7176 51.4882 81.9658 51.24 82.1147C51.0514 82.2338 50.8132 82.2437 50.6246 82.1345C50.4261 82.0253 50.3069 81.8268 50.3069 81.6084C50.3069 81.5092 50.3069 81.39 50.3069 81.261C50.3169 80.9731 50.3268 80.2187 50.1978 80.0103C50.1481 80.0103 50.0389 80.0401 49.8503 80.1393C49.8106 80.189 49.7511 80.3081 49.7114 80.3974C49.5525 80.7151 49.2945 81.2412 48.6989 81.3305C47.736 81.5687 47.3588 80.7349 47.2099 80.3279C46.9717 81.0327 46.9618 82.9088 47.0809 84.358C47.3489 84.2687 47.6268 84.2191 47.8948 84.2091C49.0364 84.1694 50.0489 84.8246 50.9125 86.1746C51.0018 86.3135 51.0812 86.4525 51.1606 86.5915C51.4981 86.2341 51.9249 85.9264 52.3121 85.6385C52.4411 85.5393 52.5702 85.4499 52.6794 85.3606C53.0566 85.0132 53.404 84.6459 53.7613 84.2588C53.9896 84.0106 54.2378 83.7426 54.4959 83.4944Z" fill="#90B943"/>
<path d="M49.8801 86.8396C49.2845 85.9066 48.6393 85.4301 47.9743 85.4301C47.9643 85.4301 47.9445 85.4301 47.9246 85.4301C47.6368 85.44 47.3191 85.5492 46.9916 85.7279C46.9221 85.7974 46.8427 85.847 46.7434 85.8768C45.8996 86.4426 44.9765 87.5047 44.0633 88.9837C45.175 89.2319 46.4555 89.7679 47.607 90.5025C47.8254 90.6414 47.8849 90.9194 47.746 91.1378C47.6566 91.2767 47.5077 91.3462 47.3588 91.3462C47.2794 91.3462 47.1901 91.3264 47.1107 91.2767C45.9493 90.5422 44.6787 90.0061 43.6067 89.8175C43.5967 89.8175 43.5769 89.8076 43.5669 89.8076C43.5173 89.897 43.4677 89.9863 43.4181 90.0756C43.2195 90.4727 42.7232 91.5547 42.1177 93.0138C42.4353 93.123 42.9118 93.3513 43.7059 93.7682L43.8647 93.8477C44.1625 94.0065 44.4008 94.1157 44.6589 94.2348C44.9169 94.3539 45.175 94.473 45.4927 94.6418C45.721 94.7609 45.8004 95.0388 45.6912 95.2572C45.6118 95.416 45.453 95.5054 45.2842 95.5054C45.2147 95.5054 45.1353 95.4855 45.0758 95.4557C44.7879 95.3068 44.5397 95.1877 44.2817 95.0686C44.0236 94.9495 43.7655 94.8304 43.4478 94.6616L43.289 94.5822C42.5148 94.1852 42.0085 93.937 41.7703 93.8576C41.3534 94.8899 40.8968 96.0513 40.4401 97.2623C41.0655 97.4906 42.0284 97.9671 42.8225 98.3741C43.1302 98.5329 43.3982 98.6619 43.5769 98.7513C43.8052 98.8605 43.9044 99.1285 43.7953 99.3568C43.7158 99.5255 43.557 99.6149 43.3783 99.6149C43.3089 99.6149 43.2493 99.605 43.1798 99.5752C42.9912 99.4858 42.7133 99.3469 42.4056 99.1881C41.7107 98.8406 40.6883 98.3245 40.1225 98.1259C39.9835 98.5131 39.8446 98.9002 39.7155 99.2873C39.3681 100.29 39.0902 101.183 38.8519 101.987C39.0207 102.077 39.239 102.186 39.4574 102.305C39.7056 102.434 39.9537 102.573 40.1225 102.652L40.1523 102.662C40.589 102.841 41.0357 103.02 41.4526 103.198C41.6909 103.298 41.7901 103.566 41.6909 103.794C41.6214 103.973 41.4526 104.072 41.274 104.072C41.2144 104.072 41.1548 104.062 41.0953 104.032C40.6883 103.863 40.2416 103.675 39.8148 103.506L39.7751 103.486C39.7651 103.486 39.7651 103.476 39.7552 103.476C39.5666 103.387 39.2986 103.248 39.0405 103.099C38.8916 103.02 38.7427 102.94 38.6137 102.871C37.3927 107.348 37.8791 108.519 38.0975 108.797C38.1571 108.876 38.296 109.055 38.8122 108.936C38.9413 108.906 39.0604 108.916 39.1696 108.966C42.8622 107.645 46.8923 99.8928 48.679 96.4384C48.8379 96.1307 48.9768 95.8627 49.1059 95.6146C49.1059 95.6046 49.1158 95.5947 49.1158 95.5947C50.5353 93.1826 51.5775 89.4304 49.8801 86.8396Z" fill="#EE762B"/>
<path d="M47.1206 91.2767C47.2 91.3264 47.2794 91.3462 47.3687 91.3462C47.5176 91.3462 47.6665 91.2668 47.7559 91.1378C47.8948 90.9194 47.8254 90.6414 47.6169 90.5025C46.4654 89.7679 45.1849 89.222 44.0732 88.9837C43.9144 89.2517 43.7456 89.5198 43.5868 89.8175C43.5967 89.8175 43.6066 89.8275 43.6265 89.8275C44.6886 90.0161 45.9592 90.5422 47.1206 91.2767Z" fill="#DB6426"/>
<path d="M43.4577 94.6616C43.7754 94.8205 44.0334 94.9495 44.2915 95.0686C44.5496 95.1877 44.7878 95.2969 45.0856 95.4557C45.1551 95.4954 45.2246 95.5054 45.2941 95.5054C45.4628 95.5054 45.6217 95.416 45.7011 95.2572C45.8202 95.0289 45.7309 94.7609 45.5025 94.6418C45.1849 94.473 44.9268 94.3539 44.6687 94.2348C44.4106 94.1157 44.1724 94.0065 43.8746 93.8477L43.7158 93.7683C42.9217 93.3613 42.4452 93.133 42.1276 93.0139C42.0184 93.2819 41.8993 93.5697 41.7802 93.8576C42.0184 93.937 42.5246 94.1752 43.2989 94.5822L43.4577 94.6616Z" fill="#DB6426"/>
<path d="M43.2095 99.5752C43.2691 99.605 43.3386 99.6149 43.4081 99.6149C43.5768 99.6149 43.7456 99.5156 43.825 99.3568C43.9342 99.1285 43.8349 98.8505 43.6066 98.7513C43.4279 98.6619 43.1599 98.5329 42.8522 98.3741C42.0581 97.977 41.0952 97.4906 40.4699 97.2623C40.3607 97.5502 40.2614 97.8381 40.1522 98.1259C40.728 98.3344 41.7404 98.8406 42.4353 99.188C42.743 99.3469 43.011 99.4858 43.2095 99.5752Z" fill="#DB6426"/>
<path d="M39.7651 103.486C39.7751 103.486 39.785 103.496 39.785 103.496L39.8247 103.516C40.2615 103.695 40.6982 103.873 41.1052 104.042C41.1648 104.072 41.2243 104.082 41.2839 104.082C41.4626 104.082 41.6313 103.973 41.7008 103.804C41.8001 103.576 41.6909 103.308 41.4626 103.208C41.0556 103.03 40.599 102.851 40.1622 102.672L40.1324 102.662C39.9637 102.583 39.7155 102.444 39.4674 102.315C39.239 102.196 39.0306 102.077 38.8618 101.997C38.7725 102.305 38.6832 102.613 38.6038 102.891C38.7328 102.96 38.8817 103.039 39.0306 103.119C39.3085 103.248 39.5765 103.397 39.7651 103.486Z" fill="#DB6426"/>
<path d="M55.8161 83.157C54.9624 82.0353 54.3371 81.9956 53.7018 82.3132C53.9996 81.529 54.2874 80.6654 53.7613 80.0302C53.7613 80.0202 53.7514 80.0202 53.7514 80.0103C53.404 79.6232 53.0367 79.5438 52.7885 79.5338C52.2823 79.5239 51.8654 79.8217 51.4882 80.179C51.4187 79.6728 51.25 79.2063 50.833 78.9482C50.4161 78.6901 49.89 78.7298 49.2746 79.0574C48.9272 79.236 48.7485 79.5735 48.6195 79.8415C48.5798 79.9309 48.5103 80.0699 48.4606 80.1294H48.4507C48.411 80.05 48.3614 79.911 48.3316 79.8217C48.2423 79.5438 48.1331 79.236 47.8253 79.0673C47.2595 78.7695 46.8327 78.9581 46.6342 79.107C45.4728 79.9309 45.7904 83.7029 45.9294 84.9735C44.5099 85.9959 43.2691 87.8621 42.3758 89.5198C41.9092 90.4231 40.053 94.6815 38.6037 98.8903C35.6159 107.586 36.7773 109.075 37.1545 109.561C37.3332 109.789 37.6012 110.018 37.9883 110.137C38.0975 110.286 38.2762 110.375 38.4747 110.375C38.4946 110.375 38.5144 110.375 38.5343 110.375C43.0805 109.948 47.6169 101.213 49.7908 97.0241C49.9496 96.7263 50.0886 96.4583 50.2176 96.2101C51.5279 93.9569 52.5305 90.6315 51.6867 87.8224C51.7562 87.7827 51.8158 87.733 51.8654 87.6635C52.1235 87.3161 52.6198 86.9488 53.0466 86.6312C53.1955 86.522 53.3345 86.4227 53.4635 86.3235C53.4735 86.3135 53.4933 86.3036 53.5032 86.2937C53.9201 85.9066 54.2973 85.5095 54.6746 85.1125C55.0418 84.7154 55.3893 84.3481 55.7764 83.9908C55.9749 83.7625 56.0146 83.415 55.8161 83.157ZM52.6694 85.3606C52.5503 85.45 52.4312 85.5393 52.3021 85.6386C51.915 85.9264 51.4981 86.2341 51.1507 86.5915C51.0713 86.4525 50.9919 86.3135 50.9025 86.1746C50.0389 84.8246 49.0264 84.1694 47.8849 84.2092C47.607 84.2191 47.339 84.2687 47.0709 84.3581C46.9419 82.9088 46.9518 81.0228 47.2 80.3279C47.3489 80.7349 47.7261 81.5588 48.6889 81.3305C49.2845 81.2412 49.5426 80.7151 49.7014 80.3974C49.7411 80.3081 49.8106 80.189 49.8404 80.1393C50.029 80.0401 50.1382 80.0103 50.1878 80.0103C50.3169 80.2188 50.3069 80.9732 50.297 81.261C50.297 81.3901 50.297 81.5092 50.297 81.6084C50.297 81.8268 50.4261 82.0353 50.6147 82.1345C50.8132 82.2437 51.0415 82.2338 51.2301 82.1147C51.4783 81.9559 51.7066 81.7077 51.9547 81.4496C52.1632 81.2312 52.5999 80.7647 52.7588 80.7548C52.7687 80.7548 52.7885 80.7746 52.8183 80.8044C52.8977 80.9732 52.6396 81.6581 52.5106 81.9956C52.3021 82.5415 52.0937 83.0974 52.1135 83.6136C52.1235 83.8121 52.2327 84.0007 52.4014 84.1099C52.5801 84.2191 52.7885 84.229 52.9771 84.1397C53.3543 83.961 53.6521 83.7724 53.8804 83.6136C54.0393 83.5143 54.2477 83.3753 54.3073 83.3654C54.3073 83.3654 54.3668 83.3853 54.486 83.4945C54.2279 83.7525 53.9797 84.0106 53.7415 84.2588C53.3841 84.6459 53.0466 85.0132 52.6694 85.3606ZM49.1158 95.6146C48.9867 95.8627 48.8478 96.1407 48.6889 96.4385C46.9022 99.8829 42.8721 107.645 39.1795 108.966C39.0703 108.926 38.9412 108.906 38.8221 108.936C38.306 109.055 38.167 108.876 38.1074 108.797C37.889 108.519 37.4126 107.348 38.6236 102.871C38.703 102.583 38.7824 102.285 38.8817 101.977C39.1199 101.173 39.3979 100.28 39.7453 99.2774C39.8743 98.8903 40.0133 98.5031 40.1523 98.116C40.2515 97.8282 40.3607 97.5403 40.4699 97.2524C40.9166 96.0414 41.3732 94.88 41.8 93.8477C41.9192 93.5499 42.0383 93.2719 42.1475 93.0039C42.753 91.5547 43.2394 90.4628 43.4478 90.0657C43.4975 89.9764 43.5471 89.887 43.5967 89.7977C43.7555 89.5098 43.9243 89.2319 44.0831 88.9639C44.9963 87.4948 45.9195 86.4227 46.7632 85.8569C46.8625 85.8272 46.9419 85.7775 47.0114 85.708C47.339 85.5194 47.6566 85.4202 47.9445 85.4103C47.9643 85.4103 47.9742 85.4103 47.9941 85.4103C48.6592 85.4103 49.2945 85.8768 49.9 86.8198C51.5974 89.4205 50.5551 93.1627 49.1456 95.5749C49.1257 95.6046 49.1158 95.6146 49.1158 95.6146Z" fill="#754B32"/>
<path d="M60.0945 87.9911C60.0349 87.9812 59.7868 88.0507 59.618 88.1102C59.35 88.1896 59.0125 88.2889 58.5956 88.3484C58.3971 88.3782 58.1886 88.2988 58.0596 88.1499C57.9206 88.001 57.871 87.7926 57.9206 87.594C58.0497 87.0977 58.4169 86.6213 58.7743 86.1646C58.9927 85.8867 59.4493 85.3011 59.4195 85.1124C59.3996 85.0628 59.3798 85.043 59.3699 85.043C59.211 85.0033 58.6651 85.3209 58.3971 85.4698C58.0894 85.6485 57.7916 85.8172 57.5037 85.8966C57.2953 85.9562 57.0669 85.8966 56.9081 85.7378C56.7493 85.579 56.6997 85.3507 56.7592 85.1422C56.789 85.043 56.8287 84.9338 56.8684 84.8047C56.9578 84.5268 57.196 83.8121 57.1364 83.5739C57.0868 83.5639 56.9776 83.554 56.7692 83.5937C56.7195 83.6334 56.6203 83.7327 56.5607 83.8022C56.3125 84.0603 55.9155 84.4871 55.3199 84.3977C54.3273 84.3382 54.2082 83.4448 54.1883 83.0081C53.7515 83.6036 53.1957 85.4003 52.8879 86.8297C53.1659 86.8198 53.4438 86.8496 53.7118 86.929C54.8137 87.2268 55.5879 88.1499 56.0247 89.6885C56.0743 89.8473 56.1041 89.9962 56.1339 90.155C56.5607 89.9168 57.057 89.7381 57.5037 89.5793C57.6526 89.5297 57.8015 89.4701 57.9405 89.4205C58.407 89.1922 58.8438 88.944 59.3004 88.6859C59.5982 88.5172 59.9158 88.3385 60.2335 88.1698C60.1441 88.0308 60.1044 88.001 60.0945 87.9911Z" fill="#B7CB3E"/>
<path d="M54.8334 90.0161C54.5257 88.9142 54.0393 88.279 53.3842 88.1003C53.2452 88.0606 53.0963 88.0407 52.9375 88.0507C52.7687 88.0507 52.5901 88.0705 52.4015 88.1102C52.3121 88.1598 52.2129 88.1896 52.1136 88.1896C51.1408 88.4775 49.9497 89.2319 48.6493 90.3734C49.6419 90.9392 50.7041 91.8227 51.5974 92.8649C51.7662 93.0536 51.7364 93.3414 51.5478 93.5102C51.4585 93.5796 51.3592 93.6194 51.25 93.6194C51.121 93.6194 50.9919 93.5697 50.9026 93.4605C50.0092 92.4183 48.9471 91.5348 47.9743 91.0484C47.9644 91.0385 47.9545 91.0385 47.9445 91.0286C47.875 91.0981 47.7956 91.1675 47.7261 91.237C47.4184 91.5547 46.6342 92.448 45.6218 93.6591C45.8898 93.8576 46.2868 94.2149 46.9221 94.8502L47.0512 94.9693C47.2894 95.2076 47.4879 95.3862 47.7063 95.5748C47.9147 95.7635 48.1331 95.9521 48.3813 96.2002C48.56 96.3789 48.56 96.6667 48.3912 96.8454C48.3019 96.9348 48.1828 96.9844 48.0636 96.9844C47.9445 96.9844 47.8353 96.9447 47.7361 96.8554C47.4978 96.627 47.2993 96.4484 47.0909 96.2598C46.8824 96.0712 46.664 95.8726 46.4059 95.6245L46.2769 95.5054C45.6515 94.8999 45.2346 94.5127 45.0361 94.3738C44.3313 95.2374 43.5571 96.2101 42.7729 97.2326C43.3089 97.6296 44.0832 98.3741 44.7284 98.9895C44.9765 99.2278 45.1949 99.4362 45.3438 99.5653C45.5324 99.734 45.5423 100.022 45.3736 100.21C45.2843 100.31 45.1552 100.359 45.0361 100.359C44.9269 100.359 44.8177 100.32 44.7284 100.24C44.5696 100.101 44.3512 99.8928 44.0931 99.6447C43.5273 99.1086 42.7034 98.3245 42.217 97.9572C41.9688 98.2848 41.7306 98.6123 41.4924 98.9498C40.867 99.8035 40.3409 100.578 39.8744 101.283C40.0134 101.412 40.1821 101.59 40.3707 101.769C40.5692 101.967 40.7678 102.166 40.8968 102.295L40.9167 102.315C41.2839 102.613 41.6611 102.92 41.9986 103.208C42.1872 103.367 42.217 103.655 42.0582 103.853C41.9688 103.963 41.8398 104.012 41.7108 104.012C41.6115 104.012 41.5023 103.973 41.413 103.903C41.0755 103.615 40.6983 103.317 40.3409 103.02L40.3111 102.99C40.3012 102.98 40.3012 102.98 40.2913 102.97C40.1424 102.831 39.9339 102.623 39.7156 102.404C39.5964 102.285 39.4773 102.166 39.3681 102.057C36.8965 105.978 37.0156 107.238 37.1347 107.566C37.1645 107.655 37.2538 107.864 37.7799 107.903C37.909 107.913 38.0281 107.963 38.1174 108.032C42.0284 107.854 48.153 101.61 50.8728 98.8406C51.111 98.5925 51.3294 98.3741 51.5279 98.1756C51.5379 98.1656 51.5379 98.1656 51.5478 98.1557C53.6125 96.2697 55.697 92.994 54.8334 90.0161Z" fill="#F18A2C"/>
<path d="M50.9026 93.4605C50.992 93.5697 51.121 93.6194 51.2501 93.6194C51.3593 93.6194 51.4585 93.5797 51.5479 93.5102C51.7365 93.3414 51.7662 93.0536 51.5975 92.865C50.7041 91.8227 49.6519 90.9293 48.6494 90.3734C48.421 90.5819 48.1828 90.7903 47.9446 91.0286C47.9545 91.0385 47.9644 91.0484 47.9744 91.0484C48.9372 91.5348 50.0093 92.4183 50.9026 93.4605Z" fill="#DA6439"/>
<path d="M46.406 95.6245C46.6541 95.8726 46.8725 96.0712 47.0909 96.2598C47.2993 96.4484 47.4979 96.627 47.7361 96.8554C47.8254 96.9447 47.9446 96.9844 48.0637 96.9844C48.1828 96.9844 48.3019 96.9348 48.3912 96.8454C48.5699 96.6667 48.5699 96.3789 48.3813 96.2002C48.1332 95.952 47.9148 95.7634 47.7063 95.5748C47.4979 95.3862 47.2993 95.2076 47.0512 94.9693L46.9221 94.8502C46.2869 94.2249 45.8898 93.8675 45.6218 93.6591C45.4332 93.8874 45.2446 94.1157 45.0361 94.3638C45.2446 94.5127 45.6615 94.8899 46.2769 95.4954L46.406 95.6245Z" fill="#DA6439"/>
<path d="M44.7284 100.24C44.8178 100.32 44.9269 100.359 45.0361 100.359C45.1652 100.359 45.2843 100.31 45.3736 100.21C45.5424 100.022 45.5325 99.734 45.3439 99.5652C45.195 99.4263 44.9766 99.2277 44.7284 98.9895C44.0832 98.3741 43.3089 97.6296 42.7729 97.2325C42.5843 97.4708 42.4056 97.7189 42.217 97.9671C42.7034 98.3344 43.5273 99.1186 44.0931 99.6546C44.3512 99.8928 44.5696 100.101 44.7284 100.24Z" fill="#DA6439"/>
<path d="M39.7156 102.404C39.934 102.623 40.1325 102.831 40.2913 102.97C40.3012 102.98 40.3012 102.98 40.3112 102.99L40.3409 103.02C40.6983 103.317 41.0755 103.615 41.413 103.903C41.5023 103.973 41.6016 104.012 41.7108 104.012C41.8398 104.012 41.9689 103.953 42.0582 103.853C42.217 103.665 42.1972 103.367 41.9987 103.208C41.6512 102.92 41.274 102.613 40.9167 102.315L40.8968 102.295C40.7579 102.166 40.5593 101.967 40.3707 101.769C40.1921 101.59 40.0233 101.412 39.8744 101.283C39.6957 101.551 39.527 101.819 39.3682 102.067C39.4774 102.166 39.5965 102.285 39.7156 102.404Z" fill="#DA6439"/>
<path d="M61.5933 88.2393C61.1069 86.9091 60.5113 86.7007 59.8165 86.8099C60.3327 86.1448 60.8588 85.4003 60.5411 84.6459C60.5411 84.636 60.5312 84.636 60.5312 84.6261C60.3128 84.1496 59.9853 83.961 59.747 83.8915C59.2706 83.7426 58.7742 83.9014 58.3176 84.1297C58.397 83.6235 58.3772 83.1272 58.0496 82.7599C57.722 82.3926 57.2158 82.2735 56.5309 82.4025C56.1437 82.472 55.8857 82.74 55.6673 82.9584C55.5978 83.0279 55.4886 83.1371 55.429 83.1867H55.4191C55.3993 83.0974 55.3993 82.9485 55.3993 82.8592C55.3893 82.5713 55.3794 82.2338 55.1313 81.9856C54.6746 81.529 54.218 81.5985 53.9798 81.668C52.6298 82.1147 51.8258 85.8172 51.5875 87.0679C49.9298 87.6238 48.1927 89.0532 46.8626 90.3734C46.1578 91.108 43.1303 94.6219 40.5097 98.2351C35.1097 105.68 35.7847 107.437 36.0031 108.013C36.1024 108.281 36.291 108.578 36.6384 108.807C36.7079 108.995 36.8766 109.144 37.0851 109.184C37.363 109.243 37.6509 109.263 37.9388 109.263C42.3957 109.243 48.6493 102.871 51.7563 99.7042C51.9846 99.466 52.203 99.2476 52.3916 99.059C54.3074 97.2822 56.2331 94.4035 56.2529 91.4753C56.3323 91.4554 56.4018 91.4256 56.4713 91.376C56.8187 91.1179 57.3945 90.9194 57.9007 90.7407C58.0695 90.6811 58.2382 90.6216 58.3871 90.562C58.407 90.5521 58.4169 90.5521 58.4367 90.5422C58.9529 90.294 59.4294 90.026 59.8959 89.758C60.3625 89.49 60.8091 89.2418 61.2856 89.0135C61.5735 88.8646 61.7025 88.5371 61.5933 88.2393ZM57.9305 89.4205C57.7915 89.4701 57.6426 89.5297 57.4937 89.5793C57.047 89.7381 56.5507 89.9168 56.1239 90.1551C56.0941 89.9962 56.0544 89.8473 56.0147 89.6885C55.5879 88.1499 54.8136 87.2268 53.7019 86.929C53.4338 86.8595 53.1559 86.8297 52.878 86.8297C53.1857 85.4003 53.7416 83.6036 54.1783 83.0081C54.1982 83.4448 54.3173 84.3382 55.3099 84.3978C55.9055 84.4772 56.3125 84.0603 56.5507 83.8022C56.6202 83.7327 56.7095 83.6334 56.7592 83.5937C56.9776 83.554 57.0867 83.5639 57.1265 83.5739C57.186 83.8121 56.9577 84.5268 56.8584 84.8047C56.8187 84.9238 56.779 85.043 56.7493 85.1422C56.6897 85.3507 56.7393 85.579 56.8981 85.7378C57.057 85.8966 57.2853 85.9562 57.4937 85.8966C57.7816 85.8172 58.0695 85.6485 58.3871 85.4698C58.6551 85.3209 59.2011 85.0033 59.3599 85.043C59.3698 85.043 59.3797 85.0727 59.4095 85.1125C59.4393 85.2911 58.9827 85.8768 58.7643 86.1646C58.407 86.6213 58.0397 87.0977 57.9106 87.594C57.861 87.7926 57.9106 88.001 58.0496 88.1499C58.1886 88.2988 58.3871 88.3782 58.5856 88.3484C59.0025 88.2889 59.34 88.1896 59.608 88.1102C59.7867 88.0606 60.025 87.9812 60.0845 87.9911C60.0845 87.9911 60.1341 88.0209 60.2136 88.1598C59.8959 88.3286 59.5783 88.5073 59.2805 88.676C58.8338 88.944 58.397 89.1922 57.9305 89.4205ZM51.5578 98.1656C51.5478 98.1756 51.5478 98.1756 51.5379 98.1855C51.3394 98.384 51.121 98.6024 50.8828 98.8506C48.1629 101.62 42.0384 107.864 38.1274 108.042C38.038 107.963 37.9189 107.923 37.7899 107.913C37.2538 107.874 37.1744 107.665 37.1447 107.576C37.0156 107.248 36.9064 105.978 39.3781 102.067C39.5369 101.819 39.7057 101.551 39.8843 101.283C40.3509 100.578 40.877 99.8134 41.5023 98.9498C41.7406 98.6222 41.9887 98.2848 42.227 97.9572C42.4156 97.709 42.5942 97.4708 42.7828 97.2226C43.567 96.2002 44.3413 95.2175 45.046 94.3638C45.2446 94.1157 45.4431 93.8874 45.6317 93.6591C46.6343 92.448 47.4284 91.5547 47.7361 91.237C47.8056 91.1675 47.885 91.0981 47.9545 91.0286C48.1927 90.8003 48.4309 90.5819 48.6593 90.3734C49.9596 89.2319 51.1607 88.4874 52.1236 88.1896C52.2327 88.1896 52.332 88.1598 52.4114 88.1102C52.6 88.0705 52.7787 88.0507 52.9475 88.0507C53.1063 88.0507 53.2552 88.0705 53.3941 88.1003C54.0493 88.279 54.5357 88.9143 54.8434 90.0161C55.6971 92.994 53.6125 96.2697 51.5578 98.1656Z" fill="#754B32"/>
<path d="M52.1533 99.9127C51.8853 99.9127 51.6371 99.7241 51.5478 99.3866C51.5081 99.2377 51.4982 99.0987 51.5081 98.9598C51.4783 98.9697 51.4485 98.9796 51.4188 98.9895C51.0912 99.069 50.843 98.8009 50.7735 98.4932L34.2064 112.281L35.4571 113.959L52.1533 99.9127Z" fill="white"/>
<path d="M51.4287 98.9895C51.4585 98.9796 51.4883 98.9697 51.518 98.9598C51.518 99.0987 51.528 99.2377 51.5577 99.3866C51.6471 99.7241 51.8853 99.9226 52.1633 99.9127L54.5059 97.9473C54.2875 97.8381 54.1187 97.6098 54.1585 97.3219C54.2081 96.9447 53.8706 96.8851 53.682 96.6072C53.6026 96.4881 53.543 96.369 53.4934 96.2498L50.7736 98.4932C50.843 98.8009 51.1011 99.0689 51.4287 98.9895Z" fill="#C0CE5B"/>
<path d="M54.1485 97.3219C54.1088 97.6098 54.2775 97.8381 54.4959 97.9473L56.0544 96.637C56.1338 96.5675 56.233 96.5278 56.3323 96.5079L67.162 94.483L66.4374 92.1205L59.0621 93.8377C58.8238 93.8973 58.5657 93.798 58.4268 93.5896C58.2878 93.3811 58.2779 93.1131 58.4168 92.9047L64.5613 83.4746L62.0896 81.9162L55.0816 94.8502C55.0419 94.9197 54.9922 94.9793 54.9327 95.0289L53.4735 96.2399C53.5231 96.359 53.5827 96.4782 53.6621 96.5973C53.8606 96.8851 54.1981 96.9447 54.1485 97.3219Z" fill="#78A616"/>
<path d="M68.5318 94.7708L67.43 91.2073C67.3307 90.8995 67.023 90.7209 66.7053 90.7903L60.2532 92.2992L65.9112 83.6235C66.0006 83.4845 66.0304 83.3158 66.0006 83.157C65.9609 82.9981 65.8715 82.8592 65.7326 82.7698L62.1888 80.5364C62.0499 80.4471 61.8712 80.4173 61.7124 80.457C61.5536 80.4967 61.4146 80.6059 61.3352 80.7548L54.0691 94.1554L32.9854 111.695C32.7373 111.904 32.6876 112.271 32.8862 112.529L34.8714 115.189C34.9707 115.328 35.1196 115.408 35.2884 115.428C35.3082 115.428 35.338 115.428 35.3578 115.428C35.4968 115.428 35.6358 115.378 35.745 115.289L56.7095 97.6495L68.0553 95.5352C68.2241 95.5054 68.373 95.3962 68.4623 95.2473C68.5616 95.1182 68.5814 94.9396 68.5318 94.7708ZM50.7735 98.4932L53.4735 96.2399L54.9327 95.0289C54.9922 94.9793 55.0419 94.9197 55.0816 94.8502L62.0896 81.9162L64.5613 83.4746L58.4168 92.9047C58.2779 93.1131 58.2878 93.3811 58.4267 93.5896C58.5657 93.798 58.8238 93.8874 59.062 93.8377L66.4373 92.1205L67.162 94.483L56.3323 96.5079C56.233 96.5278 56.1338 96.5774 56.0543 96.637L54.4959 97.9473L52.1533 99.9127L35.467 113.959L34.2163 112.281L50.7735 98.4932Z" fill="#754B32"/>
<path d="M41.6611 95.7932C41.4229 93.7285 39.8942 92.1006 38.6534 90.5521C38.2961 90.1054 37.9486 89.6488 37.6211 89.1922C37.631 89.9466 37.7005 90.7109 37.77 91.4355C37.899 92.9543 38.0678 94.4829 38.0479 96.0116C38.028 98.0068 37.6409 100.071 36.281 101.352C37.2836 101.312 38.2663 101.124 39.1299 100.677C40.9067 99.7737 41.8894 97.7785 41.6611 95.7932Z" fill="#F7AF46"/>
<path d="M34.0674 101.233C36.7575 100.449 36.8964 97.3715 36.7972 95.009C36.6979 92.4778 36.0924 89.7977 36.5391 87.2764C36.3306 86.7801 36.1718 86.254 36.0725 85.708C35.6656 85.6782 35.4075 85.8172 35.0998 86.2143C34.7821 86.6312 34.4744 87.058 34.0674 87.3955C33.2038 88.1003 32.1814 88.5569 31.1987 89.083C29.4616 89.9962 27.3373 90.8499 26.3546 92.6664C25.4215 94.3936 25.2826 97.0042 26.6822 98.5527C27.9726 99.9722 29.8884 100.528 31.7347 100.806C32.4593 100.965 33.2535 101.124 34.0674 101.233ZM35.3777 88.0209C34.6829 89.8969 34.1965 91.8822 33.9185 93.8576C33.6505 95.7535 33.5215 97.6991 32.7869 99.4858C32.6877 99.7241 32.3005 99.6248 32.3998 99.3766C33.1443 97.5899 33.2634 95.6443 33.5314 93.7484C33.8093 91.7631 34.3057 89.7878 34.9906 87.9117C35.0799 87.6734 35.467 87.7826 35.3777 88.0209ZM29.5013 98.6719C29.5906 98.92 29.2035 99.0193 29.1142 98.781C27.4763 94.4929 31.3972 90.6414 34.0376 87.7926C34.2163 87.604 34.5042 87.8819 34.3255 88.0804C32.9259 89.5892 31.4766 91.0782 30.4046 92.8451C29.8686 93.7285 29.4219 94.6815 29.2333 95.7039C29.0546 96.7064 29.1439 97.7189 29.5013 98.6719Z" fill="#F7AF46"/>
<path d="M30.4046 92.8451C31.4667 91.0782 32.9259 89.5793 34.3255 88.0804C34.5042 87.8918 34.2163 87.604 34.0376 87.7926C31.3972 90.6414 27.4763 94.5028 29.1141 98.7811C29.2035 99.0193 29.6005 98.92 29.5013 98.6719C29.134 97.719 29.0447 96.7065 29.2333 95.694C29.4318 94.6815 29.8785 93.7285 30.4046 92.8451Z" fill="#FFE697"/>
<path d="M32.3899 99.3866C32.2907 99.6248 32.6778 99.734 32.777 99.4958C33.5215 97.709 33.6506 95.7634 33.9087 93.8675C34.1866 91.8822 34.6829 89.9069 35.3678 88.0308C35.4572 87.7826 35.07 87.6834 34.9807 87.9216C34.2859 89.7977 33.7995 91.783 33.5215 93.7583C33.2634 95.6543 33.1344 97.5998 32.3899 99.3866Z" fill="#FFE697"/>
<path d="M40.599 91.0385C39.2291 89.2815 37.4325 87.5245 37.224 85.1819C37.2042 84.9139 37.0553 84.6658 36.7773 84.5963C35.5663 84.2985 34.7722 84.636 34.0377 85.6088C33.1641 86.7701 31.973 87.2665 30.7322 87.9415C28.6476 89.083 26.3844 90.026 25.2032 92.2297C24.1013 94.2745 24.1212 97.1531 25.5208 99.0392C26.8807 100.876 29.2333 101.65 31.4072 101.977C33.9086 102.543 36.7079 102.93 39.1696 101.987C41.2541 101.193 42.5148 99.3469 42.8324 97.173C43.1798 94.8204 41.9986 92.8252 40.599 91.0385ZM39.1299 100.687C38.2663 101.134 37.2836 101.322 36.281 101.362C37.631 100.071 38.0181 98.0068 38.0479 96.0215C38.0678 94.4929 37.899 92.9642 37.77 91.4455C37.7104 90.7109 37.631 89.9565 37.6211 89.2021C37.9387 89.6686 38.2961 90.1153 38.6534 90.562C39.8942 92.1105 41.4229 93.7385 41.6611 95.8031C41.8894 97.7785 40.9067 99.7737 39.1299 100.687ZM26.6822 98.5428C25.2826 97.0042 25.4315 94.3936 26.3546 92.6565C27.3373 90.83 29.4616 89.9863 31.1987 89.0731C32.1814 88.5569 33.2038 88.1003 34.0674 87.3856C34.4744 87.0481 34.7821 86.6213 35.0998 86.2043C35.4075 85.8073 35.6755 85.6683 36.0726 85.6981C36.1619 86.244 36.3306 86.7701 36.5391 87.2665C36.0924 89.7878 36.6979 92.4679 36.7972 94.9991C36.8965 97.3616 36.7575 100.439 34.0674 101.223C33.2535 101.114 32.4594 100.955 31.7248 100.786C29.8884 100.518 27.9726 99.9623 26.6822 98.5428Z" fill="#754B32"/>
<path d="M36.291 102.95C36.0925 101.362 34.5638 100.31 33.2833 99.5851C31.7844 98.7314 30.1664 98.116 28.6576 97.2822C27.0297 96.3888 25.8782 95.1877 24.7069 93.7881C24.1014 93.6987 23.5158 93.5399 22.9202 93.3811C22.811 94.1157 22.7514 94.8701 22.1956 95.4359C21.9474 95.694 21.5901 95.6443 21.332 95.4359C20.7662 94.9892 20.2202 94.4631 19.8331 93.8476C19.3268 94.2248 18.8007 94.5723 18.2548 94.8998C17.9471 95.0884 17.411 94.9296 17.3614 94.5425C17.3416 94.3737 17.3019 94.2149 17.2622 94.0561C16.9544 95.3068 16.9346 96.6667 17.1827 97.9175C17.8875 101.421 20.25 104.121 23.4264 105.66C25.7591 106.782 28.469 107.635 31.0797 107.596C32.3105 107.576 33.601 107.367 34.6135 106.613C35.6855 105.809 36.4598 104.28 36.291 102.95Z" fill="#96587F"/>
<path d="M37.4424 102.434C37.0454 100.24 34.673 98.9101 32.8862 97.977C30.5436 96.7561 28.1613 95.9421 26.3745 93.9072C26.3547 93.8774 26.3249 93.8576 26.305 93.8278C26.7418 93.6491 26.9503 92.9642 26.4242 92.7359C25.4911 92.3289 25.0245 91.2072 24.3297 90.4925C23.9624 90.1153 23.4859 89.8076 22.9896 89.6289C22.6918 89.5197 22.3841 89.4503 22.0963 89.3212C22.0168 88.6264 22.5231 87.5742 21.7786 87.1076C21.1235 86.7007 20.1805 86.7602 19.4459 86.79C19.1382 86.7999 18.8106 87.058 18.8404 87.4054C18.9 88.1003 19.0687 88.815 18.9297 89.5098C18.0959 89.7977 17.1331 90.0955 16.865 91.0385C16.7658 91.3859 16.7459 91.7035 16.7757 92.0212C16.2198 93.1329 15.9419 94.4432 15.8625 95.4855C15.5945 99.0491 17.272 102.533 19.9323 104.846C22.0665 106.702 24.9451 107.794 27.665 108.41C30.1267 108.975 33.0947 109.184 35.2686 107.665C36.8568 106.524 37.7899 104.37 37.4424 102.434ZM34.6233 106.603C33.6109 107.357 32.3204 107.566 31.0896 107.586C28.4789 107.625 25.769 106.782 23.4363 105.65C20.2599 104.121 17.8974 101.412 17.1926 97.9075C16.9445 96.6568 16.9544 95.2969 17.272 94.0462C17.3117 94.205 17.3514 94.3638 17.3713 94.5326C17.4309 94.9296 17.9669 95.0785 18.2647 94.8899C18.8106 94.5623 19.3367 94.2149 19.843 93.8377C20.2301 94.4532 20.776 94.9793 21.3418 95.4259C21.5999 95.6344 21.9573 95.684 22.2054 95.4259C22.7613 94.8502 22.8209 94.1057 22.9301 93.3712C23.5257 93.5399 24.1113 93.6888 24.7168 93.7782C25.8881 95.1778 27.0396 96.3789 28.6675 97.2723C30.1763 98.1061 31.7943 98.7215 33.2932 99.5752C34.5737 100.31 36.1024 101.352 36.3009 102.94C36.4597 104.28 35.6855 105.809 34.6233 106.603ZM20.9349 88.0705C20.9349 88.1102 20.9349 88.1499 20.9349 88.1995C20.915 88.815 20.6172 89.8969 21.2823 90.2841C21.6396 90.4925 22.0466 90.6116 22.4437 90.7308C22.9797 90.8995 23.3867 91.2668 23.754 91.6738C23.9823 91.9319 24.1907 92.2197 24.3892 92.4977C23.7937 92.3686 23.208 92.1999 22.6124 92.0311C22.2948 91.9418 21.9474 92.1403 21.8679 92.458C21.7488 92.9245 21.7786 93.5697 21.6099 94.0859C21.193 93.7087 20.8157 93.262 20.6371 92.7557C20.4783 92.2991 19.972 92.18 19.6147 92.4877C19.2077 92.8352 18.7808 93.1329 18.3342 93.4208C18.1654 92.9146 17.957 92.4182 17.9172 91.8822C17.8577 90.9988 18.7312 90.8499 19.3764 90.6216C19.575 90.5521 19.6941 90.4131 19.7536 90.2642C19.9025 90.2047 20.0117 90.0756 20.0613 89.8771C20.2102 89.2517 20.1606 88.6264 20.0911 88.0109C20.2102 88.0109 20.3194 88.0109 20.4385 88.0209C20.6172 88.0109 20.776 88.0308 20.9349 88.0705Z" fill="#754B32"/>
<path d="M20.0712 89.8572C20.0216 90.0558 19.9025 90.1848 19.7635 90.2444C19.7039 90.4032 19.5848 90.5322 19.3863 90.6017C18.7312 90.83 17.8676 90.9789 17.9271 91.8624C17.9668 92.3984 18.1653 92.8947 18.344 93.401C18.7907 93.1131 19.2175 92.8153 19.6245 92.4679C19.9819 92.1602 20.4881 92.2793 20.6469 92.7359C20.8256 93.2421 21.2028 93.6888 21.6197 94.066C21.7785 93.5598 21.7488 92.9046 21.8778 92.4381C21.9671 92.1204 22.3046 91.9219 22.6223 92.0113C23.2179 92.18 23.8035 92.3587 24.3991 92.4778C24.1907 92.1999 23.9921 91.9219 23.7638 91.6539C23.3965 91.2469 22.9995 90.8697 22.4535 90.7109C22.0664 90.5918 21.6495 90.4727 21.2922 90.2642C20.6271 89.8771 20.915 88.7951 20.9447 88.1797C20.9447 88.14 20.9447 88.1003 20.9447 88.0506C20.776 88.0209 20.6172 87.9911 20.4484 87.9811C20.3293 87.9712 20.2201 87.9712 20.101 87.9712C20.1705 88.6164 20.2201 89.2319 20.0712 89.8572Z" fill="#663756"/>
<path d="M45.314 99.3568C44.7879 96.3888 43.4379 94.6517 41.2144 94.076C41.4129 94.4532 41.0754 94.8999 40.6585 94.9495C40.2217 95.0091 39.785 95.0785 39.3482 95.148C39.3284 95.5947 39.239 96.0513 39.0008 96.4186C38.8221 96.7065 38.4648 96.8057 38.167 96.637C37.6409 96.3491 37.0354 96.0315 36.549 95.6344C35.9335 95.9024 35.2685 96.1009 34.6034 96.1009C34.1071 96.1009 33.8887 95.5947 34.0773 95.1877C34.2262 94.8602 34.4049 94.5524 34.6034 94.2546C34.6431 94.1951 34.6828 94.1355 34.7325 94.066C34.6927 94.0263 34.653 93.9866 34.6133 93.9469C34.0972 94.0164 33.5611 94.1455 33.1343 94.3738C31.7843 95.0785 29.3424 98.2947 29.5707 101.223C29.7296 103.208 31.0895 104.648 33.6108 105.501C35.0402 105.988 36.4199 106.226 37.7104 106.226C41.1647 106.216 43.1103 104.499 43.964 103.476C45.0063 102.206 45.5324 100.617 45.314 99.3568Z" fill="#E94A29"/>
<path d="M46.5151 99.1384C45.7905 95.0785 43.5173 92.8352 39.9339 92.6565C39.8942 92.6565 39.8446 92.6565 39.7949 92.6466C39.8644 92.3388 39.9339 92.0411 39.656 91.7631C38.9711 91.0881 37.6608 91.9319 36.9163 92.4083C36.152 92.2098 35.3678 92.3091 34.5935 92.18C34.1468 92.1006 33.7796 92.4381 33.8391 92.855C33.3825 92.9543 32.9457 93.0933 32.5586 93.3017C30.7123 94.2646 28.0818 97.9671 28.3399 101.332C28.4789 103.059 29.4318 105.392 33.2038 106.673C34.7523 107.199 36.2711 107.457 37.7005 107.457C40.6288 107.447 43.1798 106.315 44.8872 104.27C46.1875 102.692 46.803 100.776 46.5151 99.1384ZM37.6906 106.226C36.4001 106.226 35.0204 105.988 33.591 105.501C31.0697 104.648 29.7097 103.208 29.5509 101.223C29.3226 98.2947 31.7645 95.0785 33.1145 94.3738C33.5413 94.1454 34.0773 94.0164 34.5935 93.9469C34.6332 93.9866 34.6729 94.0263 34.7126 94.066C34.6729 94.1256 34.6332 94.1951 34.5836 94.2546C34.3851 94.5524 34.1965 94.8601 34.0575 95.1877C33.8689 95.6046 34.0873 96.1009 34.5836 96.1009C35.2487 96.1009 35.9137 95.9024 36.5292 95.6344C37.0056 96.0315 37.6211 96.3491 38.1472 96.637C38.445 96.8057 38.8023 96.6965 38.981 96.4186C39.2192 96.0414 39.3185 95.5947 39.3284 95.148C39.7652 95.0785 40.2019 95.009 40.6387 94.9495C41.0556 94.8899 41.3931 94.4532 41.1946 94.076C43.4181 94.6418 44.7681 96.3789 45.2942 99.3568C45.5225 100.627 44.9964 102.206 43.9243 103.486C43.0905 104.509 41.1449 106.216 37.6906 106.226ZM38.6733 93.7484C38.7229 93.8477 38.7825 93.9271 38.8519 93.9966C38.7527 94.0164 38.6534 94.0263 38.5442 94.0462C38.2961 94.0859 38.0777 94.3936 38.0975 94.6318C38.1174 94.8304 38.1273 95.0289 38.1075 95.2274C37.7303 95.019 37.363 94.7807 37.085 94.4829C36.8865 94.2745 36.5887 94.2745 36.3406 94.3936C36.1917 94.4631 36.0328 94.5425 35.8641 94.6021C35.9733 94.4035 36.0527 94.1951 36.0726 93.9866C36.0825 93.8079 36.0031 93.6392 35.884 93.4704C36.1917 93.5002 36.4895 93.5399 36.7773 93.6392C36.8369 93.669 36.8964 93.6789 36.956 93.6888C37.1446 93.7186 37.2935 93.6491 37.4027 93.5399C37.631 93.401 37.8692 93.262 38.1075 93.123C38.2464 93.0436 38.3854 92.9741 38.5343 92.9146C38.5244 92.9543 38.5144 92.9841 38.5144 93.0138C38.5045 93.2918 38.5641 93.5002 38.6733 93.7484Z" fill="#754B32"/>
<path d="M38.5343 92.9146C38.3954 92.9841 38.2465 93.0535 38.1075 93.123C37.8693 93.2521 37.631 93.391 37.4027 93.5399C37.2935 93.6591 37.1446 93.7186 36.956 93.6888C36.8866 93.6888 36.827 93.669 36.7774 93.6392C36.4895 93.5399 36.1917 93.4903 35.884 93.4705C36.0031 93.6293 36.0924 93.798 36.0726 93.9866C36.0627 94.1951 35.9733 94.4035 35.8641 94.6021C36.023 94.5425 36.1818 94.4631 36.3406 94.3936C36.5788 94.2745 36.8866 94.2745 37.0851 94.4829C37.363 94.7807 37.7303 95.019 38.1075 95.2274C38.1274 95.0289 38.1174 94.8204 38.0976 94.6318C38.0777 94.3837 38.2961 94.076 38.5443 94.0462C38.6435 94.0263 38.7428 94.0164 38.852 93.9966C38.7825 93.9271 38.7229 93.8477 38.6733 93.7484C38.5542 93.5002 38.5046 93.2918 38.5244 93.0138C38.5244 92.9841 38.5343 92.9543 38.5343 92.9146Z" fill="#72BB2B"/>
<path d="M53.4537 99.9226C53.3246 99.9424 53.1856 99.9623 53.0566 99.9921C48.282 100.746 40.8869 101.243 32.5785 101.273C22.3642 101.312 13.5198 100.627 9.23164 99.595C7.73275 99.2377 6.79967 98.8406 6.55151 98.4138C6.59122 109.075 18.1058 117.81 32.5586 117.76C47.0015 117.711 58.6849 108.668 58.6452 98.0068C58.6352 98.7116 56.7095 99.3766 53.4537 99.9226Z" fill="#C89447"/>
<path d="M56.7392 96.4384C56.4017 96.4384 56.1337 96.7164 56.1337 97.0539C56.1337 97.3914 56.4117 97.6594 56.7492 97.6594C57.0569 97.6594 57.6028 97.8778 57.9006 98.0564C57.4837 98.3542 55.9153 99.0888 50.297 99.7439C45.4827 100.31 39.1894 100.637 32.5784 100.657C25.9675 100.677 19.6741 100.399 14.8499 99.873C8.86431 99.2178 7.46469 98.4336 7.16689 98.1855C7.2463 98.116 7.41505 98.0068 7.74262 97.8678C8.05034 97.7388 8.19924 97.3814 8.06027 97.0638C7.93123 96.7561 7.56395 96.6072 7.25623 96.7462C6.91873 96.8951 5.87646 97.3318 5.87646 98.1855C5.87646 99.1682 7.21653 99.6645 8.37791 100.002C9.7279 100.389 11.6338 100.727 14.0657 101.014C19.019 101.6 25.5903 101.908 32.5784 101.878C39.5666 101.848 46.1379 101.501 51.0911 100.876C53.5132 100.568 55.429 100.22 56.769 99.8233C57.9304 99.4858 59.2605 98.9697 59.2506 97.9969C59.2407 97.0539 57.4639 96.4285 56.7392 96.4384Z" fill="#754B32"/>
<path d="M58.6352 97.3914C58.2977 97.3914 58.0297 97.6693 58.0297 98.0068C58.0495 102.99 55.429 107.735 50.6544 111.378C45.8004 115.08 39.378 117.125 32.5487 117.155C18.5822 117.194 7.19669 108.797 7.15698 98.4138C7.15698 98.0763 6.87904 97.8083 6.54154 97.8083C6.20405 97.8083 5.93604 98.0862 5.93604 98.4237C5.95589 103.794 8.7452 108.827 13.7779 112.599C18.7907 116.351 25.4513 118.396 32.5487 118.376C39.6361 118.346 46.3265 116.212 51.3889 112.35C56.4712 108.469 59.2605 103.377 59.2407 98.0068C59.2407 97.6594 58.9727 97.3914 58.6352 97.3914Z" fill="#754B32"/>
<path d="M32.0623 117.85C30.8314 117.512 29.4715 117.472 28.2009 117.343C27.5855 117.284 26.98 117.195 26.3745 117.085C26.7616 116.956 27.1487 116.827 27.5358 116.708C28.866 116.311 30.077 115.586 31.427 115.229C31.9332 115.1 32.1417 114.534 31.8042 114.117C31.2086 113.373 29.948 113.601 29.1241 113.691C28.5285 113.75 27.9428 113.77 27.3472 113.849C26.434 113.978 25.5605 114.207 24.6274 114.157C23.1186 114.078 21.7388 113.264 20.369 112.688C18.8999 112.073 17.2223 111.765 15.6341 112.013C15.4753 112.043 15.3562 112.102 15.2668 112.192C14.8003 112.271 14.4231 112.847 14.84 113.293C15.3165 113.81 15.6242 114.415 15.9617 115.021C16.329 115.676 16.7757 116.311 17.1926 116.936C17.9569 118.068 18.8602 118.803 20.1506 119.249C21.312 119.646 22.5727 119.746 23.7936 119.875C25.4315 120.053 27.0991 120.083 28.7469 119.994C29.5708 119.944 30.3946 119.865 31.2185 119.795C31.7049 119.746 32.1615 119.746 32.6281 119.577C33.0251 119.428 33.2237 118.872 33.045 118.505C32.8465 118.138 32.4693 117.959 32.0623 117.85Z" fill="#FEECD6"/>
<path d="M34.0972 118.495C32.5983 117.065 30.4642 116.936 28.4094 116.817C28.1712 116.807 27.9429 116.788 27.7146 116.778C27.9429 116.738 28.1712 116.688 28.3896 116.649C29.2531 116.49 30.1366 116.321 30.9803 116.083C32.7175 115.586 33.0053 114.882 32.9358 114.375C32.8366 113.661 32.0623 113.284 30.6329 113.274C29.5609 113.184 28.4094 113.343 27.2977 113.502C27.0197 113.542 26.7418 113.581 26.4738 113.611C24.4289 113.829 23.6646 113.909 22.1161 112.867C19.9224 111.388 16.5772 110.663 14.4231 112.152C14.1154 112.36 14.036 112.787 14.2544 113.095C14.4628 113.403 14.8897 113.482 15.1974 113.264C16.8352 112.132 19.5948 112.787 21.3617 113.988C23.3271 115.318 24.4984 115.189 26.6326 114.961C26.9105 114.931 27.1984 114.882 27.4863 114.842C28.5285 114.693 29.6105 114.544 30.5337 114.624C30.5535 114.624 30.5734 114.624 30.5932 114.624C30.752 114.624 30.9009 114.634 31.02 114.643C30.9009 114.683 30.762 114.733 30.6131 114.772C29.8289 114.991 29.0149 115.15 28.1414 115.318C26.9204 115.547 25.6598 115.785 24.4885 116.232C24.1808 116.351 24.0021 116.668 24.0617 116.996L24.0815 117.085C24.1311 117.314 24.29 117.512 24.5083 117.592C25.6697 118.018 27.0197 118.108 28.33 118.177C29.819 118.267 31.2483 118.356 32.3403 118.912C31.03 119.329 29.1043 119.13 27.4863 118.961C26.7616 118.892 26.0767 118.813 25.5308 118.813C23.1881 118.723 20.5378 118.545 18.6915 117.512C18.3639 117.324 17.947 117.443 17.7683 117.77C17.5797 118.098 17.6988 118.515 18.0264 118.693C20.1308 119.885 22.9797 120.083 25.501 120.172C26.0072 120.182 26.6624 120.252 27.3572 120.321C28.8759 120.48 30.6329 120.659 32.1119 120.371C32.8564 120.232 33.5314 119.964 34.0674 119.527C34.2163 119.408 34.3057 119.219 34.3156 119.031C34.3156 118.813 34.2461 118.624 34.0972 118.495Z" fill="#754B32"/>
<path d="M14.026 113.125C14.6713 115.358 16.0907 117.264 17.937 118.654C18.7014 119.229 19.555 118.008 18.7907 117.433C17.272 116.291 16.0312 114.683 15.4951 112.847C15.2271 111.943 13.758 112.211 14.026 113.125Z" fill="#754B32"/>
<path d="M74.5571 38.5875C75.9667 38.5974 77.2869 40.3048 77.2869 42.1412C77.2869 40.3147 78.5972 38.5974 80.0166 38.5875C78.6071 38.5974 77.2869 36.91 77.2869 35.0736C77.277 36.9 75.9667 38.5875 74.5571 38.5875Z" fill="#FFF571"/>
<path d="M68.5616 31.3611C69.9712 31.371 71.2914 33.0784 71.2914 34.9148C71.2914 33.0883 72.6017 31.371 74.0212 31.3611C72.6116 31.371 71.2914 29.6835 71.2914 27.8472C71.2914 29.6736 69.9712 31.3611 68.5616 31.3611Z" fill="#FFF571"/>
</g>
<defs>
<clipPath id="clip0_2647_4268">
<rect width="84.7018" height="120" fill="white" transform="translate(0.149048 0.5)"/>
</clipPath>
</defs>
</svg>
