<svg width="25" height="24" viewBox="0 0 25 24" fill="none" xmlns="http://www.w3.org/2000/svg">
<path d="M9.51329 20.7436H14.0261C14.0261 21.8718 13.2082 23 11.7697 23C10.3312 23 9.51329 21.8718 9.51329 20.7436ZM21.0774 15.9769L19.8364 13.8897C19.3569 13.1 19.103 12.1974 19.103 11.2667V8.33333C19.103 4.2718 15.803 1 11.7697 1C7.73637 1 4.43637 4.2718 4.43637 8.33333V11.2949C4.43637 12.2256 4.18252 13.1282 3.70303 13.9179L2.46201 15.9769C2.06714 16.6256 2.06714 17.3872 2.4338 18.0077C2.80047 18.6564 3.47739 19.0513 4.21073 19.0513H19.3287C20.062 19.0513 20.7389 18.6564 21.1056 18.0077C21.4723 17.3872 21.4441 16.6256 21.0774 15.9769Z" fill="#999999"/>
</svg>
