<svg width="156" height="140" viewBox="0 0 156 140" fill="none" xmlns="http://www.w3.org/2000/svg">
<g clip-path="url(#clip0_2648_4795)">
<path fill-rule="evenodd" clip-rule="evenodd" d="M66.5588 29.9157C66.5588 21.0103 72.978 12.2476 79.8863 12.2476C86.7946 12.2476 94.5384 21.7235 94.5384 30.6085C94.5384 33.7672 93.4176 37.1704 91.9707 40.9812C91.6243 41.8575 96.6782 43.6915 96.3114 44.5882C93.8252 50.8444 85.47 55.9186 81.5777 55.8982C69.0654 55.8167 68.9431 49.9681 65.8252 43.0598C65.5399 42.4281 69.8194 41.1238 69.5544 40.4921C67.8019 36.4368 66.5588 32.9113 66.5588 29.9157Z" fill="#FEEDE5"/>
<path fill-rule="evenodd" clip-rule="evenodd" d="M40.6579 117.686C39.3944 118.827 37.3158 120.376 36.4191 121.15C35.5225 121.924 34.2183 122.536 33.1178 122.291C32.0174 122.047 29.0829 121.761 27.5341 121.313C25.9854 120.865 23.1731 119.805 22.195 118.949C21.2168 118.093 20.0756 116.911 19.6273 115.118C19.179 113.325 18.0785 109.82 18.0378 107.945C17.997 106.07 17.7932 103.91 17.5487 102.402C17.3041 100.894 17.1004 99.7526 16.4482 98.9375C15.7961 98.1224 15.1848 97.3887 14.0436 96.5736C12.9024 95.7585 11.7612 95.4732 11.2721 94.6173C10.783 93.7614 10.2939 92.987 10.783 91.5197C11.2721 90.0525 11.3944 89.5226 11.2721 87.9739C11.1498 86.4251 11.1498 85.2024 11.8835 84.3465C12.6171 83.4906 13.6768 82.8793 14.818 82.1049C15.9592 81.3305 19.0159 79.578 19.7903 79.2519C20.5647 78.9258 23.2139 78.8036 24.4366 79.0889C25.6593 79.3742 27.9417 79.4149 29.1644 79.578C30.3871 79.741 31.5283 79.6187 32.2212 80.3116C32.914 81.0045 33.2401 81.3713 32.3027 81.9826C31.3653 82.594 30.1833 83.2053 31.1207 83.3276C32.0581 83.4499 33.0771 83.8167 34.1775 84.2242C35.2779 84.6318 36.6637 84.9579 37.0712 85.8953C37.4788 86.8327 37.112 87.5663 36.7044 88.1777C36.2969 88.789 35.8893 89.8079 35.2779 90.5008C34.6666 91.1937 34.3813 91.7643 33.4846 92.9462C32.588 94.1282 32.0174 94.495 30.7947 95.2694C29.572 96.0438 28.6753 96.0845 29.3274 97.348C29.9795 98.6114 30.3871 99.8341 31.6506 100.853C32.914 101.872 35.3187 103.706 36.4599 104.888C37.6011 106.07 39.3129 107.089 40.0057 108.475C40.6986 109.86 41.7175 110.879 41.6768 113.406C41.636 115.933 41.9213 116.544 40.6579 117.686Z" fill="#FEEDE5"/>
<path fill-rule="evenodd" clip-rule="evenodd" d="M89.5865 101.586C93.9883 103.033 102.608 101.505 106.073 102.707C109.537 103.93 110.108 108.209 112.92 107.537C115.549 106.905 117.362 102.524 121.784 102.728C126.227 102.931 136.844 106.233 136.742 109.982C136.64 113.732 135.621 116.952 130.568 119.662C128.571 120.742 126.044 121.904 123.354 122.372C119.869 122.963 116.914 122.556 114.734 122.372C109.456 121.924 107.01 124.166 102.079 126.02C97.7379 127.651 93.1935 128.058 88.1804 125.327C84.4919 123.31 81.211 121.109 80.4162 120.253C79.6215 119.397 78.6433 118.847 79.5399 117.828C81.6389 115.464 88.425 114.099 92.5414 112.897C95.8835 111.918 97.9621 110.186 97.8806 109.106C97.636 105.621 89.0159 106.294 87.7321 104.338C86.8354 102.952 86.0407 100.425 89.5865 101.586Z" fill="#FEEDE5"/>
<path fill-rule="evenodd" clip-rule="evenodd" d="M67.0072 34.3785C66.1716 34.1136 64.7452 34.0525 63.93 33.4411C63.0945 32.8502 62.3813 32.6056 61.5661 30.9957C60.7714 29.3654 60.2823 27.4499 60.0785 25.9826C59.8747 24.5154 60.0377 22.2126 60.2211 20.9084C60.3842 19.6245 60.7917 19.1151 61.077 17.5256C61.3827 15.936 61.9126 13.7148 62.4016 12.1456C62.8907 10.5969 63.5632 8.90547 64.4802 7.84579C65.4176 6.78611 66.3754 5.35962 67.4555 4.42221C68.5559 3.4848 69.4118 2.77155 70.7364 2.09906C72.061 1.42657 73.9155 0.672572 74.9548 0.611436C75.9737 0.550301 77.4409 0.407652 78.5006 0.713329C79.5603 1.01901 81.6185 2.30285 82.5152 2.30285C83.4118 2.30285 85.6331 2.13982 86.7539 2.20096C87.8747 2.26209 89.831 2.42512 91.0945 3.21988C92.358 4.01464 94.7422 5.8487 95.5981 7.03065C96.454 8.23298 97.3507 9.94477 98.0843 11.6158C98.8179 13.2665 99.4701 15.2024 99.8165 16.8123C100.143 18.4426 100.143 21.2141 99.8776 22.4775C99.6127 23.741 99.0829 27.0627 98.8179 28.2446C98.553 29.447 98.227 30.3232 97.0654 30.9957C95.9038 31.6682 93.4788 32.9113 93.9067 31.6886C94.3347 30.4659 94.5996 28.4484 94.2328 27.6129C93.866 26.7774 93.2139 25.9826 92.4395 25.4324C91.6855 24.8618 90.85 24.2097 90.1163 22.987C89.3827 21.7643 89.0974 20.134 88.4249 19.0336C87.7524 17.9331 86.6724 16.2213 85.8776 15.6915C85.0829 15.1617 84.1862 14.9579 83.1673 14.7337C82.1484 14.5095 79.7233 14.1427 78.7248 14.265C77.7262 14.4077 76.7277 14.6726 75.6476 14.7337C74.5472 14.7948 73.5283 14.8356 73.0188 16.0991C72.5297 17.3625 71.898 20.1136 71.7961 20.9491C71.6942 21.7847 71.3274 22.5998 70.5326 24.1689C69.7379 25.7177 68.8005 29.7526 69.4118 30.5882C70.0232 31.4237 70.2473 32.7075 69.636 33.3189C69.0246 33.9506 67.8427 34.6435 67.0072 34.3785Z" fill="#BF8F8B"/>
<path fill-rule="evenodd" clip-rule="evenodd" d="M37.7845 113.223C37.7845 109.269 54.2707 106.05 74.6288 106.05C94.9665 106.05 97.0247 108.006 97.5342 108.149C98.492 108.413 97.7583 110.329 95.8835 111.368C94.0291 112.387 90.7685 113.508 89.8719 113.732C86.8151 114.507 82.9432 115.648 82.1077 116.076C78.9286 117.726 77.8078 119.051 81.7409 120.661C83.0859 121.211 84.5939 123.351 84.0844 123.392C81.0072 123.718 77.7671 123.881 74.4454 123.881C65.4177 123.881 57.9796 123.371 52.0902 122.108C48.7889 121.395 45.8748 120.151 43.6535 119.336C42.818 119.031 40.4134 116.769 39.476 115.607C38.4774 114.364 37.7845 114.079 37.7845 113.223Z" fill="white"/>
<path fill-rule="evenodd" clip-rule="evenodd" d="M32.7306 75.1558C34.1367 71.345 37.0916 60.9724 41.6767 55.7351C46.4045 50.3552 51.4991 48.8064 56.4919 47.0335C59.9358 45.8108 63.7058 43.9156 65.601 43.019C66.7422 42.4687 66.2328 44.3639 66.9256 46.1572C68.882 51.2111 72.9984 56.7948 81.4759 55.9797C88.8325 55.2868 94.0086 48.8472 96.2095 44.3028C96.3521 43.9971 99.3885 45.7904 103.301 47.8283C108.6 50.5794 113.653 49.6827 120.704 59.2606C122.416 61.5634 123.639 62.9898 124.862 70.5095C125.575 74.9112 128.306 85.8341 130.445 90.3785C134.48 98.9986 135.132 97.7555 136.518 102.524C136.865 103.706 138.536 108.108 136.681 111.103C136.233 111.837 135.397 111.042 133.543 109.33C132.177 108.067 130.364 105.438 126.553 104.46C124.067 103.828 121.255 103.584 119.176 104.175C116.751 104.868 115.161 106.233 114 106.111C111.819 105.866 112.512 103.013 111.982 100.119C111.717 98.7133 111.147 91.2548 109.782 89.6856C109.007 88.789 108.07 100.181 107.784 103.197C107.642 104.684 107.01 101.913 101.895 101.994C99.5312 102.035 96.5763 102.544 93.2139 102.157C91.6855 101.974 89.4642 101.362 87.8136 101.362C86.8558 101.362 86.7743 103.624 88.4045 104.847C89.3419 105.54 94.4977 106.457 94.783 107.007C95.1906 107.782 92.7248 107.15 89.2604 106.905C82.0668 106.396 66.5385 104.868 48.9926 108.026C47.505 108.291 47.9737 106.987 47.7903 104.806C47.5457 101.831 46.9548 97.3275 46.3638 94.23C46.1804 93.2926 45.3041 96.3698 45.1411 98.0204C45.0392 99.1412 44.224 107.537 43.0625 109.045C42.39 109.921 42.0232 110.023 40.8005 110.044C40.0465 110.044 40.3725 108.841 38.2532 106.702C35.6447 104.052 31.6913 101.322 30.2648 99.5896C28.8994 97.9389 28.0843 97.3683 28.8791 96.5735C30.1018 95.3508 30.8965 95.2082 32.1192 94.3115C33.2604 93.476 33.9125 92.2941 34.7684 90.9083C36.0523 88.8705 36.6636 88.2999 36.9489 87.016C37.0916 86.4455 36.8878 85.773 35.8281 84.8763C35.3798 84.4891 33.2604 83.9797 31.0799 83.8778C29.7553 83.8166 30.8762 82.92 31.8136 82.3494C32.2211 82.1048 33.3012 81.1878 32.3842 80.658C31.0188 79.8225 31.3652 78.885 32.7306 75.1558Z" fill="#FFAEAB"/>
<path fill-rule="evenodd" clip-rule="evenodd" d="M56.3085 113.691C56.6957 113.202 62.0553 109.942 63.0334 109.554C64.0116 109.167 68.1077 109.065 69.0247 108.963C69.9621 108.862 72.9374 108.393 73.6506 108.087C74.3842 107.782 76.259 107.822 77.8689 107.782C79.4788 107.72 84.9606 108.923 85.9592 109.29C86.9577 109.656 88.9344 111.144 90.259 111.674C91.5836 112.183 93.2547 112.693 91.9708 113.08C90.687 113.467 85.3071 114.547 83.1062 115.811C80.9053 117.074 78.7656 117.645 79.3362 118.501C79.9068 119.357 81.2721 119.723 79.6215 120.111C77.9708 120.498 71.0625 120.233 69.2081 120.294C67.3537 120.355 63.6244 120.131 62.7481 120.009C61.8719 119.886 62.687 120.009 62.7685 119.01C62.85 118.012 63.278 117.502 62.1775 116.993C61.0567 116.483 59.8951 116.157 59.0189 115.648C58.1222 115.077 55.9213 114.18 56.3085 113.691Z" fill="#BF8F8B"/>
<path fill-rule="evenodd" clip-rule="evenodd" d="M46.6084 117.523C47.0364 116.748 47.5051 115.994 48.7685 115.24C50.032 114.507 53.3944 113.732 54.3726 113.712C55.3304 113.691 57.3275 114.588 57.8981 114.853C58.4687 115.118 60.425 115.403 61.4236 116.259C62.4221 117.135 63.6448 118.215 62.9112 118.949C62.1776 119.683 61.6681 120.192 59.5691 119.907C57.4701 119.642 53.211 119.316 51.7642 118.908C50.2969 118.521 46.1805 118.277 46.6084 117.523Z" fill="#EAC6B0"/>
<path fill-rule="evenodd" clip-rule="evenodd" d="M66.7219 114.914C65.9475 114.67 65.0101 114.833 64.6636 113.793C64.3172 112.754 64.093 112.53 64.7859 112.061C65.4788 111.592 67.1906 110.94 67.6389 111.389C68.0872 111.837 68.6374 112.673 68.2095 113.671C67.8019 114.67 67.4962 115.159 66.7219 114.914Z" fill="#EAC6B0"/>
<path fill-rule="evenodd" clip-rule="evenodd" d="M75.179 114.343C74.0582 114.16 72.917 114.425 72.9985 113.426C73.08 112.428 72.9781 111.592 73.834 111.266C74.7103 110.94 76.1164 110.94 76.8093 111.368C77.5021 111.796 77.869 112.428 77.3799 112.998C76.8908 113.569 76.2794 114.506 75.179 114.343Z" fill="#EAC6B0"/>
<path fill-rule="evenodd" clip-rule="evenodd" d="M83.4934 114.364C82.9839 114.405 82.2503 114.629 82.3318 113.712C82.4133 112.795 82.0669 112.448 82.9228 112.081C83.7991 111.715 84.7365 112.122 84.7365 112.591C84.7365 113.06 84.8587 113.365 84.7161 113.732C84.5531 114.119 84.0232 114.323 83.4934 114.364Z" fill="#EAC6B0"/>
<path fill-rule="evenodd" clip-rule="evenodd" d="M87.9359 109.758C88.8122 109.473 90.6666 109.33 91.5837 109.473C92.5007 109.616 93.4789 109.86 93.6011 110.777C93.7234 111.694 94.1921 112.224 93.4585 112.53C92.7248 112.835 92.4599 112.672 91.7467 112.407C91.0334 112.122 89.9126 111.755 89.1994 111.164C88.4657 110.573 87.08 110.044 87.9359 109.758Z" fill="#EAC6B0"/>
<path fill-rule="evenodd" clip-rule="evenodd" d="M35.3798 83.7147C36.1338 83.5924 39.2721 83.4701 41.2488 83.4905C43.2459 83.5313 47.2401 84.2241 49.1149 84.6928C51.0101 85.1616 52.5385 84.754 53.6185 84.5706C54.719 84.3668 57.6942 84.1426 60.2619 84C62.8296 83.837 64.9489 83.3275 65.9271 83.6943C66.9053 84.0815 67.8019 84.1019 66.3551 85.3653C64.9286 86.6492 63.5021 87.607 62.0348 87.9534C60.5879 88.2795 56.8791 88.1572 55.1469 87.8515C53.4147 87.5662 51.866 86.9752 49.2779 86.2416C46.6898 85.508 43.9999 84.7744 42.5326 84.7744C41.0654 84.7744 38.7015 84.8763 37.6826 85.0597C36.6636 85.2431 36.358 85.2023 35.7874 84.8151C35.2371 84.4483 34.6258 83.8369 35.3798 83.7147Z" fill="#D8D6D7"/>
<path fill-rule="evenodd" clip-rule="evenodd" d="M53.4148 84.6114C54.5559 83.0422 55.9009 80.9229 57.9999 80.5357C59.0392 80.3319 60.2008 80.8006 61.2197 80.9432C62.4832 81.147 64.4803 82.5328 65.2139 83.5721C65.3565 83.7962 66.029 84.6725 65.7437 84.9782C65.0101 85.7118 63.5225 85.5691 62.5851 85.6507C60.3434 85.8544 58.2648 86.099 56.0028 86.099C55.0247 86.1194 52.2328 86.2213 53.4148 84.6114Z" fill="#BF8F8B"/>
<path d="M80.946 49.0508C80.6403 49.0508 80.355 49.0305 80.0494 49.0101C73.569 48.4599 67.5981 41.3682 66.1716 32.5239C66.1105 32.1979 66.355 31.8718 66.6811 31.8107C67.0072 31.7495 67.3332 31.9941 67.3943 32.3201C68.9024 41.7757 75.0974 47.3391 80.1513 47.767C85.9387 48.2561 92.684 43.2837 93.7844 31.2197C93.8048 30.8733 94.1105 30.6287 94.4569 30.6695C94.8034 30.7102 95.0479 30.9955 95.0072 31.342C93.9067 43.6709 87.1207 49.0508 80.946 49.0508Z" fill="#604440"/>
<path d="M71.0014 26.2474C70.818 26.2474 70.6142 26.1659 70.4919 25.9825C70.2882 25.6972 70.3493 25.3304 70.6346 25.1266C71.8369 24.2707 73.2023 23.8835 74.6899 23.9854C75.0363 24.0058 75.2809 24.3115 75.2605 24.6375C75.2401 24.984 74.9344 25.2285 74.6084 25.2081C73.4061 25.1266 72.326 25.4119 71.3682 26.1252C71.2459 26.2067 71.1237 26.2474 71.0014 26.2474Z" fill="#604440"/>
<path d="M88.1804 24.2096C88.0785 24.2096 87.9766 24.1892 87.8747 24.1281C86.9373 23.5779 85.3478 23.7001 84.4104 24.1077C84.1047 24.2504 83.7379 24.1077 83.5952 23.802C83.4526 23.4963 83.5952 23.1295 83.9009 22.9869C85.1236 22.457 87.1411 22.294 88.4861 23.0684C88.7714 23.2314 88.8733 23.6186 88.7102 23.9039C88.588 24.1077 88.3842 24.2096 88.1804 24.2096Z" fill="#604440"/>
<path d="M80.5589 36.8443C80.4774 36.8443 80.3959 36.8239 80.294 36.7832C79.866 36.5794 79.0305 36.0088 78.8879 35.1937C78.786 34.6231 79.1324 34.1544 79.3973 33.7672C79.4992 33.6041 79.6623 33.4004 79.6826 33.2985C79.9476 32.2184 79.7234 31.1791 79.0509 30.3028C78.8471 30.0379 78.8879 29.6507 79.1732 29.4469C79.4381 29.2432 79.8253 29.2839 80.0291 29.5692C80.9461 30.7512 81.2314 32.1573 80.885 33.6041C80.8034 33.9302 80.5997 34.2155 80.4162 34.4804C80.294 34.6435 80.1106 34.9084 80.1106 35.0103C80.1513 35.1937 80.4978 35.5197 80.8238 35.6828C81.1295 35.8254 81.2721 36.1922 81.1295 36.4979C81.0276 36.7017 80.8034 36.8443 80.5589 36.8443Z" fill="#604440"/>
<path fill-rule="evenodd" clip-rule="evenodd" d="M73.1412 30.7715C73.1004 30.1397 73.4672 29.6099 73.9767 29.5895C74.4658 29.5691 74.9141 30.0378 74.9548 30.6696C74.9956 31.3013 74.6288 31.8311 74.1193 31.8515C73.6099 31.8923 73.1819 31.4032 73.1412 30.7715Z" fill="#604440"/>
<path fill-rule="evenodd" clip-rule="evenodd" d="M86.1222 29.5488C86.0815 28.9171 86.4483 28.3872 86.9577 28.3669C87.4672 28.3465 87.8952 28.8152 87.9359 29.4469C87.9767 30.0786 87.6099 30.6085 87.1004 30.6289C86.5909 30.6696 86.163 30.1805 86.1222 29.5488Z" fill="#604440"/>
<path d="M69.2284 27.4091C69.1673 27.4091 69.1061 27.4091 69.045 27.3887C68.7189 27.2868 68.5355 26.9404 68.6374 26.6143C68.9023 25.7177 69.371 24.9433 69.8397 24.1893C70.2881 23.476 70.6956 22.7832 70.9198 22.0088C71.1032 21.3974 71.2255 20.6842 71.3477 19.9302C71.6127 18.4425 71.8776 16.8938 72.5908 15.7526C73.2429 14.6725 74.2415 14.1223 75.4438 14.1223C75.7903 14.1223 76.0552 14.3872 76.0552 14.7337C76.0552 15.0801 75.7903 15.345 75.4438 15.345C74.6694 15.345 74.0785 15.6915 73.6301 16.4047C73.0595 17.3421 72.7946 18.7686 72.5501 20.1543C72.4074 20.9491 72.2852 21.7031 72.0814 22.3756C71.8165 23.313 71.3274 24.1078 70.8587 24.8618C70.4307 25.575 70.0232 26.2271 69.799 27.0015C69.7379 27.246 69.4933 27.4091 69.2284 27.4091Z" fill="#604440"/>
<path d="M70.0028 31.9125C69.8602 31.9125 69.7379 31.8718 69.6156 31.7699C67.2721 29.8543 67.1294 27.9999 67.2109 25.5748C67.2109 25.2284 67.4962 24.9431 67.8427 24.9839C68.1891 25.0042 68.454 25.2692 68.4337 25.6156C68.3521 28.0203 68.5355 29.3041 70.39 30.8121C70.6549 31.0363 70.6957 31.4235 70.4715 31.668C70.3492 31.8514 70.1862 31.9125 70.0028 31.9125Z" fill="#604440"/>
<path d="M78.847 14.5299C78.7451 14.5299 78.6636 14.5095 78.5821 14.4688C78.2764 14.3261 78.1542 13.9389 78.3172 13.6536C80.2328 9.80211 84.7772 11.3101 87.7728 12.3087C88.2415 12.4717 88.6898 12.6143 89.077 12.7162C89.4031 12.8181 89.5865 13.1442 89.505 13.4702C89.4031 13.7963 89.077 13.9797 88.751 13.8982C88.3434 13.7759 87.8951 13.6333 87.3856 13.4702C83.8194 12.2883 80.7626 11.5343 79.4176 14.2039C79.2954 14.4076 79.0916 14.5299 78.847 14.5299Z" fill="#604440"/>
<path d="M93.1936 26.6347C93.0917 26.6347 93.0102 26.6143 92.9287 26.5736C90.6259 25.412 89.5051 23.0277 88.425 20.7046C87.1004 17.8312 85.9388 15.345 82.7802 15.345C82.4337 15.345 82.1688 15.0801 82.1688 14.7337C82.1688 14.3872 82.4337 14.1223 82.7802 14.1223C86.7132 14.1223 88.1397 17.2198 89.5254 20.1951C90.5036 22.3145 91.5225 24.5153 93.4585 25.4731C93.7642 25.6158 93.8864 26.003 93.7234 26.2883C93.6419 26.5124 93.4177 26.6347 93.1936 26.6347Z" fill="#604440"/>
<path d="M98.5327 30.0377C98.4919 30.0377 98.4308 30.0377 98.39 30.0173C98.064 29.9358 97.8602 29.6098 97.9417 29.2837C98.655 26.2881 97.9417 22.8441 96.0058 19.8689C95.8224 19.5836 95.9039 19.1964 96.1892 19.013C96.4745 18.8296 96.8617 18.9111 97.0451 19.1964C99.1644 22.4569 99.9388 26.2269 99.1441 29.569C99.0829 29.8543 98.818 30.0377 98.5327 30.0377Z" fill="#604440"/>
<path d="M76.5851 9.59816C76.2387 9.59816 75.9738 9.33324 75.9738 8.98681C75.9738 4.89074 81.4148 1.79321 84.9199 1.79321C85.2663 1.79321 85.5312 2.05813 85.5312 2.40457C85.5312 2.751 85.2663 3.01592 84.9199 3.01592C81.9446 3.01592 77.1965 5.74663 77.1965 8.98681C77.1965 9.33324 76.9112 9.59816 76.5851 9.59816Z" fill="#604440"/>
<path d="M68.9431 34.46C68.8616 34.46 68.8004 34.4396 68.7189 34.4193C66.029 33.4207 64.093 30.4658 64.093 27.3887C64.093 27.0423 64.3579 26.7773 64.7044 26.7773C65.0508 26.7773 65.3157 27.0423 65.3157 27.3887C65.3157 29.9156 66.9664 32.4426 69.1469 33.2577C69.4729 33.38 69.636 33.7264 69.5137 34.0525C69.4322 34.3174 69.1876 34.46 68.9431 34.46Z" fill="#604440"/>
<path d="M93.5807 32.5037C93.4177 32.5037 93.275 32.4426 93.1528 32.3203C92.9082 32.0758 92.9082 31.6886 93.1528 31.444C94.3551 30.2417 94.9257 28.2854 94.9257 25.4324C94.9257 25.086 95.1906 24.821 95.537 24.821C95.8835 24.821 96.1484 25.086 96.1484 25.4324C96.1484 28.6318 95.4555 30.8734 94.0087 32.3203C93.8864 32.4426 93.7437 32.5037 93.5807 32.5037Z" fill="#604440"/>
<path d="M64.358 34.2154C64.2969 34.2154 64.2154 34.195 64.1542 34.1747C59.7321 32.5444 58.6724 24.1281 60.1193 19.2373C60.4657 18.0961 60.7103 16.9345 60.9752 15.7933C61.4846 13.4701 62.0145 11.0451 63.2372 8.80348C66.457 2.89373 73.6302 -1.77294 80.0698 0.6521C80.3958 0.774371 80.5589 1.1208 80.4366 1.44686C80.3143 1.77292 79.9679 1.93594 79.6418 1.81367C73.834 -0.366822 67.2925 3.97379 64.3172 9.41484C63.176 11.5138 62.687 13.7147 62.1775 16.0786C61.9126 17.2402 61.6477 18.4425 61.3012 19.6041C59.8747 24.4134 61.1993 31.7904 64.5822 33.0335C64.9082 33.1557 65.0712 33.5022 64.949 33.8282C64.8267 34.0524 64.6025 34.2154 64.358 34.2154Z" fill="#604440"/>
<path d="M99.9796 22.294C99.9592 22.294 99.9185 22.294 99.8981 22.294C99.572 22.2533 99.3275 21.9272 99.3682 21.6012C100.102 16.4454 96.9024 8.5182 92.786 5.2984C91.2169 4.07569 88.8937 2.50655 86.7336 2.97526C86.4075 3.03639 86.0815 2.83261 86 2.50655C85.9185 2.1805 86.1426 1.85444 86.4687 1.77293C89.1383 1.18195 91.7671 2.95488 93.54 4.32023C98.0233 7.82533 101.386 16.1397 100.591 21.7642C100.55 22.0699 100.285 22.294 99.9796 22.294Z" fill="#604440"/>
<path d="M32.0377 77.7439C31.9766 77.7439 31.9155 77.7439 31.8747 77.7235C31.5487 77.6216 31.3653 77.2955 31.4468 76.9695C31.834 75.6449 32.3434 74.361 32.8529 73.118C33.2808 72.0583 33.7292 70.9782 34.0756 69.8778C36.0931 63.4382 38.7423 56.8763 44.3463 52.3931C47.7495 49.6624 51.7641 48.1951 55.636 46.7686C56.9606 46.2795 58.3056 45.7905 59.6302 45.2402C61.5254 44.4659 63.3594 43.4673 65.1324 42.4891C66.3551 41.8167 67.6185 41.1238 68.9024 40.5124C69.2081 40.3698 69.5749 40.4921 69.7175 40.7977C69.8602 41.1034 69.7379 41.4702 69.4322 41.6129C68.1891 42.2242 66.9257 42.8967 65.7233 43.5692C63.93 44.5474 62.0552 45.5663 60.0989 46.3814C58.7743 46.9316 57.3885 47.4411 56.0639 47.9098C52.0901 49.3567 48.3405 50.7424 45.1207 53.3305C40.0669 57.3858 37.5196 63.0103 35.2575 70.2242C34.8907 71.3654 34.4424 72.4862 34.0145 73.5663C33.5254 74.7686 33.0159 76.0321 32.6491 77.2752C32.5472 77.5605 32.3027 77.7439 32.0377 77.7439Z" fill="#604440"/>
<path d="M124.067 65.8835C123.822 65.8835 123.598 65.7408 123.496 65.4963C121.275 59.9533 117.26 55.2459 111.901 51.8835C110.678 51.1091 109.17 50.62 107.703 50.1105C106.847 49.8252 105.971 49.5399 105.156 49.1935C100.897 47.4002 96.0873 45.3827 91.8078 42.1629C91.5429 41.9592 91.4817 41.572 91.6855 41.307C91.8893 41.0421 92.2765 40.981 92.5414 41.1848C96.6986 44.3027 101.447 46.2998 105.624 48.0523C106.399 48.3784 107.214 48.6433 108.09 48.949C109.619 49.4584 111.208 49.9883 112.553 50.8442C118.157 54.3493 122.335 59.2401 124.637 65.0276C124.76 65.3333 124.617 65.7001 124.291 65.8223C124.21 65.8631 124.128 65.8835 124.067 65.8835Z" fill="#604440"/>
<path d="M137.72 109.738C137.415 109.738 137.15 109.514 137.109 109.208C137.048 108.78 136.987 108.352 136.926 107.924C136.661 105.866 136.375 103.747 135.662 101.831C134.969 99.997 133.91 98.2241 132.891 96.5327C132.035 95.1062 131.138 93.6186 130.445 92.0698C127.552 85.5487 126.084 79.0276 124.699 72.3434C124.597 71.8136 124.454 71.2634 124.311 70.7335C123.985 69.5312 123.659 68.2881 123.659 66.9839C123.659 66.6375 123.924 66.3726 124.271 66.3726C124.617 66.3726 124.882 66.6375 124.882 66.9839C124.882 68.1251 125.167 69.2459 125.493 70.4279C125.636 70.9781 125.779 71.5487 125.901 72.0989C127.266 78.7015 128.713 85.1615 131.546 91.5603C132.198 93.048 133.074 94.4948 133.93 95.9009C134.99 97.6535 136.07 99.4468 136.803 101.403C137.578 103.441 137.863 105.642 138.148 107.761C138.21 108.189 138.271 108.617 138.332 109.045C138.373 109.371 138.148 109.697 137.802 109.738C137.782 109.738 137.761 109.738 137.72 109.738Z" fill="#604440"/>
<path d="M136.192 112.041C136.09 112.041 136.009 112.041 135.886 112C134.786 111.776 133.767 110.553 132.952 109.555C132.687 109.229 132.463 108.943 132.259 108.76C130.894 107.394 128.734 105.622 126.268 104.929C122.926 103.991 119.339 104.745 117.485 105.275C117.281 105.336 116.914 105.54 116.547 105.723C115.325 106.376 113.674 107.252 112.675 106.253C111.86 105.438 111.677 103.482 111.555 101.362C111.534 100.975 111.514 100.629 111.473 100.425L111.432 100.099C110.964 96.4716 110.515 93.048 109.456 89.6041C109.354 89.278 109.537 88.9316 109.863 88.8297C110.189 88.7278 110.536 88.9112 110.637 89.2372C111.738 92.7831 112.186 96.2678 112.675 99.9563L112.716 100.282C112.736 100.507 112.777 100.873 112.798 101.301C112.879 102.442 113.022 104.847 113.572 105.397C113.918 105.744 115.325 105.01 115.997 104.643C116.466 104.399 116.853 104.195 117.179 104.093C119.156 103.523 122.987 102.748 126.635 103.747C129.365 104.501 131.688 106.416 133.176 107.884C133.4 108.108 133.665 108.413 133.95 108.78C134.562 109.534 135.499 110.675 136.172 110.798C136.294 110.737 136.375 110.349 136.396 110.146C136.416 110.003 136.437 109.881 136.477 109.758C136.559 109.432 136.885 109.229 137.231 109.31C137.557 109.392 137.761 109.718 137.68 110.064C137.659 110.146 137.639 110.247 137.619 110.37C137.537 110.838 137.415 111.491 136.926 111.837C136.742 111.939 136.518 112.041 136.192 112.041Z" fill="#604440"/>
<path d="M43.2663 109.31C43.2051 109.31 43.1236 109.29 43.0625 109.269C42.7364 109.147 42.5734 108.801 42.6753 108.495C43.4089 106.416 43.6942 104.052 43.9795 101.77C44.326 98.9985 44.6724 96.1251 45.7932 93.6186C45.9359 93.3129 46.3027 93.1703 46.6083 93.3129C46.914 93.4555 47.0567 93.8224 46.914 94.128C45.8747 96.4716 45.5283 99.243 45.2022 101.933C44.9169 104.297 44.6113 106.722 43.8369 108.923C43.7554 109.147 43.5108 109.31 43.2663 109.31Z" fill="#604440"/>
<path d="M79.6826 56.5909C78.521 56.5909 77.2779 56.4483 76.0552 56.0815C70.7976 54.4716 66.1717 48.7045 65.7437 43.2227C65.7234 42.8762 65.9679 42.5909 66.3143 42.5706C66.6608 42.5298 66.9461 42.7947 66.9664 43.1411C67.3536 48.1542 71.5924 53.4526 76.4017 54.9199C78.9082 55.6943 81.537 55.3478 83.2896 54.9403C88.2619 53.7583 92.8267 49.8864 95.4963 44.588C95.6389 44.2823 96.0261 44.1601 96.3114 44.3231C96.6171 44.4657 96.7394 44.8529 96.5967 45.1382C93.7845 50.7831 88.914 54.8995 83.5749 56.1426C82.5152 56.3871 81.1702 56.5909 79.6826 56.5909Z" fill="#604440"/>
<path d="M40.5152 110.39C40.2707 110.39 40.0261 110.227 39.9446 109.983C39.639 109.147 38.9257 108.291 38.4162 107.68C37.2547 106.294 35.8689 105.234 34.4017 104.093C32.8325 102.87 31.2023 101.627 29.9184 99.9767C29.7146 99.7118 29.7554 99.3246 30.0203 99.1208C30.2852 98.917 30.6724 98.9578 30.8762 99.2227C32.0785 100.751 33.5662 101.913 35.1557 103.135C36.6229 104.277 38.1309 105.438 39.374 106.926C39.9446 107.619 40.719 108.536 41.1062 109.595C41.2285 109.921 41.0654 110.268 40.7394 110.39C40.6579 110.37 40.5967 110.39 40.5152 110.39Z" fill="#604440"/>
<path d="M34.0552 122.862C33.4846 122.862 32.914 122.76 32.3842 122.678C32.16 122.637 31.9562 122.617 31.7525 122.576C28.7976 122.23 23.275 121.557 20.5851 118.134C17.997 114.833 17.6913 110.655 17.3856 106.6C17.3449 105.988 17.3041 105.397 17.243 104.806C17.2022 104.419 17.1003 103.93 16.9781 103.421C16.7743 102.565 16.5909 101.688 16.6724 100.996C16.7132 100.649 17.0188 100.425 17.3653 100.466C17.7117 100.506 17.9359 100.812 17.8951 101.159C17.834 101.648 18.0174 102.422 18.1804 103.176C18.3027 103.726 18.4249 104.256 18.4657 104.725C18.5268 105.316 18.5676 105.927 18.6084 106.518C18.8937 110.39 19.1993 114.384 21.5632 117.38C23.9475 120.416 29.1236 121.028 31.9155 121.374C32.1193 121.394 32.3638 121.435 32.588 121.476C33.4031 121.598 34.2998 121.741 34.9111 121.496C35.5836 121.211 36.2765 120.6 36.949 119.988C37.2546 119.703 37.5603 119.438 37.866 119.214C38.1309 119.01 38.5181 119.051 38.7219 119.316C38.9257 119.581 38.8849 119.968 38.62 120.172C38.3551 120.396 38.0698 120.64 37.7641 120.905C37.0509 121.537 36.2561 122.25 35.3798 122.617C34.9723 122.8 34.5036 122.862 34.0552 122.862Z" fill="#604440"/>
<path d="M26.2503 98.6521C26.0466 98.6521 25.8428 98.5502 25.7409 98.3668C25.5575 98.0815 25.639 97.6943 25.9243 97.5109C26.556 97.1033 27.2489 96.7162 27.9417 96.329C30.2445 95.0247 32.6288 93.6798 33.6681 91.3566C33.8107 91.0509 34.1776 90.9083 34.4832 91.0509C34.7889 91.1936 34.9316 91.5604 34.7889 91.8661C33.5866 94.5764 31.0393 96.0233 28.5531 97.409C27.8806 97.7962 27.2081 98.163 26.5968 98.5706C26.4745 98.6317 26.3522 98.6521 26.2503 98.6521Z" fill="#604440"/>
<path d="M23.5807 95.4933C23.3973 95.4933 23.1935 95.4118 23.0712 95.2284C22.8674 94.9431 22.949 94.5763 23.2139 94.3725C26.6171 91.9679 29.4497 90.7655 33.3012 90.093C33.6477 90.0319 33.9533 90.2561 34.0145 90.6025C34.0756 90.9286 33.8514 91.2546 33.505 91.3158C29.8369 91.9475 27.1469 93.0887 23.9067 95.3914C23.8252 95.4526 23.703 95.4933 23.5807 95.4933Z" fill="#604440"/>
<path d="M19.9329 91.9271C19.7495 91.9271 19.5865 91.8456 19.4642 91.7029C19.2401 91.438 19.2808 91.0508 19.5457 90.847C22.6433 88.2794 27.7379 87.0159 31.406 86.8936C31.4671 86.8936 36.1134 86.8529 36.7248 88.6666C36.9693 89.4002 36.5414 90.1542 35.4613 90.9082C35.176 91.112 34.8092 91.0305 34.6054 90.7655C34.4016 90.4802 34.4832 90.1134 34.7481 89.9096C35.4817 89.4002 35.5632 89.0945 35.5428 89.0537C35.3798 88.5443 32.9548 88.0552 31.4264 88.1163C27.962 88.2386 23.1935 89.4002 20.3201 91.7845C20.1979 91.866 20.0756 91.9271 19.9329 91.9271Z" fill="#604440"/>
<path d="M16.9169 87.607C16.7335 87.607 16.5501 87.5254 16.4278 87.3624C16.224 87.0975 16.2852 86.7103 16.5501 86.5065C20.5443 83.5516 25.5574 82.4716 31.8339 83.2052C36.684 83.7758 37.7844 85.508 37.8456 86.8733C37.866 87.2198 37.601 87.5051 37.2546 87.5254C36.9082 87.5458 36.6229 87.2809 36.6025 86.9345C36.521 85.2431 33.4846 84.6521 31.6709 84.4279C25.7 83.7351 20.9926 84.7336 17.243 87.5051C17.1614 87.5662 17.0392 87.607 16.9169 87.607Z" fill="#604440"/>
<path d="M13.0246 83.837C12.8208 83.837 12.6171 83.7351 12.5152 83.5517C12.3318 83.2664 12.4133 82.8792 12.6986 82.6958C13.1469 82.4105 13.6156 82.1048 14.0843 81.7787C16.7946 79.9651 19.8922 77.9272 23.3973 78.3144C23.7845 78.3552 24.1716 78.4367 24.5588 78.4978C24.9053 78.559 25.2517 78.6201 25.5981 78.6608C26.1687 78.722 26.7393 78.7627 27.3099 78.8035C28.8383 78.9054 30.4278 79.0073 31.9155 79.6798C32.8732 80.1077 33.342 80.6376 33.342 81.2897C33.3216 82.2678 32.0989 82.9403 31.1003 83.3479C30.7743 83.4702 30.4278 83.3071 30.3056 83.0015C30.1833 82.6754 30.3463 82.329 30.652 82.2067C31.6913 81.7991 32.0989 81.3916 32.1192 81.2693C32.1192 81.2693 32.0173 81.0859 31.4264 80.821C30.1425 80.2504 28.716 80.1485 27.2284 80.0466C26.6374 80.0058 26.0465 79.9651 25.4555 79.9039C25.0887 79.8632 24.7015 79.7817 24.3347 79.7205C23.9679 79.6594 23.6214 79.5779 23.2546 79.5371C20.1775 79.1907 17.4264 81.0247 14.7568 82.7977C14.2881 83.1237 13.8194 83.4294 13.3507 83.7147C13.2488 83.8166 13.1469 83.837 13.0246 83.837Z" fill="#604440"/>
<path d="M18.9955 100.751H18.9751C16.8558 100.649 16.1222 99.6711 15.4089 98.7133C15.1236 98.3262 14.8383 97.939 14.4308 97.5722C14.0436 97.2257 13.5341 96.9404 13.0043 96.6347C12.1891 96.166 11.3332 95.6973 10.7626 94.8618C9.82522 93.4761 10.0698 92.3553 10.3347 91.2956C10.4366 90.888 10.5385 90.4601 10.5792 90.0118C10.62 89.5023 10.5792 88.9724 10.5385 88.4018C10.4977 87.9943 10.4773 87.6071 10.457 87.1995C10.457 86.1806 10.6404 85.4877 11.211 84.5503C11.3944 84.265 11.7612 84.1631 12.0465 84.3465C12.3318 84.5299 12.4337 84.8968 12.2503 85.1821C11.8019 85.9157 11.6593 86.4048 11.6797 87.1791C11.6797 87.546 11.7204 87.9128 11.7408 88.2796C11.8019 88.8706 11.8427 89.4819 11.7816 90.1136C11.7204 90.6639 11.6185 91.1529 11.5166 91.5809C11.2721 92.5591 11.1294 93.2315 11.7612 94.169C12.1687 94.7599 12.8616 95.1471 13.5952 95.5751C14.1658 95.9011 14.7364 96.2272 15.2459 96.6755C15.735 97.1238 16.0814 97.5722 16.3871 97.9797C17.0392 98.856 17.4875 99.447 19.0159 99.5285C19.3623 99.5489 19.6069 99.8342 19.6069 100.181C19.6069 100.486 19.3216 100.751 18.9955 100.751Z" fill="#604440"/>
<path d="M57.0829 86.5677C56.7161 86.5677 56.3493 86.5677 55.9825 86.5473C53.6797 86.4454 51.5196 85.8748 49.4206 85.3246C48.2591 85.0189 47.0364 84.7133 45.834 84.4687C42.2067 83.7759 38.2125 84 35.115 84.2649C34.7685 84.3057 34.4832 84.0408 34.4425 83.7147C34.4221 83.3683 34.6666 83.083 34.9927 83.0422C38.1513 82.7569 42.2678 82.5328 46.0378 83.2664C47.3013 83.5109 48.524 83.8166 49.7059 84.1223C51.8457 84.6725 53.8428 85.2023 56.0233 85.3042C58.0407 85.4061 60.0582 85.2023 62.0145 84.9986C62.9519 84.8967 63.869 84.8152 64.8064 84.754C65.0305 84.7133 65.6826 84.5095 66.0902 84.3261C65.9883 84.3057 65.8457 84.2649 65.6623 84.2446C65.3158 84.2038 65.0713 83.9185 65.1121 83.5721C65.1528 83.2256 65.4585 83.0015 65.7845 83.0219C66.3755 83.083 66.8035 83.2256 67.1295 83.4702C67.6594 83.8777 67.5982 84.3464 67.5371 84.5299C67.2314 85.5692 64.9286 85.9767 64.8879 85.9767C63.9709 86.0379 63.0538 86.1398 62.1368 86.2213C60.5065 86.4047 58.7947 86.5677 57.0829 86.5677Z" fill="#604440"/>
<path d="M58.9577 88.8296C56.0435 88.8296 53.3332 87.9737 50.684 87.1178C48.5443 86.4453 46.3434 85.7321 44.0406 85.4876C41.7379 85.243 39.4962 85.4672 37.1323 85.7117L36.7044 85.7525C36.358 85.7932 36.0727 85.5487 36.0319 85.2023C35.9911 84.8558 36.2357 84.5705 36.5821 84.5298L37.0101 84.489C39.3332 84.2445 41.7379 83.9999 44.1833 84.2648C46.6083 84.5298 48.8703 85.243 51.0712 85.9563C54.7597 87.1382 58.224 88.2386 62.1775 87.1993C63.767 86.7714 65.7844 85.7321 66.4569 84.4483C66.62 84.1426 66.9868 84.0407 67.2925 84.1833C67.5981 84.3464 67.7 84.7132 67.5574 85.0189C66.6403 86.751 64.2561 87.9126 62.5035 88.3813C61.2808 88.687 60.0989 88.8296 58.9577 88.8296Z" fill="#604440"/>
<path d="M48.0349 107.313C47.7292 107.313 47.4643 107.089 47.4235 106.763C47.2605 105.397 47.1382 104.032 47.016 102.667C46.5473 97.4905 46.0378 92.1106 43.7962 87.3012C43.6535 86.9956 43.7758 86.6288 44.1018 86.4861C44.4075 86.3435 44.7743 86.4657 44.917 86.7918C47.2605 91.8049 47.77 97.2663 48.259 102.565C48.3813 103.93 48.5036 105.295 48.6666 106.64C48.7074 106.987 48.4628 107.293 48.1164 107.313C48.096 107.313 48.0756 107.313 48.0349 107.313Z" fill="#604440"/>
<path d="M107.968 102.259H107.948C107.601 102.239 107.336 101.953 107.357 101.627C107.642 94.6783 109.252 87.016 110.658 80.2707L110.719 79.965C110.78 79.639 111.127 79.4148 111.453 79.4963C111.779 79.5574 112.003 79.8835 111.921 80.2299L111.86 80.5356C110.454 87.2401 108.865 94.8209 108.579 101.688C108.579 101.994 108.294 102.259 107.968 102.259Z" fill="#604440"/>
<path d="M112.471 108.312C112.207 108.312 111.942 108.128 111.881 107.843C111.799 107.517 112.003 107.17 112.329 107.089C113.735 106.722 114.958 106.05 116.242 105.336C117.485 104.643 118.768 103.93 120.236 103.502C120.562 103.4 120.908 103.604 120.99 103.93C121.092 104.256 120.888 104.603 120.562 104.684C119.237 105.071 118.076 105.723 116.832 106.396C115.528 107.13 114.183 107.863 112.635 108.271C112.573 108.312 112.533 108.312 112.471 108.312Z" fill="#604440"/>
<path d="M79.4992 118.399C79.2955 118.399 79.0917 118.297 78.9898 118.114C78.8064 117.828 78.8879 117.441 79.1732 117.258C82.1077 115.363 84.6754 114.445 87.8748 113.59C88.2824 113.488 88.6899 113.386 89.1179 113.264C92.1339 112.51 95.5371 111.654 97.2081 109.004C97.2896 108.882 97.2896 108.78 97.2489 108.699C97.1062 108.25 96.2503 107.7 95.5167 107.415C94.8035 107.13 93.8253 106.946 92.8064 106.763C90.9927 106.437 89.1383 106.09 87.9971 105.112C87.1004 104.338 86.1019 102.565 86.8355 101.261C87.3246 100.384 88.4658 100.792 89.0364 100.996L89.1994 101.057C90.5036 101.444 92.0524 101.648 93.8253 101.689C94.9665 101.709 96.1484 101.648 97.4119 101.587C101.039 101.383 104.809 101.179 108.009 103.197C109.007 103.828 109.802 104.786 110.556 105.703C110.841 106.05 111.127 106.396 111.412 106.702C111.636 106.946 111.616 107.333 111.371 107.578C111.127 107.802 110.739 107.782 110.495 107.537C110.21 107.211 109.904 106.865 109.598 106.498C108.885 105.642 108.172 104.766 107.336 104.236C104.463 102.422 100.917 102.626 97.473 102.809C96.2503 102.871 94.9869 102.952 93.8049 102.911C91.9301 102.871 90.2591 102.646 88.853 102.218C88.7918 102.198 88.7307 102.178 88.6492 102.157C88.5065 102.117 88.0989 101.974 87.8952 101.953C87.6506 102.585 88.262 103.706 88.8326 104.195C89.7088 104.949 91.4818 105.275 93.0509 105.56C94.1513 105.764 95.1703 105.948 96.0058 106.274C96.3522 106.416 98.064 107.13 98.4512 108.312C98.5939 108.76 98.5327 109.229 98.2678 109.657C96.3318 112.713 92.6637 113.651 89.4439 114.466C89.016 114.568 88.6084 114.67 88.2212 114.792C85.1441 115.607 82.6783 116.483 79.8661 118.297C79.7234 118.379 79.6011 118.399 79.4992 118.399Z" fill="#604440"/>
<path d="M80.4977 119.866C79.6418 119.866 78.9082 119.642 78.6433 118.908C78.521 118.582 78.684 118.236 79.0101 118.114C79.3361 117.991 79.6826 118.154 79.8048 118.48C79.8456 118.603 80.2124 118.827 82.5967 118.338C82.9431 118.256 83.2488 118.195 83.4526 118.175C84.4307 118.073 85.4497 118.012 86.4278 117.951C88.0173 117.849 89.668 117.767 91.2371 117.441C92.0727 117.258 92.9489 116.993 93.7844 116.728C94.9868 116.341 96.2095 115.953 97.4526 115.811C97.7786 115.77 98.0843 116.015 98.1251 116.361C98.1658 116.707 97.9213 116.993 97.5748 117.034C96.454 117.156 95.3332 117.523 94.1513 117.889C93.275 118.175 92.3783 118.46 91.4817 118.643C89.8514 118.99 88.1396 119.092 86.5093 119.173C85.5516 119.234 84.553 119.296 83.5952 119.397C83.4322 119.418 83.1673 119.479 82.8616 119.54C82.128 119.683 81.2721 119.866 80.4977 119.866Z" fill="#604440"/>
<path d="M88.8326 122.76C86.6928 122.76 84.3697 122.067 82.1077 121.395C81.2925 121.15 80.4774 120.905 79.7234 120.722C79.3973 120.641 79.1935 120.314 79.2751 119.968C79.3566 119.642 79.703 119.438 80.0291 119.52C80.8034 119.723 81.6186 119.948 82.4541 120.213C84.6346 120.865 86.8762 121.517 88.8326 121.517C90.3813 121.517 91.9708 121.313 93.4992 121.089C94.7219 120.926 95.9854 120.763 97.2488 120.681C97.5953 120.661 97.8806 120.926 97.901 121.272C97.9213 121.619 97.6564 121.904 97.31 121.924C96.1077 121.985 94.8646 122.149 93.6622 122.312C92.0931 122.556 90.4628 122.76 88.8326 122.76Z" fill="#604440"/>
<path d="M90.5646 125.939C89.9737 125.939 89.3827 125.918 88.7917 125.837C86.9169 125.633 84.879 124.431 82.9635 123.147C82.6782 122.964 82.5967 122.576 82.7801 122.291C82.9635 122.006 83.3507 121.924 83.636 122.108C84.7568 122.841 87.0799 124.39 88.9344 124.594C91.2371 124.859 93.6825 124.472 96.0464 124.125C97.0042 123.983 97.962 123.84 98.8994 123.738C99.2255 123.697 99.5312 123.942 99.5719 124.288C99.6127 124.635 99.3681 124.92 99.0217 124.961C98.1047 125.063 97.1673 125.205 96.2298 125.348C94.355 125.633 92.4598 125.939 90.5646 125.939Z" fill="#604440"/>
<path d="M119.726 123.351C118.544 123.351 117.383 123.229 116.242 123.106C114.02 122.862 111.901 122.638 109.761 123.33C109.435 123.432 109.089 123.249 108.987 122.923C108.885 122.597 109.068 122.25 109.394 122.149C111.799 121.374 114.122 121.639 116.384 121.884C117.688 122.026 119.033 122.169 120.358 122.108C123.68 121.965 127.368 120.824 130.527 119.01C134.338 116.809 136.07 114.527 135.784 112.02C135.744 111.674 135.988 111.389 136.335 111.348C136.661 111.307 136.966 111.552 137.007 111.898C137.333 114.894 135.377 117.645 131.138 120.09C127.816 122.006 123.904 123.188 120.399 123.351C120.175 123.351 119.95 123.351 119.726 123.351Z" fill="#604440"/>
<path d="M95.8223 127.855C94.4569 127.855 93.0712 127.63 91.6243 127.101C91.2983 126.978 91.1352 126.632 91.2575 126.306C91.3798 125.98 91.7262 125.817 92.0523 125.939C96.7801 127.671 100.937 125.756 105.339 123.738C106.012 123.432 106.704 123.106 107.397 122.801C107.703 122.658 108.07 122.801 108.212 123.106C108.355 123.412 108.212 123.779 107.886 123.922C107.193 124.227 106.521 124.533 105.848 124.839C102.649 126.347 99.3478 127.855 95.8223 127.855Z" fill="#604440"/>
<path d="M73.3041 120.966C55.8398 120.966 37.2954 118.256 37.2954 113.223C37.2954 108.189 55.8602 105.479 73.3041 105.479C81.3944 105.479 89.3216 106.049 95.6186 107.068C95.9446 107.129 96.1892 107.435 96.128 107.782C96.0669 108.108 95.7612 108.332 95.4148 108.291C89.179 107.272 81.3333 106.722 73.3041 106.722C52.8034 106.722 38.5181 110.145 38.5181 113.223C38.5181 116.3 52.8034 119.723 73.3041 119.723C75.5254 119.723 77.767 119.683 79.9475 119.601C80.294 119.581 80.5793 119.846 80.5793 120.192C80.5996 120.538 80.3347 120.824 79.9883 120.824C77.8078 120.926 75.5458 120.966 73.3041 120.966Z" fill="#604440"/>
<path d="M73.3041 124.553C54.7189 124.553 42.4511 121.435 38.7422 115.79C38.5588 115.505 38.6403 115.118 38.9256 114.935C39.2109 114.751 39.5981 114.833 39.7815 115.118C43.1847 120.335 55.4118 123.31 73.3041 123.31C76.9518 123.31 80.5588 123.147 84.0231 122.821C84.3696 122.78 84.6549 123.045 84.6956 123.371C84.7364 123.718 84.4715 124.003 84.1454 124.044C80.6403 124.39 77.013 124.553 73.3041 124.553Z" fill="#604440"/>
<path d="M62.422 119.825C62.259 119.825 62.096 119.764 61.9737 119.622C61.7495 119.377 61.7699 118.99 62.0144 118.745C62.3609 118.419 62.3201 118.215 62.2997 118.154C62.096 117.38 60.1396 116.402 58.9169 116.116C58.2852 115.974 57.7757 115.587 57.3274 115.261C56.9606 114.996 56.6142 114.731 56.2677 114.629C54.1076 114.017 50.2561 114.812 48.3813 116.279C48.1163 116.483 47.7291 116.443 47.5254 116.178C47.3216 115.913 47.3623 115.525 47.6273 115.322C49.604 113.793 53.8631 112.673 56.6142 113.447C57.1848 113.61 57.6331 113.956 58.0814 114.282C58.4686 114.568 58.8354 114.833 59.2226 114.935C60.0174 115.118 63.0741 116.157 63.5225 117.849C63.6447 118.297 63.6243 118.99 62.8703 119.662C62.7277 119.764 62.5647 119.825 62.422 119.825Z" fill="#604440"/>
<path d="M56.5123 114.058C56.2678 114.058 56.0436 113.916 55.9417 113.691C55.7583 113.263 56.0029 112.815 56.7569 112.285C57.572 111.715 58.6724 110.981 59.9359 110.41C60.3231 110.227 60.751 110.023 61.179 109.799C62.3813 109.188 63.7467 108.515 65.0101 108.352C65.9883 108.23 67.0072 108.23 67.965 108.25C69.7176 108.271 71.3478 108.271 72.8558 107.619C73.1615 107.476 73.5283 107.619 73.671 107.924C73.8136 108.23 73.671 108.597 73.3653 108.739C71.6128 109.514 69.7583 109.493 67.965 109.473C66.9868 109.473 66.0698 109.453 65.1732 109.575C64.1135 109.718 62.85 110.349 61.7496 110.9C61.3013 111.124 60.8529 111.348 60.4454 111.531C59.2838 112.041 58.2445 112.734 57.4701 113.284C57.3478 113.365 57.1848 113.508 57.1033 113.589C57.0625 113.773 56.9403 113.936 56.7569 114.017C56.6753 114.038 56.5938 114.058 56.5123 114.058Z" fill="#604440"/>
<path d="M91.8281 112.836H91.8078C90.5851 112.774 89.6069 112.082 88.7306 111.47C88.2823 111.165 87.8543 110.859 87.4264 110.655C84.7161 109.351 79.9475 108.149 77.176 108.413C76.8296 108.434 76.5443 108.189 76.5035 107.863C76.4628 107.517 76.7277 107.231 77.0538 107.191C80.1309 106.905 85.1032 108.189 87.9562 109.555C88.4861 109.799 88.9548 110.146 89.4235 110.472C90.2386 111.042 90.9926 111.572 91.8485 111.613C92.195 111.633 92.4395 111.919 92.4395 112.265C92.4395 112.571 92.1542 112.836 91.8281 112.836Z" fill="#604440"/>
<path d="M66.7627 115.526C66.3347 115.526 65.8864 115.383 65.4381 115.077C65.0712 114.812 64.6433 114.527 64.2969 114.221C64.0319 113.997 63.9912 113.61 64.2153 113.365C64.2561 113.304 64.3172 113.264 64.3784 113.223C64.2969 113.223 64.2153 113.223 64.1338 113.182C63.8078 113.06 63.6651 112.693 63.7874 112.387L63.8485 112.245C64.1746 111.409 64.3784 111.307 65.5807 110.839C67.4963 110.085 68.3318 110.981 68.6171 111.409C69.2692 112.408 69.045 114.058 68.128 114.935C67.7204 115.342 67.2517 115.526 66.7627 115.526ZM64.6841 113.141C64.8267 113.141 64.9694 113.182 65.0712 113.284C65.3973 113.549 65.7641 113.834 66.1105 114.058C66.7015 114.466 67.048 114.262 67.2314 114.058C67.7204 113.59 67.8835 112.571 67.5574 112.082C67.2517 111.613 66.5385 111.776 66.0087 111.98C65.112 112.347 65.112 112.347 64.9694 112.693L64.9082 112.836C64.8471 112.978 64.7656 113.08 64.6433 113.141C64.6637 113.141 64.6841 113.141 64.6841 113.141Z" fill="#604440"/>
<path d="M75.5662 114.934C75.1586 114.934 74.7511 114.833 74.3639 114.608C74.0582 114.445 73.9563 114.058 74.1193 113.773C74.2823 113.467 74.6695 113.365 74.9548 113.528C75.342 113.752 75.7496 113.752 76.1164 113.549C76.5444 113.325 76.8297 112.856 76.8908 112.306C76.7685 112.204 76.4628 112.02 75.7088 111.755C75.0567 111.511 74.4046 111.572 73.9563 111.918C73.5895 112.224 73.4265 112.672 73.508 113.243C73.5487 113.569 73.3246 113.895 72.9781 113.936C72.6521 113.977 72.326 113.752 72.2853 113.406C72.1426 112.408 72.489 111.511 73.2023 110.94C73.9767 110.329 75.0975 110.186 76.096 110.573C77.5429 111.103 78.1543 111.572 78.1135 112.204C78.0727 113.223 77.5225 114.16 76.687 114.608C76.3609 114.833 75.9534 114.934 75.5662 114.934Z" fill="#604440"/>
<path d="M83.7175 114.955C83.473 114.955 83.2488 114.812 83.1469 114.588C83.0043 114.282 83.1469 113.915 83.4526 113.773C83.7379 113.651 84.0028 113.223 83.9824 112.876C83.9824 112.734 83.9417 112.611 83.6768 112.53C83.4526 112.448 83.2488 112.652 83.1673 112.734C82.9228 112.998 82.8616 113.325 82.9228 113.488C83.0654 113.793 82.9228 114.16 82.6171 114.303C82.3114 114.445 81.9446 114.303 81.802 113.997C81.5167 113.365 81.7001 112.53 82.2707 111.918C82.7801 111.368 83.4526 111.164 84.0843 111.368C84.7568 111.592 85.1848 112.143 85.2051 112.835C85.2459 113.671 84.6957 114.568 83.9417 114.894C83.8806 114.934 83.799 114.955 83.7175 114.955Z" fill="#604440"/>
<path d="M93.601 112.061C93.275 112.061 92.9897 111.796 92.9897 111.45C92.9897 110.879 92.7655 110.635 92.6025 110.492C91.7466 109.779 89.6476 110.125 88.5064 110.288L88.0377 110.37C87.6913 110.41 87.3856 110.186 87.3449 109.84C87.3041 109.514 87.5283 109.188 87.8747 109.147L88.323 109.086C89.7495 108.862 92.1134 108.474 93.3973 109.554C93.9271 110.003 94.2124 110.635 94.2124 111.429C94.2124 111.776 93.9475 112.061 93.601 112.061Z" fill="#604440"/>
<path d="M80.62 42.3872C79.2751 42.3872 77.9708 42.0407 76.8908 41.2256C76.6259 41.0218 76.5647 40.6346 76.7685 40.3697C76.9723 40.1048 77.3595 40.0436 77.6244 40.2474C79.8049 41.8981 83.2896 41.1033 85.4701 39.5138C85.7554 39.31 86.1222 39.3711 86.326 39.6564C86.5298 39.9214 86.4687 40.3086 86.1834 40.5123C84.655 41.6332 82.5968 42.3872 80.62 42.3872Z" fill="#604440"/>
<path d="M53.374 85.8951C53.2517 85.8951 53.1498 85.8544 53.0276 85.7932C52.7423 85.6098 52.6607 85.2226 52.8441 84.9373L52.9664 84.7539C53.6797 83.6739 54.7597 82.0232 55.8194 81.2081C57.6942 79.7408 59.6709 79.4148 61.7088 80.2503C63.2168 80.882 64.7248 82.1659 66.2328 84.0814C66.4366 84.3463 66.3958 84.7335 66.1309 84.9373C65.866 85.1411 65.4788 85.1003 65.275 84.8354C63.9096 83.0829 62.5443 81.9213 61.2401 81.3915C59.6302 80.719 58.1222 80.9839 56.5938 82.1862C55.6971 82.8995 54.6375 84.489 54.0057 85.4468L53.8834 85.6302C53.7612 85.8136 53.5778 85.8951 53.374 85.8951Z" fill="#604440"/>
<path d="M155.389 109.208L141.246 109.127C140.899 109.127 140.635 108.841 140.635 108.515C140.635 108.169 140.92 107.904 141.246 107.904L155.389 107.985C155.735 107.985 156 108.271 156 108.597C156 108.923 155.735 109.208 155.389 109.208Z" fill="#604440"/>
<path d="M17.3245 108.495L0.675319 108.413C0.328885 108.413 0.0639648 108.128 0.0639648 107.802C0.0639648 107.456 0.349263 107.191 0.675319 107.191L17.3041 107.272C17.6506 107.272 17.9155 107.557 17.9155 107.884C17.9359 108.23 17.6506 108.495 17.3245 108.495Z" fill="#604440"/>
<path fill-rule="evenodd" clip-rule="evenodd" d="M114.611 119.764C114.122 117.115 113.185 112.835 114.041 111.613C114.937 110.37 120.419 110.105 123.945 110.105C128.163 110.105 135.092 110.145 135.866 111.898C136.314 112.937 135.377 117.787 135.132 119.438C133.767 128.486 131.097 137.31 130.67 137.962C129.773 139.348 126.777 139.409 124.882 139.409C123.456 139.409 120.175 139.389 119.4 138.003C118.646 136.658 116.079 127.732 114.611 119.764Z" fill="white"/>
<path fill-rule="evenodd" clip-rule="evenodd" d="M135.255 119.234C135.255 119.234 135.723 117.747 136.538 117.787C137.354 117.828 137.68 117.339 137.802 118.603C137.924 119.866 138.087 121.13 137.517 122.474C136.926 123.819 136.62 125.103 135.56 126.306C134.501 127.508 134.48 127.793 133.828 128.507C133.176 129.22 132.789 129.688 132.646 130.789C132.483 131.91 132.402 132.236 133.278 131.869C134.154 131.502 135.825 130.32 136.803 128.751C137.782 127.182 139.086 124.716 139.819 123.025C140.553 121.333 140.92 119.499 140.838 118.052C140.736 116.605 140.431 115.036 139.677 114.364C138.923 113.712 138.597 113.263 137.598 113.875C136.6 114.486 136.11 114.588 135.723 115.77C135.336 116.952 135.255 119.234 135.255 119.234Z" fill="white"/>
<path d="M124.801 113.936C121.316 113.936 113.185 113.732 113.185 111.817C113.185 109.901 121.295 109.697 124.801 109.697C128.285 109.697 136.416 109.901 136.416 111.817C136.396 113.732 128.285 113.936 124.801 113.936ZM114.815 111.817C116.099 112.245 119.686 112.713 124.801 112.713C129.916 112.713 133.502 112.245 134.786 111.817C133.502 111.389 129.916 110.92 124.801 110.92C119.665 110.92 116.079 111.389 114.815 111.817Z" fill="#604440"/>
<path d="M119.319 138.798C119.054 138.798 118.809 138.635 118.728 138.37C118.707 138.288 116.201 129.974 115.08 125.205C113.898 120.213 113.144 115.199 113.144 112.469C113.144 112.122 113.429 111.857 113.755 111.857C114.102 111.857 114.367 112.122 114.367 112.469C114.367 115.077 115.121 120.09 116.262 124.92C117.383 129.648 119.869 137.921 119.889 138.023C119.991 138.349 119.808 138.696 119.482 138.798C119.441 138.798 119.38 138.798 119.319 138.798Z" fill="#604440"/>
<path d="M130.466 138.471C130.405 138.471 130.343 138.471 130.303 138.451C129.977 138.349 129.793 138.023 129.875 137.697C129.895 137.616 132.198 129.668 133.319 124.798C134.419 120.09 135.234 114.69 135.234 112.244C135.234 111.898 135.499 111.633 135.846 111.633C136.192 111.633 136.457 111.898 136.457 112.244C136.457 114.771 135.621 120.274 134.501 125.062C133.359 129.953 131.057 137.942 131.036 138.023C130.975 138.308 130.731 138.471 130.466 138.471Z" fill="#604440"/>
<path d="M124.821 140C123.109 140 120.012 139.674 119.033 138.818C118.789 138.594 118.748 138.207 118.972 137.942C119.196 137.697 119.584 137.656 119.848 137.881C120.317 138.288 122.538 138.757 124.821 138.757C126.879 138.757 129.467 138.044 129.997 137.595C130.262 137.371 130.649 137.412 130.873 137.656C131.097 137.921 131.057 138.309 130.812 138.533C129.854 139.327 126.757 140 124.821 140Z" fill="#604440"/>
<path d="M132.83 132.501C132.748 132.501 132.687 132.501 132.605 132.48C132.279 132.419 132.055 132.093 132.116 131.767C132.178 131.441 132.504 131.217 132.83 131.278C133.38 131.4 135.377 129.261 136.09 128.079L136.64 127.182C138.801 123.657 140.512 120.865 139.738 116.667C139.514 115.424 138.882 114.588 138.108 114.507C137.394 114.445 136.661 115.098 136.192 116.239C136.07 116.544 135.703 116.707 135.397 116.585C135.092 116.463 134.929 116.096 135.051 115.79C135.723 114.099 136.905 113.182 138.23 113.304C139.575 113.447 140.594 114.649 140.94 116.463C141.796 121.13 139.881 124.248 137.68 127.855L137.129 128.751C137.129 128.731 134.643 132.501 132.83 132.501Z" fill="#604440"/>
<path d="M133.461 129.24C133.298 129.24 133.156 129.179 133.033 129.057C132.789 128.812 132.789 128.425 133.033 128.181C135.092 126.061 137.313 122.006 137.333 119.316C137.333 118.542 137.109 118.216 136.966 118.175C136.803 118.134 136.375 118.399 136.049 119.112C135.907 119.418 135.54 119.561 135.234 119.418C134.929 119.275 134.786 118.908 134.929 118.603C135.581 117.176 136.538 116.83 137.231 116.972C138.067 117.156 138.576 118.032 138.556 119.316C138.536 122.393 136.131 126.774 133.91 129.036C133.787 129.179 133.624 129.24 133.461 129.24Z" fill="#604440"/>
</g>
<defs>
<clipPath id="clip0_2648_4795">
<rect width="155.936" height="140" fill="white" transform="translate(0.0639648)"/>
</clipPath>
</defs>
</svg>
