<svg width="20" height="20" viewBox="0 0 20 20" fill="none" xmlns="http://www.w3.org/2000/svg">
<path d="M11.7547 10.8333C11.7547 11.7982 10.9652 12.5877 10.0003 12.5877C9.03541 12.5877 8.24594 11.7982 8.24594 10.8333C8.24594 9.86842 9.03541 9.07895 10.0003 9.07895C10.9652 9.07895 11.7547 9.86842 11.7547 10.8333ZM18.3337 9.07895V13.4649C18.3337 15.636 16.5573 17.4123 14.3863 17.4123H5.61436C3.44331 17.4123 1.66699 15.636 1.66699 13.4649V9.07895C1.66699 6.97368 3.31173 5.26316 5.37313 5.13158L6.46962 3.46491C6.88629 2.85088 7.56611 2.5 8.2898 2.5H11.667C12.4126 2.5 13.0705 2.87281 13.4872 3.46491L14.5837 5.13158C16.6889 5.26316 18.3337 6.97368 18.3337 9.07895ZM13.5091 10.8333C13.5091 8.90351 11.9302 7.32456 10.0003 7.32456C8.0705 7.32456 6.49155 8.90351 6.49155 10.8333C6.49155 12.7632 8.0705 14.3421 10.0003 14.3421C11.9302 14.3421 13.5091 12.7632 13.5091 10.8333ZM16.1407 8.20175C16.1407 7.7193 15.7459 7.32456 15.2635 7.32456C14.781 7.32456 14.3863 7.7193 14.3863 8.20175C14.3863 8.68421 14.781 9.07895 15.2635 9.07895C15.7459 9.07895 16.1407 8.68421 16.1407 8.20175Z" fill="#212121"/>
</svg>
