<svg width="173" height="140" viewBox="0 0 173 140" fill="none" xmlns="http://www.w3.org/2000/svg">
<g clip-path="url(#clip0_2648_4645)">
<path fill-rule="evenodd" clip-rule="evenodd" d="M68.016 33.6269C68.016 18.4051 79.0456 12.4644 87.9007 12.4644C96.7334 12.4644 109.825 17.5981 109.825 32.8423C109.825 37.5949 97.787 52.1217 104.759 51.9423C108.749 51.8303 106.597 60.506 105.23 64.9223C102.114 74.9207 96.9575 83.1033 92.743 83.1033C88.6629 83.1033 78.5748 78.3282 73.755 69.0024C71.289 64.2049 67.6125 51.6509 69.4956 51.3146C71.4011 51.0008 71.9167 50.5973 72.8358 50.261C78.261 48.3106 68.016 37.3483 68.016 33.6269Z" fill="#FEEDE5"/>
<path fill-rule="evenodd" clip-rule="evenodd" d="M64.1377 51.0906C64.5188 57.7039 65.7742 69.294 58.5556 83.7087C57.8831 85.0538 56.8967 87.8112 56.269 86.5558C55.6413 85.2779 54.3186 82.5205 53.4668 83.5294C52.7942 84.314 52.2114 85.5245 51.2026 86.9145C47.1225 92.6086 40.7782 102.159 38.8727 106.149C38.2898 107.382 36.1153 111.866 37.1465 113.256C39.2538 116.103 46.6741 121.528 52.1441 121.976C54.5204 122.178 56.807 121.304 58.3987 120.407C60.6853 119.107 64.6309 120.093 68.2402 120.721C72.1633 121.416 74.5172 120.183 75.7502 121.46C76.3331 122.066 75.3242 123.792 69.8319 124.464C68.6661 124.599 65.3931 125.384 66.4467 126.37C67.5004 127.379 71.8046 130.069 74.988 130.674C78.9335 131.436 82.1841 130.831 84.3811 132.109C86.2642 133.207 85.8158 134.508 84.2914 134.553C83.9552 134.553 82.4083 134.866 80.6597 135.606C78.1265 136.66 75.952 137.175 72.0736 137.893C71.6701 137.96 71.3563 138.79 70.9303 138.834C66.4916 139.35 65.9536 139.776 56.2914 133.746C54.498 132.625 50.261 132.356 48.2882 132.087C40.711 131.1 30.04 129.89 21.9472 121.505C20.6245 120.138 18.3603 117.268 18.5172 113.659C18.6069 111.44 20.4227 109.041 21.8126 106.328C24.5925 100.881 29.771 91.6895 35.7118 81.1755C38.4916 76.2435 40.7782 70.0786 42.7958 65.3932C44.8359 60.6855 50.0144 52.4133 55.1929 51.1803C60.9768 49.7904 64.0929 50.2163 64.1377 51.0906Z" fill="#FEEDE5"/>
<path fill-rule="evenodd" clip-rule="evenodd" d="M99.7374 74.4277C101.688 75.5261 103.324 77.2075 105.14 78.5301C106.283 79.3596 109.893 83.3724 113.524 89.5149C113.726 89.8512 117.537 94.2451 120.81 96.7784C121.438 97.2715 129.531 103.347 129.688 102.383C129.822 101.486 127.849 98.1458 126.975 96.5318C125.249 93.3932 122.335 88.82 119.42 85.4573C115.363 80.7944 115.99 80.346 115.004 77.7455C114.219 75.7279 112.919 70.0113 112.673 67.4781C112.538 65.9761 111.91 60.1474 111.843 57.6591C111.776 54.9016 110.386 51.3372 114.69 52.1667C115.497 52.3236 118.837 52.5029 121.169 53.6687C122.29 54.2291 124.733 55.35 127.132 58.2419C128.544 59.9457 130.002 62.2547 131.571 65.5502C134.127 70.9529 134.239 73.7775 136.301 79.9873C137.781 84.4485 139.753 89.0442 141.749 93.2812C143.139 96.2403 145.223 99.8944 146.636 102.854C147.443 104.58 149.416 107.898 150.088 109.713C151.814 114.421 153.54 120.205 149.572 125.518C148.496 126.953 146.815 127.984 144.842 129.396C143.251 130.54 143.161 129.24 141.166 128.051C137.041 125.585 134.373 124.711 128.657 119.981C126.617 118.277 124.644 115.789 123.052 114.018C118.322 108.75 115.318 104.019 110.767 99.2667C109.691 98.1458 106.283 98.0338 104.647 97.4509C98.0785 95.0298 90.2098 94.8952 87.4524 89.1563C85.1209 84.314 84.7622 73.5982 92.0705 72.6342C95.1641 72.2307 97.249 73.0378 99.7374 74.4277Z" fill="#FEEDE5"/>
<path fill-rule="evenodd" clip-rule="evenodd" d="M87.7214 50.3955C87.3627 49.7454 86.8919 48.759 87.0488 47.8847C87.2057 47.0104 87.6765 46.2258 88.4612 45.8895C89.2682 45.5757 90.1873 45.7774 90.8599 46.3603C91.51 46.9431 92.6981 47.8847 92.4291 48.7142C92.1601 49.566 91.8238 51.0905 90.9495 51.3371C90.0752 51.5837 89.2906 51.8975 88.7526 51.5164C88.237 51.1577 88.08 51.0456 87.7214 50.3955Z" fill="#FCD5CB"/>
<path fill-rule="evenodd" clip-rule="evenodd" d="M80.5476 50.9336C81.3099 51.7631 78.1713 51.4716 76.3555 51.0233C74.5621 50.5749 73.8223 50.1265 72.4324 49.8575C71.0424 49.5885 69.4508 49.6334 68.1954 49.185C66.94 48.7366 65.5725 48.1986 64.4516 47.1225C63.3307 46.0465 62.434 45.0153 61.8735 43.1994C61.3355 41.406 60.932 38.4244 61.1113 36.5413C61.2906 34.6582 61.6942 32.663 62.546 30.9592C63.3979 29.2555 64.8775 26.0945 65.3931 24.7046C65.8863 23.3147 66.245 22.9112 66.4692 21.0057C66.6934 19.1225 67.3211 16.3203 67.6798 14.3924C68.0384 12.4644 69.0697 10.4244 69.9664 8.89997C70.8631 7.37555 72.5444 5.47003 73.9792 4.30429C75.4139 3.13856 77.4091 1.63656 78.799 1.32271C80.189 1.00886 81.3323 0.515663 82.8119 0.650171C84.2914 0.784678 84.8743 0.784678 86.2418 1.41238C87.5869 2.04008 88.9095 2.77987 90.0304 2.44361C91.1513 2.08492 93.0569 1.6814 94.1777 1.77107C95.3211 1.86074 98.4147 2.01766 100.163 2.75746C101.912 3.49725 104.086 4.61814 105.79 6.45642C107.494 8.29469 108.951 10.5813 109.579 12.1954C110.207 13.8095 110.588 16.0961 110.722 18.2258C110.857 20.3555 110.7 23.5389 110.991 24.996C111.283 26.4532 111.552 28.5605 112.56 30.0401C113.569 31.5197 115.049 33.4476 115.856 34.4564C116.641 35.4652 117.627 35.667 117.582 38.5589C117.537 41.4508 117.403 43.8047 116.416 45.0601C115.43 46.3379 113.973 48.6694 112.65 49.4092C111.327 50.149 107.965 50.8888 106.283 51.1802C104.602 51.4716 103.279 51.7406 102.136 51.4044C100.993 51.0905 99.2442 50.8215 99.5805 49.8575C99.9392 48.8711 101.464 47.2122 102.159 44.9256C102.853 42.639 103.347 40.9576 103.683 40.1954C104.019 39.4332 104.557 39.747 105.23 39.2314C105.902 38.7382 107.158 38.0433 107.741 36.4068C108.323 34.7478 108.525 33.896 108.436 32.6181C108.346 31.3403 108.144 29.9728 107.404 29.4796C106.665 28.9864 106.239 28.2915 105.521 28.8519C104.826 29.4124 105.342 29.0313 104.468 30.4212C103.593 31.8111 102.809 33.4476 102.069 33.8511C101.329 34.2547 101.979 33.3131 102.181 32.2819C102.383 31.2731 102.741 30.3315 102.046 29.1882C101.329 28.0449 101.217 27.5741 99.8943 26.9464C98.5717 26.3411 97.249 25.9152 95.6797 25.1306C94.1105 24.3459 94.4916 25.2875 93.1689 23.225C91.8239 21.1626 91.1289 19.4812 89.9856 17.9568C88.8423 16.4324 88.6181 15.4236 87.2282 14.9752C85.8383 14.5493 85.2106 14.5045 84.1569 14.9304C83.1033 15.3339 81.8255 15.984 80.8839 16.2082C79.9424 16.4324 79.0905 16.7014 78.5749 18.0241C78.0817 19.3467 77.5212 21.2971 77.4091 22.3507C77.297 23.4044 76.9832 25.0185 76.4227 26.2066C75.8623 27.3948 75.5484 28.4036 74.988 29.8832C74.45 31.3627 74.3155 33.2234 73.6878 32.7975C73.0601 32.3715 73.3739 32.1922 72.4996 31.6318C71.6253 31.0713 70.6389 31.1386 70.0785 32.0577C69.518 32.9768 69.4732 34.8824 69.8095 36.1378C70.1457 37.4156 70.7734 39.635 72.0288 40.3748C73.2842 41.0921 73.7102 41.3387 74.5172 41.2491C75.3243 41.1594 75.4588 41.8095 75.8399 43.0201C76.221 44.2306 76.6469 45.4412 77.5212 46.9432C78.5076 48.4004 79.8079 50.149 80.5476 50.9336Z" fill="#BF8F8B"/>
<path fill-rule="evenodd" clip-rule="evenodd" d="M83.5516 119.196C83.2826 118.591 83.0136 118.075 82.4083 117.986C81.7806 117.896 81.6013 117.582 81.2426 116.932C80.8615 116.259 80.458 115.295 80.4804 114.69C80.5028 114.085 80.9736 113.928 81.5116 113.995C82.0721 114.063 83.1705 113.502 83.462 113.166C83.7534 112.807 84.1793 111.955 84.8743 112.359C85.5917 112.762 86.1521 113.502 86.7798 113.39C87.4075 113.278 88.1249 113.255 88.2146 112.359C88.3042 111.462 88.1473 110.543 88.506 110.117C88.8647 109.691 89.201 109.579 89.8735 109.915C90.5685 110.251 91.9808 111.014 92.5861 111.529C93.2138 112.045 93.6173 113.099 93.9087 112.717C94.2002 112.336 94.9175 111.507 94.9848 110.767C95.052 110.027 95.3659 109.624 95.7246 110.296C96.0833 110.946 96.5092 111.843 97.1145 112.314C97.7198 112.785 98.5044 113.166 98.8855 113.995C99.2666 114.802 99.7822 115.946 99.8495 116.663C99.9167 117.38 100.096 118.232 99.6477 118.546C99.1994 118.86 98.6837 118.546 97.9215 118.344C97.1593 118.143 93.6845 118.591 94.0208 118.165C94.3795 117.717 94.7158 121.012 94.1329 121.371C93.7518 121.595 91.5997 121.55 91.2186 121.595C90.8375 121.64 90.008 121.595 89.4924 121.595C88.5957 121.617 87.4972 121.528 86.6902 121.438C85.7934 121.348 85.8383 120.788 84.5605 120.429C84 120.227 83.7982 119.801 83.5516 119.196Z" fill="#E4F2B5"/>
<path fill-rule="evenodd" clip-rule="evenodd" d="M68.8231 119.331C68.98 117.694 70.2578 117.448 72.0512 116.932C73.8447 116.416 78.53 115.99 79.494 115.946C80.458 115.923 80.8839 115.923 81.0857 116.484C81.265 117.044 81.6685 117.717 82.3635 117.986C83.036 118.232 83.3947 118.703 83.6637 119.376C83.9328 120.07 84.1345 120.205 85.0312 120.407C85.9279 120.586 85.8607 121.595 87.2954 121.55C88.7302 121.528 90.8599 121.864 92.4516 121.55C94.0432 121.236 98.1009 121.147 99.7822 120.99C101.464 120.833 101.553 120.317 100.836 119.869C100.118 119.443 99.2218 118.77 99.5805 118.21C99.9392 117.649 99.984 117.627 100.029 116.887C100.051 116.147 100.119 116.147 101.105 116.282C102.069 116.394 104.468 116.551 105.97 117.201C107.472 117.851 108.368 118.053 108.413 119.689C108.458 121.326 108.391 124.128 107.763 125.809C107.158 127.491 106.575 129.486 104.557 131.347C102.54 133.23 101.262 134.687 99.6477 135.606C98.0336 136.525 95.2987 137.848 93.5276 138.094C91.779 138.341 88.4612 138.789 86.4884 138.543C84.4932 138.296 80.4131 136.929 79.8975 136.458C79.4043 136.01 79.763 135.427 80.5925 135.18C81.4219 134.934 82.4756 134.53 83.7086 134.485C84.9416 134.44 86.2418 134.687 85.502 133.678C84.7846 132.669 85.3675 132.378 83.8431 131.952C82.3187 131.526 80.8615 131.279 79.3147 131.145C77.7678 131.01 75.4588 130.786 73.9792 130.203C72.4996 129.598 71.8495 130.203 70.9528 128.634C70.0561 127.065 69.4956 125.675 69.3387 125.002C69.1818 124.33 69.2042 124.24 70.1681 124.307C71.1097 124.352 73.1946 124.038 74.0689 123.657C74.9432 123.276 75.9071 122.94 75.7502 122.043C75.5933 121.169 75.6605 120.765 74.6517 120.788C73.6429 120.81 72.4996 120.945 71.5805 120.922C70.6613 120.9 69.6525 121.124 69.2042 120.721C68.711 120.317 68.7782 119.824 68.8231 119.331Z" fill="white"/>
<path fill-rule="evenodd" clip-rule="evenodd" d="M90.4339 62.8599C89.582 64.6981 86.9591 66.0656 84.7846 65.2586C83.1033 64.6309 78.9783 60.5732 80.3458 58.3763C83.5516 53.1977 93.3034 56.6949 90.4339 62.8599Z" fill="#FFAEAB"/>
<path fill-rule="evenodd" clip-rule="evenodd" d="M75.7278 120.227C75.952 119.488 76.9159 118.12 77.8126 118.008C78.7094 117.896 80.6821 117.604 81.5564 117.829C82.4307 118.053 83.193 118.479 83.5516 119.263C83.9103 120.07 84 120.138 85.0761 120.519C86.1521 120.9 86.1521 121.707 85.233 121.572C84.3139 121.438 77.1849 121.191 76.5572 120.922C75.9071 120.676 75.526 120.967 75.7278 120.227Z" fill="#FFAEAB"/>
<path fill-rule="evenodd" clip-rule="evenodd" d="M94.2002 120.855C94.0432 120.003 93.4379 118.837 93.7966 118.501C94.1553 118.165 94.8727 117.582 95.9487 117.851C97.0248 118.12 98.2578 118.322 99.6029 119.017C100.948 119.712 102.069 120.496 101.262 120.653C100.455 120.81 98.4371 121.012 97.2714 121.214C96.0833 121.416 94.3571 121.707 94.2002 120.855Z" fill="#FFAEAB"/>
<path fill-rule="evenodd" clip-rule="evenodd" d="M62.6805 113.412C62.546 112.292 61.9408 110.162 61.6269 108.727C61.3131 107.292 59.811 103.055 59.4972 101.867C59.1833 100.679 59.1834 99.177 58.7574 97.2491C58.3091 95.3211 57.8831 92.5637 57.5693 90.8151C57.2554 89.0665 56.695 87.4973 57.0761 86.6902C57.4572 85.8832 59.3851 82.8119 60.0128 80.9512C60.6405 79.0681 61.5821 76.8263 62.2546 74.3828C62.9496 71.9392 63.6221 69.0025 63.7566 67.5677C63.8911 66.133 64.4516 62.9496 64.3843 61.0665C64.3171 59.1834 64.3843 56.1346 64.2498 54.8119C64.1153 53.4893 63.9359 51.7183 64.0929 51.1354C64.2274 50.5525 64.7654 50.6646 65.7518 50.7319C66.7158 50.7991 68.7334 51.2026 69.518 51.0457C70.3026 50.9112 70.1906 51.4044 70.3699 52.3684C70.5492 53.3323 70.4372 56.4933 71.4908 59.2058C72.522 61.9184 73.7774 65.7743 74.4948 67.1642C75.2122 68.5541 77.4764 72.9032 78.7766 74.1586C80.0769 75.414 82.5877 77.9921 84.0448 78.844C85.4796 79.6958 87.2058 80.8167 88.9768 80.9961C90.7478 81.1754 92.743 80.7943 93.1241 81.8031C93.5052 82.8119 94.3571 84.8295 94.9624 86.0177C95.5677 87.1834 95.5228 88.2595 96.4195 89.4701C97.3163 90.6582 98.9079 92.4965 99.02 93.3484C99.1321 94.1778 99.5356 95.1866 100.948 95.9713C102.36 96.7559 105.611 97.6974 107.09 98.0113C108.57 98.3251 109.041 97.9889 110.027 98.7511C111.036 99.5133 114.735 103.907 115.295 104.849C115.856 105.79 115.833 105.23 115.183 106.889C114.556 108.548 111.843 113.345 111.372 113.816C110.924 114.309 101.06 114.421 100.141 114.444C99.2218 114.488 97.3387 113.592 97.0248 112.65C96.711 111.709 95.5901 109.4 95.4556 110.296C95.3211 111.193 94.5588 113.345 93.9984 112.74C93.4379 112.135 90.277 109.87 89.5148 109.826C88.7526 109.803 88.6405 109.758 88.506 110.946C88.3715 112.135 88.1249 113.614 87.3851 113.412C86.6453 113.211 85.771 112.359 84.9864 112.336C84.2018 112.336 83.5068 113.143 82.9015 113.569C82.2962 113.973 81.691 114.085 80.7718 114.175C79.8527 114.287 64.6982 114.264 64.1377 114.242C63.5324 114.242 62.7926 114.533 62.6805 113.412Z" fill="#FBDFBA"/>
<path fill-rule="evenodd" clip-rule="evenodd" d="M96.2402 79.9873C96.554 79.6959 98.0112 77.342 98.4147 78.2163C98.8407 79.0906 100.163 80.9064 100.746 81.7583C101.329 82.5878 102.136 83.8208 101.217 83.5293C100.275 83.2379 98.1905 82.2515 97.4956 81.5566C96.7782 80.884 95.9263 80.2787 96.2402 79.9873Z" fill="#FBDFBA"/>
<path fill-rule="evenodd" clip-rule="evenodd" d="M99.1545 75.0778C100.701 72.8808 102.966 67.4781 103.84 64.362C104.714 61.2683 105.992 54.1394 105.925 53.0858C105.858 52.0322 106.418 51.8304 107.808 52.0322C109.198 52.2115 111.866 51.3596 111.866 52.7495C111.866 54.1394 111.866 59.856 112.247 63.3084C112.628 66.7607 112.852 71.9393 114.444 75.9073C116.035 79.8752 116.91 81.5117 117.739 82.6102C118.568 83.7087 118.344 83.8656 118.344 85.5246C118.344 87.1835 118.165 92.6086 117.963 93.3932C117.784 94.1779 117.201 93.326 116.08 92.3396C114.937 91.3532 114.825 91.3532 113.704 89.3804C112.56 87.4077 110.902 84.4261 109.691 83.4397C108.48 82.4533 104.176 79.9873 103.078 79.4269C101.979 78.8664 101.486 77.88 100.544 76.7816C99.5805 75.7055 98.7286 75.7055 99.1545 75.0778Z" fill="#FBDFBA"/>
<path fill-rule="evenodd" clip-rule="evenodd" d="M89.1785 61.1337C88.5508 60.3715 89.739 63.1513 90.277 64.5188C90.8151 65.8639 91.0841 67.1865 91.0841 67.9039C91.0841 68.6213 90.1649 67.7021 89.6493 67.0968C89.1113 66.4916 87.7214 63.8911 87.2282 63.2185C86.735 62.546 87.968 65.3482 88.4612 66.6261C88.9544 67.9263 89.2682 68.9575 89.4476 69.6525C89.6269 70.3474 88.7974 70.1681 88.1473 69.6973C87.4972 69.2265 86.4435 67.7021 86.04 67.1865C85.6141 66.6933 84.7846 64.4964 84.5156 63.8687C84.2466 63.241 84.6725 66.0656 85.1433 67.5676C85.6141 69.0696 87.1385 70.5268 87.7214 71.0872C88.3042 71.6477 90.1201 71.9167 90.7926 71.8943C91.4652 71.8719 91.9359 72.2754 92.2722 72.8807C92.5412 73.3739 96.2402 79.0904 98.213 82.1393C99.289 82.6325 101.688 83.5516 101.71 83.5292C101.508 83.2153 99.7598 81.0632 99.6253 80.8166C98.9303 79.6509 96.7334 77.0952 95.8591 75.5484C94.9848 74.0016 93.4155 71.5804 93.2138 71.289C93.0344 70.9976 92.8551 69.8542 93.1017 69.1145C93.3707 68.3747 92.3171 66.357 91.9359 65.5948C91.5324 64.855 89.7838 61.9183 89.1785 61.1337Z" fill="#D8D6D7"/>
<path d="M97.5628 81.7359C97.3386 81.7359 97.1145 81.6238 97.0024 81.4221L91.3979 72.6342C91.1961 72.3204 91.2858 71.8945 91.5997 71.6927C91.9135 71.4909 92.3394 71.5806 92.5412 71.8945L98.1457 80.6823C98.3474 80.9961 98.2578 81.4221 97.9439 81.6238C97.8318 81.6911 97.6973 81.7359 97.5628 81.7359Z" fill="#604440"/>
<path d="M98.9079 81.2875C98.6837 81.2875 98.4596 81.1754 98.3251 80.9737L92.5188 71.7375C92.317 71.4236 92.4067 70.9977 92.743 70.7959C93.0568 70.5941 93.4828 70.6838 93.6845 71.0201L99.4908 80.2563C99.6925 80.5701 99.6029 80.9961 99.2666 81.1978C99.1545 81.2427 99.02 81.2875 98.9079 81.2875Z" fill="#604440"/>
<path d="M90.1425 72.6789C87.3403 72.6789 84.8967 69.3162 84.2242 67.0968L84.0897 66.6933C83.8431 65.9311 83.5965 65.1465 83.5068 64.2946C83.3723 63.0392 83.7085 62.7926 83.8206 62.7029C84 62.5684 84.269 62.5236 84.4932 62.5908C85.2554 62.8599 85.4571 63.779 85.6141 64.4291C85.6589 64.6085 85.7037 64.7878 85.7486 64.8999C86.309 66.1777 87.0712 67.2538 87.8783 68.3971L88.0576 68.6437C88.1697 68.7782 88.4836 69.0696 88.775 69.2714C88.7302 69.1369 88.6853 69.0024 88.6629 68.9351C88.6181 68.8454 88.5957 68.7558 88.5732 68.6885C88.1921 67.4331 87.6989 66.2001 87.0712 64.9447C86.8471 64.474 86.6453 64.0032 86.4435 63.5324C86.4211 63.4876 86.3763 63.3979 86.3314 63.3306C86.1297 62.9495 85.8831 62.5012 86.2642 62.0976C86.4659 61.8959 86.8471 61.8511 87.1161 61.9856C87.6093 62.2546 87.9904 62.8374 88.3042 63.4427L88.3715 63.5548C88.5508 63.8687 88.7302 64.1825 88.8871 64.4964C89.3579 65.3258 89.7838 66.1329 90.3218 66.8727C90.2994 66.8054 90.277 66.7157 90.2546 66.6261L90.1201 66.2001C90.0304 65.9311 89.9631 65.6397 89.8735 65.3707C89.6941 64.8102 89.4924 64.2498 89.2682 63.7117C89.0889 63.2634 88.8871 62.815 88.6629 62.3442C88.3491 61.6717 88.0128 60.9768 87.811 60.2818C87.7214 59.9679 87.8559 59.6093 88.1473 59.4523C88.6629 59.1833 89.0216 59.6317 89.2234 59.9007C89.3579 60.08 89.4475 60.2145 89.5372 60.3491C89.582 60.4163 89.6493 60.506 89.6941 60.5732C90.2546 61.3803 90.7254 62.0977 91.084 62.815C91.241 63.1289 91.4427 63.4651 91.6445 63.8238C92.743 65.7518 94.2674 68.3747 93.1241 70.482C92.9447 70.8182 92.5412 70.9303 92.2049 70.751C91.8687 70.5716 91.7566 70.1681 91.9359 69.8318C92.3843 69.0024 92.1377 67.9039 91.6893 66.8278C91.8463 67.6125 91.8911 68.554 91.2186 68.8679C90.7254 69.1145 90.2546 68.8454 89.8959 68.4868C90.0977 69.0248 90.4339 69.9663 89.8062 70.5716C89.6045 70.7734 89.313 70.8631 88.9992 70.8406C88.6853 70.8182 88.3491 70.6613 88.0352 70.4371C88.8871 71.1321 89.8286 71.5132 90.7478 71.2442C91.1065 71.1321 91.4876 71.3338 91.5997 71.6925C91.7118 72.0512 91.51 72.4323 91.1513 72.5444C90.815 72.6341 90.4788 72.6789 90.1425 72.6789Z" fill="#604440"/>
<path d="M89.313 55.8878C82.8791 55.8878 76.6693 48.9383 74.988 42.4371C74.4948 40.5091 73.7326 36.9671 74.0464 35.8238C74.1585 35.4651 74.5172 35.2633 74.8759 35.353C75.2346 35.4427 75.4363 35.8238 75.3467 36.1825C75.2122 36.6308 75.4812 38.9399 76.2882 42.0784C77.8799 48.2433 84 54.879 89.7838 54.4979C92.6757 54.3186 95.7918 52.6821 98.3251 50.0367C98.5941 49.7677 99.02 49.7677 99.289 50.0143C99.558 50.2833 99.558 50.7093 99.3114 50.9783C96.554 53.8702 93.1017 55.6412 89.8735 55.843C89.6941 55.8878 89.5148 55.8878 89.313 55.8878Z" fill="#604440"/>
<path d="M98.9079 51.1577C98.751 51.1577 98.5717 51.0905 98.4596 50.9784C98.1906 50.7318 98.1681 50.3059 98.4147 50.0144C101.598 46.5172 103.302 39.6349 103.369 38.3347C103.392 37.9536 103.705 37.6846 104.064 37.6846C104.445 37.707 104.737 38.0208 104.714 38.3795C104.669 39.8143 102.898 47.1225 99.4235 50.9112C99.2666 51.0905 99.0873 51.1577 98.9079 51.1577Z" fill="#604440"/>
<path d="M104.647 40.1729C104.378 40.1729 104.131 40.016 104.019 39.747C103.885 39.3883 104.064 39.0072 104.4 38.8727C104.938 38.6709 105.588 38.3346 106.53 37.0344C107.27 36.0032 107.965 33.3579 107.718 31.6093C107.673 31.2506 107.92 30.8919 108.279 30.8471C108.66 30.8022 108.996 31.0488 109.041 31.4075C109.332 33.3579 108.637 36.4291 107.606 37.8415C106.508 39.3435 105.633 39.8366 104.871 40.1281C104.804 40.1505 104.737 40.1729 104.647 40.1729Z" fill="#604440"/>
<path d="M88.7526 42.6613C88.5732 42.6613 88.4163 42.5941 88.2818 42.482C87.6989 41.9215 86.8919 40.5989 87.2282 39.5228C87.3627 39.0744 87.7438 38.8503 88.0128 38.6709C88.1025 38.6261 88.237 38.5364 88.2594 38.4916C88.5284 37.9984 88.4836 37.012 88.2818 36.3619C88.1697 36.0032 88.3715 35.6221 88.7302 35.51C89.0888 35.3979 89.4699 35.5997 89.582 35.9583C89.8735 36.8551 89.9407 38.245 89.4475 39.1417C89.2682 39.478 88.9767 39.6573 88.7302 39.8142C88.6405 39.8591 88.5284 39.9487 88.4836 39.9712C88.3939 40.3074 88.7974 41.0921 89.2233 41.4956C89.4924 41.7646 89.4924 42.1905 89.2458 42.4595C89.0888 42.5941 88.9319 42.6613 88.7526 42.6613Z" fill="#604440"/>
<path d="M99.4908 28.2018C99.3563 28.2018 99.2218 28.1569 99.1097 28.0897C98.0336 27.3723 95.4107 27.305 94.3347 27.7758C93.9984 27.9328 93.5949 27.7758 93.438 27.4396C93.281 27.1033 93.438 26.6998 93.7742 26.5428C95.2314 25.8927 98.3251 25.96 99.8495 26.9688C100.163 27.1705 100.253 27.5965 100.029 27.9103C99.9168 28.0897 99.715 28.2018 99.4908 28.2018Z" fill="#604440"/>
<path d="M80.4804 28.2689C80.2338 28.2689 79.9872 28.1344 79.8751 27.8878C79.7182 27.5516 79.8527 27.148 80.189 26.9911C81.9376 26.1168 84.1569 26.2513 85.6589 26.6773C86.0176 26.7669 86.2194 27.148 86.1297 27.5067C86.0401 27.8654 85.6589 28.0672 85.3003 27.9775C83.731 27.5516 81.96 27.6412 80.7943 28.2017C80.6822 28.2465 80.5701 28.2689 80.4804 28.2689Z" fill="#604440"/>
<path d="M104.58 36.2274C104.557 36.2274 104.535 36.2274 104.49 36.2274C104.131 36.1825 103.862 35.8687 103.907 35.51C103.974 34.815 105.14 32.7526 105.857 32.4163C106.194 32.2594 106.597 32.3939 106.754 32.7302C106.911 33.0664 106.777 33.47 106.44 33.6269C106.171 33.8286 105.297 35.241 105.252 35.6445C105.207 35.9583 104.916 36.2274 104.58 36.2274Z" fill="#604440"/>
<path d="M108.368 32.0352C108.01 32.0352 107.718 31.7438 107.696 31.3851C107.651 30.4212 106.799 29.5693 106.126 29.502C105.701 29.4572 105.409 29.771 105.23 30.4212C105.14 30.7798 104.759 30.9816 104.4 30.8919C104.042 30.8023 103.84 30.4212 103.93 30.0625C104.288 28.7622 105.185 28.0449 106.283 28.1569C107.673 28.3139 108.974 29.7935 109.041 31.3179C109.063 31.699 108.772 32.0128 108.391 32.0352C108.391 32.0352 108.391 32.0352 108.368 32.0352Z" fill="#604440"/>
<path d="M89.4027 52.2338C88.3266 52.2338 87.4972 51.6061 87.1833 50.53C87.0712 50.1713 87.2954 49.7902 87.6541 49.7006C88.0128 49.5885 88.3939 49.8127 88.4836 50.1713C88.5508 50.3955 88.7302 51.0456 89.7165 50.8663C90.6581 50.7094 91.6893 49.8127 91.6445 48.9384C91.5324 47.2794 90.4788 46.4276 89.4924 46.4276C88.506 46.4276 87.8334 47.2794 87.7662 48.6245C87.7438 49.0056 87.4299 49.297 87.0488 49.2522C86.6677 49.2298 86.3987 48.9159 86.4211 48.5348C86.5556 46.1361 88.0576 45.0601 89.4924 45.0601C91.084 45.0601 92.855 46.3827 93.012 48.8487C93.1241 50.53 91.5324 51.9424 89.9631 52.2114C89.7614 52.2338 89.582 52.2338 89.4027 52.2338Z" fill="#604440"/>
<path d="M74.3155 41.9439C73.217 41.9439 72.1409 41.3835 71.1994 40.3074C69.4732 38.3122 68.5989 35.0168 68.8679 33.1561C69.0921 31.6317 69.9215 30.5556 71.02 30.3763C72.1185 30.1969 73.1721 30.8919 73.8223 32.2145C73.9792 32.5508 73.8447 32.9543 73.5308 33.1112C73.1946 33.2682 72.791 33.1337 72.6341 32.8198C72.253 32.0576 71.7374 31.6092 71.2442 31.6989C70.751 31.7886 70.3475 32.4163 70.213 33.3354C69.9888 34.8598 70.7734 37.7293 72.2306 39.4107C72.9031 40.1953 73.5981 40.5764 74.3155 40.5764C74.6966 40.5764 74.988 40.8678 74.988 41.249C74.988 41.6301 74.6741 41.9439 74.3155 41.9439Z" fill="#604440"/>
<path d="M74.3154 38.3347C74.0464 38.3347 73.7998 38.1778 73.6877 37.9088C73.3739 37.1466 72.791 36.5413 71.7149 35.8912C71.4011 35.6894 71.289 35.2859 71.4908 34.972C71.6925 34.6582 72.0961 34.5461 72.4099 34.7478C73.3066 35.2859 74.4051 36.0705 74.9431 37.4156C75.0776 37.7518 74.9207 38.1554 74.562 38.2899C74.4724 38.3347 74.3827 38.3347 74.3154 38.3347Z" fill="#604440"/>
<path d="M101.643 34.4341C101.576 34.4341 101.508 34.4116 101.419 34.3892C101.06 34.2771 100.881 33.896 100.993 33.5374C101.082 33.2683 101.195 32.9769 101.307 32.6855C101.777 31.4749 102.181 30.4213 101.576 29.4124C100.5 27.6414 99.0424 27.1258 97.3611 26.5205C96.0608 26.0498 94.7158 25.579 93.4604 24.4805C92.2498 23.4269 91.3531 21.7455 90.4788 20.1538C88.4387 16.3652 86.9816 14.1234 83.4171 15.9169C83.0809 16.0738 82.6773 15.9393 82.5204 15.6254C82.3635 15.2891 82.498 14.8856 82.8118 14.7287C87.7438 12.2627 89.9407 16.298 91.6893 19.5486C92.4964 21.0506 93.3483 22.6198 94.3795 23.5165C95.4331 24.4581 96.6213 24.8616 97.8543 25.31C99.6253 25.9377 101.441 26.5878 102.764 28.7847C103.705 30.354 103.1 31.9457 102.607 33.2459C102.495 33.5149 102.405 33.7839 102.315 34.0305C102.203 34.2547 101.934 34.4341 101.643 34.4341Z" fill="#604440"/>
<path d="M68.8903 33.851C68.8455 33.851 68.7782 33.851 68.7334 33.8286C68.3747 33.7389 68.1505 33.3802 68.2402 32.9991C68.9127 30.2865 70.8407 29.4346 72.522 28.6949C73.755 28.1568 74.9207 27.6188 75.6157 26.4531C76.6469 24.7045 76.8935 23.068 77.1849 21.1624C77.2746 20.5571 77.3643 19.9294 77.4988 19.2793C77.7005 18.1808 78.53 16.0063 80.1217 15.6028C80.4804 15.5131 80.8615 15.7373 80.9511 16.096C81.0408 16.4547 80.8166 16.8358 80.4579 16.9254C79.7406 17.1048 79.0456 18.4274 78.8214 19.5483C78.7093 20.176 78.6197 20.7813 78.5076 21.3866C78.2162 23.3594 77.9247 25.1977 76.7814 27.1704C75.8623 28.7173 74.3827 29.3898 73.06 29.9727C71.4459 30.6901 70.056 31.3178 69.5404 33.3802C69.4732 33.6492 69.2041 33.851 68.8903 33.851Z" fill="#604440"/>
<path d="M81.0632 15.3115C80.7494 15.3115 80.458 15.0873 80.3907 14.7511C79.5612 9.81911 82.8791 6.65818 85.771 3.85594C86.04 3.58693 86.466 3.60934 86.735 3.87836C87.004 4.14737 86.9816 4.57332 86.7126 4.84233C83.9103 7.53248 81.0184 10.3123 81.7134 14.5493C81.7806 14.908 81.534 15.2667 81.1529 15.3339C81.1305 15.3115 81.1081 15.3115 81.0632 15.3115Z" fill="#604440"/>
<path d="M112.022 50.2611C111.821 50.2611 111.619 50.1714 111.484 49.9921C111.26 49.7007 111.305 49.2747 111.619 49.0505C115.43 46.1362 117.044 43.4236 117.044 39.9713C117.044 37.0345 115.632 35.2411 114.13 33.3356C113.076 31.9905 111.955 30.5782 111.305 28.7175C110.386 26.1394 110.319 23.4717 110.229 20.8712C110.184 19.3244 110.139 17.7103 109.915 16.1634C109.243 11.635 106.866 7.77913 103.033 4.95447C101.419 3.76632 99.7822 3.09378 97.4507 2.69026C95.5901 2.35399 92.2274 2.17465 90.6357 2.95927C90.2994 3.1162 89.8959 2.98169 89.739 2.64542C89.582 2.30915 89.7166 1.90563 90.0304 1.74871C92.0704 0.739898 95.7918 1.00891 97.6749 1.34518C100.231 1.79354 102.024 2.51092 103.84 3.85599C107.965 6.88241 110.52 11.0746 111.26 15.9617C111.507 17.5758 111.552 19.2347 111.596 20.8264C111.664 23.4268 111.753 25.8928 112.583 28.2691C113.166 29.928 114.152 31.1835 115.206 32.5061C116.775 34.5013 118.412 36.5638 118.412 39.9937C118.412 44.9481 115.228 48.0193 112.448 50.149C112.314 50.2163 112.179 50.2611 112.022 50.2611Z" fill="#604440"/>
<path d="M102.495 51.8751C102.159 51.8751 101.867 51.6285 101.822 51.2922C101.777 50.9335 102.024 50.5749 102.405 50.53C105.656 50.0592 107.539 48.8711 108.705 46.5621C108.861 46.2258 109.287 46.0913 109.601 46.2706C109.938 46.4275 110.072 46.8535 109.893 47.1673C108.144 50.6645 105.073 51.5164 102.584 51.8751C102.562 51.8751 102.54 51.8751 102.495 51.8751Z" fill="#604440"/>
<path d="M67.7022 49.6782C67.6349 49.6782 67.5677 49.6782 67.5004 49.6557C62.8151 48.2434 60.237 43.715 60.4612 37.2362C60.5733 33.7614 62.0753 30.466 63.5324 27.2826C64.0929 26.0272 64.6309 24.8391 65.1017 23.6509C65.7967 21.8351 66.0881 19.8175 66.3795 17.8671C66.6934 15.7598 67.0072 13.5629 67.8367 11.5453C70.482 5.13373 78.6197 -2.42112 86.3987 0.717394C86.735 0.851902 86.9143 1.25542 86.7798 1.59169C86.6453 1.92796 86.2418 2.10731 85.9055 1.9728C79.1802 -0.717354 71.5805 6.03044 69.0921 12.0609C68.3299 13.9216 68.0384 15.9392 67.7246 18.0689C67.4332 20.0865 67.1193 22.1714 66.3795 24.1441C65.9087 25.3771 65.3259 26.6325 64.7878 27.8431C63.3979 30.9144 61.9408 34.0977 61.8287 37.281C61.7166 40.711 62.3443 46.6742 67.9039 48.3555C68.2626 48.4676 68.4644 48.8487 68.3523 49.2074C68.2626 49.4764 67.9936 49.6782 67.7022 49.6782Z" fill="#604440"/>
<path d="M76.9832 51.6285C75.1225 51.6285 72.522 50.7542 71.3563 49.1401C70.6838 48.1985 70.5268 47.1225 70.9079 45.9791C71.02 45.6205 71.4011 45.4411 71.7598 45.5532C72.1185 45.6653 72.2979 46.0464 72.1858 46.4051C71.9392 47.1225 72.0288 47.7502 72.4548 48.333C73.3291 49.5436 75.4364 50.261 76.9832 50.261C77.3643 50.261 77.6557 50.5524 77.6557 50.9335C77.6557 51.3146 77.3643 51.6285 76.9832 51.6285Z" fill="#604440"/>
<path d="M21.297 108.122C21.2073 108.122 21.0953 108.099 21.0056 108.054C20.6693 107.897 20.5124 107.494 20.6917 107.158C23.3595 101.486 26.5652 95.9487 29.6589 90.5908C32.5732 85.5468 35.5997 80.3234 38.1553 74.9879C39.0296 73.1721 39.8142 71.289 40.6437 69.2938C43.3114 62.9047 46.0464 56.2914 51.8078 52.2337C55.6637 49.5211 59.6765 49.5884 64.1825 49.9247C64.7654 49.9695 65.4379 50.0592 66.1105 50.1489C68.3523 50.4403 70.8631 50.7541 72.5668 49.9247C72.9031 49.7677 73.3066 49.9023 73.4636 50.2385C73.6205 50.5748 73.486 50.9783 73.1721 51.1352C71.1097 52.1665 68.3747 51.8078 65.9535 51.4939C65.281 51.4043 64.6533 51.337 64.0928 51.2922C59.7214 50.9559 56.0896 50.8886 52.6149 53.3546C47.1897 57.1881 44.4996 63.622 41.9215 69.8318C41.1145 71.7597 40.285 73.7549 39.4107 75.5932C36.8326 80.9735 33.7838 86.2193 30.8471 91.2858C27.7758 96.6212 24.5925 102.114 21.9471 107.741C21.7902 107.987 21.5436 108.122 21.297 108.122Z" fill="#604440"/>
<path d="M37.0344 111.327C36.9672 111.327 36.8999 111.305 36.8103 111.283C36.4516 111.17 36.2722 110.789 36.3843 110.431C38.783 103.212 44.1409 95.6797 48.8487 89.044C50.3731 86.8919 51.8303 84.8518 53.1305 82.8791C53.3323 82.5652 53.7582 82.4755 54.0721 82.6997C54.3859 82.9015 54.4756 83.3274 54.2514 83.6413C52.9287 85.6365 51.4716 87.6765 49.9472 89.8286C45.2842 96.3971 40.016 103.84 37.6621 110.857C37.5949 111.148 37.3259 111.327 37.0344 111.327Z" fill="#604440"/>
<path d="M52.458 122.649C46.4276 122.649 40.2178 117.223 36.1153 113.637C35.8015 113.345 35.4876 113.076 35.1738 112.807C33.5373 111.305 31.0937 109.063 29.0985 109.063C28.7174 109.063 28.426 108.772 28.426 108.391C28.426 108.01 28.7174 107.718 29.0985 107.718C31.6093 107.718 34.1874 110.095 36.0705 111.821C36.3843 112.112 36.6533 112.359 36.9224 112.583C40.9352 116.08 46.8983 121.326 52.4356 121.326C52.8167 121.326 53.1081 121.617 53.1081 121.998C53.1081 122.38 52.8167 122.649 52.458 122.649Z" fill="#604440"/>
<path d="M54.5429 132.983C42.0336 132.983 32.237 130.203 24.5701 124.442C18.4051 119.824 16.5669 114.937 19.0777 109.915C19.2346 109.579 19.6606 109.444 19.9744 109.624C20.3107 109.781 20.4452 110.207 20.2658 110.52C18.0465 114.937 19.7278 119.129 25.3547 123.366C32.775 128.925 42.3027 131.638 54.498 131.638C54.8791 131.638 55.1706 131.929 55.1706 132.311C55.2378 132.692 54.924 132.983 54.5429 132.983Z" fill="#604440"/>
<path d="M85.8607 134.553C85.6141 134.553 85.3675 134.396 85.2554 134.149C84.2914 132.042 81.1081 131.885 78.53 131.773C78.0144 131.75 77.5212 131.728 77.0953 131.683C73.217 131.347 69.0472 129.509 65.9311 126.751C65.4604 126.348 65.4828 125.899 65.5276 125.675C65.6621 125.003 66.4019 124.532 67.9712 124.039C68.98 123.725 69.9439 123.613 70.8855 123.501C72.0064 123.366 73.0825 123.254 74.0913 122.806C74.5172 122.626 74.988 122.268 75.1001 121.954C75.1449 121.864 75.1225 121.774 75.0777 121.662C74.8983 121.326 73.6653 121.259 71.4235 121.438C70.9079 121.483 70.4596 121.528 70.213 121.505C68.8231 121.46 67.478 121.214 66.1553 120.967C64.6085 120.676 63.1289 120.407 61.6269 120.452C59.6093 120.497 57.8383 121.326 55.9552 122.178L55.8206 122.245C55.4844 122.402 55.0809 122.245 54.9239 121.909C54.767 121.573 54.9239 121.169 55.2602 121.012L55.3947 120.945C57.3227 120.048 59.3178 119.151 61.6045 119.084C63.2634 119.039 64.8775 119.331 66.4243 119.622C67.747 119.869 69.0024 120.093 70.2802 120.138C70.5268 120.16 70.8855 120.115 71.3339 120.071C73.2394 119.914 75.6157 119.712 76.2882 120.99C76.5124 121.416 76.5572 121.886 76.4003 122.357C76.1313 123.142 75.3242 123.725 74.6517 124.016C73.4636 124.532 72.2306 124.666 71.0648 124.801C70.1457 124.913 69.2938 125.003 68.4644 125.272C67.6349 125.541 67.209 125.742 67.0072 125.854C69.8543 128.298 73.7326 130.002 77.2298 130.293C77.6333 130.338 78.1041 130.36 78.5973 130.383C81.3771 130.517 85.1657 130.697 86.4884 133.544C86.6453 133.88 86.4884 134.284 86.1521 134.44C86.04 134.53 85.9503 134.553 85.8607 134.553Z" fill="#604440"/>
<path d="M84.538 135.158C84.5156 135.158 84.4932 135.158 84.4708 135.158C82.8791 135.023 81.2426 134.978 79.6509 134.934C78.4179 134.911 77.1849 134.866 75.9744 134.799C74.1809 134.687 72.3651 134.328 70.6389 133.97C69.6525 133.768 68.6885 133.566 67.7021 133.409C67.3435 133.342 67.0744 133.006 67.1417 132.625C67.209 132.266 67.5452 131.997 67.9263 132.064C68.9127 132.221 69.9215 132.423 70.9303 132.625C72.6341 132.983 74.3827 133.342 76.0865 133.432C77.297 133.499 78.5076 133.544 79.7182 133.566C81.3323 133.611 82.9912 133.656 84.6053 133.79C84.9864 133.813 85.2554 134.149 85.2106 134.53C85.1881 134.889 84.8967 135.158 84.538 135.158Z" fill="#604440"/>
<path d="M72.9031 137.019C70.9304 137.019 68.9576 136.772 66.9624 136.189C66.6037 136.077 66.4019 135.718 66.4916 135.36C66.6037 135.001 66.9624 134.799 67.3211 134.889C72.2978 136.324 76.8263 135.651 82.5204 134.082C82.8791 133.97 83.2602 134.194 83.3499 134.553C83.4396 134.911 83.2378 135.292 82.8791 135.382C79.3371 136.346 76.1089 137.019 72.9031 137.019Z" fill="#604440"/>
<path d="M71.3563 138.341C69.6077 138.341 67.747 138.072 65.5949 137.444C65.2362 137.332 65.0344 136.974 65.1241 136.615C65.2362 136.256 65.5949 136.055 65.9536 136.144C70.9304 137.579 74.2258 137.019 78.6197 135.494C78.9784 135.382 79.3595 135.561 79.4716 135.92C79.5837 136.279 79.4043 136.66 79.0457 136.772C76.3107 137.736 73.9344 138.341 71.3563 138.341Z" fill="#604440"/>
<path d="M68.7558 139.843C64.9672 139.843 61.8511 137.915 58.578 135.898C57.7934 135.404 56.9864 134.911 56.1345 134.418C55.8206 134.239 55.7086 133.813 55.8879 133.499C56.0672 133.185 56.4932 133.073 56.807 133.252C57.6589 133.746 58.466 134.261 59.273 134.754C63.3307 137.265 66.8503 139.44 71.6477 138.095C72.0064 138.005 72.3875 138.207 72.4772 138.565C72.5893 138.924 72.3651 139.305 72.0064 139.395C70.8855 139.709 69.8094 139.843 68.7558 139.843Z" fill="#604440"/>
<path d="M149.528 126.437C149.416 126.437 149.326 126.415 149.236 126.37C148.9 126.213 148.765 125.787 148.945 125.473L149.147 125.07C149.909 123.545 150.716 121.954 150.94 120.317C151.859 113.681 148.676 107.92 145.604 102.36C144.91 101.127 144.237 99.8943 143.609 98.6389C140.269 92.1377 137.198 84.6053 134.687 76.8263L134.059 74.8759C131.862 67.9264 129.374 60.0353 123.276 55.6189C119.376 52.8167 115.071 52.8167 110.498 52.8391C107.472 52.8391 104.333 52.8615 101.262 51.9872C100.903 51.8751 100.701 51.5164 100.791 51.1578C100.903 50.7991 101.262 50.5973 101.621 50.687C104.49 51.5164 107.539 51.494 110.476 51.494C115.049 51.4716 119.801 51.4716 124.038 54.5429C130.495 59.2058 133.073 67.3211 135.315 74.4948L135.942 76.4452C138.408 84.157 141.48 91.6221 144.775 98.0337C145.403 99.2666 146.075 100.477 146.77 101.71C149.954 107.472 153.227 113.412 152.263 120.496C152.016 122.357 151.164 124.038 150.335 125.675L150.133 126.056C150.021 126.303 149.774 126.437 149.528 126.437Z" fill="#604440"/>
<path d="M129.822 102.898C129.576 102.898 129.329 102.741 129.217 102.495C126.482 96.4643 122.962 90.658 119.555 86.6004C119.308 86.309 119.353 85.883 119.645 85.6588C119.936 85.4122 120.362 85.4571 120.586 85.7485C124.061 89.9183 127.648 95.8142 130.428 101.957C130.584 102.293 130.428 102.696 130.091 102.853C130.002 102.876 129.912 102.898 129.822 102.898Z" fill="#604440"/>
<path d="M148.138 118.299C147.891 118.299 147.645 118.165 147.532 117.918C147.331 117.515 147.151 117.134 146.972 116.73C146.412 115.542 145.896 114.399 145.066 113.435C142.578 110.543 139.103 108.794 135.718 107.091C134.283 106.373 132.781 105.611 131.369 104.781C124.576 100.746 119.712 97.0921 115.542 92.9448C115.273 92.6758 115.273 92.2498 115.542 91.9808C115.811 91.7118 116.237 91.7118 116.506 91.9808C120.586 96.0609 125.383 99.6478 132.064 103.616C133.432 104.423 134.889 105.163 136.323 105.88C139.821 107.629 143.43 109.444 146.098 112.56C147.039 113.659 147.645 114.937 148.205 116.17C148.384 116.551 148.564 116.954 148.765 117.336C148.922 117.672 148.788 118.075 148.474 118.232C148.339 118.277 148.25 118.299 148.138 118.299Z" fill="#604440"/>
<path d="M143.878 130.159C142.937 130.159 142.175 129.62 141.457 129.15C141.143 128.926 140.785 128.679 140.404 128.477C139.933 128.208 139.44 127.962 138.969 127.693C137.624 126.975 136.211 126.235 134.866 125.361C126.504 119.981 119.936 111.731 113.614 103.773C112.493 102.36 111.395 100.993 110.296 99.6253C110.05 99.3339 110.094 98.9079 110.386 98.6837C110.677 98.4372 111.103 98.482 111.327 98.7734C112.426 100.118 113.524 101.508 114.645 102.921C120.922 110.812 127.401 118.95 135.584 124.218C136.884 125.047 138.184 125.742 139.596 126.482C140.09 126.729 140.56 126.998 141.054 127.267C141.48 127.491 141.861 127.76 142.219 128.006C143.295 128.769 143.789 129.038 144.708 128.522C145.022 128.343 145.448 128.455 145.627 128.769C145.806 129.082 145.694 129.508 145.38 129.688C144.842 130.046 144.327 130.159 143.878 130.159Z" fill="#604440"/>
<path d="M114.488 91.3978C114.309 91.3978 114.152 91.3306 114.018 91.1961C113.009 90.1873 112.269 88.8646 111.552 87.5868C110.902 86.4435 110.229 85.2553 109.4 84.3586C108.256 83.1256 106.821 82.3634 105.275 81.5564C104.154 80.9511 102.966 80.3458 101.912 79.5163C101.419 79.1352 100.993 78.5524 100.589 77.9919C100.186 77.4315 99.7598 76.8486 99.3563 76.5796C99.2666 76.8934 99.2218 77.4315 99.2442 77.6556C99.4236 79.1576 100.813 80.7942 101.934 82.1168L102.405 82.6548C102.652 82.9463 102.607 83.3722 102.315 83.6188C102.024 83.8654 101.598 83.8206 101.374 83.5291L100.926 82.9911C99.6926 81.534 98.1457 79.7405 97.9216 77.8126C97.9216 77.7902 97.7646 75.9519 98.5941 75.3242C98.8855 75.1 99.2891 75.0552 99.6477 75.1897C100.477 75.5259 101.105 76.3778 101.688 77.1849C102.046 77.6781 102.405 78.1713 102.741 78.4403C103.705 79.2025 104.759 79.7629 105.902 80.3458C107.472 81.1753 109.063 82.0047 110.386 83.4171C111.327 84.4483 112.045 85.7037 112.74 86.9143C113.457 88.1697 114.107 89.3354 115.004 90.2321C115.273 90.5011 115.273 90.9271 115.004 91.1961C114.825 91.3306 114.668 91.3978 114.488 91.3978Z" fill="#604440"/>
<path d="M100.634 88.5284C100.544 88.5284 100.477 88.506 100.388 88.4836C96.1954 86.9143 94.1105 83.3947 92.4516 79.8527C91.0616 76.8935 90.9047 75.6157 91.8014 75.1449C92.4067 74.831 93.1465 75.1673 94.1329 76.1537C94.8054 76.8262 95.2762 77.6109 95.7246 78.3731C96.1505 79.0904 96.5765 79.7854 97.1369 80.3458C98.6165 81.8254 100.41 82.5652 102.293 83.3274C103.145 83.6637 104.019 84.0224 104.894 84.4707C105.23 84.6277 105.364 85.0536 105.185 85.3675C105.028 85.7037 104.602 85.8382 104.288 85.6589C103.459 85.233 102.607 84.8967 101.777 84.5604C99.8495 83.7758 97.8543 82.9687 96.1954 81.2874C95.5228 80.6149 95.052 79.8302 94.5813 79.068C94.1553 78.3507 93.7294 77.6557 93.1914 77.1177C92.9896 76.9159 92.8102 76.759 92.6757 76.6469C92.7654 77.0728 93.0344 77.8575 93.6621 79.1801C95.4556 83.0808 97.3611 85.8831 100.881 87.2057C101.239 87.3402 101.396 87.7213 101.284 88.08C101.172 88.3715 100.903 88.5284 100.634 88.5284Z" fill="#604440"/>
<path d="M101.374 92.7879C101.239 92.7879 101.082 92.743 100.97 92.6534C100.5 92.2947 100.051 91.9808 99.6253 91.667C96.8679 89.6718 94.8951 88.2146 93.4828 84.426C93.4155 84.2242 93.3035 83.9776 93.1689 83.7086C92.8103 82.8792 92.4067 81.96 92.4067 81.2651C92.4067 80.884 92.6982 80.5925 93.0793 80.5925C93.4604 80.5925 93.7518 80.9064 93.7518 81.2651C93.7518 81.6686 94.1329 82.5653 94.4019 83.1706C94.5364 83.462 94.6485 83.7535 94.7382 83.9776C95.9936 87.3852 97.7422 88.663 100.41 90.5909C100.836 90.9048 101.307 91.241 101.777 91.5997C102.069 91.8239 102.136 92.2499 101.912 92.5413C101.777 92.6982 101.576 92.7879 101.374 92.7879Z" fill="#604440"/>
<path d="M101.889 95.4331C101.755 95.4331 101.62 95.3883 101.508 95.321C98.5268 93.3258 96.8903 92.1377 95.2762 88.9095C95.1193 88.5732 95.2538 88.1697 95.5676 88.0128C95.9039 87.8558 96.3074 87.9904 96.4643 88.3042C97.9215 91.241 99.3787 92.2946 102.248 94.2001C102.562 94.4019 102.652 94.8278 102.428 95.1417C102.315 95.321 102.091 95.4331 101.889 95.4331Z" fill="#604440"/>
<path d="M109.713 99.3788C109.646 99.3788 109.556 99.3564 109.489 99.334C108.413 98.9305 107.18 98.6839 105.992 98.4373C102.741 97.7647 99.3787 97.0698 97.944 93.5277C97.8095 93.1915 97.9664 92.7879 98.3251 92.6534C98.6613 92.5189 99.0649 92.6759 99.1994 93.0345C100.343 95.9265 103.212 96.5093 106.261 97.137C107.494 97.3836 108.772 97.6526 109.96 98.0786C110.319 98.2131 110.498 98.5942 110.363 98.9529C110.251 99.2219 110.005 99.3788 109.713 99.3788Z" fill="#604440"/>
<path d="M86.1745 66.1778C85.6365 66.1778 85.0985 66.0881 84.5605 65.8863C83.1705 65.3707 80.4131 62.8599 79.6285 60.6181C79.2026 59.3627 79.4716 58.5108 79.7854 58.0176C81.7358 54.8567 85.8383 54.5653 88.6629 56.0897C91.4203 57.5693 92.3619 60.3491 91.0617 63.1738C90.277 64.8103 88.2818 66.1778 86.1745 66.1778ZM85.0985 56.5381C83.4844 56.5381 81.8703 57.2106 80.9287 58.735C80.7046 59.0937 80.7046 59.5869 80.9063 60.1922C81.5789 62.1425 84 64.2723 85.0088 64.6534C86.8695 65.3483 89.1113 64.1153 89.8063 62.6133C91.3083 59.3851 88.7974 57.7262 87.9904 57.3003C87.1385 56.7847 86.1073 56.5381 85.0985 56.5381Z" fill="#604440"/>
<path d="M62.2546 112.448C61.9407 112.448 61.6493 112.224 61.582 111.91C61.1337 109.624 60.4611 107.337 59.7886 105.118C59.5196 104.243 59.273 103.369 59.0488 102.54C58.4435 100.32 58.0848 98.0337 57.7486 95.7919C57.1433 91.8239 56.5828 88.0577 54.6101 84.6278C54.4307 84.3139 54.5428 83.888 54.8567 83.7086C55.1929 83.5293 55.5965 83.6414 55.7758 83.9552C57.8607 87.6094 58.466 91.667 59.0712 95.5901C59.4075 97.7647 59.7438 100.029 60.3266 102.181C60.5508 103.01 60.7974 103.862 61.0664 104.737C61.7165 106.978 62.4115 109.31 62.8823 111.641C62.9495 112 62.7254 112.359 62.3443 112.426C62.3443 112.448 62.2994 112.448 62.2546 112.448Z" fill="#604440"/>
<path d="M117.784 94.8279C117.739 94.8279 117.672 94.8279 117.627 94.8055C117.268 94.7158 117.044 94.3571 117.134 93.976C117.694 91.7118 117.672 88.7078 117.649 86.0849C117.649 85.5469 117.649 85.0313 117.649 84.5605C117.649 84.1794 117.941 83.8879 118.322 83.8879C118.703 83.8879 118.994 84.1794 118.994 84.5605C118.994 85.0313 118.994 85.5469 118.994 86.0625C119.017 88.775 119.062 91.8687 118.434 94.3123C118.367 94.6261 118.075 94.8279 117.784 94.8279Z" fill="#604440"/>
<path d="M110.946 115.116C110.812 115.116 110.7 115.071 110.588 115.004C110.274 114.802 110.184 114.376 110.386 114.063C111.933 111.641 113.861 108.615 114.892 105.476C115.004 105.118 115.385 104.938 115.744 105.051C116.103 105.163 116.282 105.544 116.17 105.902C115.071 109.198 113.099 112.292 111.529 114.78C111.395 115.004 111.171 115.116 110.946 115.116Z" fill="#604440"/>
<path d="M57.0985 87.43C56.9864 87.43 56.8967 87.4076 56.807 87.3628C56.4708 87.2058 56.3363 86.7799 56.5156 86.466C60.0128 79.4716 62.546 73.3067 63.4652 66.0209C63.8911 62.6134 63.779 59.3628 63.6445 55.9104C63.5773 54.2963 63.5324 52.6374 63.5324 50.9784C63.5324 50.5973 63.8239 50.3059 64.205 50.3059C64.5861 50.3059 64.8775 50.5973 64.8775 50.9784C64.8775 52.615 64.9448 54.2515 64.9896 55.8431C65.1241 59.2058 65.2586 62.6582 64.8102 66.1778C63.8687 73.6654 61.2906 79.9424 57.7262 87.0713C57.5917 87.2955 57.3451 87.43 57.0985 87.43Z" fill="#604440"/>
<path d="M91.8687 82.1393C83.2602 82.1393 76.3331 73.4187 73.0152 65.9535C72.2754 64.2722 71.6029 62.3442 71.02 60.1697C70.4596 58.04 70.1233 55.7982 69.8095 53.6461L69.6077 52.2337C69.5404 51.8751 69.8095 51.5164 70.1681 51.4715C70.5268 51.4043 70.8855 51.6733 70.9304 52.032L71.1321 53.4443C71.446 55.574 71.7598 57.771 72.3203 59.8334C72.8807 61.9183 73.5308 63.8014 74.2258 65.4155C76.759 71.1321 83.3275 80.8166 91.8463 80.8166C92.2274 80.8166 92.5188 81.108 92.5188 81.4891C92.5413 81.8254 92.2274 82.1393 91.8687 82.1393Z" fill="#604440"/>
<path d="M99.3114 75.5484C99.1769 75.5484 99.02 75.5035 98.9079 75.4139C98.6165 75.1897 98.5492 74.7637 98.7734 74.4723C100.813 71.7597 101.867 68.4419 102.809 65.5275C104.109 61.4699 105.409 57.0984 105.409 52.4355C105.409 52.0544 105.701 51.7629 106.082 51.7629C106.463 51.7629 106.754 52.0544 106.754 52.4355C106.754 57.3002 105.432 61.7613 104.109 65.9311C103.122 68.9575 102.024 72.3874 99.8495 75.2794C99.7149 75.4587 99.5132 75.5484 99.3114 75.5484Z" fill="#604440"/>
<path d="M117.717 83.35C117.515 83.35 117.291 83.2604 117.179 83.081C114.959 80.0322 113.973 76.378 113.166 72.9033C111.776 67.0073 111.193 61.0218 111.193 52.9289C111.193 52.5478 111.484 52.2563 111.865 52.2563C112.247 52.2563 112.538 52.5702 112.538 52.9289C112.538 60.9097 113.121 66.8056 114.466 72.5894C115.251 75.9297 116.192 79.4269 118.255 82.2964C118.479 82.5878 118.412 83.0138 118.098 83.2379C117.986 83.3052 117.851 83.35 117.717 83.35Z" fill="#604440"/>
<path d="M88.6405 122.223C86.5781 122.223 68.4868 122.111 68.4868 118.613C68.4868 118.008 68.4868 116.147 80.1441 115.295C80.5252 115.273 80.8391 115.542 80.8615 115.923C80.8839 116.304 80.6149 116.618 80.2338 116.641C73.5309 117.134 70.4148 118.075 69.8767 118.613C70.7734 119.555 77.7006 120.878 88.6181 120.878C99.5132 120.878 106.463 119.577 107.36 118.636C107.09 118.412 105.858 117.627 100.813 117.022C100.432 116.977 100.186 116.641 100.231 116.259C100.275 115.901 100.634 115.632 100.993 115.677C108.794 116.641 108.794 118.03 108.794 118.636C108.794 122.111 90.703 122.223 88.6405 122.223Z" fill="#604440"/>
<path d="M88.6405 139.305C85.3675 139.305 82.0496 138.543 79.0681 137.086C78.7318 136.929 78.5973 136.525 78.7542 136.189C78.9111 135.853 79.3147 135.718 79.6509 135.875C82.4532 137.243 85.5693 137.96 88.6405 137.96C94.4916 137.96 100.163 135.427 103.84 131.167C105.97 128.701 108.346 124.576 107.539 118.905C107.494 118.546 107.741 118.187 108.122 118.142C108.48 118.098 108.839 118.344 108.884 118.725C109.579 123.545 108.144 128.298 104.871 132.064C100.948 136.592 94.8727 139.305 88.6405 139.305Z" fill="#604440"/>
<path d="M70.9527 129.441C70.7061 129.441 70.482 129.307 70.3699 129.105C69.6973 127.939 69.1817 126.684 68.823 125.406C68.711 125.047 68.9351 124.666 69.2938 124.576C69.6525 124.464 70.0336 124.688 70.1233 125.047C70.4595 126.213 70.9303 127.356 71.558 128.432C71.7374 128.746 71.6253 129.172 71.3114 129.351C71.1769 129.419 71.0648 129.441 70.9527 129.441Z" fill="#604440"/>
<path d="M68.8679 120.945H68.8455C68.4644 120.922 68.1729 120.631 68.1954 120.25C68.2178 119.689 68.2626 119.129 68.3299 118.568C68.3747 118.21 68.7334 117.941 69.0921 117.986C69.4732 118.03 69.7198 118.367 69.6749 118.748C69.6077 119.263 69.5629 119.779 69.5404 120.295C69.518 120.653 69.2266 120.945 68.8679 120.945Z" fill="#604440"/>
<path d="M86.8695 122.066C86.6902 122.066 86.5332 121.998 86.3987 121.864C86.197 121.662 86.0849 121.438 85.9728 121.236C85.9279 121.146 85.8607 120.99 85.8159 120.967C85.6813 120.9 85.3675 120.922 85.0985 120.922C84.5605 120.945 83.8879 120.945 83.3947 120.452C83.0809 120.138 82.9464 119.734 82.8119 119.398C82.7222 119.174 82.6325 118.882 82.5428 118.815C81.8031 118.322 78.1041 118.479 77.3867 119.039C77.1401 119.241 76.9159 119.555 76.6918 119.869C76.5348 120.093 76.3779 120.295 76.1986 120.496C75.952 120.788 75.526 120.81 75.2346 120.564C74.9432 120.317 74.9207 119.891 75.1673 119.6C75.3243 119.42 75.4588 119.241 75.5933 119.062C75.8623 118.681 76.1537 118.299 76.5348 117.986C77.6781 117.044 82.0496 116.865 83.2826 117.694C83.7534 118.008 83.9328 118.524 84.0897 118.95C84.1569 119.174 84.2466 119.42 84.3363 119.51C84.4259 119.6 84.8295 119.577 85.0536 119.577C85.4796 119.577 85.9279 119.555 86.3763 119.757C86.8247 119.958 87.0264 120.339 87.1609 120.631C87.2282 120.743 87.273 120.855 87.3403 120.922C87.6093 121.191 87.6093 121.617 87.3403 121.886C87.2282 121.998 87.0488 122.066 86.8695 122.066Z" fill="#604440"/>
<path d="M94.1553 121.416C93.8639 121.416 93.6173 121.236 93.5052 120.945C93.3931 120.609 93.3482 120.272 93.3258 119.981C93.281 119.533 93.2362 119.264 93.0568 119.017C92.2946 118.053 89.5148 117.986 88.1697 117.941L87.3627 117.918C85.7262 117.851 84.8743 117.963 84.7398 118.838C84.6725 119.196 84.3362 119.465 83.9551 119.398C83.5964 119.331 83.3274 118.995 83.3947 118.613C83.7534 116.416 86.1297 116.506 87.4075 116.573L88.1921 116.596C90.0976 116.641 92.9671 116.708 94.1105 118.187C94.5364 118.725 94.6037 119.308 94.6709 119.802C94.6933 120.048 94.7382 120.295 94.8054 120.497C94.9175 120.855 94.7382 121.236 94.3795 121.348C94.2898 121.416 94.2225 121.416 94.1553 121.416Z" fill="#604440"/>
<path d="M101.262 120.788C101.15 120.788 101.06 120.765 100.97 120.721C100.455 120.474 100.006 120.205 99.558 119.958C97.8543 119.017 96.6437 118.344 94.5588 118.681C94.1777 118.748 93.8415 118.479 93.7742 118.12C93.707 117.761 93.976 117.403 94.3347 117.335C96.8903 116.932 98.4371 117.784 100.208 118.77C100.634 119.017 101.082 119.263 101.576 119.51C101.912 119.667 102.046 120.093 101.867 120.407C101.733 120.653 101.508 120.788 101.262 120.788Z" fill="#604440"/>
<path d="M92.2498 117.515C91.9359 117.515 91.6445 117.291 91.5772 116.954C91.241 115.116 92.048 114.242 92.8102 113.368C93.0568 113.099 93.3034 112.807 93.55 112.471C93.9087 111.978 94.3347 111.193 94.4019 110.812C94.3795 110.812 94.3571 110.722 94.3347 110.61C94.2226 110.072 94.0881 109.489 94.5588 109.153C94.7606 109.018 95.0072 108.974 95.2538 109.041C95.8591 109.198 96.3747 109.96 97.1369 111.44C97.2041 111.574 97.2714 111.686 97.2938 111.731C97.4732 112 97.7422 112.202 98.1009 112.426C98.6389 112.762 99.289 113.188 99.7374 114.085C99.8943 114.421 99.7598 114.825 99.4459 114.982C99.1097 115.161 98.7062 115.004 98.5492 114.69C98.2578 114.13 97.8543 113.861 97.3835 113.547C96.9576 113.278 96.4868 112.964 96.1505 112.426C96.1057 112.359 96.0384 112.224 95.9487 112.067C95.8367 111.843 95.7246 111.641 95.6125 111.462C95.3883 112.112 94.9175 112.874 94.6485 113.255C94.3795 113.659 94.0656 113.973 93.819 114.264C93.1241 115.049 92.6981 115.52 92.9223 116.708C92.9896 117.067 92.743 117.425 92.3843 117.492C92.317 117.515 92.2722 117.515 92.2498 117.515Z" fill="#604440"/>
<path d="M99.2666 119.241C99.0872 119.241 98.9303 119.174 98.7958 119.039C98.5268 118.77 98.5268 118.344 98.7958 118.075C98.9303 117.941 99.02 117.851 99.0872 117.784C99.1097 117.627 99.1321 117.515 99.1769 117.335C99.2442 116.977 99.6029 116.73 99.9615 116.797C100.32 116.865 100.567 117.223 100.5 117.582C100.455 117.761 100.455 117.874 100.432 117.963C100.365 118.367 100.298 118.501 100.006 118.77C99.9391 118.837 99.8495 118.905 99.7374 119.017C99.6253 119.174 99.4459 119.241 99.2666 119.241Z" fill="#604440"/>
<path d="M81.1754 117.515C80.9512 117.515 80.727 117.403 80.5925 117.179C80.5701 117.134 80.5252 117.066 80.4804 117.022C80.3683 116.865 80.2114 116.64 80.1217 116.371C79.763 114.982 79.7406 114.331 80.0769 113.861C80.4131 113.39 80.9512 113.367 81.3771 113.367C81.7358 113.345 82.1169 113.345 82.498 113.121C82.6774 113.031 82.8343 112.852 83.0136 112.65C83.3947 112.247 83.9103 111.709 84.8071 111.753C85.4123 111.798 85.8831 112.134 86.3091 112.448C86.8471 112.829 87.0488 112.942 87.2954 112.829C87.5869 112.695 87.6317 111.843 87.6766 111.26C87.7214 110.386 87.8111 109.063 88.9768 109.063C90.277 109.063 91.5773 110.05 92.7206 110.946C93.281 111.372 93.8191 111.798 94.2674 112.022C94.6037 112.179 94.7382 112.605 94.5589 112.919C94.4019 113.255 93.976 113.39 93.6621 113.211C93.1017 112.919 92.5188 112.471 91.8911 112C90.972 111.305 89.9408 110.498 89.1113 110.408C89.044 110.61 89.0216 111.036 89.0216 111.327C88.9544 112.336 88.8871 113.592 87.8559 114.04C86.8695 114.488 86.1073 113.928 85.5244 113.524C85.233 113.3 84.9416 113.098 84.7174 113.076C84.4932 113.054 84.3811 113.143 84.0224 113.524C83.7982 113.771 83.5292 114.062 83.1705 114.264C82.5204 114.645 81.8703 114.668 81.4668 114.69C81.3771 114.69 81.2874 114.69 81.2202 114.713C81.2202 114.869 81.2426 115.228 81.4668 116.013C81.4668 116.058 81.5565 116.147 81.6013 116.215C81.6685 116.304 81.7134 116.394 81.7806 116.461C81.9824 116.775 81.8703 117.201 81.5565 117.38C81.4219 117.492 81.3099 117.515 81.1754 117.515Z" fill="#604440"/>
<path fill-rule="evenodd" clip-rule="evenodd" d="M81.1754 35.0391C81.1754 34.3442 81.6461 33.8062 82.1842 33.8062C82.7446 33.8062 83.1705 34.389 83.1705 35.0616C83.1705 35.7565 82.6998 36.2945 82.1617 36.2945C81.6237 36.2945 81.1754 35.7341 81.1754 35.0391Z" fill="#604440"/>
<path fill-rule="evenodd" clip-rule="evenodd" d="M95.0745 34.9271C95.0745 34.2321 95.5452 33.6941 96.0833 33.6941C96.6437 33.6941 97.0697 34.277 97.0697 34.9495C97.0697 35.6445 96.5989 36.1825 96.0609 36.1825C95.5228 36.1825 95.0745 35.622 95.0745 34.9271Z" fill="#604440"/>
<path d="M172.058 115.676C172.035 115.676 172.035 115.676 172.058 115.676L153.585 115.609C153.204 115.609 152.913 115.295 152.913 114.937C152.913 114.556 153.227 114.264 153.585 114.264L172.058 114.331C172.439 114.331 172.73 114.645 172.73 115.004C172.73 115.385 172.416 115.676 172.058 115.676Z" fill="#604440"/>
<path d="M79.7406 115.004L39.2538 114.825C38.8727 114.825 38.5812 114.511 38.5812 114.152C38.5812 113.771 38.8951 113.479 39.2538 113.479L79.7406 113.659C80.1217 113.659 80.4131 113.973 80.4131 114.331C80.4131 114.69 80.1217 115.004 79.7406 115.004Z" fill="#604440"/>
<path d="M121.998 115.183L99.8719 115.094C99.4908 115.094 99.1993 114.78 99.1993 114.421C99.1993 114.04 99.5132 113.749 99.8719 113.749L121.998 113.838C122.379 113.838 122.671 114.152 122.671 114.511C122.671 114.869 122.379 115.183 121.998 115.183Z" fill="#604440"/>
<path d="M15.6926 106.037L0.672538 105.97C0.291433 105.97 0 105.656 0 105.297C0 104.916 0.313851 104.625 0.672538 104.625L15.6926 104.692C16.0737 104.692 16.3651 105.006 16.3651 105.364C16.3651 105.745 16.0737 106.037 15.6926 106.037Z" fill="#604440"/>
<path fill-rule="evenodd" clip-rule="evenodd" d="M121.617 137.982L119.734 121.842C119.734 121.842 124.106 121.595 128.41 121.595C132.714 121.617 137.22 122.088 137.22 122.088L135.651 137.848C135.651 137.848 134.978 138.655 133.05 138.924C131.123 139.193 129.038 139.44 127.222 139.395C123.747 139.305 121.617 137.982 121.617 137.982Z" fill="#FFDE94"/>
<path opacity="0.2" fill-rule="evenodd" clip-rule="evenodd" d="M121.46 137.983L118.143 106.463C118.143 106.463 119.017 105.118 120.003 104.759C121.012 104.4 125.047 103.885 126.011 103.84C126.975 103.795 130.876 103.795 131.974 103.885C133.073 103.997 136.099 104.4 137.243 104.961C138.386 105.521 138.946 105.633 138.946 106.911C138.946 108.211 137.893 115.116 137.825 116.91C137.736 118.726 135.606 137.758 135.606 137.758C135.606 137.758 135.18 138.319 133.947 138.745C132.737 139.148 130.943 139.103 129.284 139.26C127.625 139.417 124.666 139.26 123.702 138.946C122.761 138.655 121.46 137.983 121.46 137.983Z" fill="#E5FAFF"/>
<path d="M128.522 109.131C127.401 109.131 117.537 109.041 117.537 106.194C117.537 103.347 127.401 103.257 128.522 103.257C129.643 103.257 139.507 103.347 139.507 106.194C139.507 109.041 129.643 109.131 128.522 109.131ZM118.927 106.194C119.398 106.777 122.828 107.763 128.522 107.763C134.396 107.763 137.87 106.709 138.162 106.127C137.87 105.656 134.396 104.602 128.522 104.602C122.828 104.625 119.398 105.611 118.927 106.194Z" fill="#604440"/>
<path d="M128.522 140C127.289 140 121.079 139.91 120.81 137.915C120.765 137.556 121.012 137.198 121.393 137.153C121.729 137.108 122.043 137.332 122.133 137.646C122.492 138.005 124.711 138.633 128.522 138.633C132.423 138.633 134.642 137.96 134.934 137.624C135.158 137.332 135.584 137.287 135.875 137.512C136.167 137.736 136.211 138.162 135.987 138.453C135.068 139.596 131.391 140 128.522 140Z" fill="#604440"/>
<path d="M121.46 138.386C121.124 138.386 120.833 138.139 120.788 137.781L117.515 106.597C117.47 106.216 117.739 105.902 118.12 105.857C118.501 105.813 118.815 106.082 118.86 106.463L122.133 137.646C122.178 138.027 121.909 138.341 121.528 138.386C121.505 138.386 121.483 138.386 121.46 138.386Z" fill="#604440"/>
<path d="M135.539 138.386C135.516 138.386 135.494 138.386 135.472 138.386C135.09 138.341 134.821 138.005 134.866 137.646L138.251 106.373C138.296 105.992 138.632 105.745 138.991 105.768C139.372 105.813 139.641 106.149 139.596 106.508L136.211 137.781C136.167 138.117 135.875 138.386 135.539 138.386Z" fill="#604440"/>
</g>
<defs>
<clipPath id="clip0_2648_4645">
<rect width="172.73" height="140" fill="white"/>
</clipPath>
</defs>
</svg>
