<svg width="87" height="160" viewBox="0 0 87 160" fill="none" xmlns="http://www.w3.org/2000/svg">
<g clip-path="url(#clip0_2720_4593)">
<path opacity="0.5" d="M10.9796 22.3638C27.4082 7.31141 93.8825 31.9114 86.385 67.5641C85.0088 74.1298 68.9242 57.3141 39.6365 63.1344C-0.804316 71.148 -5.23403 37.2012 10.9796 22.3638Z" fill="#FBBE9C"/>
<path d="M22.5771 28.6717C16.4415 31.0658 12.8576 36.8574 24.9712 36.8574C37.0848 36.8574 53.6281 26.9658 50.7323 24.3997C47.8365 21.848 46.1306 23.7116 42.0306 24.3997C37.9306 25.0878 22.5771 28.6717 22.5771 28.6717Z" fill="white"/>
<path d="M26.6915 79.9941C22.0897 82.4742 23.3226 87.0759 22.7922 88.1368C22.2617 89.1976 18.8929 88.6672 18.7208 92.2081C18.5488 95.749 20.1401 96.2794 18.0184 97.1682C15.8967 98.057 15.5383 100.007 16.0687 101.77C16.5992 103.548 22.7922 101.942 23.8673 98.9315C24.9282 95.921 21.0289 95.2186 22.9785 93.7994C24.9282 92.3801 27.2219 91.8497 25.989 88.6672C24.7561 85.4847 29.5299 88.6672 30.7771 84.5959C31.9956 80.5246 26.6915 79.9941 26.6915 79.9941Z" fill="#2F2422"/>
<path d="M49.8865 79.9941C54.3162 82.3022 54.1299 84.7822 53.4274 86.7176C52.725 88.6672 56.6099 86.5455 56.7963 90.2585C56.9683 93.9714 56.6243 92.2081 60.3372 94.3298C64.0501 96.4514 62.6452 100.351 62.6452 100.351C62.6452 100.351 54.6746 100.179 53.4418 97.8707C52.2089 95.5626 55.033 93.9714 53.0834 93.7994C51.1337 93.6273 48.6537 92.3801 49.9009 90.4305C51.1337 88.4808 51.3201 88.1224 49.9009 87.9504C48.4816 87.7784 45.1128 85.6424 45.4712 83.8791C45.8152 82.1158 49.8865 79.9941 49.8865 79.9941Z" fill="#2F2422"/>
<path d="M19.0792 135.774C17.8464 147.988 18.9072 156.317 23.8673 158.266C28.8275 160.216 58.2298 161.635 61.4124 156.145C64.5949 150.654 62.3012 137.723 62.3012 137.723L60.7099 122.312L21.0432 124.262L19.0792 135.774Z" fill="#F23D04"/>
<path d="M15.352 134.713C16.0544 136.132 21.0145 134.713 21.0145 134.713L16.2408 128.52C16.2408 128.52 14.2911 130.297 14.6495 132.419C14.9936 134.54 15.352 134.713 15.352 134.713Z" fill="#F23D04"/>
<path d="M15.352 127.99C18.0041 136.491 22.9642 142.87 25.9747 143.042C28.9852 143.214 33.9453 142.684 32.6981 135.43C31.4652 128.176 20.8282 126.57 18.8786 126.57C16.9432 126.57 15.352 127.99 15.352 127.99Z" fill="#FBBE9C"/>
<path d="M67.247 135.774C66.5732 138.039 62.2869 137.724 62.2869 137.724L65.1253 130.111C65.111 130.111 67.7774 134.011 67.247 135.774Z" fill="#F23D04"/>
<path d="M54.4883 127.1C54.4883 127.1 51.1194 135.601 50.7753 136.132C50.4169 136.662 42.6327 139.501 35.0205 141.092C27.4083 142.683 24.5698 141.622 24.5698 141.622C24.5698 141.622 19.4376 137.723 16.9576 137.723C14.4775 137.723 14.1191 138.784 12.7142 139.845C11.295 140.905 12.8863 142.325 13.0726 143.558C13.2446 144.79 14.4918 143.385 14.6639 142.669C14.8359 141.966 14.3055 140.891 14.6639 141.077C15.0223 141.249 15.5527 141.249 16.0831 141.077C16.6135 140.905 16.9719 143.027 20.3265 146.568C23.6953 150.109 25.2866 151.7 29.1859 151.356C33.0852 150.998 38.9198 151.356 47.0767 150.654C55.2194 149.951 61.4267 146.224 61.9571 145.866C62.4875 145.507 66.9173 132.404 66.9173 132.404C66.9173 132.404 65.326 128.161 62.8459 127.444C60.3372 126.742 54.4883 127.1 54.4883 127.1Z" fill="#FBBE9C"/>
<path d="M28.1967 151.744C24.7561 151.744 23.0215 149.909 20.0684 146.813C18.0757 144.705 17.1296 143.114 16.5705 142.168C16.3841 141.867 16.2121 141.551 16.0974 141.437C15.6817 141.566 15.2803 141.594 14.9219 141.537C14.9936 141.895 15.0796 142.354 14.9792 142.77C14.8359 143.343 14.0617 144.433 13.388 144.404C13.1873 144.39 12.8145 144.275 12.7285 143.616C12.6855 143.272 12.4992 142.899 12.2985 142.498C11.8541 141.594 11.3093 140.476 12.4992 139.587C12.8289 139.344 13.1013 139.086 13.3736 138.842C14.2194 138.068 14.9506 137.394 16.9575 137.394C19.4233 137.394 24.1827 140.906 24.7275 141.322C25.1002 141.437 28.039 142.211 34.9488 140.763C42.647 139.157 49.9438 136.434 50.5029 135.932C50.7896 135.459 52.897 130.212 54.1728 126.972C54.2159 126.843 54.3305 126.771 54.4739 126.757C54.7176 126.743 60.4088 126.413 62.9176 127.13C65.5267 127.875 67.1466 132.119 67.2183 132.291C67.2469 132.362 67.2469 132.448 67.2183 132.52C67.2039 132.549 66.1001 135.831 64.9389 139.114C62.5592 145.866 62.3011 146.038 62.1291 146.153C62.0718 146.196 55.6494 150.253 47.091 150.984C42.3173 151.4 38.289 151.457 35.0634 151.486C32.7841 151.515 30.8058 151.543 29.2002 151.687C28.8418 151.73 28.5121 151.744 28.1967 151.744ZM16.1404 140.734C16.5131 140.734 16.7712 141.164 17.1582 141.824C17.703 142.756 18.6205 144.304 20.5701 146.354C23.853 149.809 25.3439 151.371 29.1428 151.027C30.7771 150.884 32.7554 150.855 35.0491 150.827C38.2746 150.784 42.2743 150.741 47.0194 150.325C55.1333 149.622 61.2403 145.909 61.7134 145.623C62.2008 144.949 64.8959 137.265 66.5302 132.434C66.2578 131.774 64.7955 128.391 62.7312 127.789C60.5952 127.187 55.8071 127.388 54.7319 127.431C54.1442 128.922 51.4061 135.803 51.062 136.319C50.5746 137.05 42.3316 139.903 35.0921 141.422C27.4656 143.014 24.5698 141.981 24.4551 141.938C24.4264 141.924 24.3977 141.91 24.3691 141.895C24.3117 141.852 19.2943 138.068 16.9575 138.068C15.2229 138.068 14.6352 138.598 13.8324 139.344C13.5743 139.587 13.2733 139.86 12.9149 140.132C12.2124 140.663 12.4418 141.236 12.9149 142.211C13.1299 142.641 13.345 143.085 13.4023 143.53C13.4166 143.644 13.4453 143.702 13.4596 143.716C13.6747 143.659 14.2194 143.042 14.3341 142.598C14.4058 142.311 14.3198 141.91 14.2624 141.623C14.1908 141.25 14.1334 140.978 14.3628 140.806C14.4201 140.763 14.5922 140.663 14.8215 140.777C15.0939 140.906 15.5383 140.906 15.9827 140.763C16.0257 140.749 16.0831 140.734 16.1404 140.734Z" fill="#E07445"/>
<path d="M47.2344 98.9452C49.8865 99.3036 55.033 95.4043 61.7564 97.7123C68.4798 100.02 70.9599 105.325 71.3183 112.765C71.6767 120.205 67.247 135.788 67.247 135.788C67.247 135.788 66.5445 131.888 62.4589 129.767C58.3875 127.645 53.5994 128.348 53.5994 128.348C53.5994 128.348 23.853 126.928 18.8929 128.176C13.9327 129.408 14.6495 133.666 14.6495 133.666C14.6495 133.666 14.2911 134.197 11.2807 123.574C8.27017 112.951 6.96563 102.816 13.9327 100.02C22.7922 96.4795 26.5051 102.328 32.8845 99.8483C37.0991 98.1854 47.2344 98.9452 47.2344 98.9452Z" fill="#F23D04"/>
<path d="M33.9453 128.161C33.9453 128.161 22.9642 115.589 27.7523 113.811C32.5261 112.048 34.3037 116.119 34.3037 116.119C34.3037 116.119 36.9558 108.507 39.6222 112.22C42.2743 115.947 33.9453 128.161 33.9453 128.161Z" fill="#FFB83A"/>
<path d="M40.1526 125.509C42.2599 119.789 43.1631 115.245 46.0015 117.008C48.84 118.786 45.8295 123.918 45.8295 123.918C45.8295 123.918 52.7393 121.079 51.4921 124.979C50.2592 128.878 38.2173 130.111 38.2173 130.111C38.2173 130.111 38.9054 128.864 40.1526 125.509Z" fill="#FFB83A"/>
<path d="M39.0774 87.0756C47.1927 87.0756 53.7715 80.4968 53.7715 72.3815C53.7715 64.2662 47.1927 57.6875 39.0774 57.6875C30.9622 57.6875 24.3834 64.2662 24.3834 72.3815C24.3834 80.4968 30.9622 87.0756 39.0774 87.0756Z" fill="#2F2422"/>
<path d="M45.8152 86.9033C44.7544 95.4043 47.0481 98.7732 47.2345 98.9452C47.4065 99.1173 46.1736 103.017 39.2638 102.845C32.3541 102.673 32.3541 100.006 32.3541 100.006C32.3541 100.006 33.7733 95.218 33.2429 89.197C32.7125 83.1761 45.8152 86.9033 45.8152 86.9033Z" fill="#FBBE9C"/>
<path d="M45.5285 91.0467C45.5285 89.8281 45.6145 88.4519 45.8009 86.9037C45.8009 86.9037 44.3243 86.4879 42.389 86.1582L33.3432 87.9502C33.2285 88.3085 33.1855 88.7243 33.2285 89.2117C33.7589 95.2327 32.3397 100.021 32.3397 100.021C32.3397 100.021 32.3397 100.393 32.6981 100.852C35.1495 100.551 40.7691 99.0173 45.5285 91.0467Z" fill="#E68A63"/>
<path d="M38.8481 92.2647C33.1998 92.2647 28.6124 87.6773 28.6124 82.0291V74.1731C28.6124 68.5249 33.1998 63.9375 38.8481 63.9375C44.4963 63.9375 49.0837 68.5249 49.0837 74.1731V82.0291C49.0837 87.6916 44.4963 92.2647 38.8481 92.2647Z" fill="#FBBE9C"/>
<path d="M38.8911 92.2647H38.8051C33.1282 92.2647 28.5264 87.663 28.5264 81.9861V74.2162C28.5264 68.5392 33.1282 63.9375 38.8051 63.9375H38.8911C44.568 63.9375 49.1697 68.5392 49.1697 74.2162V81.9861C49.1841 87.663 44.568 92.2647 38.8911 92.2647Z" fill="#FBBE9C"/>
<path d="M49.2271 82.3592C47.8365 81.7571 47.2058 80.1372 47.8079 78.7466L48.5246 77.1267C49.1267 75.7361 50.7467 75.1054 52.1372 75.7075C53.5278 76.3095 54.1585 77.9295 53.5564 79.32L52.8397 80.94C52.2376 82.3448 50.6176 82.9756 49.2271 82.3592Z" fill="#FBBE9C"/>
<path d="M28.5837 82.3592C29.9743 81.7571 30.6051 80.1372 30.003 78.7466L29.2862 77.1267C28.6841 75.7361 27.0642 75.1054 25.6736 75.7075C24.2831 76.3095 23.6523 77.9295 24.2544 79.32L24.9712 80.94C25.5733 82.3448 27.1932 82.9756 28.5837 82.3592Z" fill="#FBBE9C"/>
<path d="M28.4547 75.9222C38.4036 76.553 41.9159 66.002 41.9159 66.002C41.9159 66.002 46.0732 73.5138 49.3561 75.9222C53.1693 71.6072 47.5784 61.5723 40.855 61.5723C34.1316 61.5723 29.7019 64.9411 28.6411 69.5429C27.5802 74.1446 28.4547 75.9222 28.4547 75.9222Z" fill="#2F2422"/>
<path d="M31.2932 78.388C31.1785 78.388 31.0782 78.3306 31.0065 78.2303C30.9061 78.0726 30.9492 77.8576 31.1068 77.7572C33.7016 76.0943 36.2533 76.9831 36.368 77.0118C36.5401 77.0691 36.6404 77.2698 36.5687 77.4418C36.5114 77.6139 36.3107 77.7142 36.1387 77.6425C36.11 77.6282 33.7733 76.8397 31.4796 78.3163C31.4222 78.3736 31.3506 78.388 31.2932 78.388Z" fill="#14100F"/>
<path d="M46.3456 78.3886C46.2883 78.3886 46.2166 78.3742 46.1593 78.3312C43.8656 76.8547 41.5289 77.6431 41.5002 77.6575C41.3282 77.7148 41.1275 77.6288 41.0701 77.4568C41.0128 77.2847 41.0988 77.084 41.2708 77.0267C41.3855 76.9837 43.9372 76.1092 46.532 77.7721C46.6897 77.8725 46.7327 78.0875 46.6323 78.2452C46.5607 78.3312 46.4603 78.3886 46.3456 78.3886Z" fill="#14100F"/>
<path d="M45.2848 73.0844C43.6792 70.8337 41.2135 70.7764 41.3855 71.8516C41.5575 72.9124 46.1736 74.3316 45.2848 73.0844Z" fill="#2F2422"/>
<path d="M36.9558 82.1153C37.3285 80.653 40.8551 80.524 40.8551 81.5848C40.8551 82.6457 36.7838 82.832 36.9558 82.1153Z" fill="#E68A63"/>
<path d="M45.4568 84.2375C47.1195 84.2375 48.4673 83.2876 48.4673 82.1158C48.4673 80.944 47.1195 79.9941 45.4568 79.9941C43.7942 79.9941 42.4464 80.944 42.4464 82.1158C42.4464 83.2876 43.7942 84.2375 45.4568 84.2375Z" fill="#FBA47E"/>
<path d="M32.354 84.2375C34.0167 84.2375 35.3645 83.2876 35.3645 82.1158C35.3645 80.944 34.0167 79.9941 32.354 79.9941C30.6914 79.9941 29.3436 80.944 29.3436 82.1158C29.3436 83.2876 30.6914 84.2375 32.354 84.2375Z" fill="#FBA47E"/>
<path d="M32.8271 97.8702C31.8236 98.587 30.2324 100.006 30.4044 100.881C30.5764 101.769 33.2429 106.73 40.1383 106.199C47.0481 105.669 48.4673 101.597 48.8114 100.881C49.1698 100.178 49.1698 99.1747 48.8114 98.7877C48.453 98.4006 46.7614 97.6838 46.6324 97.8702C46.5033 98.0566 45.6432 100.35 39.7799 100.35C32.8845 100.35 32.8271 97.8702 32.8271 97.8702Z" fill="#FFB83A"/>
<path d="M39.1348 106.587C37.3858 106.587 35.7802 106.228 34.361 105.526C34.189 105.44 34.1173 105.239 34.2033 105.067C34.2893 104.895 34.49 104.823 34.6621 104.909C36.2533 105.698 38.0883 106.028 40.1239 105.87C44.2813 105.555 47.0767 103.892 48.4386 100.924C48.4673 100.852 48.4959 100.795 48.5246 100.738C48.8257 100.121 48.8113 99.2899 48.582 99.0319C48.3526 98.7738 47.2774 98.3007 46.8617 98.2004C45.9012 99.806 43.3925 100.695 39.7942 100.695C32.7554 100.695 32.4974 98.1717 32.4974 97.8707C32.4974 97.6843 32.6407 97.5266 32.8271 97.5266C33.0135 97.5266 33.1712 97.67 33.1712 97.8563C33.1712 97.8707 33.4005 100.007 39.7942 100.007C43.2061 100.007 45.5285 99.2039 46.3169 97.756C46.3456 97.713 46.3599 97.6843 46.3743 97.67C46.4173 97.6126 46.5176 97.5123 46.704 97.4979C47.1771 97.4693 48.711 98.1574 49.0837 98.5588C49.5854 99.1035 49.5138 100.279 49.141 101.039C49.1267 101.082 49.098 101.139 49.0694 101.197C47.6071 104.393 44.611 106.2 40.1813 106.529C39.8229 106.572 39.4645 106.587 39.1348 106.587Z" fill="#14100F"/>
<path d="M62.4589 129.752C66.5302 131.874 67.247 135.773 67.247 135.773C67.247 135.773 68.3795 133.322 69.1966 129.924C68.4225 128.72 66.7022 127.287 64.5949 125.853C59.6348 122.484 55.2051 123.545 55.2051 123.545L53.6138 128.333C53.5995 128.333 58.3876 127.631 62.4589 129.752Z" fill="#FFB83A"/>
<path d="M19.9537 123.029C12.1695 124.434 13.087 128.004 12.6999 129.925C14.3055 134.813 15.352 134.713 15.352 134.713C15.352 134.713 13.5744 130.642 18.8929 128.161C19.3516 127.946 20.1114 127.946 21.0432 127.875C20.6132 125.911 19.9537 123.029 19.9537 123.029Z" fill="#FFB83A"/>
<path d="M66.8885 136.792C66.8169 136.792 66.7452 136.777 66.6878 136.734C66.5302 136.619 66.5015 136.419 66.6018 136.261C66.6592 136.175 67.9207 134.197 64.0644 131.258C59.9788 128.147 54.4022 128.176 53.8145 128.62C53.6854 128.706 53.5277 128.706 53.3987 128.62C53.284 128.534 53.2267 128.362 53.284 128.219C53.3127 128.133 56.8106 119.116 57.1547 108.679C57.1547 108.493 57.3267 108.35 57.513 108.35C57.6994 108.35 57.8428 108.507 57.8428 108.708C57.5417 117.653 54.9756 125.552 54.1585 127.832C56.1082 127.502 60.8963 128.004 64.4802 130.728C68.8955 134.096 67.2326 136.562 67.1609 136.662C67.1036 136.734 66.9889 136.792 66.8885 136.792Z" fill="#14100F"/>
<path d="M15.352 135.057C15.2229 135.057 15.1083 134.985 15.0509 134.87C14.7642 134.311 14.4632 132.949 15.1083 131.444C15.6673 130.14 17.1009 128.333 20.8568 127.158C21.0432 127.1 21.2296 127.201 21.2869 127.387C21.3443 127.573 21.2439 127.76 21.0575 127.817C18.2908 128.692 16.4415 130.039 15.739 131.716C15.1943 133.007 15.4523 134.139 15.6673 134.569C15.7534 134.741 15.6817 134.942 15.5097 135.028C15.4523 135.042 15.4093 135.057 15.352 135.057Z" fill="#14100F"/>
<path d="M57.6851 140.017C57.5991 140.017 57.5131 139.988 57.4558 139.917C57.4127 139.874 53.6281 136.304 50.804 136.462C50.6177 136.476 50.46 136.333 50.4456 136.147C50.4313 135.96 50.5746 135.802 50.761 135.788C53.8862 135.602 57.7568 139.272 57.9288 139.429C58.0722 139.558 58.0722 139.773 57.9432 139.917C57.8572 139.974 57.7711 140.017 57.6851 140.017Z" fill="#E07445"/>
<path d="M41.9733 86.373C41.8872 84.9395 38.375 85.6706 34.8341 86.373C31.2932 87.0755 28.4548 88.3227 28.0964 88.6811C27.738 89.0395 19.2369 96.5514 18.3481 98.9024C17.4737 101.253 18.1761 109.396 18.5345 116.306C18.8929 123.216 20.1258 134.727 22.6058 138.268C25.0859 141.809 30.8058 142.769 32.4687 140.074C34.1173 137.379 33.0565 132.605 31.6373 125.165C30.218 117.725 25.4443 104.264 25.4443 104.264C25.4443 104.264 28.0964 102.845 29.3436 100.365C30.5764 97.8846 30.5764 96.2933 30.5764 96.2933L34.6477 93.9853L36.239 95.0461C36.239 95.0461 34.4614 97.6982 35.3502 97.8846C36.239 98.0566 37.6582 95.9349 38.0023 95.0461C38.3607 94.1573 38.3607 93.9853 38.3607 93.9853C38.3607 93.9853 38.8911 93.2828 39.0631 92.7524C39.2352 92.222 39.0631 92.222 39.0631 92.222C39.0631 92.222 39.5935 92.5804 39.4215 90.8028C39.2495 89.0251 38.0023 88.3227 38.0023 88.3227L36.9414 87.9643C36.9558 87.9643 42.0306 87.4339 41.9733 86.373Z" fill="#FBBE9C"/>
<path d="M32.4687 140.404C32.4114 140.404 32.3397 140.39 32.2967 140.347C32.139 140.247 32.0817 140.032 32.182 139.874C33.6586 137.466 32.8271 133.136 31.5799 126.57C31.4939 126.126 31.4079 125.667 31.3219 125.194C29.917 117.883 25.1719 104.508 25.1289 104.365C25.0715 104.207 25.1432 104.035 25.2866 103.949C25.3152 103.934 27.867 102.544 29.0425 100.207C30.218 97.8418 30.2467 96.3079 30.2467 96.2792C30.2467 96.1502 30.3184 96.0499 30.4187 95.9782L34.49 93.6701C34.6047 93.6128 34.7337 93.6128 34.8484 93.6845L36.4397 94.7453C36.5974 94.8457 36.6404 95.0607 36.54 95.2184C35.9093 96.1645 35.4075 97.2397 35.4649 97.5264C36.0383 97.5694 37.3142 95.8778 37.7156 94.903C38.0023 94.1862 38.0453 93.9712 38.0453 93.9425C38.0453 93.8708 38.0739 93.8135 38.117 93.7562C38.117 93.7562 38.6187 93.0824 38.7764 92.6093C38.8051 92.509 38.8194 92.4373 38.8337 92.3943C38.7621 92.3083 38.7477 92.1936 38.7764 92.0789C38.8194 91.9355 38.9628 91.8352 39.1061 91.8352C39.1348 91.7062 39.1778 91.4194 39.1061 90.7887C38.9628 89.3408 38.0596 88.6957 37.8876 88.581L36.8554 88.2369C36.6977 88.1796 36.6117 88.0362 36.626 87.8785C36.6404 87.7208 36.7694 87.5918 36.9271 87.5775C36.9414 87.5775 38.1313 87.4485 39.3355 87.2048C41.5002 86.7604 41.6435 86.3446 41.6435 86.3446C41.6435 86.2299 41.6005 86.1439 41.5002 86.0866C40.7404 85.4988 37.7299 86.1009 35.0778 86.6313L34.9058 86.66C31.4079 87.3625 28.6268 88.5953 28.3401 88.8677C28.297 88.9107 28.1537 89.0397 27.8383 89.3264C20.8712 95.6628 19.0076 98.0568 18.6778 98.96C17.9897 100.809 18.3338 106.673 18.6635 112.335C18.7352 113.625 18.8212 114.959 18.8785 116.234C19.1652 121.911 19.9824 129.696 21.4159 134.555C21.4733 134.742 21.3729 134.928 21.1866 134.985C21.0002 135.043 20.8138 134.928 20.7565 134.756C19.3086 129.853 18.4771 121.997 18.1904 116.277C18.1187 115.002 18.0471 113.683 17.9754 112.392C17.617 106.4 17.2873 100.723 18.0327 98.745C18.5632 97.3114 21.631 94.0715 27.3796 88.839C27.6233 88.6097 27.824 88.4376 27.8526 88.3946C28.297 87.9502 31.2645 86.703 34.7624 86.0006L34.9344 85.9719C38.1456 85.3268 40.9124 84.782 41.9159 85.5562C42.1596 85.7425 42.303 86.0149 42.3173 86.3303C42.3746 87.2908 40.2386 87.8212 38.3607 88.1079C38.7334 88.3803 39.6365 89.1974 39.7799 90.7457C39.8802 91.7205 39.7942 92.2366 39.4932 92.4659C39.4788 92.5806 39.4502 92.6953 39.4072 92.8387C39.2495 93.3261 38.8481 93.8995 38.7047 94.1002C38.6474 94.3583 38.4897 94.8027 38.3463 95.161C38.0739 95.8492 36.5544 98.4582 35.3072 98.2002C35.0921 98.1572 34.9201 98.0282 34.8484 97.8275C34.5904 97.1967 35.3215 95.8922 35.7946 95.1324L34.6621 94.3726L30.9348 96.4799C30.8918 96.996 30.6911 98.4582 29.6733 100.494C28.6124 102.616 26.6054 103.963 25.8887 104.393C26.5624 106.329 30.7054 118.27 32.01 125.065C32.096 125.538 32.182 125.983 32.268 126.441C33.5582 133.15 34.404 137.595 32.7841 140.218C32.6981 140.347 32.5834 140.404 32.4687 140.404Z" fill="#E07445"/>
<path d="M22.6201 105.296C22.4481 105.296 22.2904 105.152 22.2761 104.98C22.2617 104.794 22.4051 104.636 22.5915 104.622C24.8708 104.464 25.6306 103.762 25.6306 103.762C25.7596 103.633 25.9747 103.633 26.118 103.762C26.247 103.891 26.247 104.106 26.118 104.235C26.032 104.321 25.1719 105.109 22.6488 105.296C22.6345 105.296 22.6201 105.296 22.6201 105.296Z" fill="#E07445"/>
<path d="M36.9558 88.3083C36.9414 88.3083 36.9271 88.3083 36.9271 88.3083L33.3862 87.9499C33.1998 87.9356 33.0565 87.7635 33.0851 87.5772C33.0995 87.3908 33.2715 87.2475 33.4579 87.2761L36.9988 87.6345C37.1851 87.6488 37.3285 87.8209 37.2998 88.0072C37.2855 88.1649 37.1278 88.3083 36.9558 88.3083Z" fill="#E07445"/>
<path d="M39.0774 92.5515C38.9484 92.5515 38.8337 92.4798 38.7764 92.3651C38.59 91.9924 37.9879 90.9315 37.4575 90.5445C36.9988 90.2004 34.9345 89.971 33.7446 89.8994C33.5582 89.885 33.4149 89.7273 33.4292 89.541C33.4435 89.3546 33.6012 89.2113 33.7876 89.2256C34.3324 89.2543 37.1135 89.4406 37.8733 89.9997C38.633 90.5731 39.3642 92.0067 39.3928 92.0641C39.4788 92.2361 39.4072 92.4368 39.2351 92.5228C39.1921 92.5371 39.1348 92.5515 39.0774 92.5515Z" fill="#E07445"/>
<path d="M38.375 94.3293C38.2173 94.3293 38.0883 94.229 38.0453 94.0856C37.8876 93.7989 36.7981 92.5947 36.4971 92.3797C36.4254 92.3653 36.3394 92.3367 36.2103 92.2793C35.8089 92.136 35.0778 91.8492 33.9453 91.8492C33.7589 91.8492 33.6013 91.6915 33.6013 91.5052C33.6013 91.3188 33.7589 91.1611 33.9453 91.1611C35.2068 91.1611 36.0526 91.4765 36.454 91.6342C36.5114 91.6629 36.5974 91.6915 36.6261 91.6915C36.7551 91.6915 36.9415 91.7489 37.8016 92.7094C38.7047 93.7129 38.7047 93.8562 38.7047 93.9852C38.7191 94.1716 38.5614 94.3293 38.375 94.3293Z" fill="#E07445"/>
<path d="M49.3561 80.8683C49.3417 80.8683 49.3131 80.8683 49.2987 80.8683C49.1124 80.8396 48.9977 80.6532 49.0263 80.4669C49.0407 80.3665 49.5138 78.0155 50.761 77.2987C51.191 77.055 51.6498 77.0263 52.1372 77.1984C52.3092 77.2557 52.4096 77.4564 52.3379 77.6284C52.2805 77.8004 52.0798 77.9008 51.8935 77.8291C51.6068 77.7288 51.3344 77.7431 51.0907 77.8865C50.2735 78.3452 49.8005 79.9938 49.6858 80.5959C49.6571 80.7536 49.5138 80.8683 49.3561 80.8683Z" fill="#E07445"/>
<path d="M28.4548 80.5096C28.2827 80.5096 28.1394 80.3806 28.1107 80.2085C28.0103 79.1334 27.5659 78.2445 26.9638 77.8431C26.5624 77.5708 26.075 77.5134 25.5446 77.6711C25.3583 77.7285 25.1719 77.6281 25.1145 77.4418C25.0572 77.2554 25.1576 77.069 25.3439 77.0117C26.075 76.7966 26.7631 76.8827 27.3366 77.2697C28.125 77.8001 28.6555 78.861 28.7845 80.1368C28.7988 80.3232 28.6698 80.4952 28.4834 80.5096C28.4834 80.5096 28.4691 80.5096 28.4548 80.5096Z" fill="#E07445"/>
<path d="M66.0427 28.1123C64.6522 26.0193 66.9029 22.7221 70.5871 24.299C74.2714 25.876 74.5581 25.9763 74.5581 25.9763C74.5581 25.9763 76.35 26.4207 78.4861 27.3095C80.6221 28.1983 81.8693 31.2231 79.5756 33.2015C77.2819 35.1798 72.1354 33.6029 69.5693 32.5564C66.9889 31.5099 66.0427 28.1123 66.0427 28.1123Z" fill="#DCE0FA"/>
<path d="M76.4935 27.9265C79.891 27.9408 81.812 24.701 79.2459 22.2066C76.6798 19.7122 77.669 17.7769 77.0382 17.7195C76.4074 17.6622 73.44 17.7912 70.8452 20.1566C68.9386 21.8912 68.4368 23.8838 70.9169 25.6901C73.3826 27.5108 76.4935 27.9265 76.4935 27.9265Z" fill="#DCE0FA"/>
<path d="M73.526 28.3995C73.483 28.3995 73.4256 28.3852 73.3826 28.3708C70.5298 27.095 68.9529 24.9016 69.2683 22.6652C69.641 20.0132 72.5225 18.0348 76.9809 17.3897C77.1672 17.3611 77.3393 17.4901 77.3679 17.6764C77.3966 17.8628 77.2676 18.0348 77.0812 18.0635C72.9382 18.6656 70.2718 20.4145 69.9421 22.7513C69.6697 24.6722 71.0889 26.5932 73.655 27.7401C73.827 27.8117 73.8987 28.0124 73.827 28.1845C73.784 28.3135 73.655 28.3995 73.526 28.3995Z" fill="#4C3CA1"/>
<path d="M77.9843 27.8691C77.6403 27.8691 77.2819 27.7974 76.9235 27.6397C75.4756 27.009 74.0994 25.0163 74.5438 22.1349C74.5724 21.9485 74.7445 21.8195 74.9308 21.8481C75.1172 21.8768 75.2462 22.0488 75.2176 22.2352C74.8305 24.7583 75.9773 26.4785 77.1959 27.009C78.0273 27.3674 78.8158 27.1667 79.3892 26.4499C80.9948 24.4142 79.5612 22.7656 78.5721 21.9772C78.4287 21.8625 78.4001 21.6474 78.5148 21.5041C78.6294 21.3607 78.8445 21.3321 78.9878 21.4467C79.7333 22.0488 82.0126 24.2135 79.9196 26.8799C79.4036 27.525 78.7154 27.8691 77.9843 27.8691Z" fill="#4C3CA1"/>
<path d="M65.627 27.2673C65.4263 27.2673 65.283 27.1096 65.283 26.9232C65.3116 26.0774 65.369 23.54 69.2826 23.54C69.3113 23.54 69.3543 23.54 69.383 23.54C69.5693 23.54 69.727 23.6977 69.727 23.8841C69.727 24.0705 69.5693 24.2281 69.383 24.2281C66.0427 24.1851 65.9854 26.1205 65.9711 26.9519C65.9711 27.1239 65.8134 27.2673 65.627 27.2673Z" fill="#4C3CA1"/>
<path d="M80.2063 32.6138C80.106 32.6138 79.9913 32.5708 79.934 32.4704C79.8193 32.3127 79.8623 32.0977 80.0056 31.9974C80.02 31.983 80.4787 31.639 80.5217 30.9222C80.5647 30.0334 79.934 28.9295 78.6581 27.754C78.5147 27.625 78.5147 27.41 78.6437 27.2666C78.7728 27.1232 78.9878 27.1233 79.1312 27.2523C80.5791 28.5998 81.2815 29.847 81.2098 30.9795C81.1382 32.0117 80.45 32.5278 80.407 32.5421C80.3497 32.5851 80.278 32.6138 80.2063 32.6138Z" fill="#4C3CA1"/>
<path d="M80.9375 32.5134C80.4357 32.3413 80.0917 32.542 79.5756 32.9004C79.0595 33.2445 78.4861 33.6315 77.669 33.3592C76.8518 33.0868 76.6368 32.4273 76.4361 31.8396C76.2354 31.2518 76.0921 30.8791 75.5903 30.7071C75.0886 30.535 74.7445 30.7357 74.2284 31.0941C73.7123 31.4382 73.1389 31.8252 72.3218 31.5529C71.5046 31.2805 71.2896 30.6211 71.0889 30.0333C70.8882 29.4455 70.7449 29.0728 70.2431 28.9008C69.7414 28.7288 69.3973 28.9438 68.8812 29.2878C68.3651 29.6319 67.7917 30.019 66.9746 29.7466C66.1575 29.4742 65.9424 28.8148 65.7417 28.227C65.541 27.6392 65.3977 27.2665 64.8959 27.0945C64.8386 27.0802 64.7812 27.0371 64.7526 26.9941L65.3833 35.3805L75.3323 38.7637L81.0665 32.542C81.0522 32.542 80.9948 32.542 80.9375 32.5134Z" fill="#E68A63"/>
<path d="M77.6689 33.3598C76.8518 33.0875 76.6368 32.428 76.4361 31.8403C76.2354 31.2525 76.092 30.8798 75.5903 30.7077C75.0885 30.5357 74.7445 30.7364 74.2284 31.0948C73.7123 31.4389 73.1389 31.8259 72.3218 31.5535C71.5046 31.2812 71.2896 30.6217 71.0889 30.034C70.8882 29.4462 70.7448 29.0735 70.2431 28.9014C69.7413 28.7294 69.3973 28.9445 68.8812 29.2885C68.3651 29.6326 67.7917 30.0196 66.9746 29.7472C66.1574 29.4749 65.9424 28.8154 65.7417 28.2277C65.541 27.6399 65.3976 27.2672 64.8959 27.0952C64.7382 27.0378 64.6522 26.8658 64.7095 26.7081C64.7669 26.5504 64.9389 26.4644 65.0966 26.5217C65.9137 26.7941 66.1288 27.4535 66.3295 28.0413C66.5302 28.6291 66.6735 29.0018 67.1753 29.1738C67.677 29.3459 68.0211 29.1308 68.5371 28.7868C69.0532 28.4427 69.6267 28.0556 70.4438 28.328C71.2609 28.6004 71.476 29.2598 71.6767 29.8476C71.8774 30.4354 72.0207 30.8081 72.5225 30.9801C73.0242 31.1521 73.3683 30.9514 73.8843 30.593C74.4004 30.249 74.9739 29.8619 75.791 30.1343C76.6081 30.4067 76.8231 31.0661 77.0238 31.6539C77.2245 32.2416 77.3679 32.6144 77.8696 32.7864C78.3714 32.9584 78.7155 32.7577 79.2315 32.3993C79.7476 32.0553 80.321 31.6682 81.1382 31.9406C81.2959 31.9979 81.3819 32.17 81.3245 32.3277C81.2672 32.4854 81.0952 32.5714 80.9375 32.514C80.4357 32.342 80.0917 32.5427 79.5756 32.9011C79.0595 33.2451 78.4861 33.6322 77.6689 33.3598Z" fill="#E68A63"/>
<path d="M75.3896 39.1367L65.283 35.6532C65.111 35.5958 65.0106 35.3951 65.068 35.2231C65.1253 35.0511 65.326 34.9507 65.498 35.0081L75.1746 38.3483L81.0809 31.8829C81.2099 31.7395 81.4249 31.7395 81.5683 31.8542C81.7116 31.9832 81.7116 32.1983 81.5969 32.3416L75.3896 39.1367Z" fill="#14100F"/>
<path d="M67.1466 29.3745C66.3725 29.3745 66.0571 28.672 65.756 28.0413C65.4407 27.3531 65.1396 26.708 64.3368 26.6364C64.1505 26.622 64.0071 26.45 64.0214 26.2636C64.0358 26.0773 64.2078 25.9339 64.3942 25.9483C65.584 26.0629 66.0141 26.9948 66.3725 27.7545C66.7022 28.457 66.8599 28.7294 67.2326 28.6864C67.634 28.629 68.0354 28.414 68.4368 28.1989C69.2396 27.7545 70.2431 27.1955 71.2466 28.371C71.3756 28.5143 71.3469 28.7294 71.2036 28.8584C71.0602 28.9874 70.8452 28.9587 70.7162 28.8154C70.1141 28.0986 69.6267 28.3136 68.7665 28.801C68.3221 29.0448 67.849 29.3028 67.3186 29.3745C67.247 29.3601 67.1896 29.3745 67.1466 29.3745Z" fill="#14100F"/>
<path d="M43.6648 12.2432L19.2512 19.0239L22.7348 31.5389H22.7491C22.7491 31.5819 22.7491 31.6106 22.7635 31.6393C23.0932 32.8291 28.8274 32.27 35.5652 30.4064C42.3029 28.5284 47.5068 26.0484 47.177 24.8585C47.1627 24.8298 47.1484 24.7868 47.134 24.7582H47.1484L43.6648 12.2432Z" fill="#FFC969"/>
<path d="M21.0289 15.8846C15.1512 18.7948 18.4198 20.8161 20.1687 24.7441C21.9177 28.672 22.9068 26.6364 22.018 24.228C21.1292 21.8196 21.846 19.6406 23.767 21.7479C25.6879 23.8696 25.5159 21.7049 27.3079 20.9881C29.0998 20.2713 29.8596 19.8413 30.218 23.4969C30.5764 27.1525 32.311 28.6577 32.569 26.3783C32.8127 24.099 29.4725 18.3934 31.0351 19.2822C32.612 20.171 34.0313 21.3179 35.4792 19.3682C36.9271 17.4186 38.1599 17.0745 38.762 18.4507C39.3641 19.8269 39.2638 21.8483 41.1991 20.8734C43.1344 19.8986 40.1669 14.7521 41.5862 15.899C43.0054 17.0458 43.3494 14.3077 43.8225 14.3937C44.2956 14.4798 45.3134 18.1783 45.3708 18.379C45.4281 18.5797 46.9047 19.9416 46.3456 16.3434C45.7865 12.7451 45.6288 10.5805 40.769 10.5948C35.9236 10.6378 25.1002 13.8633 21.0289 15.8846Z" fill="#F3752B"/>
<path d="M28.0677 18.5073C27.91 18.5073 27.7666 18.3926 27.738 18.235C27.7093 18.0486 27.824 17.8766 28.0103 17.8336C36.2533 16.2853 42.6614 12.7444 42.7187 12.7157C42.8764 12.6297 43.0914 12.6871 43.1774 12.8448C43.2634 13.0024 43.2061 13.2175 43.0484 13.3035C42.9767 13.3465 36.4827 16.9304 28.125 18.5073C28.1107 18.5073 28.082 18.5073 28.0677 18.5073Z" fill="#14100F"/>
<path d="M31.1437 15.716C33.1805 15.1499 34.3727 13.0398 33.8065 11.0031C33.2404 8.9663 31.1304 7.77409 29.0936 8.3402C27.0568 8.90631 25.8646 11.0164 26.4307 13.0531C26.9968 15.0899 29.1069 16.2821 31.1437 15.716Z" fill="#F23D04"/>
<path d="M37.2986 14.0191C38.9997 13.5462 39.9954 11.7839 39.5226 10.0828C39.0498 8.38165 37.2875 7.38591 35.5863 7.85873C33.8852 8.33155 32.8895 10.0939 33.3623 11.795C33.8351 13.4961 35.5974 14.4919 37.2986 14.0191Z" fill="#F23D04"/>
<path d="M36.4397 14.4651C36.196 14.4651 35.9666 14.4364 35.7229 14.3934C35.5365 14.3504 35.4218 14.1783 35.4648 13.992C35.5078 13.8056 35.6799 13.6909 35.8662 13.7339C36.3106 13.8199 36.7694 13.8056 37.2138 13.6909C38.7334 13.2752 39.6222 11.6983 39.1921 10.1787C39.0201 9.54793 38.6473 9.01751 38.1313 8.64478C37.9736 8.5301 37.9449 8.31507 38.0596 8.17171C38.1743 8.01402 38.3893 7.98535 38.5327 8.10003C39.1778 8.57311 39.6365 9.23255 39.8515 10.0067C40.3676 11.8846 39.2638 13.8343 37.3858 14.3647C37.0848 14.422 36.755 14.4651 36.4397 14.4651Z" fill="#14100F"/>
<path d="M25.5692 17.9331C27.2704 17.4603 28.2661 15.698 27.7933 13.9968C27.3205 12.2957 25.5581 11.3 23.857 11.7728C22.1559 12.2456 21.1602 14.0079 21.633 15.7091C22.1058 17.4102 23.8681 18.4059 25.5692 17.9331Z" fill="#F23D04"/>
<path d="M24.7131 18.3927C24.111 18.3927 23.5232 18.2351 22.9785 17.934C22.1614 17.4753 21.5593 16.7155 21.3156 15.798C21.2582 15.6116 21.3729 15.4253 21.5593 15.3823C21.7456 15.3249 21.932 15.4396 21.975 15.626C22.1757 16.3571 22.6631 16.9735 23.3225 17.3462C23.982 17.719 24.7561 17.8193 25.4872 17.6043C26.5624 17.3032 27.3795 16.4001 27.5516 15.2819C27.5802 15.0955 27.7523 14.9665 27.9386 14.9952C28.125 15.0239 28.254 15.1959 28.2253 15.3823C28.0103 16.7585 27.0211 17.8767 25.6736 18.2494C25.3439 18.3497 25.0285 18.3927 24.7131 18.3927Z" fill="#14100F"/>
<path d="M37.0131 9.34726C36.9701 9.34726 36.927 9.33292 36.884 9.31859C36.712 9.24691 36.626 9.04621 36.6833 8.87418L40.0379 0.215461C40.1096 0.043433 40.2959 -0.0425808 40.4823 0.0147618C40.6543 0.0864399 40.7403 0.287139 40.683 0.459166L37.3428 9.11789C37.2854 9.26125 37.1564 9.34726 37.0131 9.34726Z" fill="#14100F"/>
<path d="M29.8882 11.5554C29.7736 11.5554 29.6589 11.4981 29.5872 11.3834L25.4299 4.35894C25.3295 4.20124 25.3869 3.98621 25.5446 3.88586C25.7022 3.78551 25.9173 3.84285 26.0176 4.00055L30.175 11.025C30.2753 11.1827 30.218 11.3977 30.0603 11.4981C30.0173 11.5268 29.9456 11.5554 29.8882 11.5554Z" fill="#14100F"/>
<path d="M23.4802 15.3253C23.4516 15.3253 23.4229 15.3253 23.3799 15.311C22.9785 15.1963 19.4233 14.1641 18.8785 13.8631C18.7208 13.7771 18.6635 13.562 18.7495 13.4043C18.8355 13.2466 19.0505 13.1893 19.2082 13.2753C19.5666 13.476 22.0754 14.2358 23.5663 14.6659C23.7526 14.7232 23.853 14.9096 23.7956 15.0816C23.767 15.225 23.6236 15.3253 23.4802 15.3253Z" fill="#14100F"/>
<path d="M23.4516 16.2144C23.3082 16.2144 23.1648 16.114 23.1218 15.9707C23.0645 15.7843 23.1792 15.5979 23.3655 15.5549C23.5949 15.4976 23.7669 15.2682 23.8243 14.9672C23.9103 14.5084 23.6953 14.0497 23.2509 13.72C23.0932 13.6053 23.0645 13.3903 23.1792 13.2469C23.2939 13.0892 23.5089 13.0605 23.6523 13.1752C24.2974 13.6483 24.6271 14.3794 24.4981 15.0819C24.3977 15.641 24.0393 16.071 23.5519 16.2C23.5089 16.2144 23.4802 16.2144 23.4516 16.2144Z" fill="#14100F"/>
<path d="M29.6015 11.6267C29.0138 11.6267 28.3687 11.4404 27.7522 10.8956C27.6089 10.7666 27.5946 10.5516 27.7236 10.4082C27.8526 10.2648 28.0676 10.2505 28.211 10.3795C29.7019 11.6697 31.2071 10.3509 31.2645 10.2935C31.4078 10.1645 31.6229 10.1788 31.7519 10.3222C31.8809 10.4655 31.8666 10.6806 31.7232 10.8096C31.2931 11.168 30.5047 11.6267 29.6015 11.6267Z" fill="#14100F"/>
<path d="M30.1176 16.2C29.4009 16.2 28.6984 16.0137 28.0676 15.6553C27.0928 15.1105 26.4047 14.2074 26.1037 13.1322C25.903 12.4298 25.903 11.6843 26.0893 10.9675C26.1323 10.7812 26.3187 10.6808 26.5051 10.7238C26.6914 10.7668 26.7918 10.9532 26.7488 11.1396C26.5911 11.7273 26.6054 12.3581 26.7631 12.9458C27.0068 13.849 27.5946 14.5944 28.4117 15.0532C29.2288 15.5119 30.1606 15.6266 31.0638 15.3829C31.9669 15.1392 32.7124 14.5514 33.1711 13.7343C33.6299 12.9172 33.7446 11.9854 33.5008 11.0822C33.2571 10.2221 32.7124 9.49096 31.9383 9.03222C31.7806 8.93187 31.7232 8.73117 31.8236 8.55914C31.9239 8.40145 32.1246 8.3441 32.2967 8.44445C33.2141 9.00354 33.8736 9.86368 34.1603 10.8958C34.4613 11.971 34.318 13.1035 33.7732 14.064C33.2285 15.0388 32.3253 15.727 31.2502 16.028C30.8631 16.157 30.4904 16.2 30.1176 16.2Z" fill="#14100F"/>
<path d="M37.4575 10.0497C37.2568 10.0497 37.0274 10.021 36.798 9.92067C36.3249 9.7343 35.9522 9.33291 35.7085 8.74515C35.6368 8.57312 35.7229 8.37242 35.8949 8.30074C36.0669 8.22906 36.2676 8.31508 36.3393 8.4871C36.5113 8.90284 36.755 9.17521 37.0561 9.2899C37.4861 9.46193 37.9305 9.2899 37.9305 9.27556C38.1026 9.20388 38.3033 9.27556 38.3749 9.44759C38.4466 9.61962 38.3749 9.82032 38.2029 9.892C38.1886 9.92067 37.8732 10.0497 37.4575 10.0497Z" fill="#14100F"/>
<path d="M26.3187 32.4847C24.7705 32.4847 23.4659 32.2983 22.5771 31.8539C22.4051 31.7679 22.3334 31.5672 22.4194 31.3952C22.5055 31.2231 22.7062 31.1515 22.8782 31.2375C26.6771 33.1298 39.3068 29.9759 44.7687 27.0085C46.704 25.962 46.919 25.3599 46.9334 25.2022C46.9477 25.0158 47.1197 24.8725 47.3061 24.9011C47.4925 24.9155 47.6215 25.0875 47.6071 25.2739C47.5211 25.962 46.704 26.7217 45.0841 27.6106C40.7117 29.9903 31.8953 32.4847 26.3187 32.4847Z" fill="#14100F"/>
<path d="M18.0614 48.3833C19.0936 51.2074 16.7282 55.6085 12.5565 57.4434C8.38486 59.2784 4.0125 58.5186 2.8083 55.7518C1.60411 52.9851 3.99816 49.2721 8.18417 47.4372C12.3558 45.6165 16.5275 44.1973 18.0614 48.3833Z" fill="#E68A63"/>
<path d="M6.44953 43.4945C-0.0875134 47.0641 -0.68961 52.3109 0.571925 54.404C1.83346 56.497 3.51073 57.7298 3.22402 56.4826C2.95164 55.2354 3.78311 56.2246 5.60373 56.6403C7.42436 57.056 7.56771 56.0812 7.84009 56.3536C8.1268 56.6403 8.88659 58.6186 10.2485 58.1886C11.6104 57.7585 8.95827 55.1064 10.3632 55.5221C11.7681 55.9379 12.1838 55.8088 12.5995 55.1064C13.0153 54.404 12.8862 53.5725 14.1334 53.9882C15.3806 54.404 16.2264 53.1424 15.8107 51.4651C15.395 49.7879 17.2156 51.1784 17.2156 50.2036C17.2156 49.2288 16.9289 48.1106 17.7747 47.4082C18.6205 46.7057 17.488 43.4945 14.1334 42.6487C10.7932 41.8173 7.99778 42.6487 6.44953 43.4945Z" fill="#2F2422"/>
<path d="M8.79563 50.2082C10.3259 49.5378 11.2084 48.1771 10.7667 47.169C10.3251 46.161 8.72657 45.8872 7.19633 46.5576C5.6661 47.228 4.78361 48.5887 5.22525 49.5968C5.66688 50.6048 7.2654 50.8786 8.79563 50.2082Z" fill="#E68A63"/>
<path d="M10.8649 47.8241C10.2198 46.9927 8.82925 47.9675 8.39918 48.6699C7.98345 49.3724 7.13765 48.8133 6.57856 49.3724C6.01947 49.9315 5.31702 50.0748 6.01947 50.7773C6.72191 51.4797 1.81913 47.5661 6.01947 45.8745C10.2198 44.1972 11.4813 44.3406 11.6104 45.5878C11.7681 46.8493 10.8649 47.8241 10.8649 47.8241Z" fill="#2F2422"/>
<path d="M15.2659 43.9102C13.4596 43.6521 13.5887 45.0283 14.7068 45.0283C15.825 45.0283 16.2407 44.0535 15.2659 43.9102Z" fill="#FFB83A"/>
<path d="M10.9366 43.9098C9.94741 44.7413 11.3523 44.6123 11.7824 44.1966C12.1838 43.7665 11.768 43.2074 10.9366 43.9098Z" fill="#DCE0FA"/>
<path d="M8.1268 43.3509C6.54988 43.1502 7.00862 44.469 8.41352 44.469C9.80407 44.469 9.24498 43.4942 8.1268 43.3509Z" fill="#FFB83A"/>
<path d="M14.2911 48.2541C12.9436 48.8275 12.7572 49.2289 14.2911 49.0999C15.8251 48.9422 15.266 47.824 14.2911 48.2541Z" fill="#DCE0FA"/>
<path d="M11.7681 51.3218C13.5027 51.6659 12.0548 52.5834 11.209 52.1676C10.3632 51.7519 10.3632 51.0495 11.7681 51.3218Z" fill="#F23D04"/>
<path d="M7.85441 51.7514C6.06246 51.2353 6.3205 52.5972 7.5677 52.8696C8.82924 53.142 8.82924 52.0238 7.85441 51.7514Z" fill="#FFB83A"/>
<path d="M4.77228 54.5474C4.91563 53.3575 6.30619 53.1425 6.03381 54.2606C5.7471 55.3788 4.62892 55.6655 4.77228 54.5474Z" fill="#DCE0FA"/>
<path d="M2.24922 52.3106C1.24573 51.8088 0.571954 52.8697 1.83349 53.1564C3.09503 53.4287 3.3674 52.8697 2.24922 52.3106Z" fill="#F23D04"/>
<path d="M1.56111 49.6446C1.93383 48.512 3.52509 48.1106 2.966 49.2288C2.39257 50.347 1.27439 50.4904 1.56111 49.6446Z" fill="#FFB83A"/>
<path d="M3.92644 51.193C2.87994 51.3651 4.0698 52.1679 4.77224 51.8955C5.47469 51.6088 4.77224 51.0497 3.92644 51.193Z" fill="#F23D04"/>
<path d="M5.15933 46.333C3.65409 46.1896 4.91563 47.5372 5.89045 47.2648C6.86527 46.9924 5.67541 46.3903 5.15933 46.333Z" fill="#F23D04"/>
<path d="M7.71106 45.588C8.64287 45.1866 9.11595 45.7314 8.27015 46.0038C7.42435 46.2905 6.73624 46.0181 7.71106 45.588Z" fill="#DCE0FA"/>
<path d="M10.6642 48.9139C10.5925 48.9139 10.5065 48.8852 10.4492 48.8422C10.3058 48.7275 10.2772 48.5125 10.3919 48.3691C10.9223 47.7097 11.0943 47.0503 10.8076 46.7062C10.4349 46.2618 9.30234 46.2331 7.5964 47.1649C7.42437 47.251 7.22368 47.1936 7.13766 47.0216C7.05165 46.8496 7.10899 46.6489 7.28102 46.5628C9.47437 45.373 10.8219 45.631 11.338 46.2618C11.8541 46.8782 11.6964 47.8387 10.9366 48.7849C10.8649 48.8709 10.7646 48.9139 10.6642 48.9139Z" fill="#14100F"/>
<path d="M6.60724 50.992C5.90479 50.992 5.07333 50.8343 4.52857 50.3182C4.22753 50.0315 3.88347 49.5011 4.01249 48.6266C4.04116 48.4403 4.21319 48.3113 4.39955 48.3399C4.58592 48.3686 4.71494 48.5406 4.68627 48.727C4.61459 49.2144 4.71494 49.5728 5.00165 49.8308C5.57507 50.3612 6.72193 50.3756 7.36703 50.2466C7.55339 50.2036 7.72542 50.3326 7.76843 50.5189C7.81143 50.7053 7.68241 50.8773 7.49605 50.9203C7.26668 50.949 6.9513 50.992 6.60724 50.992Z" fill="#14100F"/>
<path d="M8.35615 54.6044C8.28447 54.6044 8.19846 54.6044 8.12678 54.6044C7.94041 54.6044 7.79706 54.4467 7.79706 54.246C7.79706 54.0597 7.95475 53.9163 8.15545 53.9163C12.1121 54.0453 14.2624 50.3467 14.2911 50.3037C14.3914 50.146 14.5921 50.0887 14.7498 50.1747C14.9075 50.2751 14.9649 50.4758 14.8789 50.6335C14.7642 50.8198 12.5565 54.6044 8.35615 54.6044Z" fill="#14100F"/>
<path d="M44.7543 40.8286C45.4425 40.2552 63.0036 42.6636 62.8316 43.3804C62.6595 44.0828 60.4375 51.8814 59.7637 52.5838C59.0756 53.2863 43.7222 51.8814 43.0484 51.5947L44.7543 40.8286Z" fill="white"/>
<path d="M44.7543 40.8288C45.2704 40.6854 59.5917 41.818 61.6417 42.5347C63.6917 43.2515 63.1469 43.1225 62.8315 44.6564C62.6595 45.5022 44.2382 43.5239 44.2382 43.5239L44.7543 40.8288Z" fill="#E68A63"/>
<path d="M43.8942 45.0859C43.8942 45.0859 61.5127 46.8205 61.656 47.437C61.7994 48.0534 60.9106 49.7737 60.9106 49.7737L43.7222 47.4943L43.8942 45.0859Z" fill="#E68A63"/>
<path d="M43.3925 49.4727C43.3925 49.4727 60.4519 51.3076 60.4519 51.7377C60.4519 52.1678 59.7637 53.5726 59.7637 53.5726C59.7637 53.5726 43.0484 52.0244 43.0484 51.881C43.0484 51.7377 43.3925 49.4727 43.3925 49.4727Z" fill="#E68A63"/>
<path d="M52.768 40.7859C53.7101 40.7859 54.4739 40.0221 54.4739 39.08C54.4739 38.1378 53.7101 37.374 52.768 37.374C51.8258 37.374 51.062 38.1378 51.062 39.08C51.062 40.0221 51.8258 40.7859 52.768 40.7859Z" fill="#2F2422"/>
<path d="M57.1976 40.7854C58.7019 40.7854 59.9214 39.566 59.9214 38.0617C59.9214 36.5574 58.7019 35.3379 57.1976 35.3379C55.6934 35.3379 54.4739 36.5574 54.4739 38.0617C54.4739 39.566 55.6934 40.7854 57.1976 40.7854Z" fill="#2F2422"/>
<path d="M62.4875 44.9572C62.4158 44.9572 62.3585 44.9429 62.2868 44.8999C62.2582 44.8855 61.3263 44.3408 56.8106 43.8534C55.4631 43.71 54.2302 43.538 53.026 43.366C50.0299 42.9502 47.4494 42.5918 44.439 42.8642C44.2526 42.8786 44.0806 42.7495 44.0662 42.5488C44.0519 42.3625 44.1953 42.1904 44.3816 42.1761C47.4638 41.9037 50.0872 42.2621 53.1264 42.6779C54.3162 42.8355 55.5347 43.0076 56.8823 43.1509C61.613 43.6527 62.5735 44.2404 62.6739 44.3121C62.8316 44.4125 62.8746 44.6275 62.7599 44.7852C62.7026 44.9142 62.6022 44.9572 62.4875 44.9572Z" fill="#2F2422"/>
<path d="M61.6417 47.7812C61.5844 47.7812 60.1938 47.7669 56.6242 46.8351C55.0473 46.4193 53.4417 46.362 51.5781 46.3046C49.3561 46.233 46.8473 46.1326 43.8225 45.3872C43.6361 45.3442 43.5215 45.1578 43.5788 44.9714C43.6218 44.7851 43.8082 44.6704 43.9945 44.7277C46.9477 45.4588 49.4277 45.5592 51.6068 45.6309C53.4274 45.6882 55.1477 45.7599 56.7963 46.19C60.2655 47.0931 61.6417 47.1074 61.6417 47.1074C61.8281 47.1074 61.9858 47.2651 61.9858 47.4515C61.9858 47.6379 61.8281 47.7812 61.6417 47.7812Z" fill="#2F2422"/>
<path d="M61.0826 49.5306C60.9823 49.5306 58.8176 49.4732 54.7463 48.6274C50.9186 47.8246 48.0372 47.5952 44.0805 47.7816C43.8942 47.7959 43.7365 47.6382 43.7222 47.4519C43.7078 47.2655 43.8655 47.1078 44.0519 47.0935C48.0659 46.9071 51.0047 47.1508 54.8896 47.9536C58.9036 48.7851 61.0683 48.8424 61.0969 48.8424C61.2833 48.8424 61.441 49.0001 61.4267 49.1865C61.4267 49.3872 61.269 49.5306 61.0826 49.5306Z" fill="#2F2422"/>
<path d="M59.2477 52.6698C58.3015 52.6698 56.6529 52.5838 53.9148 52.2111C52.5242 52.0247 51.5638 51.8813 50.7896 51.7523C48.7253 51.4369 47.9512 51.3079 43.3781 51.1932C43.1917 51.1932 43.0341 51.0355 43.0484 50.8492C43.0484 50.6628 43.2061 50.5051 43.3924 50.5195C48.0085 50.6485 48.797 50.7632 50.89 51.0929C51.6498 51.2076 52.6103 51.3653 54.0008 51.5516C58.9179 52.2111 60.2225 51.953 60.2368 51.9387C60.4232 51.8957 60.5952 52.0104 60.6382 52.1967C60.6812 52.3831 60.5665 52.5551 60.3802 52.5981C60.3802 52.5981 60.0791 52.6698 59.2477 52.6698Z" fill="#2F2422"/>
<path d="M63.1326 43.2659C63.9354 44.126 63.6057 45.0292 63.1326 46.4914C62.6596 47.9536 62.8316 48.4697 62.4875 50.5197C62.1435 52.5697 60.9536 53.0858 61.1256 53.7596C61.2977 54.4477 60.4375 54.2757 59.9358 53.5875C59.434 52.8994 60.6239 50.6918 60.7959 49.4876C60.968 48.2977 61.312 47.2655 61.6417 46.2477C61.9858 45.2299 62.4159 42.4918 63.1326 43.2659Z" fill="white"/>
<path d="M44.5823 39.8395C44.9837 38.75 53.6281 39.8395 57.5417 40.1262C61.4554 40.4129 64.8816 40.6996 64.7095 42.2479C64.5375 43.8104 63.5197 47.208 62.8316 46.3622C62.1435 45.5164 62.8316 42.8213 61.6417 43.108C60.4519 43.3947 59.4197 42.6779 57.7137 42.4056C56.0078 42.1188 55.6638 42.4056 51.7501 41.9755C47.8222 41.5454 44.0662 41.2587 44.5823 39.8395Z" fill="#F23D04"/>
<path d="M61.6417 64.1663C61.4697 62.8044 64.7095 61.2705 65.0536 61.2705C65.3976 61.2705 65.8994 61.6145 65.8994 61.6145C65.8994 61.6145 65.8994 60.9264 66.4154 60.4247C66.9315 59.9229 68.9815 58.5467 69.4833 58.7187C69.9994 58.8908 70.5011 58.8908 70.5011 58.7187C70.5011 58.5467 70.3291 57.7009 71.863 57.1848C72.8952 56.8408 73.741 56.167 74.257 56.167C74.7731 56.167 76.6511 57.5289 76.8231 57.8729C76.9951 58.217 76.9951 58.561 76.9951 58.561C76.9951 58.561 77.1672 58.389 78.185 59.0771C79.2028 59.7652 79.8909 60.7831 80.063 61.1271C80.235 61.4712 80.063 63.1771 80.063 63.1771C80.063 63.1771 70.6731 69.3128 70.5154 69.1551C70.3577 68.9974 70.1714 68.2949 69.3256 68.2949C68.4654 68.2949 67.9637 67.7789 67.4476 67.7789C66.9315 67.7789 65.9137 68.467 65.7417 68.467C65.5696 68.467 61.9857 66.0729 61.8137 65.9009C61.6417 65.7289 61.6417 64.1663 61.6417 64.1663Z" fill="#E07445"/>
<path d="M70.6875 69.1117C70.6732 69.1117 70.6588 69.1117 70.6588 69.1117C70.4725 69.0973 70.3291 68.9253 70.3578 68.7389L70.5155 67.119C70.4295 66.9327 70.1141 66.3879 69.3256 66.3879C68.8525 66.3879 68.4941 66.4166 68.2074 66.4309C67.7344 66.4739 67.419 66.4882 67.1323 66.3449C67.0176 66.3162 66.5445 66.4309 66.0858 66.6173V68.0938C66.0858 68.2802 65.9281 68.4379 65.7417 68.4379C65.5553 68.4379 65.3976 68.2802 65.3976 68.0938V66.1585L65.5983 66.0725C66.1001 65.8575 67.0032 65.5278 67.419 65.7428C67.5337 65.8001 67.7774 65.7858 68.1501 65.7571C68.4511 65.7285 68.8239 65.6998 69.3256 65.6998C70.4581 65.6998 71.0459 66.5169 71.1892 66.9613L71.2179 67.033L71.0459 68.8106C71.0029 68.9826 70.8595 69.1117 70.6875 69.1117Z" fill="#2F2422"/>
<path d="M70.8451 67.4062C70.7305 67.4062 70.6301 67.3488 70.5584 67.2485C70.4581 67.0908 70.5011 66.8758 70.6588 66.7754L79.8766 60.8118C80.0343 60.7114 80.2493 60.7545 80.3497 60.9121C80.45 61.0698 80.407 61.2849 80.2493 61.3852L71.0315 67.3632C70.9742 67.3775 70.9168 67.4062 70.8451 67.4062Z" fill="#2F2422"/>
<path d="M65.7273 66.7181C65.67 66.7181 65.5983 66.7038 65.541 66.6608L62.3011 64.6108C62.1434 64.5105 62.1004 64.2954 62.2008 64.1377C62.3011 63.98 62.5162 63.937 62.6738 64.0374L65.9137 66.0874C66.0714 66.1877 66.1144 66.4028 66.0141 66.5604C65.9567 66.6608 65.842 66.7181 65.7273 66.7181Z" fill="#2F2422"/>
<path d="M65.0536 65.8722C64.9819 65.8722 64.9246 65.8579 64.8672 65.8149C64.7095 65.7145 64.6665 65.4995 64.7669 65.3418C65.455 64.2953 67.2613 63.1484 67.9494 63.1484C68.5228 63.1484 70.8595 63.8365 71.4616 64.6537C71.5763 64.8114 71.5476 65.0121 71.3899 65.1268C71.2322 65.2414 71.0315 65.2128 70.9169 65.0551C70.5011 64.5103 68.4225 63.8222 67.9494 63.8222C67.591 63.8222 65.9711 64.7684 65.3403 65.7145C65.2686 65.8149 65.1683 65.8722 65.0536 65.8722Z" fill="#2F2422"/>
<path d="M68.8095 63.6504C68.6805 63.6504 68.5658 63.5788 68.5085 63.4641C68.4225 63.2921 68.4942 63.0914 68.6662 63.0053C68.6662 63.0053 68.8239 62.9193 68.8239 62.8046C68.8239 61.9445 70.8882 61.0987 71.777 60.7833C71.949 60.726 72.1497 60.812 72.2071 60.984C72.2644 61.156 72.1784 61.3567 72.0064 61.4141C70.1141 62.1022 69.555 62.69 69.4977 62.819C69.4833 63.249 69.1679 63.5214 68.9672 63.6218C68.9099 63.6361 68.8525 63.6504 68.8095 63.6504Z" fill="#2F2422"/>
<path d="M75.4613 62.9618C75.3896 62.9618 75.3322 62.9474 75.2749 62.9044C74.7588 62.5604 73.2679 61.3992 73.2106 61.3562L73.0815 61.2558V61.0838C73.0815 60.9404 73.1102 60.1806 73.612 59.9226C73.6693 59.8939 73.7983 59.7936 73.9273 59.6932C74.5008 59.2632 75.5473 58.4604 76.9378 58.188C77.1242 58.145 77.2962 58.274 77.3392 58.4604C77.3822 58.6467 77.2532 58.8188 77.0668 58.8618C75.834 59.1055 74.8592 59.8509 74.3431 60.238C74.1567 60.3813 74.0277 60.4817 73.913 60.539C73.8557 60.5677 73.7983 60.7397 73.7697 60.9261C74.1567 61.2271 75.2462 62.0729 75.6476 62.331C75.8053 62.4313 75.8483 62.6464 75.748 62.8041C75.6763 62.9188 75.5616 62.9618 75.4613 62.9618Z" fill="#2F2422"/>
<path d="M71.3612 60.238C71.3039 60.238 71.2609 60.2237 71.2036 60.195C70.3721 59.7793 69.942 58.7471 70.2574 58.0017C70.3291 57.8296 70.5298 57.7436 70.7018 57.8296C70.8738 57.9013 70.9599 58.102 70.8738 58.274C70.7161 58.6468 70.9455 59.3206 71.4903 59.5929C71.6623 59.6789 71.734 59.8796 71.648 60.0517C71.605 60.1664 71.4903 60.238 71.3612 60.238Z" fill="#2F2422"/>
<path d="M65.7274 68.7677C65.6557 68.7677 65.5983 68.7534 65.541 68.7104L61.3263 65.9006L61.2976 65.7572C61.1686 65.0118 60.9679 63.7072 61.1543 63.3202C61.2976 63.0335 62.5448 62.2307 64.8815 60.9548L64.9819 60.8975L65.0966 60.9118C65.1826 60.9261 67.3043 61.2989 68.2361 62.7754C68.3364 62.9331 68.2934 63.1482 68.1214 63.2485C67.9637 63.3489 67.7487 63.3058 67.6483 63.1338C66.9889 62.0873 65.5123 61.7003 65.0966 61.5999C63.6057 62.417 62.0144 63.3775 61.7564 63.6212C61.7134 63.8363 61.7994 64.7107 61.9427 65.4705L65.9137 68.1226C66.0714 68.223 66.1144 68.438 66.0141 68.5957C65.9567 68.7104 65.842 68.7677 65.7274 68.7677Z" fill="#2F2422"/>
</g>
<defs>
<clipPath id="clip0_2720_4593">
<rect width="86.9169" height="160" fill="white" transform="translate(0.0415039)"/>
</clipPath>
</defs>
</svg>
