<svg width="25" height="24" viewBox="0 0 25 24" fill="none" xmlns="http://www.w3.org/2000/svg">
<g clip-path="url(#clip0_2662_4056)">
<path d="M18.3831 12.1381C18.3831 11.7303 18.3501 11.3202 18.2795 10.9189H12.6201V13.2294H15.861C15.7265 13.9746 15.2944 14.6338 14.6616 15.0527V16.5519H16.5951C17.7305 15.5069 18.3831 13.9636 18.3831 12.1381Z" fill="#4285F4"/>
<path d="M12.6196 18.0007C14.2378 18.0007 15.6025 17.4693 16.5968 16.5522L14.6633 15.053C14.1253 15.419 13.4309 15.6262 12.6218 15.6262C11.0565 15.6262 9.72924 14.5702 9.25304 13.1504H7.25781V14.6959C8.27637 16.722 10.351 18.0007 12.6196 18.0007Z" fill="#34A853"/>
<path d="M9.25139 13.1503C9.00005 12.4052 9.00005 11.5983 9.25139 10.8531V9.30762H7.25837C6.40737 11.003 6.40737 13.0004 7.25837 14.6958L9.25139 13.1503Z" fill="#FBBC04"/>
<path d="M12.6196 8.37483C13.475 8.3616 14.3017 8.68348 14.9212 9.27433L16.6343 7.56131C15.5496 6.54275 14.1099 5.98277 12.6196 6.0004C10.351 6.0004 8.27637 7.27911 7.25781 9.3074L9.25083 10.8529C9.72483 9.43087 11.0542 8.37483 12.6196 8.37483Z" fill="#EA4335"/>
</g>
<rect x="1" y="0.5" width="23" height="23" rx="11.5" stroke="#EEEEEE"/>
<defs>
<clipPath id="clip0_2662_4056">
<rect width="12" height="12" fill="white" transform="translate(6.5 6)"/>
</clipPath>
</defs>
</svg>
