<svg width="25" height="24" viewBox="0 0 25 24" fill="none" xmlns="http://www.w3.org/2000/svg">
<rect x="0.5" width="24" height="24" rx="12" fill="#F9E000"/>
<g clip-path="url(#clip0_2662_4049)">
<path d="M12.3921 7.5C9.68856 7.5 7.5 9.23212 7.5 11.3739C7.5 12.7666 8.42458 13.9837 9.829 14.6625C9.72367 15.0488 9.45449 16.0436 9.40767 16.2659C9.33745 16.5351 9.5013 16.5234 9.61834 16.4532C9.70026 16.3947 10.9642 15.5403 11.5026 15.1775C11.7952 15.2243 12.0995 15.2477 12.4155 15.2477C15.119 15.2477 17.3075 13.5156 17.3075 11.3739C17.2958 9.23212 15.1073 7.5 12.3921 7.5Z" fill="#401C26"/>
</g>
<defs>
<clipPath id="clip0_2662_4049">
<rect width="9.79584" height="9" fill="white" transform="translate(7.5 7.5)"/>
</clipPath>
</defs>
</svg>
