<svg width="20" height="20" viewBox="0 0 20 20" fill="none" xmlns="http://www.w3.org/2000/svg">
<path d="M1.66699 7.49478C1.66699 4.73624 3.89744 2.5 6.66754 2.5H13.3331C16.0948 2.5 18.3337 4.74565 18.3337 7.49478V17.5H6.66754C3.90582 17.5 1.66699 15.2543 1.66699 12.5052V7.49478ZM16.667 15.8333V7.49478C16.667 5.66283 15.1711 4.16667 13.3331 4.16667H6.66754C4.82081 4.16667 3.33366 5.65382 3.33366 7.49478V12.5052C3.33366 14.3372 4.82959 15.8333 6.66754 15.8333H16.667ZM11.667 9.16667H13.3337V10.8333H11.667V9.16667ZM6.66699 9.16667H8.33366V10.8333H6.66699V9.16667Z" fill="#999999"/>
</svg>
