<svg width="96" height="72" viewBox="0 0 96 72" fill="none" xmlns="http://www.w3.org/2000/svg">
<circle cx="48" cy="36" r="35.5" fill="white" stroke="#EEEEEE"/>
<path d="M60 51H36V48C36 43.8579 39.3579 40.5 43.5 40.5H52.5C56.6421 40.5 60 43.8579 60 48V51ZM48 37.5C43.0294 37.5 39 33.4705 39 28.5C39 23.5294 43.0294 19.5 48 19.5C52.9706 19.5 57 23.5294 57 28.5C57 33.4705 52.9706 37.5 48 37.5Z" fill="#CCCCCC"/>
<g clip-path="url(#clip0_2662_4645)">
<circle cx="80" cy="56" r="16" fill="#212121"/>
<path fill-rule="evenodd" clip-rule="evenodd" d="M83.9248 54.3932C83.9248 54.8094 84.2581 55.1424 84.6748 55.1424C85.0914 55.1424 85.4331 54.8094 85.4331 54.3932C85.4331 53.977 85.0914 53.6357 84.6748 53.6357C84.2581 53.6357 83.9248 53.977 83.9248 54.3932ZM82.3081 59.421C81.7164 60.012 80.8998 60.3783 79.9998 60.3783C79.1248 60.3783 78.3081 60.037 77.6831 59.421C77.0664 58.7967 76.7248 57.9809 76.7248 57.1069C76.7164 56.2412 77.0581 55.4254 77.6748 54.8011C78.2998 54.1768 79.1248 53.8355 79.9998 53.8355C80.8748 53.8355 81.6998 54.1768 82.3164 54.7928C82.9331 55.4171 83.2748 56.2412 83.2748 57.1069C83.2664 58.0142 82.8998 58.83 82.3081 59.421ZM79.9997 55.0842C79.4581 55.0842 78.9497 55.2923 78.5581 55.6835C78.1747 56.0664 77.9664 56.5742 77.9747 57.0986V57.1069C77.9747 57.648 78.1831 58.1557 78.5664 58.5386C78.9497 58.9216 79.4581 59.1297 79.9997 59.1297C81.1164 59.1297 82.0164 58.2223 82.0248 57.1069C82.0248 56.5658 81.8164 56.0581 81.4331 55.6752C81.0498 55.2923 80.5414 55.0842 79.9997 55.0842Z" fill="white"/>
<path opacity="0.2" d="M84.5327 51.197L84.4493 51.0139C84.2243 50.5394 83.966 49.99 83.8077 49.6737C83.4243 48.9245 82.766 48.5083 81.9577 48.5H78.0327C77.2243 48.5083 76.5743 48.9245 76.191 49.6737C76.0243 50.0067 75.741 50.606 75.5077 51.0971L75.4577 51.197C75.4327 51.2636 75.366 51.2969 75.2993 51.2969C73.291 51.2969 71.666 52.9284 71.666 54.9262V59.8707C71.666 61.8685 73.291 63.5 75.2993 63.5H84.6993C86.6994 63.5 88.3327 61.8685 88.3327 59.8707V54.9262C88.3327 52.9284 86.6994 51.2969 84.6993 51.2969C84.6243 51.2969 84.566 51.2553 84.5327 51.197Z" fill="white"/>
</g>
<defs>
<clipPath id="clip0_2662_4645">
<rect width="32" height="32" fill="white" transform="translate(64 40)"/>
</clipPath>
</defs>
</svg>
