<svg width="20" height="20" viewBox="0 0 20 20" fill="none" xmlns="http://www.w3.org/2000/svg">
<g clip-path="url(#clip0_2662_4696)">
<path d="M9.99935 5.83366C7.69935 5.83366 5.83268 7.70033 5.83268 10.0003C5.83268 12.3003 7.69935 14.167 9.99935 14.167C12.2993 14.167 14.166 12.3003 14.166 10.0003C14.166 7.70033 12.2993 5.83366 9.99935 5.83366ZM9.99935 1.66699C5.39935 1.66699 1.66602 5.40033 1.66602 10.0003C1.66602 14.6003 5.39935 18.3337 9.99935 18.3337C14.5993 18.3337 18.3327 14.6003 18.3327 10.0003C18.3327 5.40033 14.5993 1.66699 9.99935 1.66699ZM9.99935 16.667C6.31602 16.667 3.33268 13.6837 3.33268 10.0003C3.33268 6.31699 6.31602 3.33366 9.99935 3.33366C13.6827 3.33366 16.666 6.31699 16.666 10.0003C16.666 13.6837 13.6827 16.667 9.99935 16.667Z" fill="#212121"/>
</g>
<defs>
<clipPath id="clip0_2662_4696">
<rect width="20" height="20" fill="white"/>
</clipPath>
</defs>
</svg>
