<svg width="36" height="36" viewBox="0 0 36 36" fill="none" xmlns="http://www.w3.org/2000/svg">
<path d="M27.0465 24.9252L33.4706 31.3493L31.3493 33.4706L24.9252 27.0465C22.6154 28.8945 19.686 30 16.5 30C9.048 30 3 23.952 3 16.5C3 9.048 9.048 3 16.5 3C23.952 3 30 9.048 30 16.5C30 19.686 28.8945 22.6154 27.0465 24.9252ZM24.0371 23.8122C25.8713 21.9219 27 19.3434 27 16.5C27 10.6988 22.3013 6 16.5 6C10.6988 6 6 10.6988 6 16.5C6 22.3013 10.6988 27 16.5 27C19.3434 27 21.9219 25.8713 23.8122 24.0371L24.0371 23.8122Z" fill="#212121"/>
</svg>
