<svg width="25" height="24" viewBox="0 0 25 24" fill="none" xmlns="http://www.w3.org/2000/svg">
<path d="M14.0759 17.2714L8.96576 14.484C8.33312 15.112 7.46187 15.5 6.5 15.5C4.567 15.5 3 13.933 3 12C3 10.067 4.567 8.5 6.5 8.5C7.46181 8.5 8.33301 8.88796 8.96564 9.51593L14.0759 6.72855C14.0262 6.49354 14 6.24983 14 6C14 4.067 15.567 2.5 17.5 2.5C19.433 2.5 21 4.067 21 6C21 7.933 19.433 9.5 17.5 9.5C16.5381 9.5 15.6669 9.11201 15.0343 8.48399L9.92404 11.2713C9.97382 11.5064 10 11.7501 10 12C10 12.2498 9.97383 12.4935 9.92408 12.7285L15.0343 15.516C15.667 14.888 16.5382 14.5 17.5 14.5C19.433 14.5 21 16.067 21 18C21 19.933 19.433 21.5 17.5 21.5C15.567 21.5 14 19.933 14 18C14 17.7502 14.0262 17.5064 14.0759 17.2714Z" fill="white"/>
</svg>
