<svg width="20" height="20" viewBox="0 0 20 20" fill="none" xmlns="http://www.w3.org/2000/svg">
<path d="M10.0003 18.3332C5.39795 18.3332 1.66699 14.6022 1.66699 9.99984C1.66699 5.39746 5.39795 1.6665 10.0003 1.6665C14.6027 1.6665 18.3337 5.39746 18.3337 9.99984C18.3337 14.6022 14.6027 18.3332 10.0003 18.3332ZM10.0003 16.6665C13.6822 16.6665 16.667 13.6818 16.667 9.99984C16.667 6.31794 13.6822 3.33317 10.0003 3.33317C6.31843 3.33317 3.33366 6.31794 3.33366 9.99984C3.33366 13.6818 6.31843 16.6665 10.0003 16.6665ZM10.8337 9.99984H14.167V11.6665H9.16699V5.83317H10.8337V9.99984Z" fill="#999999"/>
</svg>
