<svg width="64" height="64" viewBox="0 0 64 64" fill="none" xmlns="http://www.w3.org/2000/svg">
<circle cx="32" cy="32" r="32" fill="#212121"/>
<path d="M45.3209 43.5887H35.8304C34.9045 43.5887 34.1514 44.3538 34.1514 45.2944C34.1514 46.2368 34.9045 47 35.8304 47H45.3209C46.2468 47 46.9999 46.2368 46.9999 45.2944C46.9999 44.3538 46.2468 43.5887 45.3209 43.5887Z" fill="white"/>
<path d="M29.1817 23.5064L38.1748 30.7732C38.3917 30.947 38.4288 31.2659 38.2595 31.4881L27.5979 45.3803C26.9277 46.2385 25.94 46.724 24.8818 46.742L19.0616 46.8136C18.7512 46.8172 18.4796 46.6022 18.409 46.2941L17.0863 40.5429C16.857 39.4859 17.0863 38.393 17.7565 37.5509L28.4709 23.5924C28.6438 23.3685 28.963 23.329 29.1817 23.5064Z" fill="white"/>
<path opacity="0.2" d="M42.2009 26.4424L40.4672 28.6067C40.2926 28.827 39.9786 28.8629 39.7617 28.6873C37.6541 26.9817 32.2572 22.6047 30.7598 21.3918C30.5411 21.2127 30.5111 20.8937 30.6875 20.6716L32.3595 18.5951C33.8762 16.6422 36.5218 16.4631 38.6559 18.1651L41.1074 20.118C42.1127 20.9063 42.7829 21.9454 43.0122 23.0383C43.2768 24.2405 42.9946 25.4212 42.2009 26.4424Z" fill="white"/>
</svg>
