<svg width="16" height="16" viewBox="0 0 16 16" fill="none" xmlns="http://www.w3.org/2000/svg">
<path fill-rule="evenodd" clip-rule="evenodd" d="M3.52864 3.52858C3.78899 3.26823 4.2111 3.26823 4.47145 3.52858L8.00004 7.05717L11.5286 3.52858C11.789 3.26823 12.2111 3.26823 12.4714 3.52858C12.7318 3.78893 12.7318 4.21104 12.4714 4.47138L8.94285 7.99998L12.4714 11.5286C12.7318 11.7889 12.7318 12.211 12.4714 12.4714C12.2111 12.7317 11.789 12.7317 11.5286 12.4714L8.00004 8.94279L4.47145 12.4714C4.2111 12.7317 3.78899 12.7317 3.52864 12.4714C3.26829 12.211 3.26829 11.7889 3.52864 11.5286L7.05723 7.99998L3.52864 4.47138C3.26829 4.21103 3.26829 3.78892 3.52864 3.52858Z" fill="#999999"/>
</svg>
