<svg width="16" height="16" viewBox="0 0 16 16" fill="none" xmlns="http://www.w3.org/2000/svg">
<path fill-rule="evenodd" clip-rule="evenodd" d="M3.52827 3.52858C3.78862 3.26823 4.21073 3.26823 4.47108 3.52858L7.99967 7.05717L11.5283 3.52858C11.7886 3.26823 12.2107 3.26823 12.4711 3.52858C12.7314 3.78893 12.7314 4.21104 12.4711 4.47138L8.94248 7.99998L12.4711 11.5286C12.7314 11.7889 12.7314 12.211 12.4711 12.4714C12.2107 12.7317 11.7886 12.7317 11.5283 12.4714L7.99967 8.94279L4.47108 12.4714C4.21073 12.7317 3.78862 12.7317 3.52827 12.4714C3.26792 12.211 3.26792 11.7889 3.52827 11.5286L7.05687 7.99998L3.52827 4.47138C3.26792 4.21103 3.26792 3.78892 3.52827 3.52858Z" fill="white"/>
</svg>
